%TF.GenerationSoftware,KiCad,Pcbnew,(5.1.6)-1*%
%TF.CreationDate,2021-08-29T21:48:12-05:00*%
%TF.ProjectId,MicroBrushedESC,4d696372-6f42-4727-9573-686564455343,rev?*%
%TF.SameCoordinates,Original*%
%TF.FileFunction,Soldermask,Bot*%
%TF.FilePolarity,Negative*%
%FSLAX46Y46*%
G04 Gerber Fmt 4.6, Leading zero omitted, Abs format (unit mm)*
G04 Created by KiCad (PCBNEW (5.1.6)-1) date 2021-08-29 21:48:12*
%MOMM*%
%LPD*%
G01*
G04 APERTURE LIST*
%ADD10C,0.600000*%
%ADD11C,0.300020*%
%ADD12C,0.400000*%
%ADD13R,1.954500X2.386000*%
%ADD14O,1.400000X0.900000*%
%ADD15R,1.100000X1.100000*%
%ADD16O,0.900000X1.400000*%
%ADD17R,1.000000X0.900000*%
G04 APERTURE END LIST*
D10*
%TO.C,REF\u002A\u002A*%
X168200000Y-77000000D03*
X167500000Y-77000000D03*
X166800000Y-77000000D03*
X166100000Y-77000000D03*
X165400000Y-77000000D03*
%TD*%
%TO.C,REF\u002A\u002A*%
X140700000Y-77000000D03*
X140000000Y-77000000D03*
X139300000Y-77000000D03*
X138600000Y-77000000D03*
X137900000Y-77000000D03*
%TD*%
%TO.C,REF\u002A\u002A*%
X168200000Y-61500000D03*
X167500000Y-61500000D03*
X166800000Y-61500000D03*
X166100000Y-61500000D03*
X165400000Y-61500000D03*
%TD*%
%TO.C,REF\u002A\u002A*%
X157200000Y-78000000D03*
X156500000Y-78000000D03*
X155800000Y-78000000D03*
X155100000Y-78000000D03*
X154400000Y-78000000D03*
%TD*%
%TO.C,REF\u002A\u002A*%
X129700000Y-78000000D03*
X129000000Y-78000000D03*
X128300000Y-78000000D03*
X127600000Y-78000000D03*
X126900000Y-78000000D03*
%TD*%
%TO.C,REF\u002A\u002A*%
X157200000Y-62500000D03*
X156500000Y-62500000D03*
X155800000Y-62500000D03*
X155100000Y-62500000D03*
X154400000Y-62500000D03*
%TD*%
%TO.C,REF\u002A\u002A*%
X148500000Y-83800000D03*
X148500000Y-84500000D03*
X148500000Y-85200000D03*
X148500000Y-85900000D03*
X148500000Y-86600000D03*
%TD*%
%TO.C,REF\u002A\u002A*%
X148500000Y-68300000D03*
X148500000Y-69000000D03*
X148500000Y-69700000D03*
X148500000Y-70400000D03*
X148500000Y-71100000D03*
%TD*%
%TO.C,REF\u002A\u002A*%
X149500000Y-86600000D03*
X149500000Y-85900000D03*
X149500000Y-85200000D03*
X149500000Y-84500000D03*
X149500000Y-83800000D03*
%TD*%
%TO.C,REF\u002A\u002A*%
X149500000Y-71100000D03*
X149500000Y-70400000D03*
X149500000Y-69700000D03*
X149500000Y-69000000D03*
X149500000Y-68300000D03*
%TD*%
%TO.C,REF\u002A\u002A*%
X165400000Y-78000000D03*
X166100000Y-78000000D03*
X166800000Y-78000000D03*
X167500000Y-78000000D03*
X168200000Y-78000000D03*
%TD*%
%TO.C,REF\u002A\u002A*%
X137900000Y-78000000D03*
X138600000Y-78000000D03*
X139300000Y-78000000D03*
X140000000Y-78000000D03*
X140700000Y-78000000D03*
%TD*%
%TO.C,REF\u002A\u002A*%
X165400000Y-62500000D03*
X166100000Y-62500000D03*
X166800000Y-62500000D03*
X167500000Y-62500000D03*
X168200000Y-62500000D03*
%TD*%
%TO.C,REF\u002A\u002A*%
X154400000Y-77000000D03*
X155100000Y-77000000D03*
X155800000Y-77000000D03*
X156500000Y-77000000D03*
X157200000Y-77000000D03*
%TD*%
%TO.C,REF\u002A\u002A*%
X126900000Y-77000000D03*
X127600000Y-77000000D03*
X128300000Y-77000000D03*
X129000000Y-77000000D03*
X129700000Y-77000000D03*
%TD*%
%TO.C,REF\u002A\u002A*%
X154400000Y-61500000D03*
X155100000Y-61500000D03*
X155800000Y-61500000D03*
X156500000Y-61500000D03*
X157200000Y-61500000D03*
%TD*%
D11*
%TO.C,U2*%
X155960000Y-79950000D03*
X156960000Y-81450000D03*
X156960000Y-79950000D03*
D12*
X155960000Y-81450000D03*
%TD*%
D11*
%TO.C,U2*%
X128460000Y-79950000D03*
X129460000Y-81450000D03*
X129460000Y-79950000D03*
D12*
X128460000Y-81450000D03*
%TD*%
D11*
%TO.C,U2*%
X155960000Y-64450000D03*
X156960000Y-65950000D03*
X156960000Y-64450000D03*
D12*
X155960000Y-65950000D03*
%TD*%
D11*
%TO.C,U2*%
X128460000Y-64450000D03*
X129460000Y-65950000D03*
X129460000Y-64450000D03*
D12*
X128460000Y-65950000D03*
%TD*%
D11*
%TO.C,U2*%
X155960000Y-48950000D03*
X156960000Y-50450000D03*
X156960000Y-48950000D03*
D12*
X155960000Y-50450000D03*
%TD*%
D13*
%TO.C,L1*%
X158350000Y-80650000D03*
X154565500Y-80650000D03*
%TD*%
%TO.C,L1*%
X130850000Y-80650000D03*
X127065500Y-80650000D03*
%TD*%
%TO.C,L1*%
X158350000Y-65150000D03*
X154565500Y-65150000D03*
%TD*%
%TO.C,L1*%
X130850000Y-65150000D03*
X127065500Y-65150000D03*
%TD*%
%TO.C,L1*%
X158350000Y-49650000D03*
X154565500Y-49650000D03*
%TD*%
%TO.C,C7*%
G36*
G01*
X155806133Y-87537500D02*
X153893867Y-87537500D01*
G75*
G02*
X153625000Y-87268633I0J268867D01*
G01*
X153625000Y-86381367D01*
G75*
G02*
X153893867Y-86112500I268867J0D01*
G01*
X155806133Y-86112500D01*
G75*
G02*
X156075000Y-86381367I0J-268867D01*
G01*
X156075000Y-87268633D01*
G75*
G02*
X155806133Y-87537500I-268867J0D01*
G01*
G37*
G36*
G01*
X155806133Y-84462500D02*
X153893867Y-84462500D01*
G75*
G02*
X153625000Y-84193633I0J268867D01*
G01*
X153625000Y-83306367D01*
G75*
G02*
X153893867Y-83037500I268867J0D01*
G01*
X155806133Y-83037500D01*
G75*
G02*
X156075000Y-83306367I0J-268867D01*
G01*
X156075000Y-84193633D01*
G75*
G02*
X155806133Y-84462500I-268867J0D01*
G01*
G37*
%TD*%
%TO.C,C7*%
G36*
G01*
X128306133Y-87537500D02*
X126393867Y-87537500D01*
G75*
G02*
X126125000Y-87268633I0J268867D01*
G01*
X126125000Y-86381367D01*
G75*
G02*
X126393867Y-86112500I268867J0D01*
G01*
X128306133Y-86112500D01*
G75*
G02*
X128575000Y-86381367I0J-268867D01*
G01*
X128575000Y-87268633D01*
G75*
G02*
X128306133Y-87537500I-268867J0D01*
G01*
G37*
G36*
G01*
X128306133Y-84462500D02*
X126393867Y-84462500D01*
G75*
G02*
X126125000Y-84193633I0J268867D01*
G01*
X126125000Y-83306367D01*
G75*
G02*
X126393867Y-83037500I268867J0D01*
G01*
X128306133Y-83037500D01*
G75*
G02*
X128575000Y-83306367I0J-268867D01*
G01*
X128575000Y-84193633D01*
G75*
G02*
X128306133Y-84462500I-268867J0D01*
G01*
G37*
%TD*%
%TO.C,C7*%
G36*
G01*
X155806133Y-72037500D02*
X153893867Y-72037500D01*
G75*
G02*
X153625000Y-71768633I0J268867D01*
G01*
X153625000Y-70881367D01*
G75*
G02*
X153893867Y-70612500I268867J0D01*
G01*
X155806133Y-70612500D01*
G75*
G02*
X156075000Y-70881367I0J-268867D01*
G01*
X156075000Y-71768633D01*
G75*
G02*
X155806133Y-72037500I-268867J0D01*
G01*
G37*
G36*
G01*
X155806133Y-68962500D02*
X153893867Y-68962500D01*
G75*
G02*
X153625000Y-68693633I0J268867D01*
G01*
X153625000Y-67806367D01*
G75*
G02*
X153893867Y-67537500I268867J0D01*
G01*
X155806133Y-67537500D01*
G75*
G02*
X156075000Y-67806367I0J-268867D01*
G01*
X156075000Y-68693633D01*
G75*
G02*
X155806133Y-68962500I-268867J0D01*
G01*
G37*
%TD*%
%TO.C,C7*%
G36*
G01*
X128306133Y-72037500D02*
X126393867Y-72037500D01*
G75*
G02*
X126125000Y-71768633I0J268867D01*
G01*
X126125000Y-70881367D01*
G75*
G02*
X126393867Y-70612500I268867J0D01*
G01*
X128306133Y-70612500D01*
G75*
G02*
X128575000Y-70881367I0J-268867D01*
G01*
X128575000Y-71768633D01*
G75*
G02*
X128306133Y-72037500I-268867J0D01*
G01*
G37*
G36*
G01*
X128306133Y-68962500D02*
X126393867Y-68962500D01*
G75*
G02*
X126125000Y-68693633I0J268867D01*
G01*
X126125000Y-67806367D01*
G75*
G02*
X126393867Y-67537500I268867J0D01*
G01*
X128306133Y-67537500D01*
G75*
G02*
X128575000Y-67806367I0J-268867D01*
G01*
X128575000Y-68693633D01*
G75*
G02*
X128306133Y-68962500I-268867J0D01*
G01*
G37*
%TD*%
%TO.C,C7*%
G36*
G01*
X155806133Y-56537500D02*
X153893867Y-56537500D01*
G75*
G02*
X153625000Y-56268633I0J268867D01*
G01*
X153625000Y-55381367D01*
G75*
G02*
X153893867Y-55112500I268867J0D01*
G01*
X155806133Y-55112500D01*
G75*
G02*
X156075000Y-55381367I0J-268867D01*
G01*
X156075000Y-56268633D01*
G75*
G02*
X155806133Y-56537500I-268867J0D01*
G01*
G37*
G36*
G01*
X155806133Y-53462500D02*
X153893867Y-53462500D01*
G75*
G02*
X153625000Y-53193633I0J268867D01*
G01*
X153625000Y-52306367D01*
G75*
G02*
X153893867Y-52037500I268867J0D01*
G01*
X155806133Y-52037500D01*
G75*
G02*
X156075000Y-52306367I0J-268867D01*
G01*
X156075000Y-53193633D01*
G75*
G02*
X155806133Y-53462500I-268867J0D01*
G01*
G37*
%TD*%
%TO.C,J1*%
G36*
G01*
X174475000Y-91200000D02*
X173525000Y-91200000D01*
G75*
G02*
X173300000Y-90975000I0J225000D01*
G01*
X173300000Y-90525000D01*
G75*
G02*
X173525000Y-90300000I225000J0D01*
G01*
X174475000Y-90300000D01*
G75*
G02*
X174700000Y-90525000I0J-225000D01*
G01*
X174700000Y-90975000D01*
G75*
G02*
X174475000Y-91200000I-225000J0D01*
G01*
G37*
D14*
X174000000Y-89500000D03*
%TD*%
%TO.C,J1*%
G36*
G01*
X146975000Y-91200000D02*
X146025000Y-91200000D01*
G75*
G02*
X145800000Y-90975000I0J225000D01*
G01*
X145800000Y-90525000D01*
G75*
G02*
X146025000Y-90300000I225000J0D01*
G01*
X146975000Y-90300000D01*
G75*
G02*
X147200000Y-90525000I0J-225000D01*
G01*
X147200000Y-90975000D01*
G75*
G02*
X146975000Y-91200000I-225000J0D01*
G01*
G37*
X146500000Y-89500000D03*
%TD*%
%TO.C,J1*%
G36*
G01*
X174475000Y-75700000D02*
X173525000Y-75700000D01*
G75*
G02*
X173300000Y-75475000I0J225000D01*
G01*
X173300000Y-75025000D01*
G75*
G02*
X173525000Y-74800000I225000J0D01*
G01*
X174475000Y-74800000D01*
G75*
G02*
X174700000Y-75025000I0J-225000D01*
G01*
X174700000Y-75475000D01*
G75*
G02*
X174475000Y-75700000I-225000J0D01*
G01*
G37*
X174000000Y-74000000D03*
%TD*%
%TO.C,J1*%
G36*
G01*
X146975000Y-75700000D02*
X146025000Y-75700000D01*
G75*
G02*
X145800000Y-75475000I0J225000D01*
G01*
X145800000Y-75025000D01*
G75*
G02*
X146025000Y-74800000I225000J0D01*
G01*
X146975000Y-74800000D01*
G75*
G02*
X147200000Y-75025000I0J-225000D01*
G01*
X147200000Y-75475000D01*
G75*
G02*
X146975000Y-75700000I-225000J0D01*
G01*
G37*
X146500000Y-74000000D03*
%TD*%
%TO.C,J1*%
G36*
G01*
X174475000Y-60200000D02*
X173525000Y-60200000D01*
G75*
G02*
X173300000Y-59975000I0J225000D01*
G01*
X173300000Y-59525000D01*
G75*
G02*
X173525000Y-59300000I225000J0D01*
G01*
X174475000Y-59300000D01*
G75*
G02*
X174700000Y-59525000I0J-225000D01*
G01*
X174700000Y-59975000D01*
G75*
G02*
X174475000Y-60200000I-225000J0D01*
G01*
G37*
X174000000Y-58500000D03*
%TD*%
%TO.C,J2*%
G36*
G01*
X174475000Y-81700000D02*
X173525000Y-81700000D01*
G75*
G02*
X173300000Y-81475000I0J225000D01*
G01*
X173300000Y-81025000D01*
G75*
G02*
X173525000Y-80800000I225000J0D01*
G01*
X174475000Y-80800000D01*
G75*
G02*
X174700000Y-81025000I0J-225000D01*
G01*
X174700000Y-81475000D01*
G75*
G02*
X174475000Y-81700000I-225000J0D01*
G01*
G37*
X174000000Y-80000000D03*
%TD*%
%TO.C,J2*%
G36*
G01*
X146975000Y-81700000D02*
X146025000Y-81700000D01*
G75*
G02*
X145800000Y-81475000I0J225000D01*
G01*
X145800000Y-81025000D01*
G75*
G02*
X146025000Y-80800000I225000J0D01*
G01*
X146975000Y-80800000D01*
G75*
G02*
X147200000Y-81025000I0J-225000D01*
G01*
X147200000Y-81475000D01*
G75*
G02*
X146975000Y-81700000I-225000J0D01*
G01*
G37*
X146500000Y-80000000D03*
%TD*%
%TO.C,J2*%
G36*
G01*
X174475000Y-66200000D02*
X173525000Y-66200000D01*
G75*
G02*
X173300000Y-65975000I0J225000D01*
G01*
X173300000Y-65525000D01*
G75*
G02*
X173525000Y-65300000I225000J0D01*
G01*
X174475000Y-65300000D01*
G75*
G02*
X174700000Y-65525000I0J-225000D01*
G01*
X174700000Y-65975000D01*
G75*
G02*
X174475000Y-66200000I-225000J0D01*
G01*
G37*
X174000000Y-64500000D03*
%TD*%
%TO.C,J2*%
G36*
G01*
X146975000Y-66200000D02*
X146025000Y-66200000D01*
G75*
G02*
X145800000Y-65975000I0J225000D01*
G01*
X145800000Y-65525000D01*
G75*
G02*
X146025000Y-65300000I225000J0D01*
G01*
X146975000Y-65300000D01*
G75*
G02*
X147200000Y-65525000I0J-225000D01*
G01*
X147200000Y-65975000D01*
G75*
G02*
X146975000Y-66200000I-225000J0D01*
G01*
G37*
X146500000Y-64500000D03*
%TD*%
%TO.C,J2*%
G36*
G01*
X174475000Y-50700000D02*
X173525000Y-50700000D01*
G75*
G02*
X173300000Y-50475000I0J225000D01*
G01*
X173300000Y-50025000D01*
G75*
G02*
X173525000Y-49800000I225000J0D01*
G01*
X174475000Y-49800000D01*
G75*
G02*
X174700000Y-50025000I0J-225000D01*
G01*
X174700000Y-50475000D01*
G75*
G02*
X174475000Y-50700000I-225000J0D01*
G01*
G37*
X174000000Y-49000000D03*
%TD*%
D15*
%TO.C,J4*%
X151000000Y-91000000D03*
%TD*%
%TO.C,J4*%
X123500000Y-91000000D03*
%TD*%
%TO.C,J4*%
X151000000Y-75500000D03*
%TD*%
%TO.C,J4*%
X123500000Y-75500000D03*
%TD*%
%TO.C,J4*%
X151000000Y-60000000D03*
%TD*%
%TO.C,J5*%
G36*
G01*
X159050000Y-91475000D02*
X159050000Y-90525000D01*
G75*
G02*
X159275000Y-90300000I225000J0D01*
G01*
X159725000Y-90300000D01*
G75*
G02*
X159950000Y-90525000I0J-225000D01*
G01*
X159950000Y-91475000D01*
G75*
G02*
X159725000Y-91700000I-225000J0D01*
G01*
X159275000Y-91700000D01*
G75*
G02*
X159050000Y-91475000I0J225000D01*
G01*
G37*
D16*
X160750000Y-91000000D03*
X162000000Y-91000000D03*
X163250000Y-91000000D03*
%TD*%
%TO.C,J5*%
G36*
G01*
X131550000Y-91475000D02*
X131550000Y-90525000D01*
G75*
G02*
X131775000Y-90300000I225000J0D01*
G01*
X132225000Y-90300000D01*
G75*
G02*
X132450000Y-90525000I0J-225000D01*
G01*
X132450000Y-91475000D01*
G75*
G02*
X132225000Y-91700000I-225000J0D01*
G01*
X131775000Y-91700000D01*
G75*
G02*
X131550000Y-91475000I0J225000D01*
G01*
G37*
X133250000Y-91000000D03*
X134500000Y-91000000D03*
X135750000Y-91000000D03*
%TD*%
%TO.C,J5*%
G36*
G01*
X159050000Y-75975000D02*
X159050000Y-75025000D01*
G75*
G02*
X159275000Y-74800000I225000J0D01*
G01*
X159725000Y-74800000D01*
G75*
G02*
X159950000Y-75025000I0J-225000D01*
G01*
X159950000Y-75975000D01*
G75*
G02*
X159725000Y-76200000I-225000J0D01*
G01*
X159275000Y-76200000D01*
G75*
G02*
X159050000Y-75975000I0J225000D01*
G01*
G37*
X160750000Y-75500000D03*
X162000000Y-75500000D03*
X163250000Y-75500000D03*
%TD*%
%TO.C,J5*%
G36*
G01*
X131550000Y-75975000D02*
X131550000Y-75025000D01*
G75*
G02*
X131775000Y-74800000I225000J0D01*
G01*
X132225000Y-74800000D01*
G75*
G02*
X132450000Y-75025000I0J-225000D01*
G01*
X132450000Y-75975000D01*
G75*
G02*
X132225000Y-76200000I-225000J0D01*
G01*
X131775000Y-76200000D01*
G75*
G02*
X131550000Y-75975000I0J225000D01*
G01*
G37*
X133250000Y-75500000D03*
X134500000Y-75500000D03*
X135750000Y-75500000D03*
%TD*%
%TO.C,J5*%
G36*
G01*
X159050000Y-60475000D02*
X159050000Y-59525000D01*
G75*
G02*
X159275000Y-59300000I225000J0D01*
G01*
X159725000Y-59300000D01*
G75*
G02*
X159950000Y-59525000I0J-225000D01*
G01*
X159950000Y-60475000D01*
G75*
G02*
X159725000Y-60700000I-225000J0D01*
G01*
X159275000Y-60700000D01*
G75*
G02*
X159050000Y-60475000I0J225000D01*
G01*
G37*
X160750000Y-60000000D03*
X162000000Y-60000000D03*
X163250000Y-60000000D03*
%TD*%
D17*
%TO.C,Q2*%
X170000000Y-81950000D03*
X170000000Y-80050000D03*
X172000000Y-81000000D03*
%TD*%
%TO.C,Q2*%
X142500000Y-81950000D03*
X142500000Y-80050000D03*
X144500000Y-81000000D03*
%TD*%
%TO.C,Q2*%
X170000000Y-66450000D03*
X170000000Y-64550000D03*
X172000000Y-65500000D03*
%TD*%
%TO.C,Q2*%
X142500000Y-66450000D03*
X142500000Y-64550000D03*
X144500000Y-65500000D03*
%TD*%
%TO.C,Q2*%
X170000000Y-50950000D03*
X170000000Y-49050000D03*
X172000000Y-50000000D03*
%TD*%
%TO.C,Q1*%
X170000000Y-91300000D03*
X170000000Y-89400000D03*
X172000000Y-90350000D03*
%TD*%
%TO.C,Q1*%
X142500000Y-91300000D03*
X142500000Y-89400000D03*
X144500000Y-90350000D03*
%TD*%
%TO.C,Q1*%
X170000000Y-75800000D03*
X170000000Y-73900000D03*
X172000000Y-74850000D03*
%TD*%
%TO.C,Q1*%
X142500000Y-75800000D03*
X142500000Y-73900000D03*
X144500000Y-74850000D03*
%TD*%
%TO.C,Q1*%
X170000000Y-60300000D03*
X170000000Y-58400000D03*
X172000000Y-59350000D03*
%TD*%
%TO.C,J3*%
G36*
G01*
X151025000Y-83100000D02*
X151975000Y-83100000D01*
G75*
G02*
X152200000Y-83325000I0J-225000D01*
G01*
X152200000Y-83775000D01*
G75*
G02*
X151975000Y-84000000I-225000J0D01*
G01*
X151025000Y-84000000D01*
G75*
G02*
X150800000Y-83775000I0J225000D01*
G01*
X150800000Y-83325000D01*
G75*
G02*
X151025000Y-83100000I225000J0D01*
G01*
G37*
D14*
X151500000Y-84800000D03*
X151500000Y-86050000D03*
X151500000Y-87300000D03*
%TD*%
%TO.C,J3*%
G36*
G01*
X123525000Y-83100000D02*
X124475000Y-83100000D01*
G75*
G02*
X124700000Y-83325000I0J-225000D01*
G01*
X124700000Y-83775000D01*
G75*
G02*
X124475000Y-84000000I-225000J0D01*
G01*
X123525000Y-84000000D01*
G75*
G02*
X123300000Y-83775000I0J225000D01*
G01*
X123300000Y-83325000D01*
G75*
G02*
X123525000Y-83100000I225000J0D01*
G01*
G37*
X124000000Y-84800000D03*
X124000000Y-86050000D03*
X124000000Y-87300000D03*
%TD*%
%TO.C,J3*%
G36*
G01*
X151025000Y-67600000D02*
X151975000Y-67600000D01*
G75*
G02*
X152200000Y-67825000I0J-225000D01*
G01*
X152200000Y-68275000D01*
G75*
G02*
X151975000Y-68500000I-225000J0D01*
G01*
X151025000Y-68500000D01*
G75*
G02*
X150800000Y-68275000I0J225000D01*
G01*
X150800000Y-67825000D01*
G75*
G02*
X151025000Y-67600000I225000J0D01*
G01*
G37*
X151500000Y-69300000D03*
X151500000Y-70550000D03*
X151500000Y-71800000D03*
%TD*%
%TO.C,J3*%
G36*
G01*
X123525000Y-67600000D02*
X124475000Y-67600000D01*
G75*
G02*
X124700000Y-67825000I0J-225000D01*
G01*
X124700000Y-68275000D01*
G75*
G02*
X124475000Y-68500000I-225000J0D01*
G01*
X123525000Y-68500000D01*
G75*
G02*
X123300000Y-68275000I0J225000D01*
G01*
X123300000Y-67825000D01*
G75*
G02*
X123525000Y-67600000I225000J0D01*
G01*
G37*
X124000000Y-69300000D03*
X124000000Y-70550000D03*
X124000000Y-71800000D03*
%TD*%
%TO.C,J3*%
G36*
G01*
X151025000Y-52100000D02*
X151975000Y-52100000D01*
G75*
G02*
X152200000Y-52325000I0J-225000D01*
G01*
X152200000Y-52775000D01*
G75*
G02*
X151975000Y-53000000I-225000J0D01*
G01*
X151025000Y-53000000D01*
G75*
G02*
X150800000Y-52775000I0J225000D01*
G01*
X150800000Y-52325000D01*
G75*
G02*
X151025000Y-52100000I225000J0D01*
G01*
G37*
X151500000Y-53800000D03*
X151500000Y-55050000D03*
X151500000Y-56300000D03*
%TD*%
D15*
%TO.C,J6*%
X151000000Y-79500000D03*
%TD*%
%TO.C,J6*%
X123500000Y-79500000D03*
%TD*%
%TO.C,J6*%
X151000000Y-64000000D03*
%TD*%
%TO.C,J6*%
X123500000Y-64000000D03*
%TD*%
%TO.C,J6*%
X151000000Y-48500000D03*
%TD*%
D10*
%TO.C,REF\u002A\u002A*%
X140700000Y-62500000D03*
X140000000Y-62500000D03*
X139300000Y-62500000D03*
X138600000Y-62500000D03*
X137900000Y-62500000D03*
%TD*%
%TO.C,REF\u002A\u002A*%
X126900000Y-62500000D03*
X127600000Y-62500000D03*
X128300000Y-62500000D03*
X129000000Y-62500000D03*
X129700000Y-62500000D03*
%TD*%
%TO.C,REF\u002A\u002A*%
X149500000Y-52800000D03*
X149500000Y-53500000D03*
X149500000Y-54200000D03*
X149500000Y-54900000D03*
X149500000Y-55600000D03*
%TD*%
%TO.C,REF\u002A\u002A*%
X148500000Y-55600000D03*
X148500000Y-54900000D03*
X148500000Y-54200000D03*
X148500000Y-53500000D03*
X148500000Y-52800000D03*
%TD*%
%TO.C,REF\u002A\u002A*%
X137900000Y-61500000D03*
X138600000Y-61500000D03*
X139300000Y-61500000D03*
X140000000Y-61500000D03*
X140700000Y-61500000D03*
%TD*%
%TO.C,REF\u002A\u002A*%
X129700000Y-61500000D03*
X129000000Y-61500000D03*
X128300000Y-61500000D03*
X127600000Y-61500000D03*
X126900000Y-61500000D03*
%TD*%
D12*
%TO.C,U2*%
X128460000Y-50450000D03*
D11*
X129460000Y-48950000D03*
X129460000Y-50450000D03*
X128460000Y-48950000D03*
%TD*%
D13*
%TO.C,L1*%
X127065500Y-49650000D03*
X130850000Y-49650000D03*
%TD*%
D17*
%TO.C,Q2*%
X144500000Y-50000000D03*
X142500000Y-49050000D03*
X142500000Y-50950000D03*
%TD*%
%TO.C,Q1*%
X144500000Y-59350000D03*
X142500000Y-58400000D03*
X142500000Y-60300000D03*
%TD*%
D15*
%TO.C,J6*%
X123500000Y-48500000D03*
%TD*%
D16*
%TO.C,J5*%
X135750000Y-60000000D03*
X134500000Y-60000000D03*
X133250000Y-60000000D03*
G36*
G01*
X131550000Y-60475000D02*
X131550000Y-59525000D01*
G75*
G02*
X131775000Y-59300000I225000J0D01*
G01*
X132225000Y-59300000D01*
G75*
G02*
X132450000Y-59525000I0J-225000D01*
G01*
X132450000Y-60475000D01*
G75*
G02*
X132225000Y-60700000I-225000J0D01*
G01*
X131775000Y-60700000D01*
G75*
G02*
X131550000Y-60475000I0J225000D01*
G01*
G37*
%TD*%
D15*
%TO.C,J4*%
X123500000Y-60000000D03*
%TD*%
D14*
%TO.C,J3*%
X124000000Y-56300000D03*
X124000000Y-55050000D03*
X124000000Y-53800000D03*
G36*
G01*
X123525000Y-52100000D02*
X124475000Y-52100000D01*
G75*
G02*
X124700000Y-52325000I0J-225000D01*
G01*
X124700000Y-52775000D01*
G75*
G02*
X124475000Y-53000000I-225000J0D01*
G01*
X123525000Y-53000000D01*
G75*
G02*
X123300000Y-52775000I0J225000D01*
G01*
X123300000Y-52325000D01*
G75*
G02*
X123525000Y-52100000I225000J0D01*
G01*
G37*
%TD*%
%TO.C,J2*%
X146500000Y-49000000D03*
G36*
G01*
X146975000Y-50700000D02*
X146025000Y-50700000D01*
G75*
G02*
X145800000Y-50475000I0J225000D01*
G01*
X145800000Y-50025000D01*
G75*
G02*
X146025000Y-49800000I225000J0D01*
G01*
X146975000Y-49800000D01*
G75*
G02*
X147200000Y-50025000I0J-225000D01*
G01*
X147200000Y-50475000D01*
G75*
G02*
X146975000Y-50700000I-225000J0D01*
G01*
G37*
%TD*%
%TO.C,J1*%
X146500000Y-58500000D03*
G36*
G01*
X146975000Y-60200000D02*
X146025000Y-60200000D01*
G75*
G02*
X145800000Y-59975000I0J225000D01*
G01*
X145800000Y-59525000D01*
G75*
G02*
X146025000Y-59300000I225000J0D01*
G01*
X146975000Y-59300000D01*
G75*
G02*
X147200000Y-59525000I0J-225000D01*
G01*
X147200000Y-59975000D01*
G75*
G02*
X146975000Y-60200000I-225000J0D01*
G01*
G37*
%TD*%
%TO.C,C7*%
G36*
G01*
X128306133Y-53462500D02*
X126393867Y-53462500D01*
G75*
G02*
X126125000Y-53193633I0J268867D01*
G01*
X126125000Y-52306367D01*
G75*
G02*
X126393867Y-52037500I268867J0D01*
G01*
X128306133Y-52037500D01*
G75*
G02*
X128575000Y-52306367I0J-268867D01*
G01*
X128575000Y-53193633D01*
G75*
G02*
X128306133Y-53462500I-268867J0D01*
G01*
G37*
G36*
G01*
X128306133Y-56537500D02*
X126393867Y-56537500D01*
G75*
G02*
X126125000Y-56268633I0J268867D01*
G01*
X126125000Y-55381367D01*
G75*
G02*
X126393867Y-55112500I268867J0D01*
G01*
X128306133Y-55112500D01*
G75*
G02*
X128575000Y-55381367I0J-268867D01*
G01*
X128575000Y-56268633D01*
G75*
G02*
X128306133Y-56537500I-268867J0D01*
G01*
G37*
%TD*%
M02*
