M48
; DRILL file {KiCad (5.1.6)-1} date 08/29/21 21:48:08
; FORMAT={3:3/ absolute / metric / suppress leading zeros}
; #@! TF.CreationDate,2021-08-29T21:48:08-05:00
; #@! TF.GenerationSoftware,Kicad,Pcbnew,(5.1.6)-1
FMAT,2
METRIC,TZ
T1C0.300
T2C0.400
T3C0.500
T4C0.650
T5C0.500
%
G90
G05
T1
X125500Y-58000
X125500Y-59500
X125500Y-73500
X125500Y-75000
X125500Y-89000
X125500Y-90500
X127500Y-57000
X127500Y-72500
X127500Y-88000
X128500Y-57000
X128500Y-72500
X128500Y-88000
X130500Y-59500
X130500Y-75000
X130500Y-90500
X131000Y-53500
X131000Y-69000
X131000Y-84500
X131400Y-50600
X131400Y-66100
X131400Y-81600
X134000Y-53500
X134000Y-56500
X134000Y-69000
X134000Y-72000
X134000Y-84500
X134000Y-87500
X135000Y-58500
X135000Y-74000
X135000Y-89500
X137000Y-54000
X137000Y-56000
X137000Y-69500
X137000Y-71500
X137000Y-85000
X137000Y-87000
X141000Y-56500
X141000Y-72000
X141000Y-87500
X141500Y-48250
X141500Y-52000
X141500Y-63750
X141500Y-67500
X141500Y-79250
X141500Y-83000
X144000Y-58000
X144000Y-73500
X144000Y-89000
X144500Y-48500
X144500Y-64000
X144500Y-79500
X153000Y-58000
X153000Y-59500
X153000Y-73500
X153000Y-75000
X153000Y-89000
X153000Y-90500
X155000Y-57000
X155000Y-72500
X155000Y-88000
X156000Y-57000
X156000Y-72500
X156000Y-88000
X158000Y-59500
X158000Y-75000
X158000Y-90500
X158500Y-53500
X158500Y-69000
X158500Y-84500
X158900Y-50600
X158900Y-66100
X158900Y-81600
X161500Y-53500
X161500Y-56500
X161500Y-69000
X161500Y-72000
X161500Y-84500
X161500Y-87500
X162500Y-58500
X162500Y-74000
X162500Y-89500
X164500Y-54000
X164500Y-56000
X164500Y-69500
X164500Y-71500
X164500Y-85000
X164500Y-87000
X168500Y-56500
X168500Y-72000
X168500Y-87500
X169000Y-48250
X169000Y-52000
X169000Y-63750
X169000Y-67500
X169000Y-79250
X169000Y-83000
X171500Y-58000
X171500Y-73500
X171500Y-89000
X172000Y-48500
X172000Y-64000
X172000Y-79500
X128460Y-64450
X128460Y-65950
X128960Y-65200
X129460Y-64450
X129460Y-65950
X155960Y-79950
X155960Y-81450
X156460Y-80700
X156960Y-79950
X156960Y-81450
X155960Y-64450
X155960Y-65950
X156460Y-65200
X156960Y-64450
X156960Y-65950
X128460Y-48950
X128460Y-50450
X128960Y-49700
X129460Y-48950
X129460Y-50450
X128460Y-79950
X128460Y-81450
X128960Y-80700
X129460Y-79950
X129460Y-81450
X155960Y-48950
X155960Y-50450
X156460Y-49700
X156960Y-48950
X156960Y-50450
T2
X126750Y-51450
X126750Y-66950
X126750Y-82450
X127700Y-51450
X127700Y-66950
X127700Y-82450
X134200Y-51150
X134200Y-66650
X134200Y-82150
X135200Y-51150
X135200Y-66650
X135200Y-82150
X136500Y-48150
X136500Y-49100
X136500Y-63650
X136500Y-64600
X136500Y-79150
X136500Y-80100
X137450Y-48150
X137450Y-49100
X137450Y-63650
X137450Y-64600
X137450Y-79150
X137450Y-80100
X139000Y-49000
X139000Y-50000
X139000Y-59000
X139000Y-60000
X139000Y-64500
X139000Y-65500
X139000Y-74500
X139000Y-75500
X139000Y-80000
X139000Y-81000
X139000Y-90000
X139000Y-91000
X140000Y-49000
X140000Y-50000
X140000Y-59000
X140000Y-60000
X140000Y-64500
X140000Y-65500
X140000Y-74500
X140000Y-75500
X140000Y-80000
X140000Y-81000
X140000Y-90000
X140000Y-91000
X143000Y-56500
X143000Y-72000
X143000Y-87500
X145000Y-53250
X145000Y-55250
X145000Y-68750
X145000Y-70750
X145000Y-84250
X145000Y-86250
X154250Y-51450
X154250Y-66950
X154250Y-82450
X155200Y-51450
X155200Y-66950
X155200Y-82450
X161700Y-51150
X161700Y-66650
X161700Y-82150
X162700Y-51150
X162700Y-66650
X162700Y-82150
X164000Y-48150
X164000Y-49100
X164000Y-63650
X164000Y-64600
X164000Y-79150
X164000Y-80100
X164950Y-48150
X164950Y-49100
X164950Y-63650
X164950Y-64600
X164950Y-79150
X164950Y-80100
X166500Y-49000
X166500Y-50000
X166500Y-59000
X166500Y-60000
X166500Y-64500
X166500Y-65500
X166500Y-74500
X166500Y-75500
X166500Y-80000
X166500Y-81000
X166500Y-90000
X166500Y-91000
X167500Y-49000
X167500Y-50000
X167500Y-59000
X167500Y-60000
X167500Y-64500
X167500Y-65500
X167500Y-74500
X167500Y-75500
X167500Y-80000
X167500Y-81000
X167500Y-90000
X167500Y-91000
X170500Y-56500
X170500Y-72000
X170500Y-87500
X172500Y-53250
X172500Y-55250
X172500Y-68750
X172500Y-70750
X172500Y-84250
X172500Y-86250
T3
X151500Y-52550
X151500Y-53800
X151500Y-55050
X151500Y-56300
X124000Y-83550
X124000Y-84800
X124000Y-86050
X124000Y-87300
X132000Y-60000
X133250Y-60000
X134500Y-60000
X135750Y-60000
X174000Y-74000
X174000Y-75250
X146500Y-49000
X146500Y-50250
X132000Y-75500
X133250Y-75500
X134500Y-75500
X135750Y-75500
X151500Y-83550
X151500Y-84800
X151500Y-86050
X151500Y-87300
X146500Y-89500
X146500Y-90750
X159500Y-91000
X160750Y-91000
X162000Y-91000
X163250Y-91000
X124000Y-68050
X124000Y-69300
X124000Y-70550
X124000Y-71800
X174000Y-80000
X174000Y-81250
X174000Y-89500
X174000Y-90750
X124000Y-52550
X124000Y-53800
X124000Y-55050
X124000Y-56300
X159500Y-75500
X160750Y-75500
X162000Y-75500
X163250Y-75500
X174000Y-58500
X174000Y-59750
X146500Y-58500
X146500Y-59750
X174000Y-64500
X174000Y-65750
X146500Y-64500
X146500Y-65750
X132000Y-91000
X133250Y-91000
X134500Y-91000
X135750Y-91000
X146500Y-80000
X146500Y-81250
X174000Y-49000
X174000Y-50250
X151500Y-68050
X151500Y-69300
X151500Y-70550
X151500Y-71800
X146500Y-74000
X146500Y-75250
X159500Y-60000
X160750Y-60000
X162000Y-60000
X163250Y-60000
T4
X151000Y-48500
X151000Y-75500
X123500Y-79500
X123500Y-91000
X123500Y-75500
X123500Y-60000
X123500Y-64000
X123500Y-48500
X151000Y-91000
X151000Y-64000
X151000Y-60000
X151000Y-79500
T5
X148500Y-68300
X148500Y-69000
X148500Y-69700
X148500Y-70400
X148500Y-71100
X165400Y-78000
X166100Y-78000
X166800Y-78000
X167500Y-78000
X168200Y-78000
X148500Y-83800
X148500Y-84500
X148500Y-85200
X148500Y-85900
X148500Y-86600
X154400Y-62500
X155100Y-62500
X155800Y-62500
X156500Y-62500
X157200Y-62500
X149500Y-83800
X149500Y-84500
X149500Y-85200
X149500Y-85900
X149500Y-86600
X126900Y-77000
X127600Y-77000
X128300Y-77000
X129000Y-77000
X129700Y-77000
X154400Y-61500
X155100Y-61500
X155800Y-61500
X156500Y-61500
X157200Y-61500
X165400Y-61500
X166100Y-61500
X166800Y-61500
X167500Y-61500
X168200Y-61500
X137900Y-77000
X138600Y-77000
X139300Y-77000
X140000Y-77000
X140700Y-77000
X149500Y-52800
X149500Y-53500
X149500Y-54200
X149500Y-54900
X149500Y-55600
X137900Y-78000
X138600Y-78000
X139300Y-78000
X140000Y-78000
X140700Y-78000
X165400Y-62500
X166100Y-62500
X166800Y-62500
X167500Y-62500
X168200Y-62500
X165400Y-77000
X166100Y-77000
X166800Y-77000
X167500Y-77000
X168200Y-77000
X126900Y-61500
X127600Y-61500
X128300Y-61500
X129000Y-61500
X129700Y-61500
X149500Y-68300
X149500Y-69000
X149500Y-69700
X149500Y-70400
X149500Y-71100
X154400Y-77000
X155100Y-77000
X155800Y-77000
X156500Y-77000
X157200Y-77000
X154400Y-78000
X155100Y-78000
X155800Y-78000
X156500Y-78000
X157200Y-78000
X137900Y-61500
X138600Y-61500
X139300Y-61500
X140000Y-61500
X140700Y-61500
X126900Y-62500
X127600Y-62500
X128300Y-62500
X129000Y-62500
X129700Y-62500
X126900Y-78000
X127600Y-78000
X128300Y-78000
X129000Y-78000
X129700Y-78000
X148500Y-52800
X148500Y-53500
X148500Y-54200
X148500Y-54900
X148500Y-55600
X137900Y-62500
X138600Y-62500
X139300Y-62500
X140000Y-62500
X140700Y-62500
T0
M30
