%TF.GenerationSoftware,KiCad,Pcbnew,(5.1.6)-1*%
%TF.CreationDate,2021-08-29T21:48:12-05:00*%
%TF.ProjectId,MicroBrushedESC,4d696372-6f42-4727-9573-686564455343,rev?*%
%TF.SameCoordinates,Original*%
%TF.FileFunction,Profile,NP*%
%FSLAX46Y46*%
G04 Gerber Fmt 4.6, Leading zero omitted, Abs format (unit mm)*
G04 Created by KiCad (PCBNEW (5.1.6)-1) date 2021-08-29 21:48:12*
%MOMM*%
%LPD*%
G01*
G04 APERTURE LIST*
%TA.AperFunction,Profile*%
%ADD10C,0.050000*%
%TD*%
G04 APERTURE END LIST*
D10*
X175500000Y-57200000D02*
X175500000Y-51400000D01*
X175500000Y-72700000D02*
X175500000Y-66900000D01*
X175500000Y-88200000D02*
X175500000Y-82400000D01*
X163500000Y-92000000D02*
X169500000Y-92000000D01*
X153000000Y-92000000D02*
X158700000Y-92000000D01*
X131200000Y-92000000D02*
X125500000Y-92000000D01*
X142000000Y-92000000D02*
X136000000Y-92000000D01*
X175500000Y-88200000D02*
X175500000Y-91000000D01*
X148000000Y-88200000D02*
X148000000Y-91000000D01*
X175500000Y-72700000D02*
X175500000Y-75500000D01*
X148000000Y-72700000D02*
X148000000Y-75500000D01*
X175500000Y-57200000D02*
X175500000Y-60000000D01*
X153000000Y-78500000D02*
X151000000Y-78500000D01*
X125500000Y-78500000D02*
X123500000Y-78500000D01*
X153000000Y-63000000D02*
X151000000Y-63000000D01*
X163500000Y-78500000D02*
X158700000Y-78500000D01*
X136000000Y-78500000D02*
X131200000Y-78500000D01*
X163500000Y-63000000D02*
X158700000Y-63000000D01*
X150000000Y-79500000D02*
X150000000Y-82400000D01*
X150000000Y-64000000D02*
X150000000Y-66900000D01*
X174500000Y-78500000D02*
X169500000Y-78500000D01*
X147000000Y-78500000D02*
X142000000Y-78500000D01*
X174500000Y-63000000D02*
X169500000Y-63000000D01*
X150000000Y-88200000D02*
X150000000Y-91000000D01*
X150000000Y-72700000D02*
X150000000Y-75500000D01*
X158700000Y-92000000D02*
X163500000Y-92000000D01*
X131200000Y-92000000D02*
X136000000Y-92000000D01*
X158700000Y-76500000D02*
X163500000Y-76500000D01*
X131200000Y-76500000D02*
X136000000Y-76500000D01*
X158700000Y-61000000D02*
X163500000Y-61000000D01*
X169500000Y-92000000D02*
X174500000Y-92000000D01*
X142000000Y-92000000D02*
X147000000Y-92000000D01*
X169500000Y-76500000D02*
X174500000Y-76500000D01*
X142000000Y-76500000D02*
X147000000Y-76500000D01*
X169500000Y-61000000D02*
X174500000Y-61000000D01*
X151000000Y-92000000D02*
X153000000Y-92000000D01*
X123500000Y-92000000D02*
X125500000Y-92000000D01*
X151000000Y-76500000D02*
X153000000Y-76500000D01*
X123500000Y-76500000D02*
X125500000Y-76500000D01*
X151000000Y-61000000D02*
X153000000Y-61000000D01*
X175500000Y-79500000D02*
X175500000Y-82400000D01*
X148000000Y-79500000D02*
X148000000Y-82400000D01*
X175500000Y-64000000D02*
X175500000Y-66900000D01*
X148000000Y-64000000D02*
X148000000Y-66900000D01*
X175500000Y-48500000D02*
X175500000Y-51400000D01*
X150000000Y-82400000D02*
G75*
G02*
X148000000Y-82400000I-1000000J0D01*
G01*
X150000000Y-66900000D02*
G75*
G02*
X148000000Y-66900000I-1000000J0D01*
G01*
X148000000Y-88200000D02*
G75*
G02*
X150000000Y-88200000I1000000J0D01*
G01*
X148000000Y-72700000D02*
G75*
G02*
X150000000Y-72700000I1000000J0D01*
G01*
X163500000Y-76500000D02*
G75*
G02*
X163500000Y-78500000I0J-1000000D01*
G01*
X136000000Y-76500000D02*
G75*
G02*
X136000000Y-78500000I0J-1000000D01*
G01*
X163500000Y-61000000D02*
G75*
G02*
X163500000Y-63000000I0J-1000000D01*
G01*
X153000000Y-76500000D02*
G75*
G02*
X154000000Y-77500000I0J-1000000D01*
G01*
X125500000Y-76500000D02*
G75*
G02*
X126500000Y-77500000I0J-1000000D01*
G01*
X153000000Y-61000000D02*
G75*
G02*
X154000000Y-62000000I0J-1000000D01*
G01*
X154000000Y-77500000D02*
G75*
G02*
X153000000Y-78500000I-1000000J0D01*
G01*
X126500000Y-77500000D02*
G75*
G02*
X125500000Y-78500000I-1000000J0D01*
G01*
X154000000Y-62000000D02*
G75*
G02*
X153000000Y-63000000I-1000000J0D01*
G01*
X157700000Y-77500000D02*
G75*
G02*
X158700000Y-76500000I1000000J0D01*
G01*
X130200000Y-77500000D02*
G75*
G02*
X131200000Y-76500000I1000000J0D01*
G01*
X157700000Y-62000000D02*
G75*
G02*
X158700000Y-61000000I1000000J0D01*
G01*
X158700000Y-78500000D02*
G75*
G02*
X157700000Y-77500000I0J1000000D01*
G01*
X131200000Y-78500000D02*
G75*
G02*
X130200000Y-77500000I0J1000000D01*
G01*
X158700000Y-63000000D02*
G75*
G02*
X157700000Y-62000000I0J1000000D01*
G01*
X169500000Y-78500000D02*
G75*
G02*
X169500000Y-76500000I0J1000000D01*
G01*
X142000000Y-78500000D02*
G75*
G02*
X142000000Y-76500000I0J1000000D01*
G01*
X169500000Y-63000000D02*
G75*
G02*
X169500000Y-61000000I0J1000000D01*
G01*
X174500000Y-78500000D02*
G75*
G02*
X175500000Y-79500000I0J-1000000D01*
G01*
X147000000Y-78500000D02*
G75*
G02*
X148000000Y-79500000I0J-1000000D01*
G01*
X174500000Y-63000000D02*
G75*
G02*
X175500000Y-64000000I0J-1000000D01*
G01*
X147000000Y-63000000D02*
G75*
G02*
X148000000Y-64000000I0J-1000000D01*
G01*
X174500000Y-47500000D02*
G75*
G02*
X175500000Y-48500000I0J-1000000D01*
G01*
X175500000Y-91000000D02*
G75*
G02*
X174500000Y-92000000I-1000000J0D01*
G01*
X148000000Y-91000000D02*
G75*
G02*
X147000000Y-92000000I-1000000J0D01*
G01*
X175500000Y-75500000D02*
G75*
G02*
X174500000Y-76500000I-1000000J0D01*
G01*
X148000000Y-75500000D02*
G75*
G02*
X147000000Y-76500000I-1000000J0D01*
G01*
X175500000Y-60000000D02*
G75*
G02*
X174500000Y-61000000I-1000000J0D01*
G01*
X151000000Y-92000000D02*
G75*
G02*
X150000000Y-91000000I0J1000000D01*
G01*
X123500000Y-92000000D02*
G75*
G02*
X122500000Y-91000000I0J1000000D01*
G01*
X151000000Y-76500000D02*
G75*
G02*
X150000000Y-75500000I0J1000000D01*
G01*
X123500000Y-76500000D02*
G75*
G02*
X122500000Y-75500000I0J1000000D01*
G01*
X151000000Y-61000000D02*
G75*
G02*
X150000000Y-60000000I0J1000000D01*
G01*
X122500000Y-91000000D02*
X122500000Y-79500000D01*
X122500000Y-75500000D02*
X122500000Y-64000000D01*
X150000000Y-79500000D02*
G75*
G02*
X151000000Y-78500000I1000000J0D01*
G01*
X122500000Y-79500000D02*
G75*
G02*
X123500000Y-78500000I1000000J0D01*
G01*
X150000000Y-64000000D02*
G75*
G02*
X151000000Y-63000000I1000000J0D01*
G01*
X122500000Y-64000000D02*
G75*
G02*
X123500000Y-63000000I1000000J0D01*
G01*
X150000000Y-48500000D02*
G75*
G02*
X151000000Y-47500000I1000000J0D01*
G01*
X151000000Y-47500000D02*
X174500000Y-47500000D01*
X142000000Y-63000000D02*
G75*
G02*
X142000000Y-61000000I0J1000000D01*
G01*
X131200000Y-63000000D02*
G75*
G02*
X130200000Y-62000000I0J1000000D01*
G01*
X126500000Y-62000000D02*
G75*
G02*
X125500000Y-63000000I-1000000J0D01*
G01*
X136000000Y-61000000D02*
G75*
G02*
X136000000Y-63000000I0J-1000000D01*
G01*
X147000000Y-63000000D02*
X142000000Y-63000000D01*
X136000000Y-63000000D02*
X131200000Y-63000000D01*
X125500000Y-63000000D02*
X123500000Y-63000000D01*
X150000000Y-48500000D02*
X150000000Y-51400000D01*
X150000000Y-57200000D02*
X150000000Y-60000000D01*
X148000000Y-57200000D02*
X148000000Y-60000000D01*
X148000000Y-48500000D02*
X148000000Y-51400000D01*
X142000000Y-61000000D02*
X147000000Y-61000000D01*
X131200000Y-61000000D02*
X136000000Y-61000000D01*
X123500000Y-61000000D02*
X125500000Y-61000000D01*
X148000000Y-57200000D02*
G75*
G02*
X150000000Y-57200000I1000000J0D01*
G01*
X150000000Y-51400000D02*
G75*
G02*
X148000000Y-51400000I-1000000J0D01*
G01*
X130200000Y-62000000D02*
G75*
G02*
X131200000Y-61000000I1000000J0D01*
G01*
X125500000Y-61000000D02*
G75*
G02*
X126500000Y-62000000I0J-1000000D01*
G01*
X148000000Y-60000000D02*
G75*
G02*
X147000000Y-61000000I-1000000J0D01*
G01*
X123500000Y-61000000D02*
G75*
G02*
X122500000Y-60000000I0J1000000D01*
G01*
X122500000Y-48500000D02*
G75*
G02*
X123500000Y-47500000I1000000J0D01*
G01*
X147000000Y-47500000D02*
G75*
G02*
X148000000Y-48500000I0J-1000000D01*
G01*
X122500000Y-60000000D02*
X122500000Y-48500000D01*
X123500000Y-47500000D02*
X147000000Y-47500000D01*
M02*
