%TF.GenerationSoftware,KiCad,Pcbnew,(5.1.6)-1*%
%TF.CreationDate,2021-08-29T21:48:12-05:00*%
%TF.ProjectId,MicroBrushedESC,4d696372-6f42-4727-9573-686564455343,rev?*%
%TF.SameCoordinates,Original*%
%TF.FileFunction,Copper,L4,Bot*%
%TF.FilePolarity,Positive*%
%FSLAX46Y46*%
G04 Gerber Fmt 4.6, Leading zero omitted, Abs format (unit mm)*
G04 Created by KiCad (PCBNEW (5.1.6)-1) date 2021-08-29 21:48:12*
%MOMM*%
%LPD*%
G01*
G04 APERTURE LIST*
%TA.AperFunction,ComponentPad*%
%ADD10C,0.300000*%
%TD*%
%TA.AperFunction,SMDPad,CuDef*%
%ADD11R,1.854500X2.286000*%
%TD*%
%TA.AperFunction,ComponentPad*%
%ADD12O,1.300000X0.800000*%
%TD*%
%TA.AperFunction,ComponentPad*%
%ADD13R,1.000000X1.000000*%
%TD*%
%TA.AperFunction,ComponentPad*%
%ADD14O,0.800000X1.300000*%
%TD*%
%TA.AperFunction,SMDPad,CuDef*%
%ADD15R,0.900000X0.800000*%
%TD*%
%TA.AperFunction,ViaPad*%
%ADD16C,0.800000*%
%TD*%
%TA.AperFunction,ViaPad*%
%ADD17C,0.500000*%
%TD*%
%TA.AperFunction,Conductor*%
%ADD18C,0.800000*%
%TD*%
%TA.AperFunction,Conductor*%
%ADD19C,0.400000*%
%TD*%
%TA.AperFunction,Conductor*%
%ADD20C,0.250000*%
%TD*%
%TA.AperFunction,Conductor*%
%ADD21C,0.600000*%
%TD*%
G04 APERTURE END LIST*
D10*
%TO.P,U2,11*%
%TO.N,VSS*%
X156460000Y-80700000D03*
X155960000Y-79950000D03*
X156960000Y-81450000D03*
X156960000Y-79950000D03*
X155960000Y-81450000D03*
%TD*%
%TO.P,U2,11*%
%TO.N,VSS*%
X128960000Y-80700000D03*
X128460000Y-79950000D03*
X129460000Y-81450000D03*
X129460000Y-79950000D03*
X128460000Y-81450000D03*
%TD*%
%TO.P,U2,11*%
%TO.N,VSS*%
X156460000Y-65200000D03*
X155960000Y-64450000D03*
X156960000Y-65950000D03*
X156960000Y-64450000D03*
X155960000Y-65950000D03*
%TD*%
%TO.P,U2,11*%
%TO.N,VSS*%
X128960000Y-65200000D03*
X128460000Y-64450000D03*
X129460000Y-65950000D03*
X129460000Y-64450000D03*
X128460000Y-65950000D03*
%TD*%
%TO.P,U2,11*%
%TO.N,VSS*%
X156460000Y-49700000D03*
X155960000Y-48950000D03*
X156960000Y-50450000D03*
X156960000Y-48950000D03*
X155960000Y-50450000D03*
%TD*%
D11*
%TO.P,L1,1*%
%TO.N,Net-(L1-Pad1)*%
X158350000Y-80650000D03*
%TO.P,L1,2*%
%TO.N,VDD*%
X154565500Y-80650000D03*
%TD*%
%TO.P,L1,1*%
%TO.N,Net-(L1-Pad1)*%
X130850000Y-80650000D03*
%TO.P,L1,2*%
%TO.N,VDD*%
X127065500Y-80650000D03*
%TD*%
%TO.P,L1,1*%
%TO.N,Net-(L1-Pad1)*%
X158350000Y-65150000D03*
%TO.P,L1,2*%
%TO.N,VDD*%
X154565500Y-65150000D03*
%TD*%
%TO.P,L1,1*%
%TO.N,Net-(L1-Pad1)*%
X130850000Y-65150000D03*
%TO.P,L1,2*%
%TO.N,VDD*%
X127065500Y-65150000D03*
%TD*%
%TO.P,L1,1*%
%TO.N,Net-(L1-Pad1)*%
X158350000Y-49650000D03*
%TO.P,L1,2*%
%TO.N,VDD*%
X154565500Y-49650000D03*
%TD*%
%TO.P,C7,1*%
%TO.N,VDD*%
%TA.AperFunction,SMDPad,CuDef*%
G36*
G01*
X155775001Y-87487500D02*
X153924999Y-87487500D01*
G75*
G02*
X153675000Y-87237501I0J249999D01*
G01*
X153675000Y-86412499D01*
G75*
G02*
X153924999Y-86162500I249999J0D01*
G01*
X155775001Y-86162500D01*
G75*
G02*
X156025000Y-86412499I0J-249999D01*
G01*
X156025000Y-87237501D01*
G75*
G02*
X155775001Y-87487500I-249999J0D01*
G01*
G37*
%TD.AperFunction*%
%TO.P,C7,2*%
%TO.N,VSS*%
%TA.AperFunction,SMDPad,CuDef*%
G36*
G01*
X155775001Y-84412500D02*
X153924999Y-84412500D01*
G75*
G02*
X153675000Y-84162501I0J249999D01*
G01*
X153675000Y-83337499D01*
G75*
G02*
X153924999Y-83087500I249999J0D01*
G01*
X155775001Y-83087500D01*
G75*
G02*
X156025000Y-83337499I0J-249999D01*
G01*
X156025000Y-84162501D01*
G75*
G02*
X155775001Y-84412500I-249999J0D01*
G01*
G37*
%TD.AperFunction*%
%TD*%
%TO.P,C7,1*%
%TO.N,VDD*%
%TA.AperFunction,SMDPad,CuDef*%
G36*
G01*
X128275001Y-87487500D02*
X126424999Y-87487500D01*
G75*
G02*
X126175000Y-87237501I0J249999D01*
G01*
X126175000Y-86412499D01*
G75*
G02*
X126424999Y-86162500I249999J0D01*
G01*
X128275001Y-86162500D01*
G75*
G02*
X128525000Y-86412499I0J-249999D01*
G01*
X128525000Y-87237501D01*
G75*
G02*
X128275001Y-87487500I-249999J0D01*
G01*
G37*
%TD.AperFunction*%
%TO.P,C7,2*%
%TO.N,VSS*%
%TA.AperFunction,SMDPad,CuDef*%
G36*
G01*
X128275001Y-84412500D02*
X126424999Y-84412500D01*
G75*
G02*
X126175000Y-84162501I0J249999D01*
G01*
X126175000Y-83337499D01*
G75*
G02*
X126424999Y-83087500I249999J0D01*
G01*
X128275001Y-83087500D01*
G75*
G02*
X128525000Y-83337499I0J-249999D01*
G01*
X128525000Y-84162501D01*
G75*
G02*
X128275001Y-84412500I-249999J0D01*
G01*
G37*
%TD.AperFunction*%
%TD*%
%TO.P,C7,1*%
%TO.N,VDD*%
%TA.AperFunction,SMDPad,CuDef*%
G36*
G01*
X155775001Y-71987500D02*
X153924999Y-71987500D01*
G75*
G02*
X153675000Y-71737501I0J249999D01*
G01*
X153675000Y-70912499D01*
G75*
G02*
X153924999Y-70662500I249999J0D01*
G01*
X155775001Y-70662500D01*
G75*
G02*
X156025000Y-70912499I0J-249999D01*
G01*
X156025000Y-71737501D01*
G75*
G02*
X155775001Y-71987500I-249999J0D01*
G01*
G37*
%TD.AperFunction*%
%TO.P,C7,2*%
%TO.N,VSS*%
%TA.AperFunction,SMDPad,CuDef*%
G36*
G01*
X155775001Y-68912500D02*
X153924999Y-68912500D01*
G75*
G02*
X153675000Y-68662501I0J249999D01*
G01*
X153675000Y-67837499D01*
G75*
G02*
X153924999Y-67587500I249999J0D01*
G01*
X155775001Y-67587500D01*
G75*
G02*
X156025000Y-67837499I0J-249999D01*
G01*
X156025000Y-68662501D01*
G75*
G02*
X155775001Y-68912500I-249999J0D01*
G01*
G37*
%TD.AperFunction*%
%TD*%
%TO.P,C7,1*%
%TO.N,VDD*%
%TA.AperFunction,SMDPad,CuDef*%
G36*
G01*
X128275001Y-71987500D02*
X126424999Y-71987500D01*
G75*
G02*
X126175000Y-71737501I0J249999D01*
G01*
X126175000Y-70912499D01*
G75*
G02*
X126424999Y-70662500I249999J0D01*
G01*
X128275001Y-70662500D01*
G75*
G02*
X128525000Y-70912499I0J-249999D01*
G01*
X128525000Y-71737501D01*
G75*
G02*
X128275001Y-71987500I-249999J0D01*
G01*
G37*
%TD.AperFunction*%
%TO.P,C7,2*%
%TO.N,VSS*%
%TA.AperFunction,SMDPad,CuDef*%
G36*
G01*
X128275001Y-68912500D02*
X126424999Y-68912500D01*
G75*
G02*
X126175000Y-68662501I0J249999D01*
G01*
X126175000Y-67837499D01*
G75*
G02*
X126424999Y-67587500I249999J0D01*
G01*
X128275001Y-67587500D01*
G75*
G02*
X128525000Y-67837499I0J-249999D01*
G01*
X128525000Y-68662501D01*
G75*
G02*
X128275001Y-68912500I-249999J0D01*
G01*
G37*
%TD.AperFunction*%
%TD*%
%TO.P,C7,1*%
%TO.N,VDD*%
%TA.AperFunction,SMDPad,CuDef*%
G36*
G01*
X155775001Y-56487500D02*
X153924999Y-56487500D01*
G75*
G02*
X153675000Y-56237501I0J249999D01*
G01*
X153675000Y-55412499D01*
G75*
G02*
X153924999Y-55162500I249999J0D01*
G01*
X155775001Y-55162500D01*
G75*
G02*
X156025000Y-55412499I0J-249999D01*
G01*
X156025000Y-56237501D01*
G75*
G02*
X155775001Y-56487500I-249999J0D01*
G01*
G37*
%TD.AperFunction*%
%TO.P,C7,2*%
%TO.N,VSS*%
%TA.AperFunction,SMDPad,CuDef*%
G36*
G01*
X155775001Y-53412500D02*
X153924999Y-53412500D01*
G75*
G02*
X153675000Y-53162501I0J249999D01*
G01*
X153675000Y-52337499D01*
G75*
G02*
X153924999Y-52087500I249999J0D01*
G01*
X155775001Y-52087500D01*
G75*
G02*
X156025000Y-52337499I0J-249999D01*
G01*
X156025000Y-53162501D01*
G75*
G02*
X155775001Y-53412500I-249999J0D01*
G01*
G37*
%TD.AperFunction*%
%TD*%
%TO.P,J1,1*%
%TO.N,MOTOR1*%
%TA.AperFunction,ComponentPad*%
G36*
G01*
X174450000Y-91150000D02*
X173550000Y-91150000D01*
G75*
G02*
X173350000Y-90950000I0J200000D01*
G01*
X173350000Y-90550000D01*
G75*
G02*
X173550000Y-90350000I200000J0D01*
G01*
X174450000Y-90350000D01*
G75*
G02*
X174650000Y-90550000I0J-200000D01*
G01*
X174650000Y-90950000D01*
G75*
G02*
X174450000Y-91150000I-200000J0D01*
G01*
G37*
%TD.AperFunction*%
D12*
%TO.P,J1,2*%
%TO.N,VSS*%
X174000000Y-89500000D03*
%TD*%
%TO.P,J1,1*%
%TO.N,MOTOR1*%
%TA.AperFunction,ComponentPad*%
G36*
G01*
X146950000Y-91150000D02*
X146050000Y-91150000D01*
G75*
G02*
X145850000Y-90950000I0J200000D01*
G01*
X145850000Y-90550000D01*
G75*
G02*
X146050000Y-90350000I200000J0D01*
G01*
X146950000Y-90350000D01*
G75*
G02*
X147150000Y-90550000I0J-200000D01*
G01*
X147150000Y-90950000D01*
G75*
G02*
X146950000Y-91150000I-200000J0D01*
G01*
G37*
%TD.AperFunction*%
%TO.P,J1,2*%
%TO.N,VSS*%
X146500000Y-89500000D03*
%TD*%
%TO.P,J1,1*%
%TO.N,MOTOR1*%
%TA.AperFunction,ComponentPad*%
G36*
G01*
X174450000Y-75650000D02*
X173550000Y-75650000D01*
G75*
G02*
X173350000Y-75450000I0J200000D01*
G01*
X173350000Y-75050000D01*
G75*
G02*
X173550000Y-74850000I200000J0D01*
G01*
X174450000Y-74850000D01*
G75*
G02*
X174650000Y-75050000I0J-200000D01*
G01*
X174650000Y-75450000D01*
G75*
G02*
X174450000Y-75650000I-200000J0D01*
G01*
G37*
%TD.AperFunction*%
%TO.P,J1,2*%
%TO.N,VSS*%
X174000000Y-74000000D03*
%TD*%
%TO.P,J1,1*%
%TO.N,MOTOR1*%
%TA.AperFunction,ComponentPad*%
G36*
G01*
X146950000Y-75650000D02*
X146050000Y-75650000D01*
G75*
G02*
X145850000Y-75450000I0J200000D01*
G01*
X145850000Y-75050000D01*
G75*
G02*
X146050000Y-74850000I200000J0D01*
G01*
X146950000Y-74850000D01*
G75*
G02*
X147150000Y-75050000I0J-200000D01*
G01*
X147150000Y-75450000D01*
G75*
G02*
X146950000Y-75650000I-200000J0D01*
G01*
G37*
%TD.AperFunction*%
%TO.P,J1,2*%
%TO.N,VSS*%
X146500000Y-74000000D03*
%TD*%
%TO.P,J1,1*%
%TO.N,MOTOR1*%
%TA.AperFunction,ComponentPad*%
G36*
G01*
X174450000Y-60150000D02*
X173550000Y-60150000D01*
G75*
G02*
X173350000Y-59950000I0J200000D01*
G01*
X173350000Y-59550000D01*
G75*
G02*
X173550000Y-59350000I200000J0D01*
G01*
X174450000Y-59350000D01*
G75*
G02*
X174650000Y-59550000I0J-200000D01*
G01*
X174650000Y-59950000D01*
G75*
G02*
X174450000Y-60150000I-200000J0D01*
G01*
G37*
%TD.AperFunction*%
%TO.P,J1,2*%
%TO.N,VSS*%
X174000000Y-58500000D03*
%TD*%
%TO.P,J2,1*%
%TO.N,MOTOR2*%
%TA.AperFunction,ComponentPad*%
G36*
G01*
X174450000Y-81650000D02*
X173550000Y-81650000D01*
G75*
G02*
X173350000Y-81450000I0J200000D01*
G01*
X173350000Y-81050000D01*
G75*
G02*
X173550000Y-80850000I200000J0D01*
G01*
X174450000Y-80850000D01*
G75*
G02*
X174650000Y-81050000I0J-200000D01*
G01*
X174650000Y-81450000D01*
G75*
G02*
X174450000Y-81650000I-200000J0D01*
G01*
G37*
%TD.AperFunction*%
%TO.P,J2,2*%
%TO.N,VSS*%
X174000000Y-80000000D03*
%TD*%
%TO.P,J2,1*%
%TO.N,MOTOR2*%
%TA.AperFunction,ComponentPad*%
G36*
G01*
X146950000Y-81650000D02*
X146050000Y-81650000D01*
G75*
G02*
X145850000Y-81450000I0J200000D01*
G01*
X145850000Y-81050000D01*
G75*
G02*
X146050000Y-80850000I200000J0D01*
G01*
X146950000Y-80850000D01*
G75*
G02*
X147150000Y-81050000I0J-200000D01*
G01*
X147150000Y-81450000D01*
G75*
G02*
X146950000Y-81650000I-200000J0D01*
G01*
G37*
%TD.AperFunction*%
%TO.P,J2,2*%
%TO.N,VSS*%
X146500000Y-80000000D03*
%TD*%
%TO.P,J2,1*%
%TO.N,MOTOR2*%
%TA.AperFunction,ComponentPad*%
G36*
G01*
X174450000Y-66150000D02*
X173550000Y-66150000D01*
G75*
G02*
X173350000Y-65950000I0J200000D01*
G01*
X173350000Y-65550000D01*
G75*
G02*
X173550000Y-65350000I200000J0D01*
G01*
X174450000Y-65350000D01*
G75*
G02*
X174650000Y-65550000I0J-200000D01*
G01*
X174650000Y-65950000D01*
G75*
G02*
X174450000Y-66150000I-200000J0D01*
G01*
G37*
%TD.AperFunction*%
%TO.P,J2,2*%
%TO.N,VSS*%
X174000000Y-64500000D03*
%TD*%
%TO.P,J2,1*%
%TO.N,MOTOR2*%
%TA.AperFunction,ComponentPad*%
G36*
G01*
X146950000Y-66150000D02*
X146050000Y-66150000D01*
G75*
G02*
X145850000Y-65950000I0J200000D01*
G01*
X145850000Y-65550000D01*
G75*
G02*
X146050000Y-65350000I200000J0D01*
G01*
X146950000Y-65350000D01*
G75*
G02*
X147150000Y-65550000I0J-200000D01*
G01*
X147150000Y-65950000D01*
G75*
G02*
X146950000Y-66150000I-200000J0D01*
G01*
G37*
%TD.AperFunction*%
%TO.P,J2,2*%
%TO.N,VSS*%
X146500000Y-64500000D03*
%TD*%
%TO.P,J2,1*%
%TO.N,MOTOR2*%
%TA.AperFunction,ComponentPad*%
G36*
G01*
X174450000Y-50650000D02*
X173550000Y-50650000D01*
G75*
G02*
X173350000Y-50450000I0J200000D01*
G01*
X173350000Y-50050000D01*
G75*
G02*
X173550000Y-49850000I200000J0D01*
G01*
X174450000Y-49850000D01*
G75*
G02*
X174650000Y-50050000I0J-200000D01*
G01*
X174650000Y-50450000D01*
G75*
G02*
X174450000Y-50650000I-200000J0D01*
G01*
G37*
%TD.AperFunction*%
%TO.P,J2,2*%
%TO.N,VSS*%
X174000000Y-49000000D03*
%TD*%
D13*
%TO.P,J4,1*%
%TO.N,VDD*%
X151000000Y-91000000D03*
%TD*%
%TO.P,J4,1*%
%TO.N,VDD*%
X123500000Y-91000000D03*
%TD*%
%TO.P,J4,1*%
%TO.N,VDD*%
X151000000Y-75500000D03*
%TD*%
%TO.P,J4,1*%
%TO.N,VDD*%
X123500000Y-75500000D03*
%TD*%
%TO.P,J4,1*%
%TO.N,VDD*%
X151000000Y-60000000D03*
%TD*%
%TO.P,J5,1*%
%TO.N,VDD*%
%TA.AperFunction,ComponentPad*%
G36*
G01*
X159100000Y-91450000D02*
X159100000Y-90550000D01*
G75*
G02*
X159300000Y-90350000I200000J0D01*
G01*
X159700000Y-90350000D01*
G75*
G02*
X159900000Y-90550000I0J-200000D01*
G01*
X159900000Y-91450000D01*
G75*
G02*
X159700000Y-91650000I-200000J0D01*
G01*
X159300000Y-91650000D01*
G75*
G02*
X159100000Y-91450000I0J200000D01*
G01*
G37*
%TD.AperFunction*%
D14*
%TO.P,J5,2*%
%TO.N,SWIM*%
X160750000Y-91000000D03*
%TO.P,J5,3*%
%TO.N,VSS*%
X162000000Y-91000000D03*
%TO.P,J5,4*%
%TO.N,NRST*%
X163250000Y-91000000D03*
%TD*%
%TO.P,J5,1*%
%TO.N,VDD*%
%TA.AperFunction,ComponentPad*%
G36*
G01*
X131600000Y-91450000D02*
X131600000Y-90550000D01*
G75*
G02*
X131800000Y-90350000I200000J0D01*
G01*
X132200000Y-90350000D01*
G75*
G02*
X132400000Y-90550000I0J-200000D01*
G01*
X132400000Y-91450000D01*
G75*
G02*
X132200000Y-91650000I-200000J0D01*
G01*
X131800000Y-91650000D01*
G75*
G02*
X131600000Y-91450000I0J200000D01*
G01*
G37*
%TD.AperFunction*%
%TO.P,J5,2*%
%TO.N,SWIM*%
X133250000Y-91000000D03*
%TO.P,J5,3*%
%TO.N,VSS*%
X134500000Y-91000000D03*
%TO.P,J5,4*%
%TO.N,NRST*%
X135750000Y-91000000D03*
%TD*%
%TO.P,J5,1*%
%TO.N,VDD*%
%TA.AperFunction,ComponentPad*%
G36*
G01*
X159100000Y-75950000D02*
X159100000Y-75050000D01*
G75*
G02*
X159300000Y-74850000I200000J0D01*
G01*
X159700000Y-74850000D01*
G75*
G02*
X159900000Y-75050000I0J-200000D01*
G01*
X159900000Y-75950000D01*
G75*
G02*
X159700000Y-76150000I-200000J0D01*
G01*
X159300000Y-76150000D01*
G75*
G02*
X159100000Y-75950000I0J200000D01*
G01*
G37*
%TD.AperFunction*%
%TO.P,J5,2*%
%TO.N,SWIM*%
X160750000Y-75500000D03*
%TO.P,J5,3*%
%TO.N,VSS*%
X162000000Y-75500000D03*
%TO.P,J5,4*%
%TO.N,NRST*%
X163250000Y-75500000D03*
%TD*%
%TO.P,J5,1*%
%TO.N,VDD*%
%TA.AperFunction,ComponentPad*%
G36*
G01*
X131600000Y-75950000D02*
X131600000Y-75050000D01*
G75*
G02*
X131800000Y-74850000I200000J0D01*
G01*
X132200000Y-74850000D01*
G75*
G02*
X132400000Y-75050000I0J-200000D01*
G01*
X132400000Y-75950000D01*
G75*
G02*
X132200000Y-76150000I-200000J0D01*
G01*
X131800000Y-76150000D01*
G75*
G02*
X131600000Y-75950000I0J200000D01*
G01*
G37*
%TD.AperFunction*%
%TO.P,J5,2*%
%TO.N,SWIM*%
X133250000Y-75500000D03*
%TO.P,J5,3*%
%TO.N,VSS*%
X134500000Y-75500000D03*
%TO.P,J5,4*%
%TO.N,NRST*%
X135750000Y-75500000D03*
%TD*%
%TO.P,J5,1*%
%TO.N,VDD*%
%TA.AperFunction,ComponentPad*%
G36*
G01*
X159100000Y-60450000D02*
X159100000Y-59550000D01*
G75*
G02*
X159300000Y-59350000I200000J0D01*
G01*
X159700000Y-59350000D01*
G75*
G02*
X159900000Y-59550000I0J-200000D01*
G01*
X159900000Y-60450000D01*
G75*
G02*
X159700000Y-60650000I-200000J0D01*
G01*
X159300000Y-60650000D01*
G75*
G02*
X159100000Y-60450000I0J200000D01*
G01*
G37*
%TD.AperFunction*%
%TO.P,J5,2*%
%TO.N,SWIM*%
X160750000Y-60000000D03*
%TO.P,J5,3*%
%TO.N,VSS*%
X162000000Y-60000000D03*
%TO.P,J5,4*%
%TO.N,NRST*%
X163250000Y-60000000D03*
%TD*%
D15*
%TO.P,Q2,1*%
%TO.N,Net-(Q2-Pad1)*%
X170000000Y-81950000D03*
%TO.P,Q2,2*%
%TO.N,VSS*%
X170000000Y-80050000D03*
%TO.P,Q2,3*%
%TO.N,Net-(Q2-Pad3)*%
X172000000Y-81000000D03*
%TD*%
%TO.P,Q2,1*%
%TO.N,Net-(Q2-Pad1)*%
X142500000Y-81950000D03*
%TO.P,Q2,2*%
%TO.N,VSS*%
X142500000Y-80050000D03*
%TO.P,Q2,3*%
%TO.N,Net-(Q2-Pad3)*%
X144500000Y-81000000D03*
%TD*%
%TO.P,Q2,1*%
%TO.N,Net-(Q2-Pad1)*%
X170000000Y-66450000D03*
%TO.P,Q2,2*%
%TO.N,VSS*%
X170000000Y-64550000D03*
%TO.P,Q2,3*%
%TO.N,Net-(Q2-Pad3)*%
X172000000Y-65500000D03*
%TD*%
%TO.P,Q2,1*%
%TO.N,Net-(Q2-Pad1)*%
X142500000Y-66450000D03*
%TO.P,Q2,2*%
%TO.N,VSS*%
X142500000Y-64550000D03*
%TO.P,Q2,3*%
%TO.N,Net-(Q2-Pad3)*%
X144500000Y-65500000D03*
%TD*%
%TO.P,Q2,1*%
%TO.N,Net-(Q2-Pad1)*%
X170000000Y-50950000D03*
%TO.P,Q2,2*%
%TO.N,VSS*%
X170000000Y-49050000D03*
%TO.P,Q2,3*%
%TO.N,Net-(Q2-Pad3)*%
X172000000Y-50000000D03*
%TD*%
%TO.P,Q1,1*%
%TO.N,Net-(Q1-Pad1)*%
X170000000Y-91300000D03*
%TO.P,Q1,2*%
%TO.N,VSS*%
X170000000Y-89400000D03*
%TO.P,Q1,3*%
%TO.N,Net-(Q1-Pad3)*%
X172000000Y-90350000D03*
%TD*%
%TO.P,Q1,1*%
%TO.N,Net-(Q1-Pad1)*%
X142500000Y-91300000D03*
%TO.P,Q1,2*%
%TO.N,VSS*%
X142500000Y-89400000D03*
%TO.P,Q1,3*%
%TO.N,Net-(Q1-Pad3)*%
X144500000Y-90350000D03*
%TD*%
%TO.P,Q1,1*%
%TO.N,Net-(Q1-Pad1)*%
X170000000Y-75800000D03*
%TO.P,Q1,2*%
%TO.N,VSS*%
X170000000Y-73900000D03*
%TO.P,Q1,3*%
%TO.N,Net-(Q1-Pad3)*%
X172000000Y-74850000D03*
%TD*%
%TO.P,Q1,1*%
%TO.N,Net-(Q1-Pad1)*%
X142500000Y-75800000D03*
%TO.P,Q1,2*%
%TO.N,VSS*%
X142500000Y-73900000D03*
%TO.P,Q1,3*%
%TO.N,Net-(Q1-Pad3)*%
X144500000Y-74850000D03*
%TD*%
%TO.P,Q1,1*%
%TO.N,Net-(Q1-Pad1)*%
X170000000Y-60300000D03*
%TO.P,Q1,2*%
%TO.N,VSS*%
X170000000Y-58400000D03*
%TO.P,Q1,3*%
%TO.N,Net-(Q1-Pad3)*%
X172000000Y-59350000D03*
%TD*%
%TO.P,J3,1*%
%TO.N,VSS*%
%TA.AperFunction,ComponentPad*%
G36*
G01*
X151050000Y-83150000D02*
X151950000Y-83150000D01*
G75*
G02*
X152150000Y-83350000I0J-200000D01*
G01*
X152150000Y-83750000D01*
G75*
G02*
X151950000Y-83950000I-200000J0D01*
G01*
X151050000Y-83950000D01*
G75*
G02*
X150850000Y-83750000I0J200000D01*
G01*
X150850000Y-83350000D01*
G75*
G02*
X151050000Y-83150000I200000J0D01*
G01*
G37*
%TD.AperFunction*%
D12*
%TO.P,J3,2*%
%TO.N,V_Filt+*%
X151500000Y-84800000D03*
%TO.P,J3,3*%
%TO.N,TIM1_CH1*%
X151500000Y-86050000D03*
%TO.P,J3,4*%
%TO.N,TIM1_CH3*%
X151500000Y-87300000D03*
%TD*%
%TO.P,J3,1*%
%TO.N,VSS*%
%TA.AperFunction,ComponentPad*%
G36*
G01*
X123550000Y-83150000D02*
X124450000Y-83150000D01*
G75*
G02*
X124650000Y-83350000I0J-200000D01*
G01*
X124650000Y-83750000D01*
G75*
G02*
X124450000Y-83950000I-200000J0D01*
G01*
X123550000Y-83950000D01*
G75*
G02*
X123350000Y-83750000I0J200000D01*
G01*
X123350000Y-83350000D01*
G75*
G02*
X123550000Y-83150000I200000J0D01*
G01*
G37*
%TD.AperFunction*%
%TO.P,J3,2*%
%TO.N,V_Filt+*%
X124000000Y-84800000D03*
%TO.P,J3,3*%
%TO.N,TIM1_CH1*%
X124000000Y-86050000D03*
%TO.P,J3,4*%
%TO.N,TIM1_CH3*%
X124000000Y-87300000D03*
%TD*%
%TO.P,J3,1*%
%TO.N,VSS*%
%TA.AperFunction,ComponentPad*%
G36*
G01*
X151050000Y-67650000D02*
X151950000Y-67650000D01*
G75*
G02*
X152150000Y-67850000I0J-200000D01*
G01*
X152150000Y-68250000D01*
G75*
G02*
X151950000Y-68450000I-200000J0D01*
G01*
X151050000Y-68450000D01*
G75*
G02*
X150850000Y-68250000I0J200000D01*
G01*
X150850000Y-67850000D01*
G75*
G02*
X151050000Y-67650000I200000J0D01*
G01*
G37*
%TD.AperFunction*%
%TO.P,J3,2*%
%TO.N,V_Filt+*%
X151500000Y-69300000D03*
%TO.P,J3,3*%
%TO.N,TIM1_CH1*%
X151500000Y-70550000D03*
%TO.P,J3,4*%
%TO.N,TIM1_CH3*%
X151500000Y-71800000D03*
%TD*%
%TO.P,J3,1*%
%TO.N,VSS*%
%TA.AperFunction,ComponentPad*%
G36*
G01*
X123550000Y-67650000D02*
X124450000Y-67650000D01*
G75*
G02*
X124650000Y-67850000I0J-200000D01*
G01*
X124650000Y-68250000D01*
G75*
G02*
X124450000Y-68450000I-200000J0D01*
G01*
X123550000Y-68450000D01*
G75*
G02*
X123350000Y-68250000I0J200000D01*
G01*
X123350000Y-67850000D01*
G75*
G02*
X123550000Y-67650000I200000J0D01*
G01*
G37*
%TD.AperFunction*%
%TO.P,J3,2*%
%TO.N,V_Filt+*%
X124000000Y-69300000D03*
%TO.P,J3,3*%
%TO.N,TIM1_CH1*%
X124000000Y-70550000D03*
%TO.P,J3,4*%
%TO.N,TIM1_CH3*%
X124000000Y-71800000D03*
%TD*%
%TO.P,J3,1*%
%TO.N,VSS*%
%TA.AperFunction,ComponentPad*%
G36*
G01*
X151050000Y-52150000D02*
X151950000Y-52150000D01*
G75*
G02*
X152150000Y-52350000I0J-200000D01*
G01*
X152150000Y-52750000D01*
G75*
G02*
X151950000Y-52950000I-200000J0D01*
G01*
X151050000Y-52950000D01*
G75*
G02*
X150850000Y-52750000I0J200000D01*
G01*
X150850000Y-52350000D01*
G75*
G02*
X151050000Y-52150000I200000J0D01*
G01*
G37*
%TD.AperFunction*%
%TO.P,J3,2*%
%TO.N,V_Filt+*%
X151500000Y-53800000D03*
%TO.P,J3,3*%
%TO.N,TIM1_CH1*%
X151500000Y-55050000D03*
%TO.P,J3,4*%
%TO.N,TIM1_CH3*%
X151500000Y-56300000D03*
%TD*%
D13*
%TO.P,J6,1*%
%TO.N,VSS*%
X151000000Y-79500000D03*
%TD*%
%TO.P,J6,1*%
%TO.N,VSS*%
X123500000Y-79500000D03*
%TD*%
%TO.P,J6,1*%
%TO.N,VSS*%
X151000000Y-64000000D03*
%TD*%
%TO.P,J6,1*%
%TO.N,VSS*%
X123500000Y-64000000D03*
%TD*%
%TO.P,J6,1*%
%TO.N,VSS*%
X151000000Y-48500000D03*
%TD*%
D10*
%TO.P,U2,11*%
%TO.N,VSS*%
X128460000Y-50450000D03*
X129460000Y-48950000D03*
X129460000Y-50450000D03*
X128460000Y-48950000D03*
X128960000Y-49700000D03*
%TD*%
D11*
%TO.P,L1,2*%
%TO.N,VDD*%
X127065500Y-49650000D03*
%TO.P,L1,1*%
%TO.N,Net-(L1-Pad1)*%
X130850000Y-49650000D03*
%TD*%
D15*
%TO.P,Q2,3*%
%TO.N,Net-(Q2-Pad3)*%
X144500000Y-50000000D03*
%TO.P,Q2,2*%
%TO.N,VSS*%
X142500000Y-49050000D03*
%TO.P,Q2,1*%
%TO.N,Net-(Q2-Pad1)*%
X142500000Y-50950000D03*
%TD*%
%TO.P,Q1,3*%
%TO.N,Net-(Q1-Pad3)*%
X144500000Y-59350000D03*
%TO.P,Q1,2*%
%TO.N,VSS*%
X142500000Y-58400000D03*
%TO.P,Q1,1*%
%TO.N,Net-(Q1-Pad1)*%
X142500000Y-60300000D03*
%TD*%
D13*
%TO.P,J6,1*%
%TO.N,VSS*%
X123500000Y-48500000D03*
%TD*%
D14*
%TO.P,J5,4*%
%TO.N,NRST*%
X135750000Y-60000000D03*
%TO.P,J5,3*%
%TO.N,VSS*%
X134500000Y-60000000D03*
%TO.P,J5,2*%
%TO.N,SWIM*%
X133250000Y-60000000D03*
%TO.P,J5,1*%
%TO.N,VDD*%
%TA.AperFunction,ComponentPad*%
G36*
G01*
X131600000Y-60450000D02*
X131600000Y-59550000D01*
G75*
G02*
X131800000Y-59350000I200000J0D01*
G01*
X132200000Y-59350000D01*
G75*
G02*
X132400000Y-59550000I0J-200000D01*
G01*
X132400000Y-60450000D01*
G75*
G02*
X132200000Y-60650000I-200000J0D01*
G01*
X131800000Y-60650000D01*
G75*
G02*
X131600000Y-60450000I0J200000D01*
G01*
G37*
%TD.AperFunction*%
%TD*%
D13*
%TO.P,J4,1*%
%TO.N,VDD*%
X123500000Y-60000000D03*
%TD*%
D12*
%TO.P,J3,4*%
%TO.N,TIM1_CH3*%
X124000000Y-56300000D03*
%TO.P,J3,3*%
%TO.N,TIM1_CH1*%
X124000000Y-55050000D03*
%TO.P,J3,2*%
%TO.N,V_Filt+*%
X124000000Y-53800000D03*
%TO.P,J3,1*%
%TO.N,VSS*%
%TA.AperFunction,ComponentPad*%
G36*
G01*
X123550000Y-52150000D02*
X124450000Y-52150000D01*
G75*
G02*
X124650000Y-52350000I0J-200000D01*
G01*
X124650000Y-52750000D01*
G75*
G02*
X124450000Y-52950000I-200000J0D01*
G01*
X123550000Y-52950000D01*
G75*
G02*
X123350000Y-52750000I0J200000D01*
G01*
X123350000Y-52350000D01*
G75*
G02*
X123550000Y-52150000I200000J0D01*
G01*
G37*
%TD.AperFunction*%
%TD*%
%TO.P,J2,2*%
%TO.N,VSS*%
X146500000Y-49000000D03*
%TO.P,J2,1*%
%TO.N,MOTOR2*%
%TA.AperFunction,ComponentPad*%
G36*
G01*
X146950000Y-50650000D02*
X146050000Y-50650000D01*
G75*
G02*
X145850000Y-50450000I0J200000D01*
G01*
X145850000Y-50050000D01*
G75*
G02*
X146050000Y-49850000I200000J0D01*
G01*
X146950000Y-49850000D01*
G75*
G02*
X147150000Y-50050000I0J-200000D01*
G01*
X147150000Y-50450000D01*
G75*
G02*
X146950000Y-50650000I-200000J0D01*
G01*
G37*
%TD.AperFunction*%
%TD*%
%TO.P,J1,2*%
%TO.N,VSS*%
X146500000Y-58500000D03*
%TO.P,J1,1*%
%TO.N,MOTOR1*%
%TA.AperFunction,ComponentPad*%
G36*
G01*
X146950000Y-60150000D02*
X146050000Y-60150000D01*
G75*
G02*
X145850000Y-59950000I0J200000D01*
G01*
X145850000Y-59550000D01*
G75*
G02*
X146050000Y-59350000I200000J0D01*
G01*
X146950000Y-59350000D01*
G75*
G02*
X147150000Y-59550000I0J-200000D01*
G01*
X147150000Y-59950000D01*
G75*
G02*
X146950000Y-60150000I-200000J0D01*
G01*
G37*
%TD.AperFunction*%
%TD*%
%TO.P,C7,2*%
%TO.N,VSS*%
%TA.AperFunction,SMDPad,CuDef*%
G36*
G01*
X128275001Y-53412500D02*
X126424999Y-53412500D01*
G75*
G02*
X126175000Y-53162501I0J249999D01*
G01*
X126175000Y-52337499D01*
G75*
G02*
X126424999Y-52087500I249999J0D01*
G01*
X128275001Y-52087500D01*
G75*
G02*
X128525000Y-52337499I0J-249999D01*
G01*
X128525000Y-53162501D01*
G75*
G02*
X128275001Y-53412500I-249999J0D01*
G01*
G37*
%TD.AperFunction*%
%TO.P,C7,1*%
%TO.N,VDD*%
%TA.AperFunction,SMDPad,CuDef*%
G36*
G01*
X128275001Y-56487500D02*
X126424999Y-56487500D01*
G75*
G02*
X126175000Y-56237501I0J249999D01*
G01*
X126175000Y-55412499D01*
G75*
G02*
X126424999Y-55162500I249999J0D01*
G01*
X128275001Y-55162500D01*
G75*
G02*
X128525000Y-55412499I0J-249999D01*
G01*
X128525000Y-56237501D01*
G75*
G02*
X128275001Y-56487500I-249999J0D01*
G01*
G37*
%TD.AperFunction*%
%TD*%
D16*
%TO.N,VSS*%
X136500000Y-48150000D03*
X136500000Y-49100000D03*
X137450000Y-49100000D03*
X137450000Y-48150000D03*
D17*
X141500000Y-48250000D03*
D16*
X145000000Y-53250000D03*
X145000000Y-55250000D03*
X143000000Y-56500000D03*
X172500000Y-53250000D03*
X145000000Y-68750000D03*
X172500000Y-68750000D03*
X145000000Y-84250000D03*
X172500000Y-84250000D03*
X170500000Y-56500000D03*
X143000000Y-72000000D03*
X170500000Y-72000000D03*
X143000000Y-87500000D03*
X170500000Y-87500000D03*
X172500000Y-55250000D03*
X145000000Y-70750000D03*
X172500000Y-70750000D03*
X145000000Y-86250000D03*
X172500000Y-86250000D03*
D17*
X169000000Y-48250000D03*
X141500000Y-63750000D03*
X169000000Y-63750000D03*
X141500000Y-79250000D03*
X169000000Y-79250000D03*
D16*
X164950000Y-48150000D03*
X137450000Y-63650000D03*
X164950000Y-63650000D03*
X137450000Y-79150000D03*
X164950000Y-79150000D03*
X164000000Y-49100000D03*
X136500000Y-64600000D03*
X164000000Y-64600000D03*
X136500000Y-80100000D03*
X164000000Y-80100000D03*
X164000000Y-48150000D03*
X136500000Y-63650000D03*
X164000000Y-63650000D03*
X136500000Y-79150000D03*
X164000000Y-79150000D03*
X164950000Y-49100000D03*
X137450000Y-64600000D03*
X164950000Y-64600000D03*
X137450000Y-80100000D03*
X164950000Y-80100000D03*
D17*
%TO.N,TIM1_CH1*%
X137000000Y-54000000D03*
X164500000Y-54000000D03*
X137000000Y-69500000D03*
X164500000Y-69500000D03*
X137000000Y-85000000D03*
X164500000Y-85000000D03*
%TO.N,NRST*%
X134000000Y-53500000D03*
X161500000Y-53500000D03*
X134000000Y-69000000D03*
X161500000Y-69000000D03*
X134000000Y-84500000D03*
X161500000Y-84500000D03*
%TO.N,Net-(Q1-Pad3)*%
X144000000Y-58000000D03*
X171500000Y-58000000D03*
X144000000Y-73500000D03*
X171500000Y-73500000D03*
X144000000Y-89000000D03*
X171500000Y-89000000D03*
%TO.N,Net-(Q1-Pad1)*%
X141000000Y-56500000D03*
X168500000Y-56500000D03*
X141000000Y-72000000D03*
X168500000Y-72000000D03*
X141000000Y-87500000D03*
X168500000Y-87500000D03*
%TO.N,Net-(Q2-Pad3)*%
X144500000Y-48500000D03*
X172000000Y-48500000D03*
X144500000Y-64000000D03*
X172000000Y-64000000D03*
X144500000Y-79500000D03*
X172000000Y-79500000D03*
%TO.N,Net-(Q2-Pad1)*%
X141500000Y-52000000D03*
X169000000Y-52000000D03*
X141500000Y-67500000D03*
X169000000Y-67500000D03*
X141500000Y-83000000D03*
X169000000Y-83000000D03*
%TO.N,TIM1_CH3*%
X137000000Y-56000000D03*
X164500000Y-56000000D03*
X137000000Y-71500000D03*
X164500000Y-71500000D03*
X137000000Y-87000000D03*
X164500000Y-87000000D03*
%TO.N,PB4*%
X130500000Y-59500000D03*
X135000000Y-58500000D03*
X158000000Y-59500000D03*
X130500000Y-75000000D03*
X158000000Y-75000000D03*
X130500000Y-90500000D03*
X158000000Y-90500000D03*
X162500000Y-58500000D03*
X135000000Y-74000000D03*
X162500000Y-74000000D03*
X135000000Y-89500000D03*
X162500000Y-89500000D03*
D16*
%TO.N,VDD*%
X127700000Y-51450000D03*
X126750000Y-51450000D03*
D17*
X127500000Y-57000000D03*
D16*
X140000000Y-49000000D03*
X140000000Y-50000000D03*
X139000000Y-50000000D03*
X139000000Y-49000000D03*
X140000000Y-60000000D03*
X139000000Y-60000000D03*
X139000000Y-59000000D03*
X140000000Y-59000000D03*
X167500000Y-49000000D03*
X140000000Y-64500000D03*
X167500000Y-64500000D03*
X140000000Y-80000000D03*
X167500000Y-80000000D03*
X167500000Y-50000000D03*
X140000000Y-65500000D03*
X167500000Y-65500000D03*
X140000000Y-81000000D03*
X167500000Y-81000000D03*
D17*
X155000000Y-57000000D03*
X127500000Y-72500000D03*
X155000000Y-72500000D03*
X127500000Y-88000000D03*
X155000000Y-88000000D03*
D16*
X166500000Y-50000000D03*
X139000000Y-65500000D03*
X166500000Y-65500000D03*
X139000000Y-81000000D03*
X166500000Y-81000000D03*
X167500000Y-60000000D03*
X140000000Y-75500000D03*
X167500000Y-75500000D03*
X140000000Y-91000000D03*
X167500000Y-91000000D03*
X166500000Y-60000000D03*
X139000000Y-75500000D03*
X166500000Y-75500000D03*
X139000000Y-91000000D03*
X166500000Y-91000000D03*
X166500000Y-59000000D03*
X139000000Y-74500000D03*
X166500000Y-74500000D03*
X139000000Y-90000000D03*
X166500000Y-90000000D03*
X167500000Y-59000000D03*
X140000000Y-74500000D03*
X167500000Y-74500000D03*
X140000000Y-90000000D03*
X167500000Y-90000000D03*
X166500000Y-49000000D03*
X139000000Y-64500000D03*
X166500000Y-64500000D03*
X139000000Y-80000000D03*
X166500000Y-80000000D03*
X154250000Y-51450000D03*
X126750000Y-66950000D03*
X154250000Y-66950000D03*
X126750000Y-82450000D03*
X154250000Y-82450000D03*
X155200000Y-51450000D03*
X127700000Y-66950000D03*
X155200000Y-66950000D03*
X127700000Y-82450000D03*
X155200000Y-82450000D03*
D17*
%TO.N,Net-(D4-Pad1)*%
X131000000Y-53500000D03*
X128500000Y-57000000D03*
X158500000Y-53500000D03*
X131000000Y-69000000D03*
X158500000Y-69000000D03*
X131000000Y-84500000D03*
X158500000Y-84500000D03*
X156000000Y-57000000D03*
X128500000Y-72500000D03*
X156000000Y-72500000D03*
X128500000Y-88000000D03*
X156000000Y-88000000D03*
D16*
%TO.N,V_Filt+*%
X134200000Y-51150000D03*
X135200000Y-51150000D03*
D17*
X134000000Y-56500000D03*
X125500000Y-59500000D03*
X125500000Y-58000000D03*
X161500000Y-56500000D03*
X134000000Y-72000000D03*
X161500000Y-72000000D03*
X134000000Y-87500000D03*
X161500000Y-87500000D03*
X153000000Y-58000000D03*
X125500000Y-73500000D03*
X153000000Y-73500000D03*
X125500000Y-89000000D03*
X153000000Y-89000000D03*
X153000000Y-59500000D03*
X125500000Y-75000000D03*
X153000000Y-75000000D03*
X125500000Y-90500000D03*
X153000000Y-90500000D03*
D16*
X161700000Y-51150000D03*
X134200000Y-66650000D03*
X161700000Y-66650000D03*
X134200000Y-82150000D03*
X161700000Y-82150000D03*
X162700000Y-51150000D03*
X135200000Y-66650000D03*
X162700000Y-66650000D03*
X135200000Y-82150000D03*
X162700000Y-82150000D03*
D17*
%TO.N,Net-(L1-Pad1)*%
X131400000Y-50600000D03*
X158900000Y-50600000D03*
X131400000Y-66100000D03*
X158900000Y-66100000D03*
X131400000Y-81600000D03*
X158900000Y-81600000D03*
%TD*%
D18*
%TO.N,VSS*%
X142500000Y-57000000D02*
X143000000Y-56500000D01*
X142500000Y-58400000D02*
X142500000Y-57000000D01*
X124050000Y-52500000D02*
X124000000Y-52550000D01*
X127500000Y-52500000D02*
X124050000Y-52500000D01*
X123500000Y-49675000D02*
X123500000Y-48500000D01*
X127500000Y-52500000D02*
X126325000Y-52500000D01*
X126325000Y-52500000D02*
X123500000Y-49675000D01*
D19*
X142300000Y-49050000D02*
X141500000Y-48250000D01*
X142500000Y-49050000D02*
X142300000Y-49050000D01*
D18*
X170000000Y-57000000D02*
X170500000Y-56500000D01*
X142500000Y-72500000D02*
X143000000Y-72000000D01*
X170000000Y-72500000D02*
X170500000Y-72000000D01*
X142500000Y-88000000D02*
X143000000Y-87500000D01*
X170000000Y-88000000D02*
X170500000Y-87500000D01*
X170000000Y-58400000D02*
X170000000Y-57000000D01*
X142500000Y-73900000D02*
X142500000Y-72500000D01*
X170000000Y-73900000D02*
X170000000Y-72500000D01*
X142500000Y-89400000D02*
X142500000Y-88000000D01*
X170000000Y-89400000D02*
X170000000Y-88000000D01*
X151550000Y-52500000D02*
X151500000Y-52550000D01*
X124050000Y-68000000D02*
X124000000Y-68050000D01*
X151550000Y-68000000D02*
X151500000Y-68050000D01*
X124050000Y-83500000D02*
X124000000Y-83550000D01*
X151550000Y-83500000D02*
X151500000Y-83550000D01*
X155000000Y-52500000D02*
X151550000Y-52500000D01*
X127500000Y-68000000D02*
X124050000Y-68000000D01*
X155000000Y-68000000D02*
X151550000Y-68000000D01*
X127500000Y-83500000D02*
X124050000Y-83500000D01*
X155000000Y-83500000D02*
X151550000Y-83500000D01*
X151000000Y-49675000D02*
X151000000Y-48500000D01*
X123500000Y-65175000D02*
X123500000Y-64000000D01*
X151000000Y-65175000D02*
X151000000Y-64000000D01*
X123500000Y-80675000D02*
X123500000Y-79500000D01*
X151000000Y-80675000D02*
X151000000Y-79500000D01*
X155000000Y-52500000D02*
X153825000Y-52500000D01*
X127500000Y-68000000D02*
X126325000Y-68000000D01*
X155000000Y-68000000D02*
X153825000Y-68000000D01*
X127500000Y-83500000D02*
X126325000Y-83500000D01*
X155000000Y-83500000D02*
X153825000Y-83500000D01*
D19*
X170000000Y-49050000D02*
X169800000Y-49050000D01*
X142500000Y-64550000D02*
X142300000Y-64550000D01*
X170000000Y-64550000D02*
X169800000Y-64550000D01*
X142500000Y-80050000D02*
X142300000Y-80050000D01*
X170000000Y-80050000D02*
X169800000Y-80050000D01*
D18*
X153825000Y-52500000D02*
X151000000Y-49675000D01*
X126325000Y-68000000D02*
X123500000Y-65175000D01*
X153825000Y-68000000D02*
X151000000Y-65175000D01*
X126325000Y-83500000D02*
X123500000Y-80675000D01*
X153825000Y-83500000D02*
X151000000Y-80675000D01*
D19*
X169800000Y-49050000D02*
X169000000Y-48250000D01*
X142300000Y-64550000D02*
X141500000Y-63750000D01*
X169800000Y-64550000D02*
X169000000Y-63750000D01*
X142300000Y-80050000D02*
X141500000Y-79250000D01*
X169800000Y-80050000D02*
X169000000Y-79250000D01*
D20*
%TO.N,TIM1_CH1*%
X132974989Y-53037599D02*
X132974990Y-54111400D01*
X133537598Y-52474990D02*
X132974989Y-53037599D01*
X135474990Y-52474990D02*
X133537598Y-52474990D01*
X132974990Y-54111400D02*
X134575001Y-55711411D01*
X137000000Y-54000000D02*
X135474990Y-52474990D01*
X134575001Y-55711411D02*
X134575001Y-57424999D01*
X134575001Y-57424999D02*
X134000000Y-58000000D01*
X126424999Y-58575001D02*
X125075001Y-58575001D01*
X127000000Y-58000000D02*
X126424999Y-58575001D01*
X134000000Y-58000000D02*
X127000000Y-58000000D01*
X124924999Y-57075001D02*
X124974990Y-57025010D01*
X125075001Y-58575001D02*
X124924999Y-58424999D01*
X124924999Y-58424999D02*
X124924999Y-57075001D01*
X124900000Y-55050000D02*
X124000000Y-55050000D01*
X124975010Y-55125010D02*
X124900000Y-55050000D01*
X124975010Y-57024990D02*
X124975010Y-55125010D01*
X124924999Y-57075001D02*
X124975010Y-57024990D01*
X152424999Y-57075001D02*
X152475010Y-57024990D01*
X124924999Y-72575001D02*
X124975010Y-72524990D01*
X152424999Y-72575001D02*
X152475010Y-72524990D01*
X124924999Y-88075001D02*
X124975010Y-88024990D01*
X152424999Y-88075001D02*
X152475010Y-88024990D01*
X153924999Y-58575001D02*
X152575001Y-58575001D01*
X126424999Y-74075001D02*
X125075001Y-74075001D01*
X153924999Y-74075001D02*
X152575001Y-74075001D01*
X126424999Y-89575001D02*
X125075001Y-89575001D01*
X153924999Y-89575001D02*
X152575001Y-89575001D01*
X162075001Y-55711411D02*
X162075001Y-57424999D01*
X134575001Y-71211411D02*
X134575001Y-72924999D01*
X162075001Y-71211411D02*
X162075001Y-72924999D01*
X134575001Y-86711411D02*
X134575001Y-88424999D01*
X162075001Y-86711411D02*
X162075001Y-88424999D01*
X161500000Y-58000000D02*
X154500000Y-58000000D01*
X134000000Y-73500000D02*
X127000000Y-73500000D01*
X161500000Y-73500000D02*
X154500000Y-73500000D01*
X134000000Y-89000000D02*
X127000000Y-89000000D01*
X161500000Y-89000000D02*
X154500000Y-89000000D01*
X160474990Y-54111400D02*
X162075001Y-55711411D01*
X132974990Y-69611400D02*
X134575001Y-71211411D01*
X160474990Y-69611400D02*
X162075001Y-71211411D01*
X132974990Y-85111400D02*
X134575001Y-86711411D01*
X160474990Y-85111400D02*
X162075001Y-86711411D01*
X152400000Y-55050000D02*
X151500000Y-55050000D01*
X124900000Y-70550000D02*
X124000000Y-70550000D01*
X152400000Y-70550000D02*
X151500000Y-70550000D01*
X124900000Y-86050000D02*
X124000000Y-86050000D01*
X152400000Y-86050000D02*
X151500000Y-86050000D01*
X152575001Y-58575001D02*
X152424999Y-58424999D01*
X125075001Y-74075001D02*
X124924999Y-73924999D01*
X152575001Y-74075001D02*
X152424999Y-73924999D01*
X125075001Y-89575001D02*
X124924999Y-89424999D01*
X152575001Y-89575001D02*
X152424999Y-89424999D01*
X152475010Y-55125010D02*
X152400000Y-55050000D01*
X124975010Y-70625010D02*
X124900000Y-70550000D01*
X152475010Y-70625010D02*
X152400000Y-70550000D01*
X124975010Y-86125010D02*
X124900000Y-86050000D01*
X152475010Y-86125010D02*
X152400000Y-86050000D01*
X152424999Y-57075001D02*
X152474990Y-57025010D01*
X124924999Y-72575001D02*
X124974990Y-72525010D01*
X152424999Y-72575001D02*
X152474990Y-72525010D01*
X124924999Y-88075001D02*
X124974990Y-88025010D01*
X152424999Y-88075001D02*
X152474990Y-88025010D01*
X161037598Y-52474990D02*
X160474989Y-53037599D01*
X133537598Y-67974990D02*
X132974989Y-68537599D01*
X161037598Y-67974990D02*
X160474989Y-68537599D01*
X133537598Y-83474990D02*
X132974989Y-84037599D01*
X161037598Y-83474990D02*
X160474989Y-84037599D01*
X160474989Y-53037599D02*
X160474990Y-54111400D01*
X132974989Y-68537599D02*
X132974990Y-69611400D01*
X160474989Y-68537599D02*
X160474990Y-69611400D01*
X132974989Y-84037599D02*
X132974990Y-85111400D01*
X160474989Y-84037599D02*
X160474990Y-85111400D01*
X162974990Y-52474990D02*
X161037598Y-52474990D01*
X135474990Y-67974990D02*
X133537598Y-67974990D01*
X162974990Y-67974990D02*
X161037598Y-67974990D01*
X135474990Y-83474990D02*
X133537598Y-83474990D01*
X162974990Y-83474990D02*
X161037598Y-83474990D01*
X162075001Y-57424999D02*
X161500000Y-58000000D01*
X134575001Y-72924999D02*
X134000000Y-73500000D01*
X162075001Y-72924999D02*
X161500000Y-73500000D01*
X134575001Y-88424999D02*
X134000000Y-89000000D01*
X162075001Y-88424999D02*
X161500000Y-89000000D01*
X154500000Y-58000000D02*
X153924999Y-58575001D01*
X127000000Y-73500000D02*
X126424999Y-74075001D01*
X154500000Y-73500000D02*
X153924999Y-74075001D01*
X127000000Y-89000000D02*
X126424999Y-89575001D01*
X154500000Y-89000000D02*
X153924999Y-89575001D01*
X152424999Y-58424999D02*
X152424999Y-57075001D01*
X124924999Y-73924999D02*
X124924999Y-72575001D01*
X152424999Y-73924999D02*
X152424999Y-72575001D01*
X124924999Y-89424999D02*
X124924999Y-88075001D01*
X152424999Y-89424999D02*
X152424999Y-88075001D01*
X152475010Y-57024990D02*
X152475010Y-55125010D01*
X124975010Y-72524990D02*
X124975010Y-70625010D01*
X152475010Y-72524990D02*
X152475010Y-70625010D01*
X124975010Y-88024990D02*
X124975010Y-86125010D01*
X152475010Y-88024990D02*
X152475010Y-86125010D01*
X164500000Y-54000000D02*
X162974990Y-52474990D01*
X137000000Y-69500000D02*
X135474990Y-67974990D01*
X164500000Y-69500000D02*
X162974990Y-67974990D01*
X137000000Y-85000000D02*
X135474990Y-83474990D01*
X164500000Y-85000000D02*
X162974990Y-83474990D01*
D19*
%TO.N,NRST*%
X135750000Y-55250000D02*
X135750000Y-60000000D01*
X134000000Y-53500000D02*
X135750000Y-55250000D01*
X161500000Y-53500000D02*
X163250000Y-55250000D01*
X134000000Y-69000000D02*
X135750000Y-70750000D01*
X161500000Y-69000000D02*
X163250000Y-70750000D01*
X134000000Y-84500000D02*
X135750000Y-86250000D01*
X161500000Y-84500000D02*
X163250000Y-86250000D01*
X163250000Y-55250000D02*
X163250000Y-60000000D01*
X135750000Y-70750000D02*
X135750000Y-75500000D01*
X163250000Y-70750000D02*
X163250000Y-75500000D01*
X135750000Y-86250000D02*
X135750000Y-91000000D01*
X163250000Y-86250000D02*
X163250000Y-91000000D01*
%TO.N,Net-(Q1-Pad3)*%
X144000000Y-58850000D02*
X144500000Y-59350000D01*
X144000000Y-58000000D02*
X144000000Y-58850000D01*
X171500000Y-58850000D02*
X172000000Y-59350000D01*
X144000000Y-74350000D02*
X144500000Y-74850000D01*
X171500000Y-74350000D02*
X172000000Y-74850000D01*
X144000000Y-89850000D02*
X144500000Y-90350000D01*
X171500000Y-89850000D02*
X172000000Y-90350000D01*
X171500000Y-58000000D02*
X171500000Y-58850000D01*
X144000000Y-73500000D02*
X144000000Y-74350000D01*
X171500000Y-73500000D02*
X171500000Y-74350000D01*
X144000000Y-89000000D02*
X144000000Y-89850000D01*
X171500000Y-89000000D02*
X171500000Y-89850000D01*
%TO.N,Net-(Q1-Pad1)*%
X142500000Y-59970002D02*
X142500000Y-60300000D01*
X141000000Y-58470002D02*
X142500000Y-59970002D01*
X141000000Y-56500000D02*
X141000000Y-58470002D01*
X170000000Y-59970002D02*
X170000000Y-60300000D01*
X142500000Y-75470002D02*
X142500000Y-75800000D01*
X170000000Y-75470002D02*
X170000000Y-75800000D01*
X142500000Y-90970002D02*
X142500000Y-91300000D01*
X170000000Y-90970002D02*
X170000000Y-91300000D01*
X168500000Y-56500000D02*
X168500000Y-58470002D01*
X141000000Y-72000000D02*
X141000000Y-73970002D01*
X168500000Y-72000000D02*
X168500000Y-73970002D01*
X141000000Y-87500000D02*
X141000000Y-89470002D01*
X168500000Y-87500000D02*
X168500000Y-89470002D01*
X168500000Y-58470002D02*
X170000000Y-59970002D01*
X141000000Y-73970002D02*
X142500000Y-75470002D01*
X168500000Y-73970002D02*
X170000000Y-75470002D01*
X141000000Y-89470002D02*
X142500000Y-90970002D01*
X168500000Y-89470002D02*
X170000000Y-90970002D01*
%TO.N,Net-(Q2-Pad3)*%
X144500000Y-50000000D02*
X144500000Y-48500000D01*
X172000000Y-50000000D02*
X172000000Y-48500000D01*
X144500000Y-65500000D02*
X144500000Y-64000000D01*
X172000000Y-65500000D02*
X172000000Y-64000000D01*
X144500000Y-81000000D02*
X144500000Y-79500000D01*
X172000000Y-81000000D02*
X172000000Y-79500000D01*
%TO.N,Net-(Q2-Pad1)*%
X141500000Y-51950000D02*
X142500000Y-50950000D01*
X141500000Y-52000000D02*
X141500000Y-51950000D01*
X169000000Y-52000000D02*
X169000000Y-51950000D01*
X141500000Y-67500000D02*
X141500000Y-67450000D01*
X169000000Y-67500000D02*
X169000000Y-67450000D01*
X141500000Y-83000000D02*
X141500000Y-82950000D01*
X169000000Y-83000000D02*
X169000000Y-82950000D01*
X169000000Y-51950000D02*
X170000000Y-50950000D01*
X141500000Y-67450000D02*
X142500000Y-66450000D01*
X169000000Y-67450000D02*
X170000000Y-66450000D01*
X141500000Y-82950000D02*
X142500000Y-81950000D01*
X169000000Y-82950000D02*
X170000000Y-81950000D01*
D20*
%TO.N,TIM1_CH3*%
X125223999Y-60075001D02*
X124000000Y-58851002D01*
X127351002Y-58500000D02*
X125776001Y-60075001D01*
X124000000Y-57351002D02*
X124000000Y-56300000D01*
X124000000Y-58851002D02*
X124000000Y-57351002D01*
X134278552Y-52924999D02*
X133723999Y-52924999D01*
X133723999Y-52924999D02*
X133424999Y-53223999D01*
X134136410Y-58500000D02*
X127351002Y-58500000D01*
X137000000Y-56000000D02*
X137000000Y-55646447D01*
X133424999Y-53223999D02*
X133424999Y-53924999D01*
X133424999Y-53924999D02*
X135224990Y-55724990D01*
X135224990Y-57411420D02*
X134136410Y-58500000D01*
X135224990Y-55724990D02*
X135224990Y-57411420D01*
X137000000Y-55646447D02*
X134278552Y-52924999D01*
X125776001Y-60075001D02*
X125223999Y-60075001D01*
X152723999Y-60075001D02*
X151500000Y-58851002D01*
X125223999Y-75575001D02*
X124000000Y-74351002D01*
X152723999Y-75575001D02*
X151500000Y-74351002D01*
X125223999Y-91075001D02*
X124000000Y-89851002D01*
X152723999Y-91075001D02*
X151500000Y-89851002D01*
X162724990Y-55724990D02*
X162724990Y-57411420D01*
X135224990Y-71224990D02*
X135224990Y-72911420D01*
X162724990Y-71224990D02*
X162724990Y-72911420D01*
X135224990Y-86724990D02*
X135224990Y-88411420D01*
X162724990Y-86724990D02*
X162724990Y-88411420D01*
X160924999Y-53223999D02*
X160924999Y-53924999D01*
X133424999Y-68723999D02*
X133424999Y-69424999D01*
X160924999Y-68723999D02*
X160924999Y-69424999D01*
X133424999Y-84223999D02*
X133424999Y-84924999D01*
X160924999Y-84223999D02*
X160924999Y-84924999D01*
X151500000Y-57351002D02*
X151500000Y-56300000D01*
X124000000Y-72851002D02*
X124000000Y-71800000D01*
X151500000Y-72851002D02*
X151500000Y-71800000D01*
X124000000Y-88351002D02*
X124000000Y-87300000D01*
X151500000Y-88351002D02*
X151500000Y-87300000D01*
X151500000Y-58851002D02*
X151500000Y-57351002D01*
X124000000Y-74351002D02*
X124000000Y-72851002D01*
X151500000Y-74351002D02*
X151500000Y-72851002D01*
X124000000Y-89851002D02*
X124000000Y-88351002D01*
X151500000Y-89851002D02*
X151500000Y-88351002D01*
X161223999Y-52924999D02*
X160924999Y-53223999D01*
X133723999Y-68424999D02*
X133424999Y-68723999D01*
X161223999Y-68424999D02*
X160924999Y-68723999D01*
X133723999Y-83924999D02*
X133424999Y-84223999D01*
X161223999Y-83924999D02*
X160924999Y-84223999D01*
X154851002Y-58500000D02*
X153276001Y-60075001D01*
X127351002Y-74000000D02*
X125776001Y-75575001D01*
X154851002Y-74000000D02*
X153276001Y-75575001D01*
X127351002Y-89500000D02*
X125776001Y-91075001D01*
X154851002Y-89500000D02*
X153276001Y-91075001D01*
X161636410Y-58500000D02*
X154851002Y-58500000D01*
X134136410Y-74000000D02*
X127351002Y-74000000D01*
X161636410Y-74000000D02*
X154851002Y-74000000D01*
X134136410Y-89500000D02*
X127351002Y-89500000D01*
X161636410Y-89500000D02*
X154851002Y-89500000D01*
X162724990Y-57411420D02*
X161636410Y-58500000D01*
X135224990Y-72911420D02*
X134136410Y-74000000D01*
X162724990Y-72911420D02*
X161636410Y-74000000D01*
X135224990Y-88411420D02*
X134136410Y-89500000D01*
X162724990Y-88411420D02*
X161636410Y-89500000D01*
X161778552Y-52924999D02*
X161223999Y-52924999D01*
X134278552Y-68424999D02*
X133723999Y-68424999D01*
X161778552Y-68424999D02*
X161223999Y-68424999D01*
X134278552Y-83924999D02*
X133723999Y-83924999D01*
X161778552Y-83924999D02*
X161223999Y-83924999D01*
X164500000Y-55646447D02*
X161778552Y-52924999D01*
X137000000Y-71146447D02*
X134278552Y-68424999D01*
X164500000Y-71146447D02*
X161778552Y-68424999D01*
X137000000Y-86646447D02*
X134278552Y-83924999D01*
X164500000Y-86646447D02*
X161778552Y-83924999D01*
X160924999Y-53924999D02*
X162724990Y-55724990D01*
X133424999Y-69424999D02*
X135224990Y-71224990D01*
X160924999Y-69424999D02*
X162724990Y-71224990D01*
X133424999Y-84924999D02*
X135224990Y-86724990D01*
X160924999Y-84924999D02*
X162724990Y-86724990D01*
X153276001Y-60075001D02*
X152723999Y-60075001D01*
X125776001Y-75575001D02*
X125223999Y-75575001D01*
X153276001Y-75575001D02*
X152723999Y-75575001D01*
X125776001Y-91075001D02*
X125223999Y-91075001D01*
X153276001Y-91075001D02*
X152723999Y-91075001D01*
X164500000Y-56000000D02*
X164500000Y-55646447D01*
X137000000Y-71500000D02*
X137000000Y-71146447D01*
X164500000Y-71500000D02*
X164500000Y-71146447D01*
X137000000Y-87000000D02*
X137000000Y-86646447D01*
X164500000Y-87000000D02*
X164500000Y-86646447D01*
%TO.N,PB4*%
X130500000Y-59500000D02*
X131000000Y-59000000D01*
X134500000Y-59000000D02*
X135000000Y-58500000D01*
X131000000Y-59000000D02*
X134500000Y-59000000D01*
X158500000Y-59000000D02*
X162000000Y-59000000D01*
X131000000Y-74500000D02*
X134500000Y-74500000D01*
X158500000Y-74500000D02*
X162000000Y-74500000D01*
X131000000Y-90000000D02*
X134500000Y-90000000D01*
X158500000Y-90000000D02*
X162000000Y-90000000D01*
X162000000Y-59000000D02*
X162500000Y-58500000D01*
X134500000Y-74500000D02*
X135000000Y-74000000D01*
X162000000Y-74500000D02*
X162500000Y-74000000D01*
X134500000Y-90000000D02*
X135000000Y-89500000D01*
X162000000Y-90000000D02*
X162500000Y-89500000D01*
X158000000Y-59500000D02*
X158500000Y-59000000D01*
X130500000Y-75000000D02*
X131000000Y-74500000D01*
X158000000Y-75000000D02*
X158500000Y-74500000D01*
X130500000Y-90500000D02*
X131000000Y-90000000D01*
X158000000Y-90500000D02*
X158500000Y-90000000D01*
D19*
%TO.N,VDD*%
X127500000Y-57000000D02*
X127500000Y-55575000D01*
D21*
X126750000Y-49965500D02*
X127065500Y-49650000D01*
X126750000Y-51450000D02*
X126750000Y-49965500D01*
X127700000Y-50284500D02*
X127065500Y-49650000D01*
X127700000Y-51450000D02*
X127700000Y-50284500D01*
D19*
X155000000Y-57000000D02*
X155000000Y-55575000D01*
X127500000Y-72500000D02*
X127500000Y-71075000D01*
X155000000Y-72500000D02*
X155000000Y-71075000D01*
X127500000Y-88000000D02*
X127500000Y-86575000D01*
X155000000Y-88000000D02*
X155000000Y-86575000D01*
D21*
X154250000Y-51450000D02*
X154250000Y-49965500D01*
X126750000Y-66950000D02*
X126750000Y-65465500D01*
X154250000Y-66950000D02*
X154250000Y-65465500D01*
X126750000Y-82450000D02*
X126750000Y-80965500D01*
X154250000Y-82450000D02*
X154250000Y-80965500D01*
X154250000Y-49965500D02*
X154565500Y-49650000D01*
X126750000Y-65465500D02*
X127065500Y-65150000D01*
X154250000Y-65465500D02*
X154565500Y-65150000D01*
X126750000Y-80965500D02*
X127065500Y-80650000D01*
X154250000Y-80965500D02*
X154565500Y-80650000D01*
X155200000Y-51450000D02*
X155200000Y-50284500D01*
X127700000Y-66950000D02*
X127700000Y-65784500D01*
X155200000Y-66950000D02*
X155200000Y-65784500D01*
X127700000Y-82450000D02*
X127700000Y-81284500D01*
X155200000Y-82450000D02*
X155200000Y-81284500D01*
X155200000Y-50284500D02*
X154565500Y-49650000D01*
X127700000Y-65784500D02*
X127065500Y-65150000D01*
X155200000Y-65784500D02*
X154565500Y-65150000D01*
X127700000Y-81284500D02*
X127065500Y-80650000D01*
X155200000Y-81284500D02*
X154565500Y-80650000D01*
D19*
%TO.N,Net-(D4-Pad1)*%
X130500000Y-53500000D02*
X131000000Y-53500000D01*
X129500000Y-54500000D02*
X130500000Y-53500000D01*
X128500000Y-57000000D02*
X129500000Y-56000000D01*
X129500000Y-56000000D02*
X129500000Y-54500000D01*
X157000000Y-56000000D02*
X157000000Y-54500000D01*
X129500000Y-71500000D02*
X129500000Y-70000000D01*
X157000000Y-71500000D02*
X157000000Y-70000000D01*
X129500000Y-87000000D02*
X129500000Y-85500000D01*
X157000000Y-87000000D02*
X157000000Y-85500000D01*
X158000000Y-53500000D02*
X158500000Y-53500000D01*
X130500000Y-69000000D02*
X131000000Y-69000000D01*
X158000000Y-69000000D02*
X158500000Y-69000000D01*
X130500000Y-84500000D02*
X131000000Y-84500000D01*
X158000000Y-84500000D02*
X158500000Y-84500000D01*
X157000000Y-54500000D02*
X158000000Y-53500000D01*
X129500000Y-70000000D02*
X130500000Y-69000000D01*
X157000000Y-70000000D02*
X158000000Y-69000000D01*
X129500000Y-85500000D02*
X130500000Y-84500000D01*
X157000000Y-85500000D02*
X158000000Y-84500000D01*
X156000000Y-57000000D02*
X157000000Y-56000000D01*
X128500000Y-72500000D02*
X129500000Y-71500000D01*
X156000000Y-72500000D02*
X157000000Y-71500000D01*
X128500000Y-88000000D02*
X129500000Y-87000000D01*
X156000000Y-88000000D02*
X157000000Y-87000000D01*
%TO.N,V_Filt+*%
X125500000Y-58000000D02*
X125500000Y-58000000D01*
X130840380Y-52378378D02*
X129878378Y-52378378D01*
X130840380Y-52378378D02*
X130840380Y-52340380D01*
X130378378Y-51878378D02*
X129878378Y-52378378D01*
X130840380Y-51416376D02*
X130878378Y-51378378D01*
X130840380Y-52378378D02*
X130840380Y-51416376D01*
X130878378Y-51378378D02*
X130378378Y-51878378D01*
X131650001Y-53150001D02*
X130840380Y-52340380D01*
X131650001Y-54150001D02*
X131650001Y-53150001D01*
X134000000Y-56500000D02*
X131650001Y-54150001D01*
X125749999Y-54499999D02*
X125050000Y-53800000D01*
X125050000Y-53800000D02*
X124000000Y-53800000D01*
X125749999Y-57750001D02*
X125749999Y-54499999D01*
X125500000Y-58000000D02*
X125749999Y-57750001D01*
D21*
X131050001Y-51549999D02*
X130550000Y-52050000D01*
X133800001Y-51549999D02*
X131050001Y-51549999D01*
X134200000Y-51150000D02*
X133800001Y-51549999D01*
D19*
X130840380Y-52340380D02*
X130550000Y-52050000D01*
X130550000Y-52050000D02*
X130378378Y-51878378D01*
D21*
X128585668Y-53912510D02*
X124112510Y-53912510D01*
X129878378Y-52619800D02*
X128585668Y-53912510D01*
X124112510Y-53912510D02*
X124000000Y-53800000D01*
X129878378Y-52378378D02*
X129878378Y-52619800D01*
D19*
X153000000Y-58000000D02*
X153000000Y-58000000D01*
X125500000Y-73500000D02*
X125500000Y-73500000D01*
X153000000Y-73500000D02*
X153000000Y-73500000D01*
X125500000Y-89000000D02*
X125500000Y-89000000D01*
X153000000Y-89000000D02*
X153000000Y-89000000D01*
X158340380Y-52378378D02*
X157378378Y-52378378D01*
X130840380Y-67878378D02*
X129878378Y-67878378D01*
X158340380Y-67878378D02*
X157378378Y-67878378D01*
X130840380Y-83378378D02*
X129878378Y-83378378D01*
X158340380Y-83378378D02*
X157378378Y-83378378D01*
X158340380Y-52378378D02*
X158340380Y-52340380D01*
X130840380Y-67878378D02*
X130840380Y-67840380D01*
X158340380Y-67878378D02*
X158340380Y-67840380D01*
X130840380Y-83378378D02*
X130840380Y-83340380D01*
X158340380Y-83378378D02*
X158340380Y-83340380D01*
X157878378Y-51878378D02*
X157378378Y-52378378D01*
X130378378Y-67378378D02*
X129878378Y-67878378D01*
X157878378Y-67378378D02*
X157378378Y-67878378D01*
X130378378Y-82878378D02*
X129878378Y-83378378D01*
X157878378Y-82878378D02*
X157378378Y-83378378D01*
X152550000Y-53800000D02*
X151500000Y-53800000D01*
X125050000Y-69300000D02*
X124000000Y-69300000D01*
X152550000Y-69300000D02*
X151500000Y-69300000D01*
X125050000Y-84800000D02*
X124000000Y-84800000D01*
X152550000Y-84800000D02*
X151500000Y-84800000D01*
X159150001Y-53150001D02*
X158340380Y-52340380D01*
X131650001Y-68650001D02*
X130840380Y-67840380D01*
X159150001Y-68650001D02*
X158340380Y-67840380D01*
X131650001Y-84150001D02*
X130840380Y-83340380D01*
X159150001Y-84150001D02*
X158340380Y-83340380D01*
X158340380Y-52378378D02*
X158340380Y-51416376D01*
X130840380Y-67878378D02*
X130840380Y-66916376D01*
X158340380Y-67878378D02*
X158340380Y-66916376D01*
X130840380Y-83378378D02*
X130840380Y-82416376D01*
X158340380Y-83378378D02*
X158340380Y-82416376D01*
X161500000Y-56500000D02*
X159150001Y-54150001D01*
X134000000Y-72000000D02*
X131650001Y-69650001D01*
X161500000Y-72000000D02*
X159150001Y-69650001D01*
X134000000Y-87500000D02*
X131650001Y-85150001D01*
X161500000Y-87500000D02*
X159150001Y-85150001D01*
X153249999Y-54499999D02*
X152550000Y-53800000D01*
X125749999Y-69999999D02*
X125050000Y-69300000D01*
X153249999Y-69999999D02*
X152550000Y-69300000D01*
X125749999Y-85499999D02*
X125050000Y-84800000D01*
X153249999Y-85499999D02*
X152550000Y-84800000D01*
X158340380Y-51416376D02*
X158378378Y-51378378D01*
X130840380Y-66916376D02*
X130878378Y-66878378D01*
X158340380Y-66916376D02*
X158378378Y-66878378D01*
X130840380Y-82416376D02*
X130878378Y-82378378D01*
X158340380Y-82416376D02*
X158378378Y-82378378D01*
X153249999Y-57750001D02*
X153249999Y-54499999D01*
X125749999Y-73250001D02*
X125749999Y-69999999D01*
X153249999Y-73250001D02*
X153249999Y-69999999D01*
X125749999Y-88750001D02*
X125749999Y-85499999D01*
X153249999Y-88750001D02*
X153249999Y-85499999D01*
X158378378Y-51378378D02*
X157878378Y-51878378D01*
X130878378Y-66878378D02*
X130378378Y-67378378D01*
X158378378Y-66878378D02*
X157878378Y-67378378D01*
X130878378Y-82378378D02*
X130378378Y-82878378D01*
X158378378Y-82378378D02*
X157878378Y-82878378D01*
X153000000Y-58000000D02*
X153249999Y-57750001D01*
X125500000Y-73500000D02*
X125749999Y-73250001D01*
X153000000Y-73500000D02*
X153249999Y-73250001D01*
X125500000Y-89000000D02*
X125749999Y-88750001D01*
X153000000Y-89000000D02*
X153249999Y-88750001D01*
X159150001Y-54150001D02*
X159150001Y-53150001D01*
X131650001Y-69650001D02*
X131650001Y-68650001D01*
X159150001Y-69650001D02*
X159150001Y-68650001D01*
X131650001Y-85150001D02*
X131650001Y-84150001D01*
X159150001Y-85150001D02*
X159150001Y-84150001D01*
D21*
X161300001Y-51549999D02*
X158550001Y-51549999D01*
X133800001Y-67049999D02*
X131050001Y-67049999D01*
X161300001Y-67049999D02*
X158550001Y-67049999D01*
X133800001Y-82549999D02*
X131050001Y-82549999D01*
X161300001Y-82549999D02*
X158550001Y-82549999D01*
D19*
X158340380Y-52340380D02*
X158050000Y-52050000D01*
X130840380Y-67840380D02*
X130550000Y-67550000D01*
X158340380Y-67840380D02*
X158050000Y-67550000D01*
X130840380Y-83340380D02*
X130550000Y-83050000D01*
X158340380Y-83340380D02*
X158050000Y-83050000D01*
D21*
X161700000Y-51150000D02*
X161300001Y-51549999D01*
X134200000Y-66650000D02*
X133800001Y-67049999D01*
X161700000Y-66650000D02*
X161300001Y-67049999D01*
X134200000Y-82150000D02*
X133800001Y-82549999D01*
X161700000Y-82150000D02*
X161300001Y-82549999D01*
X158550001Y-51549999D02*
X158050000Y-52050000D01*
X131050001Y-67049999D02*
X130550000Y-67550000D01*
X158550001Y-67049999D02*
X158050000Y-67550000D01*
X131050001Y-82549999D02*
X130550000Y-83050000D01*
X158550001Y-82549999D02*
X158050000Y-83050000D01*
D19*
X158050000Y-52050000D02*
X157878378Y-51878378D01*
X130550000Y-67550000D02*
X130378378Y-67378378D01*
X158050000Y-67550000D02*
X157878378Y-67378378D01*
X130550000Y-83050000D02*
X130378378Y-82878378D01*
X158050000Y-83050000D02*
X157878378Y-82878378D01*
D21*
X157378378Y-52378378D02*
X157378378Y-52619800D01*
X129878378Y-67878378D02*
X129878378Y-68119800D01*
X157378378Y-67878378D02*
X157378378Y-68119800D01*
X129878378Y-83378378D02*
X129878378Y-83619800D01*
X157378378Y-83378378D02*
X157378378Y-83619800D01*
X157378378Y-52619800D02*
X156085668Y-53912510D01*
X129878378Y-68119800D02*
X128585668Y-69412510D01*
X157378378Y-68119800D02*
X156085668Y-69412510D01*
X129878378Y-83619800D02*
X128585668Y-84912510D01*
X157378378Y-83619800D02*
X156085668Y-84912510D01*
X151612510Y-53912510D02*
X151500000Y-53800000D01*
X124112510Y-69412510D02*
X124000000Y-69300000D01*
X151612510Y-69412510D02*
X151500000Y-69300000D01*
X124112510Y-84912510D02*
X124000000Y-84800000D01*
X151612510Y-84912510D02*
X151500000Y-84800000D01*
X156085668Y-53912510D02*
X151612510Y-53912510D01*
X128585668Y-69412510D02*
X124112510Y-69412510D01*
X156085668Y-69412510D02*
X151612510Y-69412510D01*
X128585668Y-84912510D02*
X124112510Y-84912510D01*
X156085668Y-84912510D02*
X151612510Y-84912510D01*
%TD*%
M02*
