%TF.GenerationSoftware,KiCad,Pcbnew,(5.1.6)-1*%
%TF.CreationDate,2021-08-29T21:48:12-05:00*%
%TF.ProjectId,MicroBrushedESC,4d696372-6f42-4727-9573-686564455343,rev?*%
%TF.SameCoordinates,Original*%
%TF.FileFunction,Paste,Top*%
%TF.FilePolarity,Positive*%
%FSLAX46Y46*%
G04 Gerber Fmt 4.6, Leading zero omitted, Abs format (unit mm)*
G04 Created by KiCad (PCBNEW (5.1.6)-1) date 2021-08-29 21:48:12*
%MOMM*%
%LPD*%
G01*
G04 APERTURE LIST*
%ADD10R,0.280000X0.700000*%
%ADD11C,0.280000*%
%ADD12R,0.710000X0.280000*%
%ADD13R,1.650000X2.400000*%
%ADD14R,0.900000X1.200000*%
%ADD15R,0.900000X0.800000*%
G04 APERTURE END LIST*
%TO.C,R14*%
G36*
G01*
X151895000Y-80927500D02*
X151895000Y-81272500D01*
G75*
G02*
X151747500Y-81420000I-147500J0D01*
G01*
X151452500Y-81420000D01*
G75*
G02*
X151305000Y-81272500I0J147500D01*
G01*
X151305000Y-80927500D01*
G75*
G02*
X151452500Y-80780000I147500J0D01*
G01*
X151747500Y-80780000D01*
G75*
G02*
X151895000Y-80927500I0J-147500D01*
G01*
G37*
G36*
G01*
X150925000Y-80927500D02*
X150925000Y-81272500D01*
G75*
G02*
X150777500Y-81420000I-147500J0D01*
G01*
X150482500Y-81420000D01*
G75*
G02*
X150335000Y-81272500I0J147500D01*
G01*
X150335000Y-80927500D01*
G75*
G02*
X150482500Y-80780000I147500J0D01*
G01*
X150777500Y-80780000D01*
G75*
G02*
X150925000Y-80927500I0J-147500D01*
G01*
G37*
%TD*%
%TO.C,R14*%
G36*
G01*
X124395000Y-80927500D02*
X124395000Y-81272500D01*
G75*
G02*
X124247500Y-81420000I-147500J0D01*
G01*
X123952500Y-81420000D01*
G75*
G02*
X123805000Y-81272500I0J147500D01*
G01*
X123805000Y-80927500D01*
G75*
G02*
X123952500Y-80780000I147500J0D01*
G01*
X124247500Y-80780000D01*
G75*
G02*
X124395000Y-80927500I0J-147500D01*
G01*
G37*
G36*
G01*
X123425000Y-80927500D02*
X123425000Y-81272500D01*
G75*
G02*
X123277500Y-81420000I-147500J0D01*
G01*
X122982500Y-81420000D01*
G75*
G02*
X122835000Y-81272500I0J147500D01*
G01*
X122835000Y-80927500D01*
G75*
G02*
X122982500Y-80780000I147500J0D01*
G01*
X123277500Y-80780000D01*
G75*
G02*
X123425000Y-80927500I0J-147500D01*
G01*
G37*
%TD*%
%TO.C,R14*%
G36*
G01*
X151895000Y-65427500D02*
X151895000Y-65772500D01*
G75*
G02*
X151747500Y-65920000I-147500J0D01*
G01*
X151452500Y-65920000D01*
G75*
G02*
X151305000Y-65772500I0J147500D01*
G01*
X151305000Y-65427500D01*
G75*
G02*
X151452500Y-65280000I147500J0D01*
G01*
X151747500Y-65280000D01*
G75*
G02*
X151895000Y-65427500I0J-147500D01*
G01*
G37*
G36*
G01*
X150925000Y-65427500D02*
X150925000Y-65772500D01*
G75*
G02*
X150777500Y-65920000I-147500J0D01*
G01*
X150482500Y-65920000D01*
G75*
G02*
X150335000Y-65772500I0J147500D01*
G01*
X150335000Y-65427500D01*
G75*
G02*
X150482500Y-65280000I147500J0D01*
G01*
X150777500Y-65280000D01*
G75*
G02*
X150925000Y-65427500I0J-147500D01*
G01*
G37*
%TD*%
%TO.C,R14*%
G36*
G01*
X124395000Y-65427500D02*
X124395000Y-65772500D01*
G75*
G02*
X124247500Y-65920000I-147500J0D01*
G01*
X123952500Y-65920000D01*
G75*
G02*
X123805000Y-65772500I0J147500D01*
G01*
X123805000Y-65427500D01*
G75*
G02*
X123952500Y-65280000I147500J0D01*
G01*
X124247500Y-65280000D01*
G75*
G02*
X124395000Y-65427500I0J-147500D01*
G01*
G37*
G36*
G01*
X123425000Y-65427500D02*
X123425000Y-65772500D01*
G75*
G02*
X123277500Y-65920000I-147500J0D01*
G01*
X122982500Y-65920000D01*
G75*
G02*
X122835000Y-65772500I0J147500D01*
G01*
X122835000Y-65427500D01*
G75*
G02*
X122982500Y-65280000I147500J0D01*
G01*
X123277500Y-65280000D01*
G75*
G02*
X123425000Y-65427500I0J-147500D01*
G01*
G37*
%TD*%
%TO.C,R14*%
G36*
G01*
X151895000Y-49927500D02*
X151895000Y-50272500D01*
G75*
G02*
X151747500Y-50420000I-147500J0D01*
G01*
X151452500Y-50420000D01*
G75*
G02*
X151305000Y-50272500I0J147500D01*
G01*
X151305000Y-49927500D01*
G75*
G02*
X151452500Y-49780000I147500J0D01*
G01*
X151747500Y-49780000D01*
G75*
G02*
X151895000Y-49927500I0J-147500D01*
G01*
G37*
G36*
G01*
X150925000Y-49927500D02*
X150925000Y-50272500D01*
G75*
G02*
X150777500Y-50420000I-147500J0D01*
G01*
X150482500Y-50420000D01*
G75*
G02*
X150335000Y-50272500I0J147500D01*
G01*
X150335000Y-49927500D01*
G75*
G02*
X150482500Y-49780000I147500J0D01*
G01*
X150777500Y-49780000D01*
G75*
G02*
X150925000Y-49927500I0J-147500D01*
G01*
G37*
%TD*%
%TO.C,R13*%
G36*
G01*
X153872500Y-84865000D02*
X153527500Y-84865000D01*
G75*
G02*
X153380000Y-84717500I0J147500D01*
G01*
X153380000Y-84422500D01*
G75*
G02*
X153527500Y-84275000I147500J0D01*
G01*
X153872500Y-84275000D01*
G75*
G02*
X154020000Y-84422500I0J-147500D01*
G01*
X154020000Y-84717500D01*
G75*
G02*
X153872500Y-84865000I-147500J0D01*
G01*
G37*
G36*
G01*
X153872500Y-83895000D02*
X153527500Y-83895000D01*
G75*
G02*
X153380000Y-83747500I0J147500D01*
G01*
X153380000Y-83452500D01*
G75*
G02*
X153527500Y-83305000I147500J0D01*
G01*
X153872500Y-83305000D01*
G75*
G02*
X154020000Y-83452500I0J-147500D01*
G01*
X154020000Y-83747500D01*
G75*
G02*
X153872500Y-83895000I-147500J0D01*
G01*
G37*
%TD*%
%TO.C,R13*%
G36*
G01*
X126372500Y-84865000D02*
X126027500Y-84865000D01*
G75*
G02*
X125880000Y-84717500I0J147500D01*
G01*
X125880000Y-84422500D01*
G75*
G02*
X126027500Y-84275000I147500J0D01*
G01*
X126372500Y-84275000D01*
G75*
G02*
X126520000Y-84422500I0J-147500D01*
G01*
X126520000Y-84717500D01*
G75*
G02*
X126372500Y-84865000I-147500J0D01*
G01*
G37*
G36*
G01*
X126372500Y-83895000D02*
X126027500Y-83895000D01*
G75*
G02*
X125880000Y-83747500I0J147500D01*
G01*
X125880000Y-83452500D01*
G75*
G02*
X126027500Y-83305000I147500J0D01*
G01*
X126372500Y-83305000D01*
G75*
G02*
X126520000Y-83452500I0J-147500D01*
G01*
X126520000Y-83747500D01*
G75*
G02*
X126372500Y-83895000I-147500J0D01*
G01*
G37*
%TD*%
%TO.C,R13*%
G36*
G01*
X153872500Y-69365000D02*
X153527500Y-69365000D01*
G75*
G02*
X153380000Y-69217500I0J147500D01*
G01*
X153380000Y-68922500D01*
G75*
G02*
X153527500Y-68775000I147500J0D01*
G01*
X153872500Y-68775000D01*
G75*
G02*
X154020000Y-68922500I0J-147500D01*
G01*
X154020000Y-69217500D01*
G75*
G02*
X153872500Y-69365000I-147500J0D01*
G01*
G37*
G36*
G01*
X153872500Y-68395000D02*
X153527500Y-68395000D01*
G75*
G02*
X153380000Y-68247500I0J147500D01*
G01*
X153380000Y-67952500D01*
G75*
G02*
X153527500Y-67805000I147500J0D01*
G01*
X153872500Y-67805000D01*
G75*
G02*
X154020000Y-67952500I0J-147500D01*
G01*
X154020000Y-68247500D01*
G75*
G02*
X153872500Y-68395000I-147500J0D01*
G01*
G37*
%TD*%
%TO.C,R13*%
G36*
G01*
X126372500Y-69365000D02*
X126027500Y-69365000D01*
G75*
G02*
X125880000Y-69217500I0J147500D01*
G01*
X125880000Y-68922500D01*
G75*
G02*
X126027500Y-68775000I147500J0D01*
G01*
X126372500Y-68775000D01*
G75*
G02*
X126520000Y-68922500I0J-147500D01*
G01*
X126520000Y-69217500D01*
G75*
G02*
X126372500Y-69365000I-147500J0D01*
G01*
G37*
G36*
G01*
X126372500Y-68395000D02*
X126027500Y-68395000D01*
G75*
G02*
X125880000Y-68247500I0J147500D01*
G01*
X125880000Y-67952500D01*
G75*
G02*
X126027500Y-67805000I147500J0D01*
G01*
X126372500Y-67805000D01*
G75*
G02*
X126520000Y-67952500I0J-147500D01*
G01*
X126520000Y-68247500D01*
G75*
G02*
X126372500Y-68395000I-147500J0D01*
G01*
G37*
%TD*%
%TO.C,R13*%
G36*
G01*
X153872500Y-53865000D02*
X153527500Y-53865000D01*
G75*
G02*
X153380000Y-53717500I0J147500D01*
G01*
X153380000Y-53422500D01*
G75*
G02*
X153527500Y-53275000I147500J0D01*
G01*
X153872500Y-53275000D01*
G75*
G02*
X154020000Y-53422500I0J-147500D01*
G01*
X154020000Y-53717500D01*
G75*
G02*
X153872500Y-53865000I-147500J0D01*
G01*
G37*
G36*
G01*
X153872500Y-52895000D02*
X153527500Y-52895000D01*
G75*
G02*
X153380000Y-52747500I0J147500D01*
G01*
X153380000Y-52452500D01*
G75*
G02*
X153527500Y-52305000I147500J0D01*
G01*
X153872500Y-52305000D01*
G75*
G02*
X154020000Y-52452500I0J-147500D01*
G01*
X154020000Y-52747500D01*
G75*
G02*
X153872500Y-52895000I-147500J0D01*
G01*
G37*
%TD*%
%TO.C,R9*%
G36*
G01*
X159172500Y-80545000D02*
X158827500Y-80545000D01*
G75*
G02*
X158680000Y-80397500I0J147500D01*
G01*
X158680000Y-80102500D01*
G75*
G02*
X158827500Y-79955000I147500J0D01*
G01*
X159172500Y-79955000D01*
G75*
G02*
X159320000Y-80102500I0J-147500D01*
G01*
X159320000Y-80397500D01*
G75*
G02*
X159172500Y-80545000I-147500J0D01*
G01*
G37*
G36*
G01*
X159172500Y-79575000D02*
X158827500Y-79575000D01*
G75*
G02*
X158680000Y-79427500I0J147500D01*
G01*
X158680000Y-79132500D01*
G75*
G02*
X158827500Y-78985000I147500J0D01*
G01*
X159172500Y-78985000D01*
G75*
G02*
X159320000Y-79132500I0J-147500D01*
G01*
X159320000Y-79427500D01*
G75*
G02*
X159172500Y-79575000I-147500J0D01*
G01*
G37*
%TD*%
%TO.C,R9*%
G36*
G01*
X131672500Y-80545000D02*
X131327500Y-80545000D01*
G75*
G02*
X131180000Y-80397500I0J147500D01*
G01*
X131180000Y-80102500D01*
G75*
G02*
X131327500Y-79955000I147500J0D01*
G01*
X131672500Y-79955000D01*
G75*
G02*
X131820000Y-80102500I0J-147500D01*
G01*
X131820000Y-80397500D01*
G75*
G02*
X131672500Y-80545000I-147500J0D01*
G01*
G37*
G36*
G01*
X131672500Y-79575000D02*
X131327500Y-79575000D01*
G75*
G02*
X131180000Y-79427500I0J147500D01*
G01*
X131180000Y-79132500D01*
G75*
G02*
X131327500Y-78985000I147500J0D01*
G01*
X131672500Y-78985000D01*
G75*
G02*
X131820000Y-79132500I0J-147500D01*
G01*
X131820000Y-79427500D01*
G75*
G02*
X131672500Y-79575000I-147500J0D01*
G01*
G37*
%TD*%
%TO.C,R9*%
G36*
G01*
X159172500Y-65045000D02*
X158827500Y-65045000D01*
G75*
G02*
X158680000Y-64897500I0J147500D01*
G01*
X158680000Y-64602500D01*
G75*
G02*
X158827500Y-64455000I147500J0D01*
G01*
X159172500Y-64455000D01*
G75*
G02*
X159320000Y-64602500I0J-147500D01*
G01*
X159320000Y-64897500D01*
G75*
G02*
X159172500Y-65045000I-147500J0D01*
G01*
G37*
G36*
G01*
X159172500Y-64075000D02*
X158827500Y-64075000D01*
G75*
G02*
X158680000Y-63927500I0J147500D01*
G01*
X158680000Y-63632500D01*
G75*
G02*
X158827500Y-63485000I147500J0D01*
G01*
X159172500Y-63485000D01*
G75*
G02*
X159320000Y-63632500I0J-147500D01*
G01*
X159320000Y-63927500D01*
G75*
G02*
X159172500Y-64075000I-147500J0D01*
G01*
G37*
%TD*%
%TO.C,R9*%
G36*
G01*
X131672500Y-65045000D02*
X131327500Y-65045000D01*
G75*
G02*
X131180000Y-64897500I0J147500D01*
G01*
X131180000Y-64602500D01*
G75*
G02*
X131327500Y-64455000I147500J0D01*
G01*
X131672500Y-64455000D01*
G75*
G02*
X131820000Y-64602500I0J-147500D01*
G01*
X131820000Y-64897500D01*
G75*
G02*
X131672500Y-65045000I-147500J0D01*
G01*
G37*
G36*
G01*
X131672500Y-64075000D02*
X131327500Y-64075000D01*
G75*
G02*
X131180000Y-63927500I0J147500D01*
G01*
X131180000Y-63632500D01*
G75*
G02*
X131327500Y-63485000I147500J0D01*
G01*
X131672500Y-63485000D01*
G75*
G02*
X131820000Y-63632500I0J-147500D01*
G01*
X131820000Y-63927500D01*
G75*
G02*
X131672500Y-64075000I-147500J0D01*
G01*
G37*
%TD*%
%TO.C,R9*%
G36*
G01*
X159172500Y-49545000D02*
X158827500Y-49545000D01*
G75*
G02*
X158680000Y-49397500I0J147500D01*
G01*
X158680000Y-49102500D01*
G75*
G02*
X158827500Y-48955000I147500J0D01*
G01*
X159172500Y-48955000D01*
G75*
G02*
X159320000Y-49102500I0J-147500D01*
G01*
X159320000Y-49397500D01*
G75*
G02*
X159172500Y-49545000I-147500J0D01*
G01*
G37*
G36*
G01*
X159172500Y-48575000D02*
X158827500Y-48575000D01*
G75*
G02*
X158680000Y-48427500I0J147500D01*
G01*
X158680000Y-48132500D01*
G75*
G02*
X158827500Y-47985000I147500J0D01*
G01*
X159172500Y-47985000D01*
G75*
G02*
X159320000Y-48132500I0J-147500D01*
G01*
X159320000Y-48427500D01*
G75*
G02*
X159172500Y-48575000I-147500J0D01*
G01*
G37*
%TD*%
D10*
%TO.C,U2*%
X156710000Y-82250000D03*
X156210000Y-82250000D03*
X156210000Y-79150000D03*
D11*
X155270000Y-79700000D03*
D12*
X154920000Y-79700000D03*
D13*
X156460000Y-80700000D03*
D11*
X157650000Y-81700000D03*
D12*
X158000000Y-81700000D03*
X158000000Y-81200000D03*
X158000000Y-80700000D03*
X158000000Y-80200000D03*
X158000000Y-79700000D03*
D11*
X157650000Y-81200000D03*
X157650000Y-80700000D03*
X157650000Y-80200000D03*
X157650000Y-79700000D03*
D12*
X154920000Y-80200000D03*
X154920000Y-80700000D03*
X154920000Y-81200000D03*
X154920000Y-81700000D03*
D11*
X155270000Y-80200000D03*
X155270000Y-80700000D03*
X155270000Y-81200000D03*
X155270000Y-81700000D03*
D10*
X156710000Y-79150000D03*
%TD*%
%TO.C,U2*%
X129210000Y-82250000D03*
X128710000Y-82250000D03*
X128710000Y-79150000D03*
D11*
X127770000Y-79700000D03*
D12*
X127420000Y-79700000D03*
D13*
X128960000Y-80700000D03*
D11*
X130150000Y-81700000D03*
D12*
X130500000Y-81700000D03*
X130500000Y-81200000D03*
X130500000Y-80700000D03*
X130500000Y-80200000D03*
X130500000Y-79700000D03*
D11*
X130150000Y-81200000D03*
X130150000Y-80700000D03*
X130150000Y-80200000D03*
X130150000Y-79700000D03*
D12*
X127420000Y-80200000D03*
X127420000Y-80700000D03*
X127420000Y-81200000D03*
X127420000Y-81700000D03*
D11*
X127770000Y-80200000D03*
X127770000Y-80700000D03*
X127770000Y-81200000D03*
X127770000Y-81700000D03*
D10*
X129210000Y-79150000D03*
%TD*%
%TO.C,U2*%
X156710000Y-66750000D03*
X156210000Y-66750000D03*
X156210000Y-63650000D03*
D11*
X155270000Y-64200000D03*
D12*
X154920000Y-64200000D03*
D13*
X156460000Y-65200000D03*
D11*
X157650000Y-66200000D03*
D12*
X158000000Y-66200000D03*
X158000000Y-65700000D03*
X158000000Y-65200000D03*
X158000000Y-64700000D03*
X158000000Y-64200000D03*
D11*
X157650000Y-65700000D03*
X157650000Y-65200000D03*
X157650000Y-64700000D03*
X157650000Y-64200000D03*
D12*
X154920000Y-64700000D03*
X154920000Y-65200000D03*
X154920000Y-65700000D03*
X154920000Y-66200000D03*
D11*
X155270000Y-64700000D03*
X155270000Y-65200000D03*
X155270000Y-65700000D03*
X155270000Y-66200000D03*
D10*
X156710000Y-63650000D03*
%TD*%
%TO.C,U2*%
X129210000Y-66750000D03*
X128710000Y-66750000D03*
X128710000Y-63650000D03*
D11*
X127770000Y-64200000D03*
D12*
X127420000Y-64200000D03*
D13*
X128960000Y-65200000D03*
D11*
X130150000Y-66200000D03*
D12*
X130500000Y-66200000D03*
X130500000Y-65700000D03*
X130500000Y-65200000D03*
X130500000Y-64700000D03*
X130500000Y-64200000D03*
D11*
X130150000Y-65700000D03*
X130150000Y-65200000D03*
X130150000Y-64700000D03*
X130150000Y-64200000D03*
D12*
X127420000Y-64700000D03*
X127420000Y-65200000D03*
X127420000Y-65700000D03*
X127420000Y-66200000D03*
D11*
X127770000Y-64700000D03*
X127770000Y-65200000D03*
X127770000Y-65700000D03*
X127770000Y-66200000D03*
D10*
X129210000Y-63650000D03*
%TD*%
%TO.C,U2*%
X156710000Y-51250000D03*
X156210000Y-51250000D03*
X156210000Y-48150000D03*
D11*
X155270000Y-48700000D03*
D12*
X154920000Y-48700000D03*
D13*
X156460000Y-49700000D03*
D11*
X157650000Y-50700000D03*
D12*
X158000000Y-50700000D03*
X158000000Y-50200000D03*
X158000000Y-49700000D03*
X158000000Y-49200000D03*
X158000000Y-48700000D03*
D11*
X157650000Y-50200000D03*
X157650000Y-49700000D03*
X157650000Y-49200000D03*
X157650000Y-48700000D03*
D12*
X154920000Y-49200000D03*
X154920000Y-49700000D03*
X154920000Y-50200000D03*
X154920000Y-50700000D03*
D11*
X155270000Y-49200000D03*
X155270000Y-49700000D03*
X155270000Y-50200000D03*
X155270000Y-50700000D03*
D10*
X156710000Y-48150000D03*
%TD*%
%TO.C,C9*%
G36*
G01*
X160506250Y-81437500D02*
X159993750Y-81437500D01*
G75*
G02*
X159775000Y-81218750I0J218750D01*
G01*
X159775000Y-80781250D01*
G75*
G02*
X159993750Y-80562500I218750J0D01*
G01*
X160506250Y-80562500D01*
G75*
G02*
X160725000Y-80781250I0J-218750D01*
G01*
X160725000Y-81218750D01*
G75*
G02*
X160506250Y-81437500I-218750J0D01*
G01*
G37*
G36*
G01*
X160506250Y-79862500D02*
X159993750Y-79862500D01*
G75*
G02*
X159775000Y-79643750I0J218750D01*
G01*
X159775000Y-79206250D01*
G75*
G02*
X159993750Y-78987500I218750J0D01*
G01*
X160506250Y-78987500D01*
G75*
G02*
X160725000Y-79206250I0J-218750D01*
G01*
X160725000Y-79643750D01*
G75*
G02*
X160506250Y-79862500I-218750J0D01*
G01*
G37*
%TD*%
%TO.C,C9*%
G36*
G01*
X133006250Y-81437500D02*
X132493750Y-81437500D01*
G75*
G02*
X132275000Y-81218750I0J218750D01*
G01*
X132275000Y-80781250D01*
G75*
G02*
X132493750Y-80562500I218750J0D01*
G01*
X133006250Y-80562500D01*
G75*
G02*
X133225000Y-80781250I0J-218750D01*
G01*
X133225000Y-81218750D01*
G75*
G02*
X133006250Y-81437500I-218750J0D01*
G01*
G37*
G36*
G01*
X133006250Y-79862500D02*
X132493750Y-79862500D01*
G75*
G02*
X132275000Y-79643750I0J218750D01*
G01*
X132275000Y-79206250D01*
G75*
G02*
X132493750Y-78987500I218750J0D01*
G01*
X133006250Y-78987500D01*
G75*
G02*
X133225000Y-79206250I0J-218750D01*
G01*
X133225000Y-79643750D01*
G75*
G02*
X133006250Y-79862500I-218750J0D01*
G01*
G37*
%TD*%
%TO.C,C9*%
G36*
G01*
X160506250Y-65937500D02*
X159993750Y-65937500D01*
G75*
G02*
X159775000Y-65718750I0J218750D01*
G01*
X159775000Y-65281250D01*
G75*
G02*
X159993750Y-65062500I218750J0D01*
G01*
X160506250Y-65062500D01*
G75*
G02*
X160725000Y-65281250I0J-218750D01*
G01*
X160725000Y-65718750D01*
G75*
G02*
X160506250Y-65937500I-218750J0D01*
G01*
G37*
G36*
G01*
X160506250Y-64362500D02*
X159993750Y-64362500D01*
G75*
G02*
X159775000Y-64143750I0J218750D01*
G01*
X159775000Y-63706250D01*
G75*
G02*
X159993750Y-63487500I218750J0D01*
G01*
X160506250Y-63487500D01*
G75*
G02*
X160725000Y-63706250I0J-218750D01*
G01*
X160725000Y-64143750D01*
G75*
G02*
X160506250Y-64362500I-218750J0D01*
G01*
G37*
%TD*%
%TO.C,C9*%
G36*
G01*
X133006250Y-65937500D02*
X132493750Y-65937500D01*
G75*
G02*
X132275000Y-65718750I0J218750D01*
G01*
X132275000Y-65281250D01*
G75*
G02*
X132493750Y-65062500I218750J0D01*
G01*
X133006250Y-65062500D01*
G75*
G02*
X133225000Y-65281250I0J-218750D01*
G01*
X133225000Y-65718750D01*
G75*
G02*
X133006250Y-65937500I-218750J0D01*
G01*
G37*
G36*
G01*
X133006250Y-64362500D02*
X132493750Y-64362500D01*
G75*
G02*
X132275000Y-64143750I0J218750D01*
G01*
X132275000Y-63706250D01*
G75*
G02*
X132493750Y-63487500I218750J0D01*
G01*
X133006250Y-63487500D01*
G75*
G02*
X133225000Y-63706250I0J-218750D01*
G01*
X133225000Y-64143750D01*
G75*
G02*
X133006250Y-64362500I-218750J0D01*
G01*
G37*
%TD*%
%TO.C,C9*%
G36*
G01*
X160506250Y-50437500D02*
X159993750Y-50437500D01*
G75*
G02*
X159775000Y-50218750I0J218750D01*
G01*
X159775000Y-49781250D01*
G75*
G02*
X159993750Y-49562500I218750J0D01*
G01*
X160506250Y-49562500D01*
G75*
G02*
X160725000Y-49781250I0J-218750D01*
G01*
X160725000Y-50218750D01*
G75*
G02*
X160506250Y-50437500I-218750J0D01*
G01*
G37*
G36*
G01*
X160506250Y-48862500D02*
X159993750Y-48862500D01*
G75*
G02*
X159775000Y-48643750I0J218750D01*
G01*
X159775000Y-48206250D01*
G75*
G02*
X159993750Y-47987500I218750J0D01*
G01*
X160506250Y-47987500D01*
G75*
G02*
X160725000Y-48206250I0J-218750D01*
G01*
X160725000Y-48643750D01*
G75*
G02*
X160506250Y-48862500I-218750J0D01*
G01*
G37*
%TD*%
%TO.C,C6*%
G36*
G01*
X161756250Y-81437500D02*
X161243750Y-81437500D01*
G75*
G02*
X161025000Y-81218750I0J218750D01*
G01*
X161025000Y-80781250D01*
G75*
G02*
X161243750Y-80562500I218750J0D01*
G01*
X161756250Y-80562500D01*
G75*
G02*
X161975000Y-80781250I0J-218750D01*
G01*
X161975000Y-81218750D01*
G75*
G02*
X161756250Y-81437500I-218750J0D01*
G01*
G37*
G36*
G01*
X161756250Y-79862500D02*
X161243750Y-79862500D01*
G75*
G02*
X161025000Y-79643750I0J218750D01*
G01*
X161025000Y-79206250D01*
G75*
G02*
X161243750Y-78987500I218750J0D01*
G01*
X161756250Y-78987500D01*
G75*
G02*
X161975000Y-79206250I0J-218750D01*
G01*
X161975000Y-79643750D01*
G75*
G02*
X161756250Y-79862500I-218750J0D01*
G01*
G37*
%TD*%
%TO.C,C6*%
G36*
G01*
X134256250Y-81437500D02*
X133743750Y-81437500D01*
G75*
G02*
X133525000Y-81218750I0J218750D01*
G01*
X133525000Y-80781250D01*
G75*
G02*
X133743750Y-80562500I218750J0D01*
G01*
X134256250Y-80562500D01*
G75*
G02*
X134475000Y-80781250I0J-218750D01*
G01*
X134475000Y-81218750D01*
G75*
G02*
X134256250Y-81437500I-218750J0D01*
G01*
G37*
G36*
G01*
X134256250Y-79862500D02*
X133743750Y-79862500D01*
G75*
G02*
X133525000Y-79643750I0J218750D01*
G01*
X133525000Y-79206250D01*
G75*
G02*
X133743750Y-78987500I218750J0D01*
G01*
X134256250Y-78987500D01*
G75*
G02*
X134475000Y-79206250I0J-218750D01*
G01*
X134475000Y-79643750D01*
G75*
G02*
X134256250Y-79862500I-218750J0D01*
G01*
G37*
%TD*%
%TO.C,C6*%
G36*
G01*
X161756250Y-65937500D02*
X161243750Y-65937500D01*
G75*
G02*
X161025000Y-65718750I0J218750D01*
G01*
X161025000Y-65281250D01*
G75*
G02*
X161243750Y-65062500I218750J0D01*
G01*
X161756250Y-65062500D01*
G75*
G02*
X161975000Y-65281250I0J-218750D01*
G01*
X161975000Y-65718750D01*
G75*
G02*
X161756250Y-65937500I-218750J0D01*
G01*
G37*
G36*
G01*
X161756250Y-64362500D02*
X161243750Y-64362500D01*
G75*
G02*
X161025000Y-64143750I0J218750D01*
G01*
X161025000Y-63706250D01*
G75*
G02*
X161243750Y-63487500I218750J0D01*
G01*
X161756250Y-63487500D01*
G75*
G02*
X161975000Y-63706250I0J-218750D01*
G01*
X161975000Y-64143750D01*
G75*
G02*
X161756250Y-64362500I-218750J0D01*
G01*
G37*
%TD*%
%TO.C,C6*%
G36*
G01*
X134256250Y-65937500D02*
X133743750Y-65937500D01*
G75*
G02*
X133525000Y-65718750I0J218750D01*
G01*
X133525000Y-65281250D01*
G75*
G02*
X133743750Y-65062500I218750J0D01*
G01*
X134256250Y-65062500D01*
G75*
G02*
X134475000Y-65281250I0J-218750D01*
G01*
X134475000Y-65718750D01*
G75*
G02*
X134256250Y-65937500I-218750J0D01*
G01*
G37*
G36*
G01*
X134256250Y-64362500D02*
X133743750Y-64362500D01*
G75*
G02*
X133525000Y-64143750I0J218750D01*
G01*
X133525000Y-63706250D01*
G75*
G02*
X133743750Y-63487500I218750J0D01*
G01*
X134256250Y-63487500D01*
G75*
G02*
X134475000Y-63706250I0J-218750D01*
G01*
X134475000Y-64143750D01*
G75*
G02*
X134256250Y-64362500I-218750J0D01*
G01*
G37*
%TD*%
%TO.C,C6*%
G36*
G01*
X161756250Y-50437500D02*
X161243750Y-50437500D01*
G75*
G02*
X161025000Y-50218750I0J218750D01*
G01*
X161025000Y-49781250D01*
G75*
G02*
X161243750Y-49562500I218750J0D01*
G01*
X161756250Y-49562500D01*
G75*
G02*
X161975000Y-49781250I0J-218750D01*
G01*
X161975000Y-50218750D01*
G75*
G02*
X161756250Y-50437500I-218750J0D01*
G01*
G37*
G36*
G01*
X161756250Y-48862500D02*
X161243750Y-48862500D01*
G75*
G02*
X161025000Y-48643750I0J218750D01*
G01*
X161025000Y-48206250D01*
G75*
G02*
X161243750Y-47987500I218750J0D01*
G01*
X161756250Y-47987500D01*
G75*
G02*
X161975000Y-48206250I0J-218750D01*
G01*
X161975000Y-48643750D01*
G75*
G02*
X161756250Y-48862500I-218750J0D01*
G01*
G37*
%TD*%
%TO.C,C2*%
G36*
G01*
X152956250Y-81537500D02*
X152443750Y-81537500D01*
G75*
G02*
X152225000Y-81318750I0J218750D01*
G01*
X152225000Y-80881250D01*
G75*
G02*
X152443750Y-80662500I218750J0D01*
G01*
X152956250Y-80662500D01*
G75*
G02*
X153175000Y-80881250I0J-218750D01*
G01*
X153175000Y-81318750D01*
G75*
G02*
X152956250Y-81537500I-218750J0D01*
G01*
G37*
G36*
G01*
X152956250Y-79962500D02*
X152443750Y-79962500D01*
G75*
G02*
X152225000Y-79743750I0J218750D01*
G01*
X152225000Y-79306250D01*
G75*
G02*
X152443750Y-79087500I218750J0D01*
G01*
X152956250Y-79087500D01*
G75*
G02*
X153175000Y-79306250I0J-218750D01*
G01*
X153175000Y-79743750D01*
G75*
G02*
X152956250Y-79962500I-218750J0D01*
G01*
G37*
%TD*%
%TO.C,C2*%
G36*
G01*
X125456250Y-81537500D02*
X124943750Y-81537500D01*
G75*
G02*
X124725000Y-81318750I0J218750D01*
G01*
X124725000Y-80881250D01*
G75*
G02*
X124943750Y-80662500I218750J0D01*
G01*
X125456250Y-80662500D01*
G75*
G02*
X125675000Y-80881250I0J-218750D01*
G01*
X125675000Y-81318750D01*
G75*
G02*
X125456250Y-81537500I-218750J0D01*
G01*
G37*
G36*
G01*
X125456250Y-79962500D02*
X124943750Y-79962500D01*
G75*
G02*
X124725000Y-79743750I0J218750D01*
G01*
X124725000Y-79306250D01*
G75*
G02*
X124943750Y-79087500I218750J0D01*
G01*
X125456250Y-79087500D01*
G75*
G02*
X125675000Y-79306250I0J-218750D01*
G01*
X125675000Y-79743750D01*
G75*
G02*
X125456250Y-79962500I-218750J0D01*
G01*
G37*
%TD*%
%TO.C,C2*%
G36*
G01*
X152956250Y-66037500D02*
X152443750Y-66037500D01*
G75*
G02*
X152225000Y-65818750I0J218750D01*
G01*
X152225000Y-65381250D01*
G75*
G02*
X152443750Y-65162500I218750J0D01*
G01*
X152956250Y-65162500D01*
G75*
G02*
X153175000Y-65381250I0J-218750D01*
G01*
X153175000Y-65818750D01*
G75*
G02*
X152956250Y-66037500I-218750J0D01*
G01*
G37*
G36*
G01*
X152956250Y-64462500D02*
X152443750Y-64462500D01*
G75*
G02*
X152225000Y-64243750I0J218750D01*
G01*
X152225000Y-63806250D01*
G75*
G02*
X152443750Y-63587500I218750J0D01*
G01*
X152956250Y-63587500D01*
G75*
G02*
X153175000Y-63806250I0J-218750D01*
G01*
X153175000Y-64243750D01*
G75*
G02*
X152956250Y-64462500I-218750J0D01*
G01*
G37*
%TD*%
%TO.C,C2*%
G36*
G01*
X125456250Y-66037500D02*
X124943750Y-66037500D01*
G75*
G02*
X124725000Y-65818750I0J218750D01*
G01*
X124725000Y-65381250D01*
G75*
G02*
X124943750Y-65162500I218750J0D01*
G01*
X125456250Y-65162500D01*
G75*
G02*
X125675000Y-65381250I0J-218750D01*
G01*
X125675000Y-65818750D01*
G75*
G02*
X125456250Y-66037500I-218750J0D01*
G01*
G37*
G36*
G01*
X125456250Y-64462500D02*
X124943750Y-64462500D01*
G75*
G02*
X124725000Y-64243750I0J218750D01*
G01*
X124725000Y-63806250D01*
G75*
G02*
X124943750Y-63587500I218750J0D01*
G01*
X125456250Y-63587500D01*
G75*
G02*
X125675000Y-63806250I0J-218750D01*
G01*
X125675000Y-64243750D01*
G75*
G02*
X125456250Y-64462500I-218750J0D01*
G01*
G37*
%TD*%
%TO.C,C2*%
G36*
G01*
X152956250Y-50537500D02*
X152443750Y-50537500D01*
G75*
G02*
X152225000Y-50318750I0J218750D01*
G01*
X152225000Y-49881250D01*
G75*
G02*
X152443750Y-49662500I218750J0D01*
G01*
X152956250Y-49662500D01*
G75*
G02*
X153175000Y-49881250I0J-218750D01*
G01*
X153175000Y-50318750D01*
G75*
G02*
X152956250Y-50537500I-218750J0D01*
G01*
G37*
G36*
G01*
X152956250Y-48962500D02*
X152443750Y-48962500D01*
G75*
G02*
X152225000Y-48743750I0J218750D01*
G01*
X152225000Y-48306250D01*
G75*
G02*
X152443750Y-48087500I218750J0D01*
G01*
X152956250Y-48087500D01*
G75*
G02*
X153175000Y-48306250I0J-218750D01*
G01*
X153175000Y-48743750D01*
G75*
G02*
X152956250Y-48962500I-218750J0D01*
G01*
G37*
%TD*%
%TO.C,C4*%
G36*
G01*
X157472500Y-87295000D02*
X157127500Y-87295000D01*
G75*
G02*
X156980000Y-87147500I0J147500D01*
G01*
X156980000Y-86852500D01*
G75*
G02*
X157127500Y-86705000I147500J0D01*
G01*
X157472500Y-86705000D01*
G75*
G02*
X157620000Y-86852500I0J-147500D01*
G01*
X157620000Y-87147500D01*
G75*
G02*
X157472500Y-87295000I-147500J0D01*
G01*
G37*
G36*
G01*
X157472500Y-86325000D02*
X157127500Y-86325000D01*
G75*
G02*
X156980000Y-86177500I0J147500D01*
G01*
X156980000Y-85882500D01*
G75*
G02*
X157127500Y-85735000I147500J0D01*
G01*
X157472500Y-85735000D01*
G75*
G02*
X157620000Y-85882500I0J-147500D01*
G01*
X157620000Y-86177500D01*
G75*
G02*
X157472500Y-86325000I-147500J0D01*
G01*
G37*
%TD*%
%TO.C,C4*%
G36*
G01*
X129972500Y-87295000D02*
X129627500Y-87295000D01*
G75*
G02*
X129480000Y-87147500I0J147500D01*
G01*
X129480000Y-86852500D01*
G75*
G02*
X129627500Y-86705000I147500J0D01*
G01*
X129972500Y-86705000D01*
G75*
G02*
X130120000Y-86852500I0J-147500D01*
G01*
X130120000Y-87147500D01*
G75*
G02*
X129972500Y-87295000I-147500J0D01*
G01*
G37*
G36*
G01*
X129972500Y-86325000D02*
X129627500Y-86325000D01*
G75*
G02*
X129480000Y-86177500I0J147500D01*
G01*
X129480000Y-85882500D01*
G75*
G02*
X129627500Y-85735000I147500J0D01*
G01*
X129972500Y-85735000D01*
G75*
G02*
X130120000Y-85882500I0J-147500D01*
G01*
X130120000Y-86177500D01*
G75*
G02*
X129972500Y-86325000I-147500J0D01*
G01*
G37*
%TD*%
%TO.C,C4*%
G36*
G01*
X157472500Y-71795000D02*
X157127500Y-71795000D01*
G75*
G02*
X156980000Y-71647500I0J147500D01*
G01*
X156980000Y-71352500D01*
G75*
G02*
X157127500Y-71205000I147500J0D01*
G01*
X157472500Y-71205000D01*
G75*
G02*
X157620000Y-71352500I0J-147500D01*
G01*
X157620000Y-71647500D01*
G75*
G02*
X157472500Y-71795000I-147500J0D01*
G01*
G37*
G36*
G01*
X157472500Y-70825000D02*
X157127500Y-70825000D01*
G75*
G02*
X156980000Y-70677500I0J147500D01*
G01*
X156980000Y-70382500D01*
G75*
G02*
X157127500Y-70235000I147500J0D01*
G01*
X157472500Y-70235000D01*
G75*
G02*
X157620000Y-70382500I0J-147500D01*
G01*
X157620000Y-70677500D01*
G75*
G02*
X157472500Y-70825000I-147500J0D01*
G01*
G37*
%TD*%
%TO.C,C4*%
G36*
G01*
X129972500Y-71795000D02*
X129627500Y-71795000D01*
G75*
G02*
X129480000Y-71647500I0J147500D01*
G01*
X129480000Y-71352500D01*
G75*
G02*
X129627500Y-71205000I147500J0D01*
G01*
X129972500Y-71205000D01*
G75*
G02*
X130120000Y-71352500I0J-147500D01*
G01*
X130120000Y-71647500D01*
G75*
G02*
X129972500Y-71795000I-147500J0D01*
G01*
G37*
G36*
G01*
X129972500Y-70825000D02*
X129627500Y-70825000D01*
G75*
G02*
X129480000Y-70677500I0J147500D01*
G01*
X129480000Y-70382500D01*
G75*
G02*
X129627500Y-70235000I147500J0D01*
G01*
X129972500Y-70235000D01*
G75*
G02*
X130120000Y-70382500I0J-147500D01*
G01*
X130120000Y-70677500D01*
G75*
G02*
X129972500Y-70825000I-147500J0D01*
G01*
G37*
%TD*%
%TO.C,C4*%
G36*
G01*
X157472500Y-56295000D02*
X157127500Y-56295000D01*
G75*
G02*
X156980000Y-56147500I0J147500D01*
G01*
X156980000Y-55852500D01*
G75*
G02*
X157127500Y-55705000I147500J0D01*
G01*
X157472500Y-55705000D01*
G75*
G02*
X157620000Y-55852500I0J-147500D01*
G01*
X157620000Y-56147500D01*
G75*
G02*
X157472500Y-56295000I-147500J0D01*
G01*
G37*
G36*
G01*
X157472500Y-55325000D02*
X157127500Y-55325000D01*
G75*
G02*
X156980000Y-55177500I0J147500D01*
G01*
X156980000Y-54882500D01*
G75*
G02*
X157127500Y-54735000I147500J0D01*
G01*
X157472500Y-54735000D01*
G75*
G02*
X157620000Y-54882500I0J-147500D01*
G01*
X157620000Y-55177500D01*
G75*
G02*
X157472500Y-55325000I-147500J0D01*
G01*
G37*
%TD*%
%TO.C,C5*%
G36*
G01*
X156972500Y-85195000D02*
X156627500Y-85195000D01*
G75*
G02*
X156480000Y-85047500I0J147500D01*
G01*
X156480000Y-84752500D01*
G75*
G02*
X156627500Y-84605000I147500J0D01*
G01*
X156972500Y-84605000D01*
G75*
G02*
X157120000Y-84752500I0J-147500D01*
G01*
X157120000Y-85047500D01*
G75*
G02*
X156972500Y-85195000I-147500J0D01*
G01*
G37*
G36*
G01*
X156972500Y-84225000D02*
X156627500Y-84225000D01*
G75*
G02*
X156480000Y-84077500I0J147500D01*
G01*
X156480000Y-83782500D01*
G75*
G02*
X156627500Y-83635000I147500J0D01*
G01*
X156972500Y-83635000D01*
G75*
G02*
X157120000Y-83782500I0J-147500D01*
G01*
X157120000Y-84077500D01*
G75*
G02*
X156972500Y-84225000I-147500J0D01*
G01*
G37*
%TD*%
%TO.C,C5*%
G36*
G01*
X129472500Y-85195000D02*
X129127500Y-85195000D01*
G75*
G02*
X128980000Y-85047500I0J147500D01*
G01*
X128980000Y-84752500D01*
G75*
G02*
X129127500Y-84605000I147500J0D01*
G01*
X129472500Y-84605000D01*
G75*
G02*
X129620000Y-84752500I0J-147500D01*
G01*
X129620000Y-85047500D01*
G75*
G02*
X129472500Y-85195000I-147500J0D01*
G01*
G37*
G36*
G01*
X129472500Y-84225000D02*
X129127500Y-84225000D01*
G75*
G02*
X128980000Y-84077500I0J147500D01*
G01*
X128980000Y-83782500D01*
G75*
G02*
X129127500Y-83635000I147500J0D01*
G01*
X129472500Y-83635000D01*
G75*
G02*
X129620000Y-83782500I0J-147500D01*
G01*
X129620000Y-84077500D01*
G75*
G02*
X129472500Y-84225000I-147500J0D01*
G01*
G37*
%TD*%
%TO.C,C5*%
G36*
G01*
X156972500Y-69695000D02*
X156627500Y-69695000D01*
G75*
G02*
X156480000Y-69547500I0J147500D01*
G01*
X156480000Y-69252500D01*
G75*
G02*
X156627500Y-69105000I147500J0D01*
G01*
X156972500Y-69105000D01*
G75*
G02*
X157120000Y-69252500I0J-147500D01*
G01*
X157120000Y-69547500D01*
G75*
G02*
X156972500Y-69695000I-147500J0D01*
G01*
G37*
G36*
G01*
X156972500Y-68725000D02*
X156627500Y-68725000D01*
G75*
G02*
X156480000Y-68577500I0J147500D01*
G01*
X156480000Y-68282500D01*
G75*
G02*
X156627500Y-68135000I147500J0D01*
G01*
X156972500Y-68135000D01*
G75*
G02*
X157120000Y-68282500I0J-147500D01*
G01*
X157120000Y-68577500D01*
G75*
G02*
X156972500Y-68725000I-147500J0D01*
G01*
G37*
%TD*%
%TO.C,C5*%
G36*
G01*
X129472500Y-69695000D02*
X129127500Y-69695000D01*
G75*
G02*
X128980000Y-69547500I0J147500D01*
G01*
X128980000Y-69252500D01*
G75*
G02*
X129127500Y-69105000I147500J0D01*
G01*
X129472500Y-69105000D01*
G75*
G02*
X129620000Y-69252500I0J-147500D01*
G01*
X129620000Y-69547500D01*
G75*
G02*
X129472500Y-69695000I-147500J0D01*
G01*
G37*
G36*
G01*
X129472500Y-68725000D02*
X129127500Y-68725000D01*
G75*
G02*
X128980000Y-68577500I0J147500D01*
G01*
X128980000Y-68282500D01*
G75*
G02*
X129127500Y-68135000I147500J0D01*
G01*
X129472500Y-68135000D01*
G75*
G02*
X129620000Y-68282500I0J-147500D01*
G01*
X129620000Y-68577500D01*
G75*
G02*
X129472500Y-68725000I-147500J0D01*
G01*
G37*
%TD*%
%TO.C,C5*%
G36*
G01*
X156972500Y-54195000D02*
X156627500Y-54195000D01*
G75*
G02*
X156480000Y-54047500I0J147500D01*
G01*
X156480000Y-53752500D01*
G75*
G02*
X156627500Y-53605000I147500J0D01*
G01*
X156972500Y-53605000D01*
G75*
G02*
X157120000Y-53752500I0J-147500D01*
G01*
X157120000Y-54047500D01*
G75*
G02*
X156972500Y-54195000I-147500J0D01*
G01*
G37*
G36*
G01*
X156972500Y-53225000D02*
X156627500Y-53225000D01*
G75*
G02*
X156480000Y-53077500I0J147500D01*
G01*
X156480000Y-52782500D01*
G75*
G02*
X156627500Y-52635000I147500J0D01*
G01*
X156972500Y-52635000D01*
G75*
G02*
X157120000Y-52782500I0J-147500D01*
G01*
X157120000Y-53077500D01*
G75*
G02*
X156972500Y-53225000I-147500J0D01*
G01*
G37*
%TD*%
D14*
%TO.C,D2*%
X174500000Y-86250000D03*
X171200000Y-86250000D03*
%TD*%
%TO.C,D2*%
X147000000Y-86250000D03*
X143700000Y-86250000D03*
%TD*%
%TO.C,D2*%
X174500000Y-70750000D03*
X171200000Y-70750000D03*
%TD*%
%TO.C,D2*%
X147000000Y-70750000D03*
X143700000Y-70750000D03*
%TD*%
%TO.C,D2*%
X174500000Y-55250000D03*
X171200000Y-55250000D03*
%TD*%
%TO.C,D1*%
G36*
G01*
X156512500Y-90243750D02*
X156512500Y-90756250D01*
G75*
G02*
X156293750Y-90975000I-218750J0D01*
G01*
X155856250Y-90975000D01*
G75*
G02*
X155637500Y-90756250I0J218750D01*
G01*
X155637500Y-90243750D01*
G75*
G02*
X155856250Y-90025000I218750J0D01*
G01*
X156293750Y-90025000D01*
G75*
G02*
X156512500Y-90243750I0J-218750D01*
G01*
G37*
G36*
G01*
X154937500Y-90243750D02*
X154937500Y-90756250D01*
G75*
G02*
X154718750Y-90975000I-218750J0D01*
G01*
X154281250Y-90975000D01*
G75*
G02*
X154062500Y-90756250I0J218750D01*
G01*
X154062500Y-90243750D01*
G75*
G02*
X154281250Y-90025000I218750J0D01*
G01*
X154718750Y-90025000D01*
G75*
G02*
X154937500Y-90243750I0J-218750D01*
G01*
G37*
%TD*%
%TO.C,D1*%
G36*
G01*
X129012500Y-90243750D02*
X129012500Y-90756250D01*
G75*
G02*
X128793750Y-90975000I-218750J0D01*
G01*
X128356250Y-90975000D01*
G75*
G02*
X128137500Y-90756250I0J218750D01*
G01*
X128137500Y-90243750D01*
G75*
G02*
X128356250Y-90025000I218750J0D01*
G01*
X128793750Y-90025000D01*
G75*
G02*
X129012500Y-90243750I0J-218750D01*
G01*
G37*
G36*
G01*
X127437500Y-90243750D02*
X127437500Y-90756250D01*
G75*
G02*
X127218750Y-90975000I-218750J0D01*
G01*
X126781250Y-90975000D01*
G75*
G02*
X126562500Y-90756250I0J218750D01*
G01*
X126562500Y-90243750D01*
G75*
G02*
X126781250Y-90025000I218750J0D01*
G01*
X127218750Y-90025000D01*
G75*
G02*
X127437500Y-90243750I0J-218750D01*
G01*
G37*
%TD*%
%TO.C,D1*%
G36*
G01*
X156512500Y-74743750D02*
X156512500Y-75256250D01*
G75*
G02*
X156293750Y-75475000I-218750J0D01*
G01*
X155856250Y-75475000D01*
G75*
G02*
X155637500Y-75256250I0J218750D01*
G01*
X155637500Y-74743750D01*
G75*
G02*
X155856250Y-74525000I218750J0D01*
G01*
X156293750Y-74525000D01*
G75*
G02*
X156512500Y-74743750I0J-218750D01*
G01*
G37*
G36*
G01*
X154937500Y-74743750D02*
X154937500Y-75256250D01*
G75*
G02*
X154718750Y-75475000I-218750J0D01*
G01*
X154281250Y-75475000D01*
G75*
G02*
X154062500Y-75256250I0J218750D01*
G01*
X154062500Y-74743750D01*
G75*
G02*
X154281250Y-74525000I218750J0D01*
G01*
X154718750Y-74525000D01*
G75*
G02*
X154937500Y-74743750I0J-218750D01*
G01*
G37*
%TD*%
%TO.C,D1*%
G36*
G01*
X129012500Y-74743750D02*
X129012500Y-75256250D01*
G75*
G02*
X128793750Y-75475000I-218750J0D01*
G01*
X128356250Y-75475000D01*
G75*
G02*
X128137500Y-75256250I0J218750D01*
G01*
X128137500Y-74743750D01*
G75*
G02*
X128356250Y-74525000I218750J0D01*
G01*
X128793750Y-74525000D01*
G75*
G02*
X129012500Y-74743750I0J-218750D01*
G01*
G37*
G36*
G01*
X127437500Y-74743750D02*
X127437500Y-75256250D01*
G75*
G02*
X127218750Y-75475000I-218750J0D01*
G01*
X126781250Y-75475000D01*
G75*
G02*
X126562500Y-75256250I0J218750D01*
G01*
X126562500Y-74743750D01*
G75*
G02*
X126781250Y-74525000I218750J0D01*
G01*
X127218750Y-74525000D01*
G75*
G02*
X127437500Y-74743750I0J-218750D01*
G01*
G37*
%TD*%
%TO.C,D1*%
G36*
G01*
X156512500Y-59243750D02*
X156512500Y-59756250D01*
G75*
G02*
X156293750Y-59975000I-218750J0D01*
G01*
X155856250Y-59975000D01*
G75*
G02*
X155637500Y-59756250I0J218750D01*
G01*
X155637500Y-59243750D01*
G75*
G02*
X155856250Y-59025000I218750J0D01*
G01*
X156293750Y-59025000D01*
G75*
G02*
X156512500Y-59243750I0J-218750D01*
G01*
G37*
G36*
G01*
X154937500Y-59243750D02*
X154937500Y-59756250D01*
G75*
G02*
X154718750Y-59975000I-218750J0D01*
G01*
X154281250Y-59975000D01*
G75*
G02*
X154062500Y-59756250I0J218750D01*
G01*
X154062500Y-59243750D01*
G75*
G02*
X154281250Y-59025000I218750J0D01*
G01*
X154718750Y-59025000D01*
G75*
G02*
X154937500Y-59243750I0J-218750D01*
G01*
G37*
%TD*%
%TO.C,D3*%
X174500000Y-84250000D03*
X171200000Y-84250000D03*
%TD*%
%TO.C,D3*%
X147000000Y-84250000D03*
X143700000Y-84250000D03*
%TD*%
%TO.C,D3*%
X174500000Y-68750000D03*
X171200000Y-68750000D03*
%TD*%
%TO.C,D3*%
X147000000Y-68750000D03*
X143700000Y-68750000D03*
%TD*%
%TO.C,D3*%
X174500000Y-53250000D03*
X171200000Y-53250000D03*
%TD*%
%TO.C,R3*%
G36*
G01*
X167672500Y-83795000D02*
X167327500Y-83795000D01*
G75*
G02*
X167180000Y-83647500I0J147500D01*
G01*
X167180000Y-83352500D01*
G75*
G02*
X167327500Y-83205000I147500J0D01*
G01*
X167672500Y-83205000D01*
G75*
G02*
X167820000Y-83352500I0J-147500D01*
G01*
X167820000Y-83647500D01*
G75*
G02*
X167672500Y-83795000I-147500J0D01*
G01*
G37*
G36*
G01*
X167672500Y-82825000D02*
X167327500Y-82825000D01*
G75*
G02*
X167180000Y-82677500I0J147500D01*
G01*
X167180000Y-82382500D01*
G75*
G02*
X167327500Y-82235000I147500J0D01*
G01*
X167672500Y-82235000D01*
G75*
G02*
X167820000Y-82382500I0J-147500D01*
G01*
X167820000Y-82677500D01*
G75*
G02*
X167672500Y-82825000I-147500J0D01*
G01*
G37*
%TD*%
%TO.C,R3*%
G36*
G01*
X140172500Y-83795000D02*
X139827500Y-83795000D01*
G75*
G02*
X139680000Y-83647500I0J147500D01*
G01*
X139680000Y-83352500D01*
G75*
G02*
X139827500Y-83205000I147500J0D01*
G01*
X140172500Y-83205000D01*
G75*
G02*
X140320000Y-83352500I0J-147500D01*
G01*
X140320000Y-83647500D01*
G75*
G02*
X140172500Y-83795000I-147500J0D01*
G01*
G37*
G36*
G01*
X140172500Y-82825000D02*
X139827500Y-82825000D01*
G75*
G02*
X139680000Y-82677500I0J147500D01*
G01*
X139680000Y-82382500D01*
G75*
G02*
X139827500Y-82235000I147500J0D01*
G01*
X140172500Y-82235000D01*
G75*
G02*
X140320000Y-82382500I0J-147500D01*
G01*
X140320000Y-82677500D01*
G75*
G02*
X140172500Y-82825000I-147500J0D01*
G01*
G37*
%TD*%
%TO.C,R3*%
G36*
G01*
X167672500Y-68295000D02*
X167327500Y-68295000D01*
G75*
G02*
X167180000Y-68147500I0J147500D01*
G01*
X167180000Y-67852500D01*
G75*
G02*
X167327500Y-67705000I147500J0D01*
G01*
X167672500Y-67705000D01*
G75*
G02*
X167820000Y-67852500I0J-147500D01*
G01*
X167820000Y-68147500D01*
G75*
G02*
X167672500Y-68295000I-147500J0D01*
G01*
G37*
G36*
G01*
X167672500Y-67325000D02*
X167327500Y-67325000D01*
G75*
G02*
X167180000Y-67177500I0J147500D01*
G01*
X167180000Y-66882500D01*
G75*
G02*
X167327500Y-66735000I147500J0D01*
G01*
X167672500Y-66735000D01*
G75*
G02*
X167820000Y-66882500I0J-147500D01*
G01*
X167820000Y-67177500D01*
G75*
G02*
X167672500Y-67325000I-147500J0D01*
G01*
G37*
%TD*%
%TO.C,R3*%
G36*
G01*
X140172500Y-68295000D02*
X139827500Y-68295000D01*
G75*
G02*
X139680000Y-68147500I0J147500D01*
G01*
X139680000Y-67852500D01*
G75*
G02*
X139827500Y-67705000I147500J0D01*
G01*
X140172500Y-67705000D01*
G75*
G02*
X140320000Y-67852500I0J-147500D01*
G01*
X140320000Y-68147500D01*
G75*
G02*
X140172500Y-68295000I-147500J0D01*
G01*
G37*
G36*
G01*
X140172500Y-67325000D02*
X139827500Y-67325000D01*
G75*
G02*
X139680000Y-67177500I0J147500D01*
G01*
X139680000Y-66882500D01*
G75*
G02*
X139827500Y-66735000I147500J0D01*
G01*
X140172500Y-66735000D01*
G75*
G02*
X140320000Y-66882500I0J-147500D01*
G01*
X140320000Y-67177500D01*
G75*
G02*
X140172500Y-67325000I-147500J0D01*
G01*
G37*
%TD*%
%TO.C,R3*%
G36*
G01*
X167672500Y-52795000D02*
X167327500Y-52795000D01*
G75*
G02*
X167180000Y-52647500I0J147500D01*
G01*
X167180000Y-52352500D01*
G75*
G02*
X167327500Y-52205000I147500J0D01*
G01*
X167672500Y-52205000D01*
G75*
G02*
X167820000Y-52352500I0J-147500D01*
G01*
X167820000Y-52647500D01*
G75*
G02*
X167672500Y-52795000I-147500J0D01*
G01*
G37*
G36*
G01*
X167672500Y-51825000D02*
X167327500Y-51825000D01*
G75*
G02*
X167180000Y-51677500I0J147500D01*
G01*
X167180000Y-51382500D01*
G75*
G02*
X167327500Y-51235000I147500J0D01*
G01*
X167672500Y-51235000D01*
G75*
G02*
X167820000Y-51382500I0J-147500D01*
G01*
X167820000Y-51677500D01*
G75*
G02*
X167672500Y-51825000I-147500J0D01*
G01*
G37*
%TD*%
%TO.C,R5*%
G36*
G01*
X169735000Y-83172500D02*
X169735000Y-82827500D01*
G75*
G02*
X169882500Y-82680000I147500J0D01*
G01*
X170177500Y-82680000D01*
G75*
G02*
X170325000Y-82827500I0J-147500D01*
G01*
X170325000Y-83172500D01*
G75*
G02*
X170177500Y-83320000I-147500J0D01*
G01*
X169882500Y-83320000D01*
G75*
G02*
X169735000Y-83172500I0J147500D01*
G01*
G37*
G36*
G01*
X170705000Y-83172500D02*
X170705000Y-82827500D01*
G75*
G02*
X170852500Y-82680000I147500J0D01*
G01*
X171147500Y-82680000D01*
G75*
G02*
X171295000Y-82827500I0J-147500D01*
G01*
X171295000Y-83172500D01*
G75*
G02*
X171147500Y-83320000I-147500J0D01*
G01*
X170852500Y-83320000D01*
G75*
G02*
X170705000Y-83172500I0J147500D01*
G01*
G37*
%TD*%
%TO.C,R5*%
G36*
G01*
X142235000Y-83172500D02*
X142235000Y-82827500D01*
G75*
G02*
X142382500Y-82680000I147500J0D01*
G01*
X142677500Y-82680000D01*
G75*
G02*
X142825000Y-82827500I0J-147500D01*
G01*
X142825000Y-83172500D01*
G75*
G02*
X142677500Y-83320000I-147500J0D01*
G01*
X142382500Y-83320000D01*
G75*
G02*
X142235000Y-83172500I0J147500D01*
G01*
G37*
G36*
G01*
X143205000Y-83172500D02*
X143205000Y-82827500D01*
G75*
G02*
X143352500Y-82680000I147500J0D01*
G01*
X143647500Y-82680000D01*
G75*
G02*
X143795000Y-82827500I0J-147500D01*
G01*
X143795000Y-83172500D01*
G75*
G02*
X143647500Y-83320000I-147500J0D01*
G01*
X143352500Y-83320000D01*
G75*
G02*
X143205000Y-83172500I0J147500D01*
G01*
G37*
%TD*%
%TO.C,R5*%
G36*
G01*
X169735000Y-67672500D02*
X169735000Y-67327500D01*
G75*
G02*
X169882500Y-67180000I147500J0D01*
G01*
X170177500Y-67180000D01*
G75*
G02*
X170325000Y-67327500I0J-147500D01*
G01*
X170325000Y-67672500D01*
G75*
G02*
X170177500Y-67820000I-147500J0D01*
G01*
X169882500Y-67820000D01*
G75*
G02*
X169735000Y-67672500I0J147500D01*
G01*
G37*
G36*
G01*
X170705000Y-67672500D02*
X170705000Y-67327500D01*
G75*
G02*
X170852500Y-67180000I147500J0D01*
G01*
X171147500Y-67180000D01*
G75*
G02*
X171295000Y-67327500I0J-147500D01*
G01*
X171295000Y-67672500D01*
G75*
G02*
X171147500Y-67820000I-147500J0D01*
G01*
X170852500Y-67820000D01*
G75*
G02*
X170705000Y-67672500I0J147500D01*
G01*
G37*
%TD*%
%TO.C,R5*%
G36*
G01*
X142235000Y-67672500D02*
X142235000Y-67327500D01*
G75*
G02*
X142382500Y-67180000I147500J0D01*
G01*
X142677500Y-67180000D01*
G75*
G02*
X142825000Y-67327500I0J-147500D01*
G01*
X142825000Y-67672500D01*
G75*
G02*
X142677500Y-67820000I-147500J0D01*
G01*
X142382500Y-67820000D01*
G75*
G02*
X142235000Y-67672500I0J147500D01*
G01*
G37*
G36*
G01*
X143205000Y-67672500D02*
X143205000Y-67327500D01*
G75*
G02*
X143352500Y-67180000I147500J0D01*
G01*
X143647500Y-67180000D01*
G75*
G02*
X143795000Y-67327500I0J-147500D01*
G01*
X143795000Y-67672500D01*
G75*
G02*
X143647500Y-67820000I-147500J0D01*
G01*
X143352500Y-67820000D01*
G75*
G02*
X143205000Y-67672500I0J147500D01*
G01*
G37*
%TD*%
%TO.C,R5*%
G36*
G01*
X169735000Y-52172500D02*
X169735000Y-51827500D01*
G75*
G02*
X169882500Y-51680000I147500J0D01*
G01*
X170177500Y-51680000D01*
G75*
G02*
X170325000Y-51827500I0J-147500D01*
G01*
X170325000Y-52172500D01*
G75*
G02*
X170177500Y-52320000I-147500J0D01*
G01*
X169882500Y-52320000D01*
G75*
G02*
X169735000Y-52172500I0J147500D01*
G01*
G37*
G36*
G01*
X170705000Y-52172500D02*
X170705000Y-51827500D01*
G75*
G02*
X170852500Y-51680000I147500J0D01*
G01*
X171147500Y-51680000D01*
G75*
G02*
X171295000Y-51827500I0J-147500D01*
G01*
X171295000Y-52172500D01*
G75*
G02*
X171147500Y-52320000I-147500J0D01*
G01*
X170852500Y-52320000D01*
G75*
G02*
X170705000Y-52172500I0J147500D01*
G01*
G37*
%TD*%
D15*
%TO.C,Q4*%
X170000000Y-79900000D03*
X170000000Y-81800000D03*
X172000000Y-80850000D03*
%TD*%
%TO.C,Q4*%
X142500000Y-79900000D03*
X142500000Y-81800000D03*
X144500000Y-80850000D03*
%TD*%
%TO.C,Q4*%
X170000000Y-64400000D03*
X170000000Y-66300000D03*
X172000000Y-65350000D03*
%TD*%
%TO.C,Q4*%
X142500000Y-64400000D03*
X142500000Y-66300000D03*
X144500000Y-65350000D03*
%TD*%
%TO.C,Q4*%
X170000000Y-48900000D03*
X170000000Y-50800000D03*
X172000000Y-49850000D03*
%TD*%
%TO.C,U1*%
G36*
G01*
X159262500Y-82500000D02*
X159262500Y-82300000D01*
G75*
G02*
X159362500Y-82200000I100000J0D01*
G01*
X160637500Y-82200000D01*
G75*
G02*
X160737500Y-82300000I0J-100000D01*
G01*
X160737500Y-82500000D01*
G75*
G02*
X160637500Y-82600000I-100000J0D01*
G01*
X159362500Y-82600000D01*
G75*
G02*
X159262500Y-82500000I0J100000D01*
G01*
G37*
G36*
G01*
X159262500Y-83150000D02*
X159262500Y-82950000D01*
G75*
G02*
X159362500Y-82850000I100000J0D01*
G01*
X160637500Y-82850000D01*
G75*
G02*
X160737500Y-82950000I0J-100000D01*
G01*
X160737500Y-83150000D01*
G75*
G02*
X160637500Y-83250000I-100000J0D01*
G01*
X159362500Y-83250000D01*
G75*
G02*
X159262500Y-83150000I0J100000D01*
G01*
G37*
G36*
G01*
X159262500Y-83800000D02*
X159262500Y-83600000D01*
G75*
G02*
X159362500Y-83500000I100000J0D01*
G01*
X160637500Y-83500000D01*
G75*
G02*
X160737500Y-83600000I0J-100000D01*
G01*
X160737500Y-83800000D01*
G75*
G02*
X160637500Y-83900000I-100000J0D01*
G01*
X159362500Y-83900000D01*
G75*
G02*
X159262500Y-83800000I0J100000D01*
G01*
G37*
G36*
G01*
X159262500Y-84450000D02*
X159262500Y-84250000D01*
G75*
G02*
X159362500Y-84150000I100000J0D01*
G01*
X160637500Y-84150000D01*
G75*
G02*
X160737500Y-84250000I0J-100000D01*
G01*
X160737500Y-84450000D01*
G75*
G02*
X160637500Y-84550000I-100000J0D01*
G01*
X159362500Y-84550000D01*
G75*
G02*
X159262500Y-84450000I0J100000D01*
G01*
G37*
G36*
G01*
X159262500Y-85100000D02*
X159262500Y-84900000D01*
G75*
G02*
X159362500Y-84800000I100000J0D01*
G01*
X160637500Y-84800000D01*
G75*
G02*
X160737500Y-84900000I0J-100000D01*
G01*
X160737500Y-85100000D01*
G75*
G02*
X160637500Y-85200000I-100000J0D01*
G01*
X159362500Y-85200000D01*
G75*
G02*
X159262500Y-85100000I0J100000D01*
G01*
G37*
G36*
G01*
X159262500Y-85750000D02*
X159262500Y-85550000D01*
G75*
G02*
X159362500Y-85450000I100000J0D01*
G01*
X160637500Y-85450000D01*
G75*
G02*
X160737500Y-85550000I0J-100000D01*
G01*
X160737500Y-85750000D01*
G75*
G02*
X160637500Y-85850000I-100000J0D01*
G01*
X159362500Y-85850000D01*
G75*
G02*
X159262500Y-85750000I0J100000D01*
G01*
G37*
G36*
G01*
X159262500Y-86400000D02*
X159262500Y-86200000D01*
G75*
G02*
X159362500Y-86100000I100000J0D01*
G01*
X160637500Y-86100000D01*
G75*
G02*
X160737500Y-86200000I0J-100000D01*
G01*
X160737500Y-86400000D01*
G75*
G02*
X160637500Y-86500000I-100000J0D01*
G01*
X159362500Y-86500000D01*
G75*
G02*
X159262500Y-86400000I0J100000D01*
G01*
G37*
G36*
G01*
X159262500Y-87050000D02*
X159262500Y-86850000D01*
G75*
G02*
X159362500Y-86750000I100000J0D01*
G01*
X160637500Y-86750000D01*
G75*
G02*
X160737500Y-86850000I0J-100000D01*
G01*
X160737500Y-87050000D01*
G75*
G02*
X160637500Y-87150000I-100000J0D01*
G01*
X159362500Y-87150000D01*
G75*
G02*
X159262500Y-87050000I0J100000D01*
G01*
G37*
G36*
G01*
X159262500Y-87700000D02*
X159262500Y-87500000D01*
G75*
G02*
X159362500Y-87400000I100000J0D01*
G01*
X160637500Y-87400000D01*
G75*
G02*
X160737500Y-87500000I0J-100000D01*
G01*
X160737500Y-87700000D01*
G75*
G02*
X160637500Y-87800000I-100000J0D01*
G01*
X159362500Y-87800000D01*
G75*
G02*
X159262500Y-87700000I0J100000D01*
G01*
G37*
G36*
G01*
X159262500Y-88350000D02*
X159262500Y-88150000D01*
G75*
G02*
X159362500Y-88050000I100000J0D01*
G01*
X160637500Y-88050000D01*
G75*
G02*
X160737500Y-88150000I0J-100000D01*
G01*
X160737500Y-88350000D01*
G75*
G02*
X160637500Y-88450000I-100000J0D01*
G01*
X159362500Y-88450000D01*
G75*
G02*
X159262500Y-88350000I0J100000D01*
G01*
G37*
G36*
G01*
X164987500Y-88350000D02*
X164987500Y-88150000D01*
G75*
G02*
X165087500Y-88050000I100000J0D01*
G01*
X166362500Y-88050000D01*
G75*
G02*
X166462500Y-88150000I0J-100000D01*
G01*
X166462500Y-88350000D01*
G75*
G02*
X166362500Y-88450000I-100000J0D01*
G01*
X165087500Y-88450000D01*
G75*
G02*
X164987500Y-88350000I0J100000D01*
G01*
G37*
G36*
G01*
X164987500Y-87700000D02*
X164987500Y-87500000D01*
G75*
G02*
X165087500Y-87400000I100000J0D01*
G01*
X166362500Y-87400000D01*
G75*
G02*
X166462500Y-87500000I0J-100000D01*
G01*
X166462500Y-87700000D01*
G75*
G02*
X166362500Y-87800000I-100000J0D01*
G01*
X165087500Y-87800000D01*
G75*
G02*
X164987500Y-87700000I0J100000D01*
G01*
G37*
G36*
G01*
X164987500Y-87050000D02*
X164987500Y-86850000D01*
G75*
G02*
X165087500Y-86750000I100000J0D01*
G01*
X166362500Y-86750000D01*
G75*
G02*
X166462500Y-86850000I0J-100000D01*
G01*
X166462500Y-87050000D01*
G75*
G02*
X166362500Y-87150000I-100000J0D01*
G01*
X165087500Y-87150000D01*
G75*
G02*
X164987500Y-87050000I0J100000D01*
G01*
G37*
G36*
G01*
X164987500Y-86400000D02*
X164987500Y-86200000D01*
G75*
G02*
X165087500Y-86100000I100000J0D01*
G01*
X166362500Y-86100000D01*
G75*
G02*
X166462500Y-86200000I0J-100000D01*
G01*
X166462500Y-86400000D01*
G75*
G02*
X166362500Y-86500000I-100000J0D01*
G01*
X165087500Y-86500000D01*
G75*
G02*
X164987500Y-86400000I0J100000D01*
G01*
G37*
G36*
G01*
X164987500Y-85750000D02*
X164987500Y-85550000D01*
G75*
G02*
X165087500Y-85450000I100000J0D01*
G01*
X166362500Y-85450000D01*
G75*
G02*
X166462500Y-85550000I0J-100000D01*
G01*
X166462500Y-85750000D01*
G75*
G02*
X166362500Y-85850000I-100000J0D01*
G01*
X165087500Y-85850000D01*
G75*
G02*
X164987500Y-85750000I0J100000D01*
G01*
G37*
G36*
G01*
X164987500Y-85100000D02*
X164987500Y-84900000D01*
G75*
G02*
X165087500Y-84800000I100000J0D01*
G01*
X166362500Y-84800000D01*
G75*
G02*
X166462500Y-84900000I0J-100000D01*
G01*
X166462500Y-85100000D01*
G75*
G02*
X166362500Y-85200000I-100000J0D01*
G01*
X165087500Y-85200000D01*
G75*
G02*
X164987500Y-85100000I0J100000D01*
G01*
G37*
G36*
G01*
X164987500Y-84450000D02*
X164987500Y-84250000D01*
G75*
G02*
X165087500Y-84150000I100000J0D01*
G01*
X166362500Y-84150000D01*
G75*
G02*
X166462500Y-84250000I0J-100000D01*
G01*
X166462500Y-84450000D01*
G75*
G02*
X166362500Y-84550000I-100000J0D01*
G01*
X165087500Y-84550000D01*
G75*
G02*
X164987500Y-84450000I0J100000D01*
G01*
G37*
G36*
G01*
X164987500Y-83800000D02*
X164987500Y-83600000D01*
G75*
G02*
X165087500Y-83500000I100000J0D01*
G01*
X166362500Y-83500000D01*
G75*
G02*
X166462500Y-83600000I0J-100000D01*
G01*
X166462500Y-83800000D01*
G75*
G02*
X166362500Y-83900000I-100000J0D01*
G01*
X165087500Y-83900000D01*
G75*
G02*
X164987500Y-83800000I0J100000D01*
G01*
G37*
G36*
G01*
X164987500Y-83150000D02*
X164987500Y-82950000D01*
G75*
G02*
X165087500Y-82850000I100000J0D01*
G01*
X166362500Y-82850000D01*
G75*
G02*
X166462500Y-82950000I0J-100000D01*
G01*
X166462500Y-83150000D01*
G75*
G02*
X166362500Y-83250000I-100000J0D01*
G01*
X165087500Y-83250000D01*
G75*
G02*
X164987500Y-83150000I0J100000D01*
G01*
G37*
G36*
G01*
X164987500Y-82500000D02*
X164987500Y-82300000D01*
G75*
G02*
X165087500Y-82200000I100000J0D01*
G01*
X166362500Y-82200000D01*
G75*
G02*
X166462500Y-82300000I0J-100000D01*
G01*
X166462500Y-82500000D01*
G75*
G02*
X166362500Y-82600000I-100000J0D01*
G01*
X165087500Y-82600000D01*
G75*
G02*
X164987500Y-82500000I0J100000D01*
G01*
G37*
%TD*%
%TO.C,U1*%
G36*
G01*
X131762500Y-82500000D02*
X131762500Y-82300000D01*
G75*
G02*
X131862500Y-82200000I100000J0D01*
G01*
X133137500Y-82200000D01*
G75*
G02*
X133237500Y-82300000I0J-100000D01*
G01*
X133237500Y-82500000D01*
G75*
G02*
X133137500Y-82600000I-100000J0D01*
G01*
X131862500Y-82600000D01*
G75*
G02*
X131762500Y-82500000I0J100000D01*
G01*
G37*
G36*
G01*
X131762500Y-83150000D02*
X131762500Y-82950000D01*
G75*
G02*
X131862500Y-82850000I100000J0D01*
G01*
X133137500Y-82850000D01*
G75*
G02*
X133237500Y-82950000I0J-100000D01*
G01*
X133237500Y-83150000D01*
G75*
G02*
X133137500Y-83250000I-100000J0D01*
G01*
X131862500Y-83250000D01*
G75*
G02*
X131762500Y-83150000I0J100000D01*
G01*
G37*
G36*
G01*
X131762500Y-83800000D02*
X131762500Y-83600000D01*
G75*
G02*
X131862500Y-83500000I100000J0D01*
G01*
X133137500Y-83500000D01*
G75*
G02*
X133237500Y-83600000I0J-100000D01*
G01*
X133237500Y-83800000D01*
G75*
G02*
X133137500Y-83900000I-100000J0D01*
G01*
X131862500Y-83900000D01*
G75*
G02*
X131762500Y-83800000I0J100000D01*
G01*
G37*
G36*
G01*
X131762500Y-84450000D02*
X131762500Y-84250000D01*
G75*
G02*
X131862500Y-84150000I100000J0D01*
G01*
X133137500Y-84150000D01*
G75*
G02*
X133237500Y-84250000I0J-100000D01*
G01*
X133237500Y-84450000D01*
G75*
G02*
X133137500Y-84550000I-100000J0D01*
G01*
X131862500Y-84550000D01*
G75*
G02*
X131762500Y-84450000I0J100000D01*
G01*
G37*
G36*
G01*
X131762500Y-85100000D02*
X131762500Y-84900000D01*
G75*
G02*
X131862500Y-84800000I100000J0D01*
G01*
X133137500Y-84800000D01*
G75*
G02*
X133237500Y-84900000I0J-100000D01*
G01*
X133237500Y-85100000D01*
G75*
G02*
X133137500Y-85200000I-100000J0D01*
G01*
X131862500Y-85200000D01*
G75*
G02*
X131762500Y-85100000I0J100000D01*
G01*
G37*
G36*
G01*
X131762500Y-85750000D02*
X131762500Y-85550000D01*
G75*
G02*
X131862500Y-85450000I100000J0D01*
G01*
X133137500Y-85450000D01*
G75*
G02*
X133237500Y-85550000I0J-100000D01*
G01*
X133237500Y-85750000D01*
G75*
G02*
X133137500Y-85850000I-100000J0D01*
G01*
X131862500Y-85850000D01*
G75*
G02*
X131762500Y-85750000I0J100000D01*
G01*
G37*
G36*
G01*
X131762500Y-86400000D02*
X131762500Y-86200000D01*
G75*
G02*
X131862500Y-86100000I100000J0D01*
G01*
X133137500Y-86100000D01*
G75*
G02*
X133237500Y-86200000I0J-100000D01*
G01*
X133237500Y-86400000D01*
G75*
G02*
X133137500Y-86500000I-100000J0D01*
G01*
X131862500Y-86500000D01*
G75*
G02*
X131762500Y-86400000I0J100000D01*
G01*
G37*
G36*
G01*
X131762500Y-87050000D02*
X131762500Y-86850000D01*
G75*
G02*
X131862500Y-86750000I100000J0D01*
G01*
X133137500Y-86750000D01*
G75*
G02*
X133237500Y-86850000I0J-100000D01*
G01*
X133237500Y-87050000D01*
G75*
G02*
X133137500Y-87150000I-100000J0D01*
G01*
X131862500Y-87150000D01*
G75*
G02*
X131762500Y-87050000I0J100000D01*
G01*
G37*
G36*
G01*
X131762500Y-87700000D02*
X131762500Y-87500000D01*
G75*
G02*
X131862500Y-87400000I100000J0D01*
G01*
X133137500Y-87400000D01*
G75*
G02*
X133237500Y-87500000I0J-100000D01*
G01*
X133237500Y-87700000D01*
G75*
G02*
X133137500Y-87800000I-100000J0D01*
G01*
X131862500Y-87800000D01*
G75*
G02*
X131762500Y-87700000I0J100000D01*
G01*
G37*
G36*
G01*
X131762500Y-88350000D02*
X131762500Y-88150000D01*
G75*
G02*
X131862500Y-88050000I100000J0D01*
G01*
X133137500Y-88050000D01*
G75*
G02*
X133237500Y-88150000I0J-100000D01*
G01*
X133237500Y-88350000D01*
G75*
G02*
X133137500Y-88450000I-100000J0D01*
G01*
X131862500Y-88450000D01*
G75*
G02*
X131762500Y-88350000I0J100000D01*
G01*
G37*
G36*
G01*
X137487500Y-88350000D02*
X137487500Y-88150000D01*
G75*
G02*
X137587500Y-88050000I100000J0D01*
G01*
X138862500Y-88050000D01*
G75*
G02*
X138962500Y-88150000I0J-100000D01*
G01*
X138962500Y-88350000D01*
G75*
G02*
X138862500Y-88450000I-100000J0D01*
G01*
X137587500Y-88450000D01*
G75*
G02*
X137487500Y-88350000I0J100000D01*
G01*
G37*
G36*
G01*
X137487500Y-87700000D02*
X137487500Y-87500000D01*
G75*
G02*
X137587500Y-87400000I100000J0D01*
G01*
X138862500Y-87400000D01*
G75*
G02*
X138962500Y-87500000I0J-100000D01*
G01*
X138962500Y-87700000D01*
G75*
G02*
X138862500Y-87800000I-100000J0D01*
G01*
X137587500Y-87800000D01*
G75*
G02*
X137487500Y-87700000I0J100000D01*
G01*
G37*
G36*
G01*
X137487500Y-87050000D02*
X137487500Y-86850000D01*
G75*
G02*
X137587500Y-86750000I100000J0D01*
G01*
X138862500Y-86750000D01*
G75*
G02*
X138962500Y-86850000I0J-100000D01*
G01*
X138962500Y-87050000D01*
G75*
G02*
X138862500Y-87150000I-100000J0D01*
G01*
X137587500Y-87150000D01*
G75*
G02*
X137487500Y-87050000I0J100000D01*
G01*
G37*
G36*
G01*
X137487500Y-86400000D02*
X137487500Y-86200000D01*
G75*
G02*
X137587500Y-86100000I100000J0D01*
G01*
X138862500Y-86100000D01*
G75*
G02*
X138962500Y-86200000I0J-100000D01*
G01*
X138962500Y-86400000D01*
G75*
G02*
X138862500Y-86500000I-100000J0D01*
G01*
X137587500Y-86500000D01*
G75*
G02*
X137487500Y-86400000I0J100000D01*
G01*
G37*
G36*
G01*
X137487500Y-85750000D02*
X137487500Y-85550000D01*
G75*
G02*
X137587500Y-85450000I100000J0D01*
G01*
X138862500Y-85450000D01*
G75*
G02*
X138962500Y-85550000I0J-100000D01*
G01*
X138962500Y-85750000D01*
G75*
G02*
X138862500Y-85850000I-100000J0D01*
G01*
X137587500Y-85850000D01*
G75*
G02*
X137487500Y-85750000I0J100000D01*
G01*
G37*
G36*
G01*
X137487500Y-85100000D02*
X137487500Y-84900000D01*
G75*
G02*
X137587500Y-84800000I100000J0D01*
G01*
X138862500Y-84800000D01*
G75*
G02*
X138962500Y-84900000I0J-100000D01*
G01*
X138962500Y-85100000D01*
G75*
G02*
X138862500Y-85200000I-100000J0D01*
G01*
X137587500Y-85200000D01*
G75*
G02*
X137487500Y-85100000I0J100000D01*
G01*
G37*
G36*
G01*
X137487500Y-84450000D02*
X137487500Y-84250000D01*
G75*
G02*
X137587500Y-84150000I100000J0D01*
G01*
X138862500Y-84150000D01*
G75*
G02*
X138962500Y-84250000I0J-100000D01*
G01*
X138962500Y-84450000D01*
G75*
G02*
X138862500Y-84550000I-100000J0D01*
G01*
X137587500Y-84550000D01*
G75*
G02*
X137487500Y-84450000I0J100000D01*
G01*
G37*
G36*
G01*
X137487500Y-83800000D02*
X137487500Y-83600000D01*
G75*
G02*
X137587500Y-83500000I100000J0D01*
G01*
X138862500Y-83500000D01*
G75*
G02*
X138962500Y-83600000I0J-100000D01*
G01*
X138962500Y-83800000D01*
G75*
G02*
X138862500Y-83900000I-100000J0D01*
G01*
X137587500Y-83900000D01*
G75*
G02*
X137487500Y-83800000I0J100000D01*
G01*
G37*
G36*
G01*
X137487500Y-83150000D02*
X137487500Y-82950000D01*
G75*
G02*
X137587500Y-82850000I100000J0D01*
G01*
X138862500Y-82850000D01*
G75*
G02*
X138962500Y-82950000I0J-100000D01*
G01*
X138962500Y-83150000D01*
G75*
G02*
X138862500Y-83250000I-100000J0D01*
G01*
X137587500Y-83250000D01*
G75*
G02*
X137487500Y-83150000I0J100000D01*
G01*
G37*
G36*
G01*
X137487500Y-82500000D02*
X137487500Y-82300000D01*
G75*
G02*
X137587500Y-82200000I100000J0D01*
G01*
X138862500Y-82200000D01*
G75*
G02*
X138962500Y-82300000I0J-100000D01*
G01*
X138962500Y-82500000D01*
G75*
G02*
X138862500Y-82600000I-100000J0D01*
G01*
X137587500Y-82600000D01*
G75*
G02*
X137487500Y-82500000I0J100000D01*
G01*
G37*
%TD*%
%TO.C,U1*%
G36*
G01*
X159262500Y-67000000D02*
X159262500Y-66800000D01*
G75*
G02*
X159362500Y-66700000I100000J0D01*
G01*
X160637500Y-66700000D01*
G75*
G02*
X160737500Y-66800000I0J-100000D01*
G01*
X160737500Y-67000000D01*
G75*
G02*
X160637500Y-67100000I-100000J0D01*
G01*
X159362500Y-67100000D01*
G75*
G02*
X159262500Y-67000000I0J100000D01*
G01*
G37*
G36*
G01*
X159262500Y-67650000D02*
X159262500Y-67450000D01*
G75*
G02*
X159362500Y-67350000I100000J0D01*
G01*
X160637500Y-67350000D01*
G75*
G02*
X160737500Y-67450000I0J-100000D01*
G01*
X160737500Y-67650000D01*
G75*
G02*
X160637500Y-67750000I-100000J0D01*
G01*
X159362500Y-67750000D01*
G75*
G02*
X159262500Y-67650000I0J100000D01*
G01*
G37*
G36*
G01*
X159262500Y-68300000D02*
X159262500Y-68100000D01*
G75*
G02*
X159362500Y-68000000I100000J0D01*
G01*
X160637500Y-68000000D01*
G75*
G02*
X160737500Y-68100000I0J-100000D01*
G01*
X160737500Y-68300000D01*
G75*
G02*
X160637500Y-68400000I-100000J0D01*
G01*
X159362500Y-68400000D01*
G75*
G02*
X159262500Y-68300000I0J100000D01*
G01*
G37*
G36*
G01*
X159262500Y-68950000D02*
X159262500Y-68750000D01*
G75*
G02*
X159362500Y-68650000I100000J0D01*
G01*
X160637500Y-68650000D01*
G75*
G02*
X160737500Y-68750000I0J-100000D01*
G01*
X160737500Y-68950000D01*
G75*
G02*
X160637500Y-69050000I-100000J0D01*
G01*
X159362500Y-69050000D01*
G75*
G02*
X159262500Y-68950000I0J100000D01*
G01*
G37*
G36*
G01*
X159262500Y-69600000D02*
X159262500Y-69400000D01*
G75*
G02*
X159362500Y-69300000I100000J0D01*
G01*
X160637500Y-69300000D01*
G75*
G02*
X160737500Y-69400000I0J-100000D01*
G01*
X160737500Y-69600000D01*
G75*
G02*
X160637500Y-69700000I-100000J0D01*
G01*
X159362500Y-69700000D01*
G75*
G02*
X159262500Y-69600000I0J100000D01*
G01*
G37*
G36*
G01*
X159262500Y-70250000D02*
X159262500Y-70050000D01*
G75*
G02*
X159362500Y-69950000I100000J0D01*
G01*
X160637500Y-69950000D01*
G75*
G02*
X160737500Y-70050000I0J-100000D01*
G01*
X160737500Y-70250000D01*
G75*
G02*
X160637500Y-70350000I-100000J0D01*
G01*
X159362500Y-70350000D01*
G75*
G02*
X159262500Y-70250000I0J100000D01*
G01*
G37*
G36*
G01*
X159262500Y-70900000D02*
X159262500Y-70700000D01*
G75*
G02*
X159362500Y-70600000I100000J0D01*
G01*
X160637500Y-70600000D01*
G75*
G02*
X160737500Y-70700000I0J-100000D01*
G01*
X160737500Y-70900000D01*
G75*
G02*
X160637500Y-71000000I-100000J0D01*
G01*
X159362500Y-71000000D01*
G75*
G02*
X159262500Y-70900000I0J100000D01*
G01*
G37*
G36*
G01*
X159262500Y-71550000D02*
X159262500Y-71350000D01*
G75*
G02*
X159362500Y-71250000I100000J0D01*
G01*
X160637500Y-71250000D01*
G75*
G02*
X160737500Y-71350000I0J-100000D01*
G01*
X160737500Y-71550000D01*
G75*
G02*
X160637500Y-71650000I-100000J0D01*
G01*
X159362500Y-71650000D01*
G75*
G02*
X159262500Y-71550000I0J100000D01*
G01*
G37*
G36*
G01*
X159262500Y-72200000D02*
X159262500Y-72000000D01*
G75*
G02*
X159362500Y-71900000I100000J0D01*
G01*
X160637500Y-71900000D01*
G75*
G02*
X160737500Y-72000000I0J-100000D01*
G01*
X160737500Y-72200000D01*
G75*
G02*
X160637500Y-72300000I-100000J0D01*
G01*
X159362500Y-72300000D01*
G75*
G02*
X159262500Y-72200000I0J100000D01*
G01*
G37*
G36*
G01*
X159262500Y-72850000D02*
X159262500Y-72650000D01*
G75*
G02*
X159362500Y-72550000I100000J0D01*
G01*
X160637500Y-72550000D01*
G75*
G02*
X160737500Y-72650000I0J-100000D01*
G01*
X160737500Y-72850000D01*
G75*
G02*
X160637500Y-72950000I-100000J0D01*
G01*
X159362500Y-72950000D01*
G75*
G02*
X159262500Y-72850000I0J100000D01*
G01*
G37*
G36*
G01*
X164987500Y-72850000D02*
X164987500Y-72650000D01*
G75*
G02*
X165087500Y-72550000I100000J0D01*
G01*
X166362500Y-72550000D01*
G75*
G02*
X166462500Y-72650000I0J-100000D01*
G01*
X166462500Y-72850000D01*
G75*
G02*
X166362500Y-72950000I-100000J0D01*
G01*
X165087500Y-72950000D01*
G75*
G02*
X164987500Y-72850000I0J100000D01*
G01*
G37*
G36*
G01*
X164987500Y-72200000D02*
X164987500Y-72000000D01*
G75*
G02*
X165087500Y-71900000I100000J0D01*
G01*
X166362500Y-71900000D01*
G75*
G02*
X166462500Y-72000000I0J-100000D01*
G01*
X166462500Y-72200000D01*
G75*
G02*
X166362500Y-72300000I-100000J0D01*
G01*
X165087500Y-72300000D01*
G75*
G02*
X164987500Y-72200000I0J100000D01*
G01*
G37*
G36*
G01*
X164987500Y-71550000D02*
X164987500Y-71350000D01*
G75*
G02*
X165087500Y-71250000I100000J0D01*
G01*
X166362500Y-71250000D01*
G75*
G02*
X166462500Y-71350000I0J-100000D01*
G01*
X166462500Y-71550000D01*
G75*
G02*
X166362500Y-71650000I-100000J0D01*
G01*
X165087500Y-71650000D01*
G75*
G02*
X164987500Y-71550000I0J100000D01*
G01*
G37*
G36*
G01*
X164987500Y-70900000D02*
X164987500Y-70700000D01*
G75*
G02*
X165087500Y-70600000I100000J0D01*
G01*
X166362500Y-70600000D01*
G75*
G02*
X166462500Y-70700000I0J-100000D01*
G01*
X166462500Y-70900000D01*
G75*
G02*
X166362500Y-71000000I-100000J0D01*
G01*
X165087500Y-71000000D01*
G75*
G02*
X164987500Y-70900000I0J100000D01*
G01*
G37*
G36*
G01*
X164987500Y-70250000D02*
X164987500Y-70050000D01*
G75*
G02*
X165087500Y-69950000I100000J0D01*
G01*
X166362500Y-69950000D01*
G75*
G02*
X166462500Y-70050000I0J-100000D01*
G01*
X166462500Y-70250000D01*
G75*
G02*
X166362500Y-70350000I-100000J0D01*
G01*
X165087500Y-70350000D01*
G75*
G02*
X164987500Y-70250000I0J100000D01*
G01*
G37*
G36*
G01*
X164987500Y-69600000D02*
X164987500Y-69400000D01*
G75*
G02*
X165087500Y-69300000I100000J0D01*
G01*
X166362500Y-69300000D01*
G75*
G02*
X166462500Y-69400000I0J-100000D01*
G01*
X166462500Y-69600000D01*
G75*
G02*
X166362500Y-69700000I-100000J0D01*
G01*
X165087500Y-69700000D01*
G75*
G02*
X164987500Y-69600000I0J100000D01*
G01*
G37*
G36*
G01*
X164987500Y-68950000D02*
X164987500Y-68750000D01*
G75*
G02*
X165087500Y-68650000I100000J0D01*
G01*
X166362500Y-68650000D01*
G75*
G02*
X166462500Y-68750000I0J-100000D01*
G01*
X166462500Y-68950000D01*
G75*
G02*
X166362500Y-69050000I-100000J0D01*
G01*
X165087500Y-69050000D01*
G75*
G02*
X164987500Y-68950000I0J100000D01*
G01*
G37*
G36*
G01*
X164987500Y-68300000D02*
X164987500Y-68100000D01*
G75*
G02*
X165087500Y-68000000I100000J0D01*
G01*
X166362500Y-68000000D01*
G75*
G02*
X166462500Y-68100000I0J-100000D01*
G01*
X166462500Y-68300000D01*
G75*
G02*
X166362500Y-68400000I-100000J0D01*
G01*
X165087500Y-68400000D01*
G75*
G02*
X164987500Y-68300000I0J100000D01*
G01*
G37*
G36*
G01*
X164987500Y-67650000D02*
X164987500Y-67450000D01*
G75*
G02*
X165087500Y-67350000I100000J0D01*
G01*
X166362500Y-67350000D01*
G75*
G02*
X166462500Y-67450000I0J-100000D01*
G01*
X166462500Y-67650000D01*
G75*
G02*
X166362500Y-67750000I-100000J0D01*
G01*
X165087500Y-67750000D01*
G75*
G02*
X164987500Y-67650000I0J100000D01*
G01*
G37*
G36*
G01*
X164987500Y-67000000D02*
X164987500Y-66800000D01*
G75*
G02*
X165087500Y-66700000I100000J0D01*
G01*
X166362500Y-66700000D01*
G75*
G02*
X166462500Y-66800000I0J-100000D01*
G01*
X166462500Y-67000000D01*
G75*
G02*
X166362500Y-67100000I-100000J0D01*
G01*
X165087500Y-67100000D01*
G75*
G02*
X164987500Y-67000000I0J100000D01*
G01*
G37*
%TD*%
%TO.C,U1*%
G36*
G01*
X131762500Y-67000000D02*
X131762500Y-66800000D01*
G75*
G02*
X131862500Y-66700000I100000J0D01*
G01*
X133137500Y-66700000D01*
G75*
G02*
X133237500Y-66800000I0J-100000D01*
G01*
X133237500Y-67000000D01*
G75*
G02*
X133137500Y-67100000I-100000J0D01*
G01*
X131862500Y-67100000D01*
G75*
G02*
X131762500Y-67000000I0J100000D01*
G01*
G37*
G36*
G01*
X131762500Y-67650000D02*
X131762500Y-67450000D01*
G75*
G02*
X131862500Y-67350000I100000J0D01*
G01*
X133137500Y-67350000D01*
G75*
G02*
X133237500Y-67450000I0J-100000D01*
G01*
X133237500Y-67650000D01*
G75*
G02*
X133137500Y-67750000I-100000J0D01*
G01*
X131862500Y-67750000D01*
G75*
G02*
X131762500Y-67650000I0J100000D01*
G01*
G37*
G36*
G01*
X131762500Y-68300000D02*
X131762500Y-68100000D01*
G75*
G02*
X131862500Y-68000000I100000J0D01*
G01*
X133137500Y-68000000D01*
G75*
G02*
X133237500Y-68100000I0J-100000D01*
G01*
X133237500Y-68300000D01*
G75*
G02*
X133137500Y-68400000I-100000J0D01*
G01*
X131862500Y-68400000D01*
G75*
G02*
X131762500Y-68300000I0J100000D01*
G01*
G37*
G36*
G01*
X131762500Y-68950000D02*
X131762500Y-68750000D01*
G75*
G02*
X131862500Y-68650000I100000J0D01*
G01*
X133137500Y-68650000D01*
G75*
G02*
X133237500Y-68750000I0J-100000D01*
G01*
X133237500Y-68950000D01*
G75*
G02*
X133137500Y-69050000I-100000J0D01*
G01*
X131862500Y-69050000D01*
G75*
G02*
X131762500Y-68950000I0J100000D01*
G01*
G37*
G36*
G01*
X131762500Y-69600000D02*
X131762500Y-69400000D01*
G75*
G02*
X131862500Y-69300000I100000J0D01*
G01*
X133137500Y-69300000D01*
G75*
G02*
X133237500Y-69400000I0J-100000D01*
G01*
X133237500Y-69600000D01*
G75*
G02*
X133137500Y-69700000I-100000J0D01*
G01*
X131862500Y-69700000D01*
G75*
G02*
X131762500Y-69600000I0J100000D01*
G01*
G37*
G36*
G01*
X131762500Y-70250000D02*
X131762500Y-70050000D01*
G75*
G02*
X131862500Y-69950000I100000J0D01*
G01*
X133137500Y-69950000D01*
G75*
G02*
X133237500Y-70050000I0J-100000D01*
G01*
X133237500Y-70250000D01*
G75*
G02*
X133137500Y-70350000I-100000J0D01*
G01*
X131862500Y-70350000D01*
G75*
G02*
X131762500Y-70250000I0J100000D01*
G01*
G37*
G36*
G01*
X131762500Y-70900000D02*
X131762500Y-70700000D01*
G75*
G02*
X131862500Y-70600000I100000J0D01*
G01*
X133137500Y-70600000D01*
G75*
G02*
X133237500Y-70700000I0J-100000D01*
G01*
X133237500Y-70900000D01*
G75*
G02*
X133137500Y-71000000I-100000J0D01*
G01*
X131862500Y-71000000D01*
G75*
G02*
X131762500Y-70900000I0J100000D01*
G01*
G37*
G36*
G01*
X131762500Y-71550000D02*
X131762500Y-71350000D01*
G75*
G02*
X131862500Y-71250000I100000J0D01*
G01*
X133137500Y-71250000D01*
G75*
G02*
X133237500Y-71350000I0J-100000D01*
G01*
X133237500Y-71550000D01*
G75*
G02*
X133137500Y-71650000I-100000J0D01*
G01*
X131862500Y-71650000D01*
G75*
G02*
X131762500Y-71550000I0J100000D01*
G01*
G37*
G36*
G01*
X131762500Y-72200000D02*
X131762500Y-72000000D01*
G75*
G02*
X131862500Y-71900000I100000J0D01*
G01*
X133137500Y-71900000D01*
G75*
G02*
X133237500Y-72000000I0J-100000D01*
G01*
X133237500Y-72200000D01*
G75*
G02*
X133137500Y-72300000I-100000J0D01*
G01*
X131862500Y-72300000D01*
G75*
G02*
X131762500Y-72200000I0J100000D01*
G01*
G37*
G36*
G01*
X131762500Y-72850000D02*
X131762500Y-72650000D01*
G75*
G02*
X131862500Y-72550000I100000J0D01*
G01*
X133137500Y-72550000D01*
G75*
G02*
X133237500Y-72650000I0J-100000D01*
G01*
X133237500Y-72850000D01*
G75*
G02*
X133137500Y-72950000I-100000J0D01*
G01*
X131862500Y-72950000D01*
G75*
G02*
X131762500Y-72850000I0J100000D01*
G01*
G37*
G36*
G01*
X137487500Y-72850000D02*
X137487500Y-72650000D01*
G75*
G02*
X137587500Y-72550000I100000J0D01*
G01*
X138862500Y-72550000D01*
G75*
G02*
X138962500Y-72650000I0J-100000D01*
G01*
X138962500Y-72850000D01*
G75*
G02*
X138862500Y-72950000I-100000J0D01*
G01*
X137587500Y-72950000D01*
G75*
G02*
X137487500Y-72850000I0J100000D01*
G01*
G37*
G36*
G01*
X137487500Y-72200000D02*
X137487500Y-72000000D01*
G75*
G02*
X137587500Y-71900000I100000J0D01*
G01*
X138862500Y-71900000D01*
G75*
G02*
X138962500Y-72000000I0J-100000D01*
G01*
X138962500Y-72200000D01*
G75*
G02*
X138862500Y-72300000I-100000J0D01*
G01*
X137587500Y-72300000D01*
G75*
G02*
X137487500Y-72200000I0J100000D01*
G01*
G37*
G36*
G01*
X137487500Y-71550000D02*
X137487500Y-71350000D01*
G75*
G02*
X137587500Y-71250000I100000J0D01*
G01*
X138862500Y-71250000D01*
G75*
G02*
X138962500Y-71350000I0J-100000D01*
G01*
X138962500Y-71550000D01*
G75*
G02*
X138862500Y-71650000I-100000J0D01*
G01*
X137587500Y-71650000D01*
G75*
G02*
X137487500Y-71550000I0J100000D01*
G01*
G37*
G36*
G01*
X137487500Y-70900000D02*
X137487500Y-70700000D01*
G75*
G02*
X137587500Y-70600000I100000J0D01*
G01*
X138862500Y-70600000D01*
G75*
G02*
X138962500Y-70700000I0J-100000D01*
G01*
X138962500Y-70900000D01*
G75*
G02*
X138862500Y-71000000I-100000J0D01*
G01*
X137587500Y-71000000D01*
G75*
G02*
X137487500Y-70900000I0J100000D01*
G01*
G37*
G36*
G01*
X137487500Y-70250000D02*
X137487500Y-70050000D01*
G75*
G02*
X137587500Y-69950000I100000J0D01*
G01*
X138862500Y-69950000D01*
G75*
G02*
X138962500Y-70050000I0J-100000D01*
G01*
X138962500Y-70250000D01*
G75*
G02*
X138862500Y-70350000I-100000J0D01*
G01*
X137587500Y-70350000D01*
G75*
G02*
X137487500Y-70250000I0J100000D01*
G01*
G37*
G36*
G01*
X137487500Y-69600000D02*
X137487500Y-69400000D01*
G75*
G02*
X137587500Y-69300000I100000J0D01*
G01*
X138862500Y-69300000D01*
G75*
G02*
X138962500Y-69400000I0J-100000D01*
G01*
X138962500Y-69600000D01*
G75*
G02*
X138862500Y-69700000I-100000J0D01*
G01*
X137587500Y-69700000D01*
G75*
G02*
X137487500Y-69600000I0J100000D01*
G01*
G37*
G36*
G01*
X137487500Y-68950000D02*
X137487500Y-68750000D01*
G75*
G02*
X137587500Y-68650000I100000J0D01*
G01*
X138862500Y-68650000D01*
G75*
G02*
X138962500Y-68750000I0J-100000D01*
G01*
X138962500Y-68950000D01*
G75*
G02*
X138862500Y-69050000I-100000J0D01*
G01*
X137587500Y-69050000D01*
G75*
G02*
X137487500Y-68950000I0J100000D01*
G01*
G37*
G36*
G01*
X137487500Y-68300000D02*
X137487500Y-68100000D01*
G75*
G02*
X137587500Y-68000000I100000J0D01*
G01*
X138862500Y-68000000D01*
G75*
G02*
X138962500Y-68100000I0J-100000D01*
G01*
X138962500Y-68300000D01*
G75*
G02*
X138862500Y-68400000I-100000J0D01*
G01*
X137587500Y-68400000D01*
G75*
G02*
X137487500Y-68300000I0J100000D01*
G01*
G37*
G36*
G01*
X137487500Y-67650000D02*
X137487500Y-67450000D01*
G75*
G02*
X137587500Y-67350000I100000J0D01*
G01*
X138862500Y-67350000D01*
G75*
G02*
X138962500Y-67450000I0J-100000D01*
G01*
X138962500Y-67650000D01*
G75*
G02*
X138862500Y-67750000I-100000J0D01*
G01*
X137587500Y-67750000D01*
G75*
G02*
X137487500Y-67650000I0J100000D01*
G01*
G37*
G36*
G01*
X137487500Y-67000000D02*
X137487500Y-66800000D01*
G75*
G02*
X137587500Y-66700000I100000J0D01*
G01*
X138862500Y-66700000D01*
G75*
G02*
X138962500Y-66800000I0J-100000D01*
G01*
X138962500Y-67000000D01*
G75*
G02*
X138862500Y-67100000I-100000J0D01*
G01*
X137587500Y-67100000D01*
G75*
G02*
X137487500Y-67000000I0J100000D01*
G01*
G37*
%TD*%
%TO.C,U1*%
G36*
G01*
X159262500Y-51500000D02*
X159262500Y-51300000D01*
G75*
G02*
X159362500Y-51200000I100000J0D01*
G01*
X160637500Y-51200000D01*
G75*
G02*
X160737500Y-51300000I0J-100000D01*
G01*
X160737500Y-51500000D01*
G75*
G02*
X160637500Y-51600000I-100000J0D01*
G01*
X159362500Y-51600000D01*
G75*
G02*
X159262500Y-51500000I0J100000D01*
G01*
G37*
G36*
G01*
X159262500Y-52150000D02*
X159262500Y-51950000D01*
G75*
G02*
X159362500Y-51850000I100000J0D01*
G01*
X160637500Y-51850000D01*
G75*
G02*
X160737500Y-51950000I0J-100000D01*
G01*
X160737500Y-52150000D01*
G75*
G02*
X160637500Y-52250000I-100000J0D01*
G01*
X159362500Y-52250000D01*
G75*
G02*
X159262500Y-52150000I0J100000D01*
G01*
G37*
G36*
G01*
X159262500Y-52800000D02*
X159262500Y-52600000D01*
G75*
G02*
X159362500Y-52500000I100000J0D01*
G01*
X160637500Y-52500000D01*
G75*
G02*
X160737500Y-52600000I0J-100000D01*
G01*
X160737500Y-52800000D01*
G75*
G02*
X160637500Y-52900000I-100000J0D01*
G01*
X159362500Y-52900000D01*
G75*
G02*
X159262500Y-52800000I0J100000D01*
G01*
G37*
G36*
G01*
X159262500Y-53450000D02*
X159262500Y-53250000D01*
G75*
G02*
X159362500Y-53150000I100000J0D01*
G01*
X160637500Y-53150000D01*
G75*
G02*
X160737500Y-53250000I0J-100000D01*
G01*
X160737500Y-53450000D01*
G75*
G02*
X160637500Y-53550000I-100000J0D01*
G01*
X159362500Y-53550000D01*
G75*
G02*
X159262500Y-53450000I0J100000D01*
G01*
G37*
G36*
G01*
X159262500Y-54100000D02*
X159262500Y-53900000D01*
G75*
G02*
X159362500Y-53800000I100000J0D01*
G01*
X160637500Y-53800000D01*
G75*
G02*
X160737500Y-53900000I0J-100000D01*
G01*
X160737500Y-54100000D01*
G75*
G02*
X160637500Y-54200000I-100000J0D01*
G01*
X159362500Y-54200000D01*
G75*
G02*
X159262500Y-54100000I0J100000D01*
G01*
G37*
G36*
G01*
X159262500Y-54750000D02*
X159262500Y-54550000D01*
G75*
G02*
X159362500Y-54450000I100000J0D01*
G01*
X160637500Y-54450000D01*
G75*
G02*
X160737500Y-54550000I0J-100000D01*
G01*
X160737500Y-54750000D01*
G75*
G02*
X160637500Y-54850000I-100000J0D01*
G01*
X159362500Y-54850000D01*
G75*
G02*
X159262500Y-54750000I0J100000D01*
G01*
G37*
G36*
G01*
X159262500Y-55400000D02*
X159262500Y-55200000D01*
G75*
G02*
X159362500Y-55100000I100000J0D01*
G01*
X160637500Y-55100000D01*
G75*
G02*
X160737500Y-55200000I0J-100000D01*
G01*
X160737500Y-55400000D01*
G75*
G02*
X160637500Y-55500000I-100000J0D01*
G01*
X159362500Y-55500000D01*
G75*
G02*
X159262500Y-55400000I0J100000D01*
G01*
G37*
G36*
G01*
X159262500Y-56050000D02*
X159262500Y-55850000D01*
G75*
G02*
X159362500Y-55750000I100000J0D01*
G01*
X160637500Y-55750000D01*
G75*
G02*
X160737500Y-55850000I0J-100000D01*
G01*
X160737500Y-56050000D01*
G75*
G02*
X160637500Y-56150000I-100000J0D01*
G01*
X159362500Y-56150000D01*
G75*
G02*
X159262500Y-56050000I0J100000D01*
G01*
G37*
G36*
G01*
X159262500Y-56700000D02*
X159262500Y-56500000D01*
G75*
G02*
X159362500Y-56400000I100000J0D01*
G01*
X160637500Y-56400000D01*
G75*
G02*
X160737500Y-56500000I0J-100000D01*
G01*
X160737500Y-56700000D01*
G75*
G02*
X160637500Y-56800000I-100000J0D01*
G01*
X159362500Y-56800000D01*
G75*
G02*
X159262500Y-56700000I0J100000D01*
G01*
G37*
G36*
G01*
X159262500Y-57350000D02*
X159262500Y-57150000D01*
G75*
G02*
X159362500Y-57050000I100000J0D01*
G01*
X160637500Y-57050000D01*
G75*
G02*
X160737500Y-57150000I0J-100000D01*
G01*
X160737500Y-57350000D01*
G75*
G02*
X160637500Y-57450000I-100000J0D01*
G01*
X159362500Y-57450000D01*
G75*
G02*
X159262500Y-57350000I0J100000D01*
G01*
G37*
G36*
G01*
X164987500Y-57350000D02*
X164987500Y-57150000D01*
G75*
G02*
X165087500Y-57050000I100000J0D01*
G01*
X166362500Y-57050000D01*
G75*
G02*
X166462500Y-57150000I0J-100000D01*
G01*
X166462500Y-57350000D01*
G75*
G02*
X166362500Y-57450000I-100000J0D01*
G01*
X165087500Y-57450000D01*
G75*
G02*
X164987500Y-57350000I0J100000D01*
G01*
G37*
G36*
G01*
X164987500Y-56700000D02*
X164987500Y-56500000D01*
G75*
G02*
X165087500Y-56400000I100000J0D01*
G01*
X166362500Y-56400000D01*
G75*
G02*
X166462500Y-56500000I0J-100000D01*
G01*
X166462500Y-56700000D01*
G75*
G02*
X166362500Y-56800000I-100000J0D01*
G01*
X165087500Y-56800000D01*
G75*
G02*
X164987500Y-56700000I0J100000D01*
G01*
G37*
G36*
G01*
X164987500Y-56050000D02*
X164987500Y-55850000D01*
G75*
G02*
X165087500Y-55750000I100000J0D01*
G01*
X166362500Y-55750000D01*
G75*
G02*
X166462500Y-55850000I0J-100000D01*
G01*
X166462500Y-56050000D01*
G75*
G02*
X166362500Y-56150000I-100000J0D01*
G01*
X165087500Y-56150000D01*
G75*
G02*
X164987500Y-56050000I0J100000D01*
G01*
G37*
G36*
G01*
X164987500Y-55400000D02*
X164987500Y-55200000D01*
G75*
G02*
X165087500Y-55100000I100000J0D01*
G01*
X166362500Y-55100000D01*
G75*
G02*
X166462500Y-55200000I0J-100000D01*
G01*
X166462500Y-55400000D01*
G75*
G02*
X166362500Y-55500000I-100000J0D01*
G01*
X165087500Y-55500000D01*
G75*
G02*
X164987500Y-55400000I0J100000D01*
G01*
G37*
G36*
G01*
X164987500Y-54750000D02*
X164987500Y-54550000D01*
G75*
G02*
X165087500Y-54450000I100000J0D01*
G01*
X166362500Y-54450000D01*
G75*
G02*
X166462500Y-54550000I0J-100000D01*
G01*
X166462500Y-54750000D01*
G75*
G02*
X166362500Y-54850000I-100000J0D01*
G01*
X165087500Y-54850000D01*
G75*
G02*
X164987500Y-54750000I0J100000D01*
G01*
G37*
G36*
G01*
X164987500Y-54100000D02*
X164987500Y-53900000D01*
G75*
G02*
X165087500Y-53800000I100000J0D01*
G01*
X166362500Y-53800000D01*
G75*
G02*
X166462500Y-53900000I0J-100000D01*
G01*
X166462500Y-54100000D01*
G75*
G02*
X166362500Y-54200000I-100000J0D01*
G01*
X165087500Y-54200000D01*
G75*
G02*
X164987500Y-54100000I0J100000D01*
G01*
G37*
G36*
G01*
X164987500Y-53450000D02*
X164987500Y-53250000D01*
G75*
G02*
X165087500Y-53150000I100000J0D01*
G01*
X166362500Y-53150000D01*
G75*
G02*
X166462500Y-53250000I0J-100000D01*
G01*
X166462500Y-53450000D01*
G75*
G02*
X166362500Y-53550000I-100000J0D01*
G01*
X165087500Y-53550000D01*
G75*
G02*
X164987500Y-53450000I0J100000D01*
G01*
G37*
G36*
G01*
X164987500Y-52800000D02*
X164987500Y-52600000D01*
G75*
G02*
X165087500Y-52500000I100000J0D01*
G01*
X166362500Y-52500000D01*
G75*
G02*
X166462500Y-52600000I0J-100000D01*
G01*
X166462500Y-52800000D01*
G75*
G02*
X166362500Y-52900000I-100000J0D01*
G01*
X165087500Y-52900000D01*
G75*
G02*
X164987500Y-52800000I0J100000D01*
G01*
G37*
G36*
G01*
X164987500Y-52150000D02*
X164987500Y-51950000D01*
G75*
G02*
X165087500Y-51850000I100000J0D01*
G01*
X166362500Y-51850000D01*
G75*
G02*
X166462500Y-51950000I0J-100000D01*
G01*
X166462500Y-52150000D01*
G75*
G02*
X166362500Y-52250000I-100000J0D01*
G01*
X165087500Y-52250000D01*
G75*
G02*
X164987500Y-52150000I0J100000D01*
G01*
G37*
G36*
G01*
X164987500Y-51500000D02*
X164987500Y-51300000D01*
G75*
G02*
X165087500Y-51200000I100000J0D01*
G01*
X166362500Y-51200000D01*
G75*
G02*
X166462500Y-51300000I0J-100000D01*
G01*
X166462500Y-51500000D01*
G75*
G02*
X166362500Y-51600000I-100000J0D01*
G01*
X165087500Y-51600000D01*
G75*
G02*
X164987500Y-51500000I0J100000D01*
G01*
G37*
%TD*%
%TO.C,R6*%
G36*
G01*
X168872500Y-91265000D02*
X168527500Y-91265000D01*
G75*
G02*
X168380000Y-91117500I0J147500D01*
G01*
X168380000Y-90822500D01*
G75*
G02*
X168527500Y-90675000I147500J0D01*
G01*
X168872500Y-90675000D01*
G75*
G02*
X169020000Y-90822500I0J-147500D01*
G01*
X169020000Y-91117500D01*
G75*
G02*
X168872500Y-91265000I-147500J0D01*
G01*
G37*
G36*
G01*
X168872500Y-90295000D02*
X168527500Y-90295000D01*
G75*
G02*
X168380000Y-90147500I0J147500D01*
G01*
X168380000Y-89852500D01*
G75*
G02*
X168527500Y-89705000I147500J0D01*
G01*
X168872500Y-89705000D01*
G75*
G02*
X169020000Y-89852500I0J-147500D01*
G01*
X169020000Y-90147500D01*
G75*
G02*
X168872500Y-90295000I-147500J0D01*
G01*
G37*
%TD*%
%TO.C,R6*%
G36*
G01*
X141372500Y-91265000D02*
X141027500Y-91265000D01*
G75*
G02*
X140880000Y-91117500I0J147500D01*
G01*
X140880000Y-90822500D01*
G75*
G02*
X141027500Y-90675000I147500J0D01*
G01*
X141372500Y-90675000D01*
G75*
G02*
X141520000Y-90822500I0J-147500D01*
G01*
X141520000Y-91117500D01*
G75*
G02*
X141372500Y-91265000I-147500J0D01*
G01*
G37*
G36*
G01*
X141372500Y-90295000D02*
X141027500Y-90295000D01*
G75*
G02*
X140880000Y-90147500I0J147500D01*
G01*
X140880000Y-89852500D01*
G75*
G02*
X141027500Y-89705000I147500J0D01*
G01*
X141372500Y-89705000D01*
G75*
G02*
X141520000Y-89852500I0J-147500D01*
G01*
X141520000Y-90147500D01*
G75*
G02*
X141372500Y-90295000I-147500J0D01*
G01*
G37*
%TD*%
%TO.C,R6*%
G36*
G01*
X168872500Y-75765000D02*
X168527500Y-75765000D01*
G75*
G02*
X168380000Y-75617500I0J147500D01*
G01*
X168380000Y-75322500D01*
G75*
G02*
X168527500Y-75175000I147500J0D01*
G01*
X168872500Y-75175000D01*
G75*
G02*
X169020000Y-75322500I0J-147500D01*
G01*
X169020000Y-75617500D01*
G75*
G02*
X168872500Y-75765000I-147500J0D01*
G01*
G37*
G36*
G01*
X168872500Y-74795000D02*
X168527500Y-74795000D01*
G75*
G02*
X168380000Y-74647500I0J147500D01*
G01*
X168380000Y-74352500D01*
G75*
G02*
X168527500Y-74205000I147500J0D01*
G01*
X168872500Y-74205000D01*
G75*
G02*
X169020000Y-74352500I0J-147500D01*
G01*
X169020000Y-74647500D01*
G75*
G02*
X168872500Y-74795000I-147500J0D01*
G01*
G37*
%TD*%
%TO.C,R6*%
G36*
G01*
X141372500Y-75765000D02*
X141027500Y-75765000D01*
G75*
G02*
X140880000Y-75617500I0J147500D01*
G01*
X140880000Y-75322500D01*
G75*
G02*
X141027500Y-75175000I147500J0D01*
G01*
X141372500Y-75175000D01*
G75*
G02*
X141520000Y-75322500I0J-147500D01*
G01*
X141520000Y-75617500D01*
G75*
G02*
X141372500Y-75765000I-147500J0D01*
G01*
G37*
G36*
G01*
X141372500Y-74795000D02*
X141027500Y-74795000D01*
G75*
G02*
X140880000Y-74647500I0J147500D01*
G01*
X140880000Y-74352500D01*
G75*
G02*
X141027500Y-74205000I147500J0D01*
G01*
X141372500Y-74205000D01*
G75*
G02*
X141520000Y-74352500I0J-147500D01*
G01*
X141520000Y-74647500D01*
G75*
G02*
X141372500Y-74795000I-147500J0D01*
G01*
G37*
%TD*%
%TO.C,R6*%
G36*
G01*
X168872500Y-60265000D02*
X168527500Y-60265000D01*
G75*
G02*
X168380000Y-60117500I0J147500D01*
G01*
X168380000Y-59822500D01*
G75*
G02*
X168527500Y-59675000I147500J0D01*
G01*
X168872500Y-59675000D01*
G75*
G02*
X169020000Y-59822500I0J-147500D01*
G01*
X169020000Y-60117500D01*
G75*
G02*
X168872500Y-60265000I-147500J0D01*
G01*
G37*
G36*
G01*
X168872500Y-59295000D02*
X168527500Y-59295000D01*
G75*
G02*
X168380000Y-59147500I0J147500D01*
G01*
X168380000Y-58852500D01*
G75*
G02*
X168527500Y-58705000I147500J0D01*
G01*
X168872500Y-58705000D01*
G75*
G02*
X169020000Y-58852500I0J-147500D01*
G01*
X169020000Y-59147500D01*
G75*
G02*
X168872500Y-59295000I-147500J0D01*
G01*
G37*
%TD*%
%TO.C,R10*%
G36*
G01*
X154527500Y-83635000D02*
X154872500Y-83635000D01*
G75*
G02*
X155020000Y-83782500I0J-147500D01*
G01*
X155020000Y-84077500D01*
G75*
G02*
X154872500Y-84225000I-147500J0D01*
G01*
X154527500Y-84225000D01*
G75*
G02*
X154380000Y-84077500I0J147500D01*
G01*
X154380000Y-83782500D01*
G75*
G02*
X154527500Y-83635000I147500J0D01*
G01*
G37*
G36*
G01*
X154527500Y-84605000D02*
X154872500Y-84605000D01*
G75*
G02*
X155020000Y-84752500I0J-147500D01*
G01*
X155020000Y-85047500D01*
G75*
G02*
X154872500Y-85195000I-147500J0D01*
G01*
X154527500Y-85195000D01*
G75*
G02*
X154380000Y-85047500I0J147500D01*
G01*
X154380000Y-84752500D01*
G75*
G02*
X154527500Y-84605000I147500J0D01*
G01*
G37*
%TD*%
%TO.C,R10*%
G36*
G01*
X127027500Y-83635000D02*
X127372500Y-83635000D01*
G75*
G02*
X127520000Y-83782500I0J-147500D01*
G01*
X127520000Y-84077500D01*
G75*
G02*
X127372500Y-84225000I-147500J0D01*
G01*
X127027500Y-84225000D01*
G75*
G02*
X126880000Y-84077500I0J147500D01*
G01*
X126880000Y-83782500D01*
G75*
G02*
X127027500Y-83635000I147500J0D01*
G01*
G37*
G36*
G01*
X127027500Y-84605000D02*
X127372500Y-84605000D01*
G75*
G02*
X127520000Y-84752500I0J-147500D01*
G01*
X127520000Y-85047500D01*
G75*
G02*
X127372500Y-85195000I-147500J0D01*
G01*
X127027500Y-85195000D01*
G75*
G02*
X126880000Y-85047500I0J147500D01*
G01*
X126880000Y-84752500D01*
G75*
G02*
X127027500Y-84605000I147500J0D01*
G01*
G37*
%TD*%
%TO.C,R10*%
G36*
G01*
X154527500Y-68135000D02*
X154872500Y-68135000D01*
G75*
G02*
X155020000Y-68282500I0J-147500D01*
G01*
X155020000Y-68577500D01*
G75*
G02*
X154872500Y-68725000I-147500J0D01*
G01*
X154527500Y-68725000D01*
G75*
G02*
X154380000Y-68577500I0J147500D01*
G01*
X154380000Y-68282500D01*
G75*
G02*
X154527500Y-68135000I147500J0D01*
G01*
G37*
G36*
G01*
X154527500Y-69105000D02*
X154872500Y-69105000D01*
G75*
G02*
X155020000Y-69252500I0J-147500D01*
G01*
X155020000Y-69547500D01*
G75*
G02*
X154872500Y-69695000I-147500J0D01*
G01*
X154527500Y-69695000D01*
G75*
G02*
X154380000Y-69547500I0J147500D01*
G01*
X154380000Y-69252500D01*
G75*
G02*
X154527500Y-69105000I147500J0D01*
G01*
G37*
%TD*%
%TO.C,R10*%
G36*
G01*
X127027500Y-68135000D02*
X127372500Y-68135000D01*
G75*
G02*
X127520000Y-68282500I0J-147500D01*
G01*
X127520000Y-68577500D01*
G75*
G02*
X127372500Y-68725000I-147500J0D01*
G01*
X127027500Y-68725000D01*
G75*
G02*
X126880000Y-68577500I0J147500D01*
G01*
X126880000Y-68282500D01*
G75*
G02*
X127027500Y-68135000I147500J0D01*
G01*
G37*
G36*
G01*
X127027500Y-69105000D02*
X127372500Y-69105000D01*
G75*
G02*
X127520000Y-69252500I0J-147500D01*
G01*
X127520000Y-69547500D01*
G75*
G02*
X127372500Y-69695000I-147500J0D01*
G01*
X127027500Y-69695000D01*
G75*
G02*
X126880000Y-69547500I0J147500D01*
G01*
X126880000Y-69252500D01*
G75*
G02*
X127027500Y-69105000I147500J0D01*
G01*
G37*
%TD*%
%TO.C,R10*%
G36*
G01*
X154527500Y-52635000D02*
X154872500Y-52635000D01*
G75*
G02*
X155020000Y-52782500I0J-147500D01*
G01*
X155020000Y-53077500D01*
G75*
G02*
X154872500Y-53225000I-147500J0D01*
G01*
X154527500Y-53225000D01*
G75*
G02*
X154380000Y-53077500I0J147500D01*
G01*
X154380000Y-52782500D01*
G75*
G02*
X154527500Y-52635000I147500J0D01*
G01*
G37*
G36*
G01*
X154527500Y-53605000D02*
X154872500Y-53605000D01*
G75*
G02*
X155020000Y-53752500I0J-147500D01*
G01*
X155020000Y-54047500D01*
G75*
G02*
X154872500Y-54195000I-147500J0D01*
G01*
X154527500Y-54195000D01*
G75*
G02*
X154380000Y-54047500I0J147500D01*
G01*
X154380000Y-53752500D01*
G75*
G02*
X154527500Y-53605000I147500J0D01*
G01*
G37*
%TD*%
%TO.C,R1*%
G36*
G01*
X157227485Y-90016466D02*
X156983534Y-89772514D01*
G75*
G02*
X156983534Y-89563918I104298J104298D01*
G01*
X157192130Y-89355322D01*
G75*
G02*
X157400726Y-89355322I104298J-104298D01*
G01*
X157644678Y-89599274D01*
G75*
G02*
X157644678Y-89807870I-104298J-104298D01*
G01*
X157436082Y-90016466D01*
G75*
G02*
X157227486Y-90016466I-104298J104298D01*
G01*
G37*
G36*
G01*
X157913379Y-89330572D02*
X157669428Y-89086620D01*
G75*
G02*
X157669428Y-88878024I104298J104298D01*
G01*
X157878024Y-88669428D01*
G75*
G02*
X158086620Y-88669428I104298J-104298D01*
G01*
X158330572Y-88913380D01*
G75*
G02*
X158330572Y-89121976I-104298J-104298D01*
G01*
X158121976Y-89330572D01*
G75*
G02*
X157913380Y-89330572I-104298J104298D01*
G01*
G37*
%TD*%
%TO.C,R1*%
G36*
G01*
X129727485Y-90016466D02*
X129483534Y-89772514D01*
G75*
G02*
X129483534Y-89563918I104298J104298D01*
G01*
X129692130Y-89355322D01*
G75*
G02*
X129900726Y-89355322I104298J-104298D01*
G01*
X130144678Y-89599274D01*
G75*
G02*
X130144678Y-89807870I-104298J-104298D01*
G01*
X129936082Y-90016466D01*
G75*
G02*
X129727486Y-90016466I-104298J104298D01*
G01*
G37*
G36*
G01*
X130413379Y-89330572D02*
X130169428Y-89086620D01*
G75*
G02*
X130169428Y-88878024I104298J104298D01*
G01*
X130378024Y-88669428D01*
G75*
G02*
X130586620Y-88669428I104298J-104298D01*
G01*
X130830572Y-88913380D01*
G75*
G02*
X130830572Y-89121976I-104298J-104298D01*
G01*
X130621976Y-89330572D01*
G75*
G02*
X130413380Y-89330572I-104298J104298D01*
G01*
G37*
%TD*%
%TO.C,R1*%
G36*
G01*
X157227485Y-74516466D02*
X156983534Y-74272514D01*
G75*
G02*
X156983534Y-74063918I104298J104298D01*
G01*
X157192130Y-73855322D01*
G75*
G02*
X157400726Y-73855322I104298J-104298D01*
G01*
X157644678Y-74099274D01*
G75*
G02*
X157644678Y-74307870I-104298J-104298D01*
G01*
X157436082Y-74516466D01*
G75*
G02*
X157227486Y-74516466I-104298J104298D01*
G01*
G37*
G36*
G01*
X157913379Y-73830572D02*
X157669428Y-73586620D01*
G75*
G02*
X157669428Y-73378024I104298J104298D01*
G01*
X157878024Y-73169428D01*
G75*
G02*
X158086620Y-73169428I104298J-104298D01*
G01*
X158330572Y-73413380D01*
G75*
G02*
X158330572Y-73621976I-104298J-104298D01*
G01*
X158121976Y-73830572D01*
G75*
G02*
X157913380Y-73830572I-104298J104298D01*
G01*
G37*
%TD*%
%TO.C,R1*%
G36*
G01*
X129727485Y-74516466D02*
X129483534Y-74272514D01*
G75*
G02*
X129483534Y-74063918I104298J104298D01*
G01*
X129692130Y-73855322D01*
G75*
G02*
X129900726Y-73855322I104298J-104298D01*
G01*
X130144678Y-74099274D01*
G75*
G02*
X130144678Y-74307870I-104298J-104298D01*
G01*
X129936082Y-74516466D01*
G75*
G02*
X129727486Y-74516466I-104298J104298D01*
G01*
G37*
G36*
G01*
X130413379Y-73830572D02*
X130169428Y-73586620D01*
G75*
G02*
X130169428Y-73378024I104298J104298D01*
G01*
X130378024Y-73169428D01*
G75*
G02*
X130586620Y-73169428I104298J-104298D01*
G01*
X130830572Y-73413380D01*
G75*
G02*
X130830572Y-73621976I-104298J-104298D01*
G01*
X130621976Y-73830572D01*
G75*
G02*
X130413380Y-73830572I-104298J104298D01*
G01*
G37*
%TD*%
%TO.C,R1*%
G36*
G01*
X157227485Y-59016466D02*
X156983534Y-58772514D01*
G75*
G02*
X156983534Y-58563918I104298J104298D01*
G01*
X157192130Y-58355322D01*
G75*
G02*
X157400726Y-58355322I104298J-104298D01*
G01*
X157644678Y-58599274D01*
G75*
G02*
X157644678Y-58807870I-104298J-104298D01*
G01*
X157436082Y-59016466D01*
G75*
G02*
X157227486Y-59016466I-104298J104298D01*
G01*
G37*
G36*
G01*
X157913379Y-58330572D02*
X157669428Y-58086620D01*
G75*
G02*
X157669428Y-57878024I104298J104298D01*
G01*
X157878024Y-57669428D01*
G75*
G02*
X158086620Y-57669428I104298J-104298D01*
G01*
X158330572Y-57913380D01*
G75*
G02*
X158330572Y-58121976I-104298J-104298D01*
G01*
X158121976Y-58330572D01*
G75*
G02*
X157913380Y-58330572I-104298J104298D01*
G01*
G37*
%TD*%
%TO.C,R7*%
G36*
G01*
X168972500Y-81665000D02*
X168627500Y-81665000D01*
G75*
G02*
X168480000Y-81517500I0J147500D01*
G01*
X168480000Y-81222500D01*
G75*
G02*
X168627500Y-81075000I147500J0D01*
G01*
X168972500Y-81075000D01*
G75*
G02*
X169120000Y-81222500I0J-147500D01*
G01*
X169120000Y-81517500D01*
G75*
G02*
X168972500Y-81665000I-147500J0D01*
G01*
G37*
G36*
G01*
X168972500Y-80695000D02*
X168627500Y-80695000D01*
G75*
G02*
X168480000Y-80547500I0J147500D01*
G01*
X168480000Y-80252500D01*
G75*
G02*
X168627500Y-80105000I147500J0D01*
G01*
X168972500Y-80105000D01*
G75*
G02*
X169120000Y-80252500I0J-147500D01*
G01*
X169120000Y-80547500D01*
G75*
G02*
X168972500Y-80695000I-147500J0D01*
G01*
G37*
%TD*%
%TO.C,R7*%
G36*
G01*
X141472500Y-81665000D02*
X141127500Y-81665000D01*
G75*
G02*
X140980000Y-81517500I0J147500D01*
G01*
X140980000Y-81222500D01*
G75*
G02*
X141127500Y-81075000I147500J0D01*
G01*
X141472500Y-81075000D01*
G75*
G02*
X141620000Y-81222500I0J-147500D01*
G01*
X141620000Y-81517500D01*
G75*
G02*
X141472500Y-81665000I-147500J0D01*
G01*
G37*
G36*
G01*
X141472500Y-80695000D02*
X141127500Y-80695000D01*
G75*
G02*
X140980000Y-80547500I0J147500D01*
G01*
X140980000Y-80252500D01*
G75*
G02*
X141127500Y-80105000I147500J0D01*
G01*
X141472500Y-80105000D01*
G75*
G02*
X141620000Y-80252500I0J-147500D01*
G01*
X141620000Y-80547500D01*
G75*
G02*
X141472500Y-80695000I-147500J0D01*
G01*
G37*
%TD*%
%TO.C,R7*%
G36*
G01*
X168972500Y-66165000D02*
X168627500Y-66165000D01*
G75*
G02*
X168480000Y-66017500I0J147500D01*
G01*
X168480000Y-65722500D01*
G75*
G02*
X168627500Y-65575000I147500J0D01*
G01*
X168972500Y-65575000D01*
G75*
G02*
X169120000Y-65722500I0J-147500D01*
G01*
X169120000Y-66017500D01*
G75*
G02*
X168972500Y-66165000I-147500J0D01*
G01*
G37*
G36*
G01*
X168972500Y-65195000D02*
X168627500Y-65195000D01*
G75*
G02*
X168480000Y-65047500I0J147500D01*
G01*
X168480000Y-64752500D01*
G75*
G02*
X168627500Y-64605000I147500J0D01*
G01*
X168972500Y-64605000D01*
G75*
G02*
X169120000Y-64752500I0J-147500D01*
G01*
X169120000Y-65047500D01*
G75*
G02*
X168972500Y-65195000I-147500J0D01*
G01*
G37*
%TD*%
%TO.C,R7*%
G36*
G01*
X141472500Y-66165000D02*
X141127500Y-66165000D01*
G75*
G02*
X140980000Y-66017500I0J147500D01*
G01*
X140980000Y-65722500D01*
G75*
G02*
X141127500Y-65575000I147500J0D01*
G01*
X141472500Y-65575000D01*
G75*
G02*
X141620000Y-65722500I0J-147500D01*
G01*
X141620000Y-66017500D01*
G75*
G02*
X141472500Y-66165000I-147500J0D01*
G01*
G37*
G36*
G01*
X141472500Y-65195000D02*
X141127500Y-65195000D01*
G75*
G02*
X140980000Y-65047500I0J147500D01*
G01*
X140980000Y-64752500D01*
G75*
G02*
X141127500Y-64605000I147500J0D01*
G01*
X141472500Y-64605000D01*
G75*
G02*
X141620000Y-64752500I0J-147500D01*
G01*
X141620000Y-65047500D01*
G75*
G02*
X141472500Y-65195000I-147500J0D01*
G01*
G37*
%TD*%
%TO.C,R7*%
G36*
G01*
X168972500Y-50665000D02*
X168627500Y-50665000D01*
G75*
G02*
X168480000Y-50517500I0J147500D01*
G01*
X168480000Y-50222500D01*
G75*
G02*
X168627500Y-50075000I147500J0D01*
G01*
X168972500Y-50075000D01*
G75*
G02*
X169120000Y-50222500I0J-147500D01*
G01*
X169120000Y-50517500D01*
G75*
G02*
X168972500Y-50665000I-147500J0D01*
G01*
G37*
G36*
G01*
X168972500Y-49695000D02*
X168627500Y-49695000D01*
G75*
G02*
X168480000Y-49547500I0J147500D01*
G01*
X168480000Y-49252500D01*
G75*
G02*
X168627500Y-49105000I147500J0D01*
G01*
X168972500Y-49105000D01*
G75*
G02*
X169120000Y-49252500I0J-147500D01*
G01*
X169120000Y-49547500D01*
G75*
G02*
X168972500Y-49695000I-147500J0D01*
G01*
G37*
%TD*%
%TO.C,R11*%
G36*
G01*
X155527500Y-83635000D02*
X155872500Y-83635000D01*
G75*
G02*
X156020000Y-83782500I0J-147500D01*
G01*
X156020000Y-84077500D01*
G75*
G02*
X155872500Y-84225000I-147500J0D01*
G01*
X155527500Y-84225000D01*
G75*
G02*
X155380000Y-84077500I0J147500D01*
G01*
X155380000Y-83782500D01*
G75*
G02*
X155527500Y-83635000I147500J0D01*
G01*
G37*
G36*
G01*
X155527500Y-84605000D02*
X155872500Y-84605000D01*
G75*
G02*
X156020000Y-84752500I0J-147500D01*
G01*
X156020000Y-85047500D01*
G75*
G02*
X155872500Y-85195000I-147500J0D01*
G01*
X155527500Y-85195000D01*
G75*
G02*
X155380000Y-85047500I0J147500D01*
G01*
X155380000Y-84752500D01*
G75*
G02*
X155527500Y-84605000I147500J0D01*
G01*
G37*
%TD*%
%TO.C,R11*%
G36*
G01*
X128027500Y-83635000D02*
X128372500Y-83635000D01*
G75*
G02*
X128520000Y-83782500I0J-147500D01*
G01*
X128520000Y-84077500D01*
G75*
G02*
X128372500Y-84225000I-147500J0D01*
G01*
X128027500Y-84225000D01*
G75*
G02*
X127880000Y-84077500I0J147500D01*
G01*
X127880000Y-83782500D01*
G75*
G02*
X128027500Y-83635000I147500J0D01*
G01*
G37*
G36*
G01*
X128027500Y-84605000D02*
X128372500Y-84605000D01*
G75*
G02*
X128520000Y-84752500I0J-147500D01*
G01*
X128520000Y-85047500D01*
G75*
G02*
X128372500Y-85195000I-147500J0D01*
G01*
X128027500Y-85195000D01*
G75*
G02*
X127880000Y-85047500I0J147500D01*
G01*
X127880000Y-84752500D01*
G75*
G02*
X128027500Y-84605000I147500J0D01*
G01*
G37*
%TD*%
%TO.C,R11*%
G36*
G01*
X155527500Y-68135000D02*
X155872500Y-68135000D01*
G75*
G02*
X156020000Y-68282500I0J-147500D01*
G01*
X156020000Y-68577500D01*
G75*
G02*
X155872500Y-68725000I-147500J0D01*
G01*
X155527500Y-68725000D01*
G75*
G02*
X155380000Y-68577500I0J147500D01*
G01*
X155380000Y-68282500D01*
G75*
G02*
X155527500Y-68135000I147500J0D01*
G01*
G37*
G36*
G01*
X155527500Y-69105000D02*
X155872500Y-69105000D01*
G75*
G02*
X156020000Y-69252500I0J-147500D01*
G01*
X156020000Y-69547500D01*
G75*
G02*
X155872500Y-69695000I-147500J0D01*
G01*
X155527500Y-69695000D01*
G75*
G02*
X155380000Y-69547500I0J147500D01*
G01*
X155380000Y-69252500D01*
G75*
G02*
X155527500Y-69105000I147500J0D01*
G01*
G37*
%TD*%
%TO.C,R11*%
G36*
G01*
X128027500Y-68135000D02*
X128372500Y-68135000D01*
G75*
G02*
X128520000Y-68282500I0J-147500D01*
G01*
X128520000Y-68577500D01*
G75*
G02*
X128372500Y-68725000I-147500J0D01*
G01*
X128027500Y-68725000D01*
G75*
G02*
X127880000Y-68577500I0J147500D01*
G01*
X127880000Y-68282500D01*
G75*
G02*
X128027500Y-68135000I147500J0D01*
G01*
G37*
G36*
G01*
X128027500Y-69105000D02*
X128372500Y-69105000D01*
G75*
G02*
X128520000Y-69252500I0J-147500D01*
G01*
X128520000Y-69547500D01*
G75*
G02*
X128372500Y-69695000I-147500J0D01*
G01*
X128027500Y-69695000D01*
G75*
G02*
X127880000Y-69547500I0J147500D01*
G01*
X127880000Y-69252500D01*
G75*
G02*
X128027500Y-69105000I147500J0D01*
G01*
G37*
%TD*%
%TO.C,R11*%
G36*
G01*
X155527500Y-52635000D02*
X155872500Y-52635000D01*
G75*
G02*
X156020000Y-52782500I0J-147500D01*
G01*
X156020000Y-53077500D01*
G75*
G02*
X155872500Y-53225000I-147500J0D01*
G01*
X155527500Y-53225000D01*
G75*
G02*
X155380000Y-53077500I0J147500D01*
G01*
X155380000Y-52782500D01*
G75*
G02*
X155527500Y-52635000I147500J0D01*
G01*
G37*
G36*
G01*
X155527500Y-53605000D02*
X155872500Y-53605000D01*
G75*
G02*
X156020000Y-53752500I0J-147500D01*
G01*
X156020000Y-54047500D01*
G75*
G02*
X155872500Y-54195000I-147500J0D01*
G01*
X155527500Y-54195000D01*
G75*
G02*
X155380000Y-54047500I0J147500D01*
G01*
X155380000Y-53752500D01*
G75*
G02*
X155527500Y-53605000I147500J0D01*
G01*
G37*
%TD*%
%TO.C,R2*%
G36*
G01*
X167572500Y-86965000D02*
X167227500Y-86965000D01*
G75*
G02*
X167080000Y-86817500I0J147500D01*
G01*
X167080000Y-86522500D01*
G75*
G02*
X167227500Y-86375000I147500J0D01*
G01*
X167572500Y-86375000D01*
G75*
G02*
X167720000Y-86522500I0J-147500D01*
G01*
X167720000Y-86817500D01*
G75*
G02*
X167572500Y-86965000I-147500J0D01*
G01*
G37*
G36*
G01*
X167572500Y-85995000D02*
X167227500Y-85995000D01*
G75*
G02*
X167080000Y-85847500I0J147500D01*
G01*
X167080000Y-85552500D01*
G75*
G02*
X167227500Y-85405000I147500J0D01*
G01*
X167572500Y-85405000D01*
G75*
G02*
X167720000Y-85552500I0J-147500D01*
G01*
X167720000Y-85847500D01*
G75*
G02*
X167572500Y-85995000I-147500J0D01*
G01*
G37*
%TD*%
%TO.C,R2*%
G36*
G01*
X140072500Y-86965000D02*
X139727500Y-86965000D01*
G75*
G02*
X139580000Y-86817500I0J147500D01*
G01*
X139580000Y-86522500D01*
G75*
G02*
X139727500Y-86375000I147500J0D01*
G01*
X140072500Y-86375000D01*
G75*
G02*
X140220000Y-86522500I0J-147500D01*
G01*
X140220000Y-86817500D01*
G75*
G02*
X140072500Y-86965000I-147500J0D01*
G01*
G37*
G36*
G01*
X140072500Y-85995000D02*
X139727500Y-85995000D01*
G75*
G02*
X139580000Y-85847500I0J147500D01*
G01*
X139580000Y-85552500D01*
G75*
G02*
X139727500Y-85405000I147500J0D01*
G01*
X140072500Y-85405000D01*
G75*
G02*
X140220000Y-85552500I0J-147500D01*
G01*
X140220000Y-85847500D01*
G75*
G02*
X140072500Y-85995000I-147500J0D01*
G01*
G37*
%TD*%
%TO.C,R2*%
G36*
G01*
X167572500Y-71465000D02*
X167227500Y-71465000D01*
G75*
G02*
X167080000Y-71317500I0J147500D01*
G01*
X167080000Y-71022500D01*
G75*
G02*
X167227500Y-70875000I147500J0D01*
G01*
X167572500Y-70875000D01*
G75*
G02*
X167720000Y-71022500I0J-147500D01*
G01*
X167720000Y-71317500D01*
G75*
G02*
X167572500Y-71465000I-147500J0D01*
G01*
G37*
G36*
G01*
X167572500Y-70495000D02*
X167227500Y-70495000D01*
G75*
G02*
X167080000Y-70347500I0J147500D01*
G01*
X167080000Y-70052500D01*
G75*
G02*
X167227500Y-69905000I147500J0D01*
G01*
X167572500Y-69905000D01*
G75*
G02*
X167720000Y-70052500I0J-147500D01*
G01*
X167720000Y-70347500D01*
G75*
G02*
X167572500Y-70495000I-147500J0D01*
G01*
G37*
%TD*%
%TO.C,R2*%
G36*
G01*
X140072500Y-71465000D02*
X139727500Y-71465000D01*
G75*
G02*
X139580000Y-71317500I0J147500D01*
G01*
X139580000Y-71022500D01*
G75*
G02*
X139727500Y-70875000I147500J0D01*
G01*
X140072500Y-70875000D01*
G75*
G02*
X140220000Y-71022500I0J-147500D01*
G01*
X140220000Y-71317500D01*
G75*
G02*
X140072500Y-71465000I-147500J0D01*
G01*
G37*
G36*
G01*
X140072500Y-70495000D02*
X139727500Y-70495000D01*
G75*
G02*
X139580000Y-70347500I0J147500D01*
G01*
X139580000Y-70052500D01*
G75*
G02*
X139727500Y-69905000I147500J0D01*
G01*
X140072500Y-69905000D01*
G75*
G02*
X140220000Y-70052500I0J-147500D01*
G01*
X140220000Y-70347500D01*
G75*
G02*
X140072500Y-70495000I-147500J0D01*
G01*
G37*
%TD*%
%TO.C,R2*%
G36*
G01*
X167572500Y-55965000D02*
X167227500Y-55965000D01*
G75*
G02*
X167080000Y-55817500I0J147500D01*
G01*
X167080000Y-55522500D01*
G75*
G02*
X167227500Y-55375000I147500J0D01*
G01*
X167572500Y-55375000D01*
G75*
G02*
X167720000Y-55522500I0J-147500D01*
G01*
X167720000Y-55817500D01*
G75*
G02*
X167572500Y-55965000I-147500J0D01*
G01*
G37*
G36*
G01*
X167572500Y-54995000D02*
X167227500Y-54995000D01*
G75*
G02*
X167080000Y-54847500I0J147500D01*
G01*
X167080000Y-54552500D01*
G75*
G02*
X167227500Y-54405000I147500J0D01*
G01*
X167572500Y-54405000D01*
G75*
G02*
X167720000Y-54552500I0J-147500D01*
G01*
X167720000Y-54847500D01*
G75*
G02*
X167572500Y-54995000I-147500J0D01*
G01*
G37*
%TD*%
%TO.C,C8*%
G36*
G01*
X163006250Y-81437500D02*
X162493750Y-81437500D01*
G75*
G02*
X162275000Y-81218750I0J218750D01*
G01*
X162275000Y-80781250D01*
G75*
G02*
X162493750Y-80562500I218750J0D01*
G01*
X163006250Y-80562500D01*
G75*
G02*
X163225000Y-80781250I0J-218750D01*
G01*
X163225000Y-81218750D01*
G75*
G02*
X163006250Y-81437500I-218750J0D01*
G01*
G37*
G36*
G01*
X163006250Y-79862500D02*
X162493750Y-79862500D01*
G75*
G02*
X162275000Y-79643750I0J218750D01*
G01*
X162275000Y-79206250D01*
G75*
G02*
X162493750Y-78987500I218750J0D01*
G01*
X163006250Y-78987500D01*
G75*
G02*
X163225000Y-79206250I0J-218750D01*
G01*
X163225000Y-79643750D01*
G75*
G02*
X163006250Y-79862500I-218750J0D01*
G01*
G37*
%TD*%
%TO.C,C8*%
G36*
G01*
X135506250Y-81437500D02*
X134993750Y-81437500D01*
G75*
G02*
X134775000Y-81218750I0J218750D01*
G01*
X134775000Y-80781250D01*
G75*
G02*
X134993750Y-80562500I218750J0D01*
G01*
X135506250Y-80562500D01*
G75*
G02*
X135725000Y-80781250I0J-218750D01*
G01*
X135725000Y-81218750D01*
G75*
G02*
X135506250Y-81437500I-218750J0D01*
G01*
G37*
G36*
G01*
X135506250Y-79862500D02*
X134993750Y-79862500D01*
G75*
G02*
X134775000Y-79643750I0J218750D01*
G01*
X134775000Y-79206250D01*
G75*
G02*
X134993750Y-78987500I218750J0D01*
G01*
X135506250Y-78987500D01*
G75*
G02*
X135725000Y-79206250I0J-218750D01*
G01*
X135725000Y-79643750D01*
G75*
G02*
X135506250Y-79862500I-218750J0D01*
G01*
G37*
%TD*%
%TO.C,C8*%
G36*
G01*
X163006250Y-65937500D02*
X162493750Y-65937500D01*
G75*
G02*
X162275000Y-65718750I0J218750D01*
G01*
X162275000Y-65281250D01*
G75*
G02*
X162493750Y-65062500I218750J0D01*
G01*
X163006250Y-65062500D01*
G75*
G02*
X163225000Y-65281250I0J-218750D01*
G01*
X163225000Y-65718750D01*
G75*
G02*
X163006250Y-65937500I-218750J0D01*
G01*
G37*
G36*
G01*
X163006250Y-64362500D02*
X162493750Y-64362500D01*
G75*
G02*
X162275000Y-64143750I0J218750D01*
G01*
X162275000Y-63706250D01*
G75*
G02*
X162493750Y-63487500I218750J0D01*
G01*
X163006250Y-63487500D01*
G75*
G02*
X163225000Y-63706250I0J-218750D01*
G01*
X163225000Y-64143750D01*
G75*
G02*
X163006250Y-64362500I-218750J0D01*
G01*
G37*
%TD*%
%TO.C,C8*%
G36*
G01*
X135506250Y-65937500D02*
X134993750Y-65937500D01*
G75*
G02*
X134775000Y-65718750I0J218750D01*
G01*
X134775000Y-65281250D01*
G75*
G02*
X134993750Y-65062500I218750J0D01*
G01*
X135506250Y-65062500D01*
G75*
G02*
X135725000Y-65281250I0J-218750D01*
G01*
X135725000Y-65718750D01*
G75*
G02*
X135506250Y-65937500I-218750J0D01*
G01*
G37*
G36*
G01*
X135506250Y-64362500D02*
X134993750Y-64362500D01*
G75*
G02*
X134775000Y-64143750I0J218750D01*
G01*
X134775000Y-63706250D01*
G75*
G02*
X134993750Y-63487500I218750J0D01*
G01*
X135506250Y-63487500D01*
G75*
G02*
X135725000Y-63706250I0J-218750D01*
G01*
X135725000Y-64143750D01*
G75*
G02*
X135506250Y-64362500I-218750J0D01*
G01*
G37*
%TD*%
%TO.C,C8*%
G36*
G01*
X163006250Y-50437500D02*
X162493750Y-50437500D01*
G75*
G02*
X162275000Y-50218750I0J218750D01*
G01*
X162275000Y-49781250D01*
G75*
G02*
X162493750Y-49562500I218750J0D01*
G01*
X163006250Y-49562500D01*
G75*
G02*
X163225000Y-49781250I0J-218750D01*
G01*
X163225000Y-50218750D01*
G75*
G02*
X163006250Y-50437500I-218750J0D01*
G01*
G37*
G36*
G01*
X163006250Y-48862500D02*
X162493750Y-48862500D01*
G75*
G02*
X162275000Y-48643750I0J218750D01*
G01*
X162275000Y-48206250D01*
G75*
G02*
X162493750Y-47987500I218750J0D01*
G01*
X163006250Y-47987500D01*
G75*
G02*
X163225000Y-48206250I0J-218750D01*
G01*
X163225000Y-48643750D01*
G75*
G02*
X163006250Y-48862500I-218750J0D01*
G01*
G37*
%TD*%
%TO.C,C3*%
G36*
G01*
X153972500Y-80145000D02*
X153627500Y-80145000D01*
G75*
G02*
X153480000Y-79997500I0J147500D01*
G01*
X153480000Y-79702500D01*
G75*
G02*
X153627500Y-79555000I147500J0D01*
G01*
X153972500Y-79555000D01*
G75*
G02*
X154120000Y-79702500I0J-147500D01*
G01*
X154120000Y-79997500D01*
G75*
G02*
X153972500Y-80145000I-147500J0D01*
G01*
G37*
G36*
G01*
X153972500Y-79175000D02*
X153627500Y-79175000D01*
G75*
G02*
X153480000Y-79027500I0J147500D01*
G01*
X153480000Y-78732500D01*
G75*
G02*
X153627500Y-78585000I147500J0D01*
G01*
X153972500Y-78585000D01*
G75*
G02*
X154120000Y-78732500I0J-147500D01*
G01*
X154120000Y-79027500D01*
G75*
G02*
X153972500Y-79175000I-147500J0D01*
G01*
G37*
%TD*%
%TO.C,C3*%
G36*
G01*
X126472500Y-80145000D02*
X126127500Y-80145000D01*
G75*
G02*
X125980000Y-79997500I0J147500D01*
G01*
X125980000Y-79702500D01*
G75*
G02*
X126127500Y-79555000I147500J0D01*
G01*
X126472500Y-79555000D01*
G75*
G02*
X126620000Y-79702500I0J-147500D01*
G01*
X126620000Y-79997500D01*
G75*
G02*
X126472500Y-80145000I-147500J0D01*
G01*
G37*
G36*
G01*
X126472500Y-79175000D02*
X126127500Y-79175000D01*
G75*
G02*
X125980000Y-79027500I0J147500D01*
G01*
X125980000Y-78732500D01*
G75*
G02*
X126127500Y-78585000I147500J0D01*
G01*
X126472500Y-78585000D01*
G75*
G02*
X126620000Y-78732500I0J-147500D01*
G01*
X126620000Y-79027500D01*
G75*
G02*
X126472500Y-79175000I-147500J0D01*
G01*
G37*
%TD*%
%TO.C,C3*%
G36*
G01*
X153972500Y-64645000D02*
X153627500Y-64645000D01*
G75*
G02*
X153480000Y-64497500I0J147500D01*
G01*
X153480000Y-64202500D01*
G75*
G02*
X153627500Y-64055000I147500J0D01*
G01*
X153972500Y-64055000D01*
G75*
G02*
X154120000Y-64202500I0J-147500D01*
G01*
X154120000Y-64497500D01*
G75*
G02*
X153972500Y-64645000I-147500J0D01*
G01*
G37*
G36*
G01*
X153972500Y-63675000D02*
X153627500Y-63675000D01*
G75*
G02*
X153480000Y-63527500I0J147500D01*
G01*
X153480000Y-63232500D01*
G75*
G02*
X153627500Y-63085000I147500J0D01*
G01*
X153972500Y-63085000D01*
G75*
G02*
X154120000Y-63232500I0J-147500D01*
G01*
X154120000Y-63527500D01*
G75*
G02*
X153972500Y-63675000I-147500J0D01*
G01*
G37*
%TD*%
%TO.C,C3*%
G36*
G01*
X126472500Y-64645000D02*
X126127500Y-64645000D01*
G75*
G02*
X125980000Y-64497500I0J147500D01*
G01*
X125980000Y-64202500D01*
G75*
G02*
X126127500Y-64055000I147500J0D01*
G01*
X126472500Y-64055000D01*
G75*
G02*
X126620000Y-64202500I0J-147500D01*
G01*
X126620000Y-64497500D01*
G75*
G02*
X126472500Y-64645000I-147500J0D01*
G01*
G37*
G36*
G01*
X126472500Y-63675000D02*
X126127500Y-63675000D01*
G75*
G02*
X125980000Y-63527500I0J147500D01*
G01*
X125980000Y-63232500D01*
G75*
G02*
X126127500Y-63085000I147500J0D01*
G01*
X126472500Y-63085000D01*
G75*
G02*
X126620000Y-63232500I0J-147500D01*
G01*
X126620000Y-63527500D01*
G75*
G02*
X126472500Y-63675000I-147500J0D01*
G01*
G37*
%TD*%
%TO.C,C3*%
G36*
G01*
X153972500Y-49145000D02*
X153627500Y-49145000D01*
G75*
G02*
X153480000Y-48997500I0J147500D01*
G01*
X153480000Y-48702500D01*
G75*
G02*
X153627500Y-48555000I147500J0D01*
G01*
X153972500Y-48555000D01*
G75*
G02*
X154120000Y-48702500I0J-147500D01*
G01*
X154120000Y-48997500D01*
G75*
G02*
X153972500Y-49145000I-147500J0D01*
G01*
G37*
G36*
G01*
X153972500Y-48175000D02*
X153627500Y-48175000D01*
G75*
G02*
X153480000Y-48027500I0J147500D01*
G01*
X153480000Y-47732500D01*
G75*
G02*
X153627500Y-47585000I147500J0D01*
G01*
X153972500Y-47585000D01*
G75*
G02*
X154120000Y-47732500I0J-147500D01*
G01*
X154120000Y-48027500D01*
G75*
G02*
X153972500Y-48175000I-147500J0D01*
G01*
G37*
%TD*%
%TO.C,C1*%
G36*
G01*
X158672500Y-87265000D02*
X158327500Y-87265000D01*
G75*
G02*
X158180000Y-87117500I0J147500D01*
G01*
X158180000Y-86822500D01*
G75*
G02*
X158327500Y-86675000I147500J0D01*
G01*
X158672500Y-86675000D01*
G75*
G02*
X158820000Y-86822500I0J-147500D01*
G01*
X158820000Y-87117500D01*
G75*
G02*
X158672500Y-87265000I-147500J0D01*
G01*
G37*
G36*
G01*
X158672500Y-86295000D02*
X158327500Y-86295000D01*
G75*
G02*
X158180000Y-86147500I0J147500D01*
G01*
X158180000Y-85852500D01*
G75*
G02*
X158327500Y-85705000I147500J0D01*
G01*
X158672500Y-85705000D01*
G75*
G02*
X158820000Y-85852500I0J-147500D01*
G01*
X158820000Y-86147500D01*
G75*
G02*
X158672500Y-86295000I-147500J0D01*
G01*
G37*
%TD*%
%TO.C,C1*%
G36*
G01*
X131172500Y-87265000D02*
X130827500Y-87265000D01*
G75*
G02*
X130680000Y-87117500I0J147500D01*
G01*
X130680000Y-86822500D01*
G75*
G02*
X130827500Y-86675000I147500J0D01*
G01*
X131172500Y-86675000D01*
G75*
G02*
X131320000Y-86822500I0J-147500D01*
G01*
X131320000Y-87117500D01*
G75*
G02*
X131172500Y-87265000I-147500J0D01*
G01*
G37*
G36*
G01*
X131172500Y-86295000D02*
X130827500Y-86295000D01*
G75*
G02*
X130680000Y-86147500I0J147500D01*
G01*
X130680000Y-85852500D01*
G75*
G02*
X130827500Y-85705000I147500J0D01*
G01*
X131172500Y-85705000D01*
G75*
G02*
X131320000Y-85852500I0J-147500D01*
G01*
X131320000Y-86147500D01*
G75*
G02*
X131172500Y-86295000I-147500J0D01*
G01*
G37*
%TD*%
%TO.C,C1*%
G36*
G01*
X158672500Y-71765000D02*
X158327500Y-71765000D01*
G75*
G02*
X158180000Y-71617500I0J147500D01*
G01*
X158180000Y-71322500D01*
G75*
G02*
X158327500Y-71175000I147500J0D01*
G01*
X158672500Y-71175000D01*
G75*
G02*
X158820000Y-71322500I0J-147500D01*
G01*
X158820000Y-71617500D01*
G75*
G02*
X158672500Y-71765000I-147500J0D01*
G01*
G37*
G36*
G01*
X158672500Y-70795000D02*
X158327500Y-70795000D01*
G75*
G02*
X158180000Y-70647500I0J147500D01*
G01*
X158180000Y-70352500D01*
G75*
G02*
X158327500Y-70205000I147500J0D01*
G01*
X158672500Y-70205000D01*
G75*
G02*
X158820000Y-70352500I0J-147500D01*
G01*
X158820000Y-70647500D01*
G75*
G02*
X158672500Y-70795000I-147500J0D01*
G01*
G37*
%TD*%
%TO.C,C1*%
G36*
G01*
X131172500Y-71765000D02*
X130827500Y-71765000D01*
G75*
G02*
X130680000Y-71617500I0J147500D01*
G01*
X130680000Y-71322500D01*
G75*
G02*
X130827500Y-71175000I147500J0D01*
G01*
X131172500Y-71175000D01*
G75*
G02*
X131320000Y-71322500I0J-147500D01*
G01*
X131320000Y-71617500D01*
G75*
G02*
X131172500Y-71765000I-147500J0D01*
G01*
G37*
G36*
G01*
X131172500Y-70795000D02*
X130827500Y-70795000D01*
G75*
G02*
X130680000Y-70647500I0J147500D01*
G01*
X130680000Y-70352500D01*
G75*
G02*
X130827500Y-70205000I147500J0D01*
G01*
X131172500Y-70205000D01*
G75*
G02*
X131320000Y-70352500I0J-147500D01*
G01*
X131320000Y-70647500D01*
G75*
G02*
X131172500Y-70795000I-147500J0D01*
G01*
G37*
%TD*%
%TO.C,C1*%
G36*
G01*
X158672500Y-56265000D02*
X158327500Y-56265000D01*
G75*
G02*
X158180000Y-56117500I0J147500D01*
G01*
X158180000Y-55822500D01*
G75*
G02*
X158327500Y-55675000I147500J0D01*
G01*
X158672500Y-55675000D01*
G75*
G02*
X158820000Y-55822500I0J-147500D01*
G01*
X158820000Y-56117500D01*
G75*
G02*
X158672500Y-56265000I-147500J0D01*
G01*
G37*
G36*
G01*
X158672500Y-55295000D02*
X158327500Y-55295000D01*
G75*
G02*
X158180000Y-55147500I0J147500D01*
G01*
X158180000Y-54852500D01*
G75*
G02*
X158327500Y-54705000I147500J0D01*
G01*
X158672500Y-54705000D01*
G75*
G02*
X158820000Y-54852500I0J-147500D01*
G01*
X158820000Y-55147500D01*
G75*
G02*
X158672500Y-55295000I-147500J0D01*
G01*
G37*
%TD*%
%TO.C,R4*%
G36*
G01*
X168205000Y-86872500D02*
X168205000Y-86527500D01*
G75*
G02*
X168352500Y-86380000I147500J0D01*
G01*
X168647500Y-86380000D01*
G75*
G02*
X168795000Y-86527500I0J-147500D01*
G01*
X168795000Y-86872500D01*
G75*
G02*
X168647500Y-87020000I-147500J0D01*
G01*
X168352500Y-87020000D01*
G75*
G02*
X168205000Y-86872500I0J147500D01*
G01*
G37*
G36*
G01*
X169175000Y-86872500D02*
X169175000Y-86527500D01*
G75*
G02*
X169322500Y-86380000I147500J0D01*
G01*
X169617500Y-86380000D01*
G75*
G02*
X169765000Y-86527500I0J-147500D01*
G01*
X169765000Y-86872500D01*
G75*
G02*
X169617500Y-87020000I-147500J0D01*
G01*
X169322500Y-87020000D01*
G75*
G02*
X169175000Y-86872500I0J147500D01*
G01*
G37*
%TD*%
%TO.C,R4*%
G36*
G01*
X140705000Y-86872500D02*
X140705000Y-86527500D01*
G75*
G02*
X140852500Y-86380000I147500J0D01*
G01*
X141147500Y-86380000D01*
G75*
G02*
X141295000Y-86527500I0J-147500D01*
G01*
X141295000Y-86872500D01*
G75*
G02*
X141147500Y-87020000I-147500J0D01*
G01*
X140852500Y-87020000D01*
G75*
G02*
X140705000Y-86872500I0J147500D01*
G01*
G37*
G36*
G01*
X141675000Y-86872500D02*
X141675000Y-86527500D01*
G75*
G02*
X141822500Y-86380000I147500J0D01*
G01*
X142117500Y-86380000D01*
G75*
G02*
X142265000Y-86527500I0J-147500D01*
G01*
X142265000Y-86872500D01*
G75*
G02*
X142117500Y-87020000I-147500J0D01*
G01*
X141822500Y-87020000D01*
G75*
G02*
X141675000Y-86872500I0J147500D01*
G01*
G37*
%TD*%
%TO.C,R4*%
G36*
G01*
X168205000Y-71372500D02*
X168205000Y-71027500D01*
G75*
G02*
X168352500Y-70880000I147500J0D01*
G01*
X168647500Y-70880000D01*
G75*
G02*
X168795000Y-71027500I0J-147500D01*
G01*
X168795000Y-71372500D01*
G75*
G02*
X168647500Y-71520000I-147500J0D01*
G01*
X168352500Y-71520000D01*
G75*
G02*
X168205000Y-71372500I0J147500D01*
G01*
G37*
G36*
G01*
X169175000Y-71372500D02*
X169175000Y-71027500D01*
G75*
G02*
X169322500Y-70880000I147500J0D01*
G01*
X169617500Y-70880000D01*
G75*
G02*
X169765000Y-71027500I0J-147500D01*
G01*
X169765000Y-71372500D01*
G75*
G02*
X169617500Y-71520000I-147500J0D01*
G01*
X169322500Y-71520000D01*
G75*
G02*
X169175000Y-71372500I0J147500D01*
G01*
G37*
%TD*%
%TO.C,R4*%
G36*
G01*
X140705000Y-71372500D02*
X140705000Y-71027500D01*
G75*
G02*
X140852500Y-70880000I147500J0D01*
G01*
X141147500Y-70880000D01*
G75*
G02*
X141295000Y-71027500I0J-147500D01*
G01*
X141295000Y-71372500D01*
G75*
G02*
X141147500Y-71520000I-147500J0D01*
G01*
X140852500Y-71520000D01*
G75*
G02*
X140705000Y-71372500I0J147500D01*
G01*
G37*
G36*
G01*
X141675000Y-71372500D02*
X141675000Y-71027500D01*
G75*
G02*
X141822500Y-70880000I147500J0D01*
G01*
X142117500Y-70880000D01*
G75*
G02*
X142265000Y-71027500I0J-147500D01*
G01*
X142265000Y-71372500D01*
G75*
G02*
X142117500Y-71520000I-147500J0D01*
G01*
X141822500Y-71520000D01*
G75*
G02*
X141675000Y-71372500I0J147500D01*
G01*
G37*
%TD*%
%TO.C,R4*%
G36*
G01*
X168205000Y-55872500D02*
X168205000Y-55527500D01*
G75*
G02*
X168352500Y-55380000I147500J0D01*
G01*
X168647500Y-55380000D01*
G75*
G02*
X168795000Y-55527500I0J-147500D01*
G01*
X168795000Y-55872500D01*
G75*
G02*
X168647500Y-56020000I-147500J0D01*
G01*
X168352500Y-56020000D01*
G75*
G02*
X168205000Y-55872500I0J147500D01*
G01*
G37*
G36*
G01*
X169175000Y-55872500D02*
X169175000Y-55527500D01*
G75*
G02*
X169322500Y-55380000I147500J0D01*
G01*
X169617500Y-55380000D01*
G75*
G02*
X169765000Y-55527500I0J-147500D01*
G01*
X169765000Y-55872500D01*
G75*
G02*
X169617500Y-56020000I-147500J0D01*
G01*
X169322500Y-56020000D01*
G75*
G02*
X169175000Y-55872500I0J147500D01*
G01*
G37*
%TD*%
%TO.C,D4*%
G36*
G01*
X156512500Y-88743750D02*
X156512500Y-89256250D01*
G75*
G02*
X156293750Y-89475000I-218750J0D01*
G01*
X155856250Y-89475000D01*
G75*
G02*
X155637500Y-89256250I0J218750D01*
G01*
X155637500Y-88743750D01*
G75*
G02*
X155856250Y-88525000I218750J0D01*
G01*
X156293750Y-88525000D01*
G75*
G02*
X156512500Y-88743750I0J-218750D01*
G01*
G37*
G36*
G01*
X154937500Y-88743750D02*
X154937500Y-89256250D01*
G75*
G02*
X154718750Y-89475000I-218750J0D01*
G01*
X154281250Y-89475000D01*
G75*
G02*
X154062500Y-89256250I0J218750D01*
G01*
X154062500Y-88743750D01*
G75*
G02*
X154281250Y-88525000I218750J0D01*
G01*
X154718750Y-88525000D01*
G75*
G02*
X154937500Y-88743750I0J-218750D01*
G01*
G37*
%TD*%
%TO.C,D4*%
G36*
G01*
X129012500Y-88743750D02*
X129012500Y-89256250D01*
G75*
G02*
X128793750Y-89475000I-218750J0D01*
G01*
X128356250Y-89475000D01*
G75*
G02*
X128137500Y-89256250I0J218750D01*
G01*
X128137500Y-88743750D01*
G75*
G02*
X128356250Y-88525000I218750J0D01*
G01*
X128793750Y-88525000D01*
G75*
G02*
X129012500Y-88743750I0J-218750D01*
G01*
G37*
G36*
G01*
X127437500Y-88743750D02*
X127437500Y-89256250D01*
G75*
G02*
X127218750Y-89475000I-218750J0D01*
G01*
X126781250Y-89475000D01*
G75*
G02*
X126562500Y-89256250I0J218750D01*
G01*
X126562500Y-88743750D01*
G75*
G02*
X126781250Y-88525000I218750J0D01*
G01*
X127218750Y-88525000D01*
G75*
G02*
X127437500Y-88743750I0J-218750D01*
G01*
G37*
%TD*%
%TO.C,D4*%
G36*
G01*
X156512500Y-73243750D02*
X156512500Y-73756250D01*
G75*
G02*
X156293750Y-73975000I-218750J0D01*
G01*
X155856250Y-73975000D01*
G75*
G02*
X155637500Y-73756250I0J218750D01*
G01*
X155637500Y-73243750D01*
G75*
G02*
X155856250Y-73025000I218750J0D01*
G01*
X156293750Y-73025000D01*
G75*
G02*
X156512500Y-73243750I0J-218750D01*
G01*
G37*
G36*
G01*
X154937500Y-73243750D02*
X154937500Y-73756250D01*
G75*
G02*
X154718750Y-73975000I-218750J0D01*
G01*
X154281250Y-73975000D01*
G75*
G02*
X154062500Y-73756250I0J218750D01*
G01*
X154062500Y-73243750D01*
G75*
G02*
X154281250Y-73025000I218750J0D01*
G01*
X154718750Y-73025000D01*
G75*
G02*
X154937500Y-73243750I0J-218750D01*
G01*
G37*
%TD*%
%TO.C,D4*%
G36*
G01*
X129012500Y-73243750D02*
X129012500Y-73756250D01*
G75*
G02*
X128793750Y-73975000I-218750J0D01*
G01*
X128356250Y-73975000D01*
G75*
G02*
X128137500Y-73756250I0J218750D01*
G01*
X128137500Y-73243750D01*
G75*
G02*
X128356250Y-73025000I218750J0D01*
G01*
X128793750Y-73025000D01*
G75*
G02*
X129012500Y-73243750I0J-218750D01*
G01*
G37*
G36*
G01*
X127437500Y-73243750D02*
X127437500Y-73756250D01*
G75*
G02*
X127218750Y-73975000I-218750J0D01*
G01*
X126781250Y-73975000D01*
G75*
G02*
X126562500Y-73756250I0J218750D01*
G01*
X126562500Y-73243750D01*
G75*
G02*
X126781250Y-73025000I218750J0D01*
G01*
X127218750Y-73025000D01*
G75*
G02*
X127437500Y-73243750I0J-218750D01*
G01*
G37*
%TD*%
%TO.C,D4*%
G36*
G01*
X156512500Y-57743750D02*
X156512500Y-58256250D01*
G75*
G02*
X156293750Y-58475000I-218750J0D01*
G01*
X155856250Y-58475000D01*
G75*
G02*
X155637500Y-58256250I0J218750D01*
G01*
X155637500Y-57743750D01*
G75*
G02*
X155856250Y-57525000I218750J0D01*
G01*
X156293750Y-57525000D01*
G75*
G02*
X156512500Y-57743750I0J-218750D01*
G01*
G37*
G36*
G01*
X154937500Y-57743750D02*
X154937500Y-58256250D01*
G75*
G02*
X154718750Y-58475000I-218750J0D01*
G01*
X154281250Y-58475000D01*
G75*
G02*
X154062500Y-58256250I0J218750D01*
G01*
X154062500Y-57743750D01*
G75*
G02*
X154281250Y-57525000I218750J0D01*
G01*
X154718750Y-57525000D01*
G75*
G02*
X154937500Y-57743750I0J-218750D01*
G01*
G37*
%TD*%
%TO.C,R8*%
G36*
G01*
X165465000Y-81227500D02*
X165465000Y-81572500D01*
G75*
G02*
X165317500Y-81720000I-147500J0D01*
G01*
X165022500Y-81720000D01*
G75*
G02*
X164875000Y-81572500I0J147500D01*
G01*
X164875000Y-81227500D01*
G75*
G02*
X165022500Y-81080000I147500J0D01*
G01*
X165317500Y-81080000D01*
G75*
G02*
X165465000Y-81227500I0J-147500D01*
G01*
G37*
G36*
G01*
X164495000Y-81227500D02*
X164495000Y-81572500D01*
G75*
G02*
X164347500Y-81720000I-147500J0D01*
G01*
X164052500Y-81720000D01*
G75*
G02*
X163905000Y-81572500I0J147500D01*
G01*
X163905000Y-81227500D01*
G75*
G02*
X164052500Y-81080000I147500J0D01*
G01*
X164347500Y-81080000D01*
G75*
G02*
X164495000Y-81227500I0J-147500D01*
G01*
G37*
%TD*%
%TO.C,R8*%
G36*
G01*
X137965000Y-81227500D02*
X137965000Y-81572500D01*
G75*
G02*
X137817500Y-81720000I-147500J0D01*
G01*
X137522500Y-81720000D01*
G75*
G02*
X137375000Y-81572500I0J147500D01*
G01*
X137375000Y-81227500D01*
G75*
G02*
X137522500Y-81080000I147500J0D01*
G01*
X137817500Y-81080000D01*
G75*
G02*
X137965000Y-81227500I0J-147500D01*
G01*
G37*
G36*
G01*
X136995000Y-81227500D02*
X136995000Y-81572500D01*
G75*
G02*
X136847500Y-81720000I-147500J0D01*
G01*
X136552500Y-81720000D01*
G75*
G02*
X136405000Y-81572500I0J147500D01*
G01*
X136405000Y-81227500D01*
G75*
G02*
X136552500Y-81080000I147500J0D01*
G01*
X136847500Y-81080000D01*
G75*
G02*
X136995000Y-81227500I0J-147500D01*
G01*
G37*
%TD*%
%TO.C,R8*%
G36*
G01*
X165465000Y-65727500D02*
X165465000Y-66072500D01*
G75*
G02*
X165317500Y-66220000I-147500J0D01*
G01*
X165022500Y-66220000D01*
G75*
G02*
X164875000Y-66072500I0J147500D01*
G01*
X164875000Y-65727500D01*
G75*
G02*
X165022500Y-65580000I147500J0D01*
G01*
X165317500Y-65580000D01*
G75*
G02*
X165465000Y-65727500I0J-147500D01*
G01*
G37*
G36*
G01*
X164495000Y-65727500D02*
X164495000Y-66072500D01*
G75*
G02*
X164347500Y-66220000I-147500J0D01*
G01*
X164052500Y-66220000D01*
G75*
G02*
X163905000Y-66072500I0J147500D01*
G01*
X163905000Y-65727500D01*
G75*
G02*
X164052500Y-65580000I147500J0D01*
G01*
X164347500Y-65580000D01*
G75*
G02*
X164495000Y-65727500I0J-147500D01*
G01*
G37*
%TD*%
%TO.C,R8*%
G36*
G01*
X137965000Y-65727500D02*
X137965000Y-66072500D01*
G75*
G02*
X137817500Y-66220000I-147500J0D01*
G01*
X137522500Y-66220000D01*
G75*
G02*
X137375000Y-66072500I0J147500D01*
G01*
X137375000Y-65727500D01*
G75*
G02*
X137522500Y-65580000I147500J0D01*
G01*
X137817500Y-65580000D01*
G75*
G02*
X137965000Y-65727500I0J-147500D01*
G01*
G37*
G36*
G01*
X136995000Y-65727500D02*
X136995000Y-66072500D01*
G75*
G02*
X136847500Y-66220000I-147500J0D01*
G01*
X136552500Y-66220000D01*
G75*
G02*
X136405000Y-66072500I0J147500D01*
G01*
X136405000Y-65727500D01*
G75*
G02*
X136552500Y-65580000I147500J0D01*
G01*
X136847500Y-65580000D01*
G75*
G02*
X136995000Y-65727500I0J-147500D01*
G01*
G37*
%TD*%
%TO.C,R8*%
G36*
G01*
X165465000Y-50227500D02*
X165465000Y-50572500D01*
G75*
G02*
X165317500Y-50720000I-147500J0D01*
G01*
X165022500Y-50720000D01*
G75*
G02*
X164875000Y-50572500I0J147500D01*
G01*
X164875000Y-50227500D01*
G75*
G02*
X165022500Y-50080000I147500J0D01*
G01*
X165317500Y-50080000D01*
G75*
G02*
X165465000Y-50227500I0J-147500D01*
G01*
G37*
G36*
G01*
X164495000Y-50227500D02*
X164495000Y-50572500D01*
G75*
G02*
X164347500Y-50720000I-147500J0D01*
G01*
X164052500Y-50720000D01*
G75*
G02*
X163905000Y-50572500I0J147500D01*
G01*
X163905000Y-50227500D01*
G75*
G02*
X164052500Y-50080000I147500J0D01*
G01*
X164347500Y-50080000D01*
G75*
G02*
X164495000Y-50227500I0J-147500D01*
G01*
G37*
%TD*%
%TO.C,R12*%
G36*
G01*
X158472500Y-83665000D02*
X158127500Y-83665000D01*
G75*
G02*
X157980000Y-83517500I0J147500D01*
G01*
X157980000Y-83222500D01*
G75*
G02*
X158127500Y-83075000I147500J0D01*
G01*
X158472500Y-83075000D01*
G75*
G02*
X158620000Y-83222500I0J-147500D01*
G01*
X158620000Y-83517500D01*
G75*
G02*
X158472500Y-83665000I-147500J0D01*
G01*
G37*
G36*
G01*
X158472500Y-82695000D02*
X158127500Y-82695000D01*
G75*
G02*
X157980000Y-82547500I0J147500D01*
G01*
X157980000Y-82252500D01*
G75*
G02*
X158127500Y-82105000I147500J0D01*
G01*
X158472500Y-82105000D01*
G75*
G02*
X158620000Y-82252500I0J-147500D01*
G01*
X158620000Y-82547500D01*
G75*
G02*
X158472500Y-82695000I-147500J0D01*
G01*
G37*
%TD*%
%TO.C,R12*%
G36*
G01*
X130972500Y-83665000D02*
X130627500Y-83665000D01*
G75*
G02*
X130480000Y-83517500I0J147500D01*
G01*
X130480000Y-83222500D01*
G75*
G02*
X130627500Y-83075000I147500J0D01*
G01*
X130972500Y-83075000D01*
G75*
G02*
X131120000Y-83222500I0J-147500D01*
G01*
X131120000Y-83517500D01*
G75*
G02*
X130972500Y-83665000I-147500J0D01*
G01*
G37*
G36*
G01*
X130972500Y-82695000D02*
X130627500Y-82695000D01*
G75*
G02*
X130480000Y-82547500I0J147500D01*
G01*
X130480000Y-82252500D01*
G75*
G02*
X130627500Y-82105000I147500J0D01*
G01*
X130972500Y-82105000D01*
G75*
G02*
X131120000Y-82252500I0J-147500D01*
G01*
X131120000Y-82547500D01*
G75*
G02*
X130972500Y-82695000I-147500J0D01*
G01*
G37*
%TD*%
%TO.C,R12*%
G36*
G01*
X158472500Y-68165000D02*
X158127500Y-68165000D01*
G75*
G02*
X157980000Y-68017500I0J147500D01*
G01*
X157980000Y-67722500D01*
G75*
G02*
X158127500Y-67575000I147500J0D01*
G01*
X158472500Y-67575000D01*
G75*
G02*
X158620000Y-67722500I0J-147500D01*
G01*
X158620000Y-68017500D01*
G75*
G02*
X158472500Y-68165000I-147500J0D01*
G01*
G37*
G36*
G01*
X158472500Y-67195000D02*
X158127500Y-67195000D01*
G75*
G02*
X157980000Y-67047500I0J147500D01*
G01*
X157980000Y-66752500D01*
G75*
G02*
X158127500Y-66605000I147500J0D01*
G01*
X158472500Y-66605000D01*
G75*
G02*
X158620000Y-66752500I0J-147500D01*
G01*
X158620000Y-67047500D01*
G75*
G02*
X158472500Y-67195000I-147500J0D01*
G01*
G37*
%TD*%
%TO.C,R12*%
G36*
G01*
X130972500Y-68165000D02*
X130627500Y-68165000D01*
G75*
G02*
X130480000Y-68017500I0J147500D01*
G01*
X130480000Y-67722500D01*
G75*
G02*
X130627500Y-67575000I147500J0D01*
G01*
X130972500Y-67575000D01*
G75*
G02*
X131120000Y-67722500I0J-147500D01*
G01*
X131120000Y-68017500D01*
G75*
G02*
X130972500Y-68165000I-147500J0D01*
G01*
G37*
G36*
G01*
X130972500Y-67195000D02*
X130627500Y-67195000D01*
G75*
G02*
X130480000Y-67047500I0J147500D01*
G01*
X130480000Y-66752500D01*
G75*
G02*
X130627500Y-66605000I147500J0D01*
G01*
X130972500Y-66605000D01*
G75*
G02*
X131120000Y-66752500I0J-147500D01*
G01*
X131120000Y-67047500D01*
G75*
G02*
X130972500Y-67195000I-147500J0D01*
G01*
G37*
%TD*%
%TO.C,R12*%
G36*
G01*
X158472500Y-52665000D02*
X158127500Y-52665000D01*
G75*
G02*
X157980000Y-52517500I0J147500D01*
G01*
X157980000Y-52222500D01*
G75*
G02*
X158127500Y-52075000I147500J0D01*
G01*
X158472500Y-52075000D01*
G75*
G02*
X158620000Y-52222500I0J-147500D01*
G01*
X158620000Y-52517500D01*
G75*
G02*
X158472500Y-52665000I-147500J0D01*
G01*
G37*
G36*
G01*
X158472500Y-51695000D02*
X158127500Y-51695000D01*
G75*
G02*
X157980000Y-51547500I0J147500D01*
G01*
X157980000Y-51252500D01*
G75*
G02*
X158127500Y-51105000I147500J0D01*
G01*
X158472500Y-51105000D01*
G75*
G02*
X158620000Y-51252500I0J-147500D01*
G01*
X158620000Y-51547500D01*
G75*
G02*
X158472500Y-51695000I-147500J0D01*
G01*
G37*
%TD*%
%TO.C,Q3*%
X170000000Y-89300000D03*
X170000000Y-91200000D03*
X172000000Y-90250000D03*
%TD*%
%TO.C,Q3*%
X142500000Y-89300000D03*
X142500000Y-91200000D03*
X144500000Y-90250000D03*
%TD*%
%TO.C,Q3*%
X170000000Y-73800000D03*
X170000000Y-75700000D03*
X172000000Y-74750000D03*
%TD*%
%TO.C,Q3*%
X142500000Y-73800000D03*
X142500000Y-75700000D03*
X144500000Y-74750000D03*
%TD*%
%TO.C,Q3*%
X170000000Y-58300000D03*
X170000000Y-60200000D03*
X172000000Y-59250000D03*
%TD*%
%TO.C,R14*%
G36*
G01*
X123425000Y-49927500D02*
X123425000Y-50272500D01*
G75*
G02*
X123277500Y-50420000I-147500J0D01*
G01*
X122982500Y-50420000D01*
G75*
G02*
X122835000Y-50272500I0J147500D01*
G01*
X122835000Y-49927500D01*
G75*
G02*
X122982500Y-49780000I147500J0D01*
G01*
X123277500Y-49780000D01*
G75*
G02*
X123425000Y-49927500I0J-147500D01*
G01*
G37*
G36*
G01*
X124395000Y-49927500D02*
X124395000Y-50272500D01*
G75*
G02*
X124247500Y-50420000I-147500J0D01*
G01*
X123952500Y-50420000D01*
G75*
G02*
X123805000Y-50272500I0J147500D01*
G01*
X123805000Y-49927500D01*
G75*
G02*
X123952500Y-49780000I147500J0D01*
G01*
X124247500Y-49780000D01*
G75*
G02*
X124395000Y-49927500I0J-147500D01*
G01*
G37*
%TD*%
%TO.C,R13*%
G36*
G01*
X126372500Y-52895000D02*
X126027500Y-52895000D01*
G75*
G02*
X125880000Y-52747500I0J147500D01*
G01*
X125880000Y-52452500D01*
G75*
G02*
X126027500Y-52305000I147500J0D01*
G01*
X126372500Y-52305000D01*
G75*
G02*
X126520000Y-52452500I0J-147500D01*
G01*
X126520000Y-52747500D01*
G75*
G02*
X126372500Y-52895000I-147500J0D01*
G01*
G37*
G36*
G01*
X126372500Y-53865000D02*
X126027500Y-53865000D01*
G75*
G02*
X125880000Y-53717500I0J147500D01*
G01*
X125880000Y-53422500D01*
G75*
G02*
X126027500Y-53275000I147500J0D01*
G01*
X126372500Y-53275000D01*
G75*
G02*
X126520000Y-53422500I0J-147500D01*
G01*
X126520000Y-53717500D01*
G75*
G02*
X126372500Y-53865000I-147500J0D01*
G01*
G37*
%TD*%
D10*
%TO.C,U2*%
X129210000Y-48150000D03*
D11*
X127770000Y-50700000D03*
X127770000Y-50200000D03*
X127770000Y-49700000D03*
X127770000Y-49200000D03*
D12*
X127420000Y-50700000D03*
X127420000Y-50200000D03*
X127420000Y-49700000D03*
X127420000Y-49200000D03*
D11*
X130150000Y-48700000D03*
X130150000Y-49200000D03*
X130150000Y-49700000D03*
X130150000Y-50200000D03*
D12*
X130500000Y-48700000D03*
X130500000Y-49200000D03*
X130500000Y-49700000D03*
X130500000Y-50200000D03*
X130500000Y-50700000D03*
D11*
X130150000Y-50700000D03*
D13*
X128960000Y-49700000D03*
D12*
X127420000Y-48700000D03*
D11*
X127770000Y-48700000D03*
D10*
X128710000Y-48150000D03*
X128710000Y-51250000D03*
X129210000Y-51250000D03*
%TD*%
%TO.C,R9*%
G36*
G01*
X131672500Y-48575000D02*
X131327500Y-48575000D01*
G75*
G02*
X131180000Y-48427500I0J147500D01*
G01*
X131180000Y-48132500D01*
G75*
G02*
X131327500Y-47985000I147500J0D01*
G01*
X131672500Y-47985000D01*
G75*
G02*
X131820000Y-48132500I0J-147500D01*
G01*
X131820000Y-48427500D01*
G75*
G02*
X131672500Y-48575000I-147500J0D01*
G01*
G37*
G36*
G01*
X131672500Y-49545000D02*
X131327500Y-49545000D01*
G75*
G02*
X131180000Y-49397500I0J147500D01*
G01*
X131180000Y-49102500D01*
G75*
G02*
X131327500Y-48955000I147500J0D01*
G01*
X131672500Y-48955000D01*
G75*
G02*
X131820000Y-49102500I0J-147500D01*
G01*
X131820000Y-49397500D01*
G75*
G02*
X131672500Y-49545000I-147500J0D01*
G01*
G37*
%TD*%
%TO.C,C9*%
G36*
G01*
X133006250Y-48862500D02*
X132493750Y-48862500D01*
G75*
G02*
X132275000Y-48643750I0J218750D01*
G01*
X132275000Y-48206250D01*
G75*
G02*
X132493750Y-47987500I218750J0D01*
G01*
X133006250Y-47987500D01*
G75*
G02*
X133225000Y-48206250I0J-218750D01*
G01*
X133225000Y-48643750D01*
G75*
G02*
X133006250Y-48862500I-218750J0D01*
G01*
G37*
G36*
G01*
X133006250Y-50437500D02*
X132493750Y-50437500D01*
G75*
G02*
X132275000Y-50218750I0J218750D01*
G01*
X132275000Y-49781250D01*
G75*
G02*
X132493750Y-49562500I218750J0D01*
G01*
X133006250Y-49562500D01*
G75*
G02*
X133225000Y-49781250I0J-218750D01*
G01*
X133225000Y-50218750D01*
G75*
G02*
X133006250Y-50437500I-218750J0D01*
G01*
G37*
%TD*%
%TO.C,C8*%
G36*
G01*
X135506250Y-48862500D02*
X134993750Y-48862500D01*
G75*
G02*
X134775000Y-48643750I0J218750D01*
G01*
X134775000Y-48206250D01*
G75*
G02*
X134993750Y-47987500I218750J0D01*
G01*
X135506250Y-47987500D01*
G75*
G02*
X135725000Y-48206250I0J-218750D01*
G01*
X135725000Y-48643750D01*
G75*
G02*
X135506250Y-48862500I-218750J0D01*
G01*
G37*
G36*
G01*
X135506250Y-50437500D02*
X134993750Y-50437500D01*
G75*
G02*
X134775000Y-50218750I0J218750D01*
G01*
X134775000Y-49781250D01*
G75*
G02*
X134993750Y-49562500I218750J0D01*
G01*
X135506250Y-49562500D01*
G75*
G02*
X135725000Y-49781250I0J-218750D01*
G01*
X135725000Y-50218750D01*
G75*
G02*
X135506250Y-50437500I-218750J0D01*
G01*
G37*
%TD*%
%TO.C,C6*%
G36*
G01*
X134256250Y-48862500D02*
X133743750Y-48862500D01*
G75*
G02*
X133525000Y-48643750I0J218750D01*
G01*
X133525000Y-48206250D01*
G75*
G02*
X133743750Y-47987500I218750J0D01*
G01*
X134256250Y-47987500D01*
G75*
G02*
X134475000Y-48206250I0J-218750D01*
G01*
X134475000Y-48643750D01*
G75*
G02*
X134256250Y-48862500I-218750J0D01*
G01*
G37*
G36*
G01*
X134256250Y-50437500D02*
X133743750Y-50437500D01*
G75*
G02*
X133525000Y-50218750I0J218750D01*
G01*
X133525000Y-49781250D01*
G75*
G02*
X133743750Y-49562500I218750J0D01*
G01*
X134256250Y-49562500D01*
G75*
G02*
X134475000Y-49781250I0J-218750D01*
G01*
X134475000Y-50218750D01*
G75*
G02*
X134256250Y-50437500I-218750J0D01*
G01*
G37*
%TD*%
%TO.C,C3*%
G36*
G01*
X126472500Y-48175000D02*
X126127500Y-48175000D01*
G75*
G02*
X125980000Y-48027500I0J147500D01*
G01*
X125980000Y-47732500D01*
G75*
G02*
X126127500Y-47585000I147500J0D01*
G01*
X126472500Y-47585000D01*
G75*
G02*
X126620000Y-47732500I0J-147500D01*
G01*
X126620000Y-48027500D01*
G75*
G02*
X126472500Y-48175000I-147500J0D01*
G01*
G37*
G36*
G01*
X126472500Y-49145000D02*
X126127500Y-49145000D01*
G75*
G02*
X125980000Y-48997500I0J147500D01*
G01*
X125980000Y-48702500D01*
G75*
G02*
X126127500Y-48555000I147500J0D01*
G01*
X126472500Y-48555000D01*
G75*
G02*
X126620000Y-48702500I0J-147500D01*
G01*
X126620000Y-48997500D01*
G75*
G02*
X126472500Y-49145000I-147500J0D01*
G01*
G37*
%TD*%
%TO.C,C2*%
G36*
G01*
X125456250Y-48962500D02*
X124943750Y-48962500D01*
G75*
G02*
X124725000Y-48743750I0J218750D01*
G01*
X124725000Y-48306250D01*
G75*
G02*
X124943750Y-48087500I218750J0D01*
G01*
X125456250Y-48087500D01*
G75*
G02*
X125675000Y-48306250I0J-218750D01*
G01*
X125675000Y-48743750D01*
G75*
G02*
X125456250Y-48962500I-218750J0D01*
G01*
G37*
G36*
G01*
X125456250Y-50537500D02*
X124943750Y-50537500D01*
G75*
G02*
X124725000Y-50318750I0J218750D01*
G01*
X124725000Y-49881250D01*
G75*
G02*
X124943750Y-49662500I218750J0D01*
G01*
X125456250Y-49662500D01*
G75*
G02*
X125675000Y-49881250I0J-218750D01*
G01*
X125675000Y-50318750D01*
G75*
G02*
X125456250Y-50537500I-218750J0D01*
G01*
G37*
%TD*%
%TO.C,U1*%
G36*
G01*
X137487500Y-51500000D02*
X137487500Y-51300000D01*
G75*
G02*
X137587500Y-51200000I100000J0D01*
G01*
X138862500Y-51200000D01*
G75*
G02*
X138962500Y-51300000I0J-100000D01*
G01*
X138962500Y-51500000D01*
G75*
G02*
X138862500Y-51600000I-100000J0D01*
G01*
X137587500Y-51600000D01*
G75*
G02*
X137487500Y-51500000I0J100000D01*
G01*
G37*
G36*
G01*
X137487500Y-52150000D02*
X137487500Y-51950000D01*
G75*
G02*
X137587500Y-51850000I100000J0D01*
G01*
X138862500Y-51850000D01*
G75*
G02*
X138962500Y-51950000I0J-100000D01*
G01*
X138962500Y-52150000D01*
G75*
G02*
X138862500Y-52250000I-100000J0D01*
G01*
X137587500Y-52250000D01*
G75*
G02*
X137487500Y-52150000I0J100000D01*
G01*
G37*
G36*
G01*
X137487500Y-52800000D02*
X137487500Y-52600000D01*
G75*
G02*
X137587500Y-52500000I100000J0D01*
G01*
X138862500Y-52500000D01*
G75*
G02*
X138962500Y-52600000I0J-100000D01*
G01*
X138962500Y-52800000D01*
G75*
G02*
X138862500Y-52900000I-100000J0D01*
G01*
X137587500Y-52900000D01*
G75*
G02*
X137487500Y-52800000I0J100000D01*
G01*
G37*
G36*
G01*
X137487500Y-53450000D02*
X137487500Y-53250000D01*
G75*
G02*
X137587500Y-53150000I100000J0D01*
G01*
X138862500Y-53150000D01*
G75*
G02*
X138962500Y-53250000I0J-100000D01*
G01*
X138962500Y-53450000D01*
G75*
G02*
X138862500Y-53550000I-100000J0D01*
G01*
X137587500Y-53550000D01*
G75*
G02*
X137487500Y-53450000I0J100000D01*
G01*
G37*
G36*
G01*
X137487500Y-54100000D02*
X137487500Y-53900000D01*
G75*
G02*
X137587500Y-53800000I100000J0D01*
G01*
X138862500Y-53800000D01*
G75*
G02*
X138962500Y-53900000I0J-100000D01*
G01*
X138962500Y-54100000D01*
G75*
G02*
X138862500Y-54200000I-100000J0D01*
G01*
X137587500Y-54200000D01*
G75*
G02*
X137487500Y-54100000I0J100000D01*
G01*
G37*
G36*
G01*
X137487500Y-54750000D02*
X137487500Y-54550000D01*
G75*
G02*
X137587500Y-54450000I100000J0D01*
G01*
X138862500Y-54450000D01*
G75*
G02*
X138962500Y-54550000I0J-100000D01*
G01*
X138962500Y-54750000D01*
G75*
G02*
X138862500Y-54850000I-100000J0D01*
G01*
X137587500Y-54850000D01*
G75*
G02*
X137487500Y-54750000I0J100000D01*
G01*
G37*
G36*
G01*
X137487500Y-55400000D02*
X137487500Y-55200000D01*
G75*
G02*
X137587500Y-55100000I100000J0D01*
G01*
X138862500Y-55100000D01*
G75*
G02*
X138962500Y-55200000I0J-100000D01*
G01*
X138962500Y-55400000D01*
G75*
G02*
X138862500Y-55500000I-100000J0D01*
G01*
X137587500Y-55500000D01*
G75*
G02*
X137487500Y-55400000I0J100000D01*
G01*
G37*
G36*
G01*
X137487500Y-56050000D02*
X137487500Y-55850000D01*
G75*
G02*
X137587500Y-55750000I100000J0D01*
G01*
X138862500Y-55750000D01*
G75*
G02*
X138962500Y-55850000I0J-100000D01*
G01*
X138962500Y-56050000D01*
G75*
G02*
X138862500Y-56150000I-100000J0D01*
G01*
X137587500Y-56150000D01*
G75*
G02*
X137487500Y-56050000I0J100000D01*
G01*
G37*
G36*
G01*
X137487500Y-56700000D02*
X137487500Y-56500000D01*
G75*
G02*
X137587500Y-56400000I100000J0D01*
G01*
X138862500Y-56400000D01*
G75*
G02*
X138962500Y-56500000I0J-100000D01*
G01*
X138962500Y-56700000D01*
G75*
G02*
X138862500Y-56800000I-100000J0D01*
G01*
X137587500Y-56800000D01*
G75*
G02*
X137487500Y-56700000I0J100000D01*
G01*
G37*
G36*
G01*
X137487500Y-57350000D02*
X137487500Y-57150000D01*
G75*
G02*
X137587500Y-57050000I100000J0D01*
G01*
X138862500Y-57050000D01*
G75*
G02*
X138962500Y-57150000I0J-100000D01*
G01*
X138962500Y-57350000D01*
G75*
G02*
X138862500Y-57450000I-100000J0D01*
G01*
X137587500Y-57450000D01*
G75*
G02*
X137487500Y-57350000I0J100000D01*
G01*
G37*
G36*
G01*
X131762500Y-57350000D02*
X131762500Y-57150000D01*
G75*
G02*
X131862500Y-57050000I100000J0D01*
G01*
X133137500Y-57050000D01*
G75*
G02*
X133237500Y-57150000I0J-100000D01*
G01*
X133237500Y-57350000D01*
G75*
G02*
X133137500Y-57450000I-100000J0D01*
G01*
X131862500Y-57450000D01*
G75*
G02*
X131762500Y-57350000I0J100000D01*
G01*
G37*
G36*
G01*
X131762500Y-56700000D02*
X131762500Y-56500000D01*
G75*
G02*
X131862500Y-56400000I100000J0D01*
G01*
X133137500Y-56400000D01*
G75*
G02*
X133237500Y-56500000I0J-100000D01*
G01*
X133237500Y-56700000D01*
G75*
G02*
X133137500Y-56800000I-100000J0D01*
G01*
X131862500Y-56800000D01*
G75*
G02*
X131762500Y-56700000I0J100000D01*
G01*
G37*
G36*
G01*
X131762500Y-56050000D02*
X131762500Y-55850000D01*
G75*
G02*
X131862500Y-55750000I100000J0D01*
G01*
X133137500Y-55750000D01*
G75*
G02*
X133237500Y-55850000I0J-100000D01*
G01*
X133237500Y-56050000D01*
G75*
G02*
X133137500Y-56150000I-100000J0D01*
G01*
X131862500Y-56150000D01*
G75*
G02*
X131762500Y-56050000I0J100000D01*
G01*
G37*
G36*
G01*
X131762500Y-55400000D02*
X131762500Y-55200000D01*
G75*
G02*
X131862500Y-55100000I100000J0D01*
G01*
X133137500Y-55100000D01*
G75*
G02*
X133237500Y-55200000I0J-100000D01*
G01*
X133237500Y-55400000D01*
G75*
G02*
X133137500Y-55500000I-100000J0D01*
G01*
X131862500Y-55500000D01*
G75*
G02*
X131762500Y-55400000I0J100000D01*
G01*
G37*
G36*
G01*
X131762500Y-54750000D02*
X131762500Y-54550000D01*
G75*
G02*
X131862500Y-54450000I100000J0D01*
G01*
X133137500Y-54450000D01*
G75*
G02*
X133237500Y-54550000I0J-100000D01*
G01*
X133237500Y-54750000D01*
G75*
G02*
X133137500Y-54850000I-100000J0D01*
G01*
X131862500Y-54850000D01*
G75*
G02*
X131762500Y-54750000I0J100000D01*
G01*
G37*
G36*
G01*
X131762500Y-54100000D02*
X131762500Y-53900000D01*
G75*
G02*
X131862500Y-53800000I100000J0D01*
G01*
X133137500Y-53800000D01*
G75*
G02*
X133237500Y-53900000I0J-100000D01*
G01*
X133237500Y-54100000D01*
G75*
G02*
X133137500Y-54200000I-100000J0D01*
G01*
X131862500Y-54200000D01*
G75*
G02*
X131762500Y-54100000I0J100000D01*
G01*
G37*
G36*
G01*
X131762500Y-53450000D02*
X131762500Y-53250000D01*
G75*
G02*
X131862500Y-53150000I100000J0D01*
G01*
X133137500Y-53150000D01*
G75*
G02*
X133237500Y-53250000I0J-100000D01*
G01*
X133237500Y-53450000D01*
G75*
G02*
X133137500Y-53550000I-100000J0D01*
G01*
X131862500Y-53550000D01*
G75*
G02*
X131762500Y-53450000I0J100000D01*
G01*
G37*
G36*
G01*
X131762500Y-52800000D02*
X131762500Y-52600000D01*
G75*
G02*
X131862500Y-52500000I100000J0D01*
G01*
X133137500Y-52500000D01*
G75*
G02*
X133237500Y-52600000I0J-100000D01*
G01*
X133237500Y-52800000D01*
G75*
G02*
X133137500Y-52900000I-100000J0D01*
G01*
X131862500Y-52900000D01*
G75*
G02*
X131762500Y-52800000I0J100000D01*
G01*
G37*
G36*
G01*
X131762500Y-52150000D02*
X131762500Y-51950000D01*
G75*
G02*
X131862500Y-51850000I100000J0D01*
G01*
X133137500Y-51850000D01*
G75*
G02*
X133237500Y-51950000I0J-100000D01*
G01*
X133237500Y-52150000D01*
G75*
G02*
X133137500Y-52250000I-100000J0D01*
G01*
X131862500Y-52250000D01*
G75*
G02*
X131762500Y-52150000I0J100000D01*
G01*
G37*
G36*
G01*
X131762500Y-51500000D02*
X131762500Y-51300000D01*
G75*
G02*
X131862500Y-51200000I100000J0D01*
G01*
X133137500Y-51200000D01*
G75*
G02*
X133237500Y-51300000I0J-100000D01*
G01*
X133237500Y-51500000D01*
G75*
G02*
X133137500Y-51600000I-100000J0D01*
G01*
X131862500Y-51600000D01*
G75*
G02*
X131762500Y-51500000I0J100000D01*
G01*
G37*
%TD*%
%TO.C,R12*%
G36*
G01*
X130972500Y-51695000D02*
X130627500Y-51695000D01*
G75*
G02*
X130480000Y-51547500I0J147500D01*
G01*
X130480000Y-51252500D01*
G75*
G02*
X130627500Y-51105000I147500J0D01*
G01*
X130972500Y-51105000D01*
G75*
G02*
X131120000Y-51252500I0J-147500D01*
G01*
X131120000Y-51547500D01*
G75*
G02*
X130972500Y-51695000I-147500J0D01*
G01*
G37*
G36*
G01*
X130972500Y-52665000D02*
X130627500Y-52665000D01*
G75*
G02*
X130480000Y-52517500I0J147500D01*
G01*
X130480000Y-52222500D01*
G75*
G02*
X130627500Y-52075000I147500J0D01*
G01*
X130972500Y-52075000D01*
G75*
G02*
X131120000Y-52222500I0J-147500D01*
G01*
X131120000Y-52517500D01*
G75*
G02*
X130972500Y-52665000I-147500J0D01*
G01*
G37*
%TD*%
%TO.C,R11*%
G36*
G01*
X128027500Y-53605000D02*
X128372500Y-53605000D01*
G75*
G02*
X128520000Y-53752500I0J-147500D01*
G01*
X128520000Y-54047500D01*
G75*
G02*
X128372500Y-54195000I-147500J0D01*
G01*
X128027500Y-54195000D01*
G75*
G02*
X127880000Y-54047500I0J147500D01*
G01*
X127880000Y-53752500D01*
G75*
G02*
X128027500Y-53605000I147500J0D01*
G01*
G37*
G36*
G01*
X128027500Y-52635000D02*
X128372500Y-52635000D01*
G75*
G02*
X128520000Y-52782500I0J-147500D01*
G01*
X128520000Y-53077500D01*
G75*
G02*
X128372500Y-53225000I-147500J0D01*
G01*
X128027500Y-53225000D01*
G75*
G02*
X127880000Y-53077500I0J147500D01*
G01*
X127880000Y-52782500D01*
G75*
G02*
X128027500Y-52635000I147500J0D01*
G01*
G37*
%TD*%
%TO.C,R10*%
G36*
G01*
X127027500Y-53605000D02*
X127372500Y-53605000D01*
G75*
G02*
X127520000Y-53752500I0J-147500D01*
G01*
X127520000Y-54047500D01*
G75*
G02*
X127372500Y-54195000I-147500J0D01*
G01*
X127027500Y-54195000D01*
G75*
G02*
X126880000Y-54047500I0J147500D01*
G01*
X126880000Y-53752500D01*
G75*
G02*
X127027500Y-53605000I147500J0D01*
G01*
G37*
G36*
G01*
X127027500Y-52635000D02*
X127372500Y-52635000D01*
G75*
G02*
X127520000Y-52782500I0J-147500D01*
G01*
X127520000Y-53077500D01*
G75*
G02*
X127372500Y-53225000I-147500J0D01*
G01*
X127027500Y-53225000D01*
G75*
G02*
X126880000Y-53077500I0J147500D01*
G01*
X126880000Y-52782500D01*
G75*
G02*
X127027500Y-52635000I147500J0D01*
G01*
G37*
%TD*%
%TO.C,R8*%
G36*
G01*
X136995000Y-50227500D02*
X136995000Y-50572500D01*
G75*
G02*
X136847500Y-50720000I-147500J0D01*
G01*
X136552500Y-50720000D01*
G75*
G02*
X136405000Y-50572500I0J147500D01*
G01*
X136405000Y-50227500D01*
G75*
G02*
X136552500Y-50080000I147500J0D01*
G01*
X136847500Y-50080000D01*
G75*
G02*
X136995000Y-50227500I0J-147500D01*
G01*
G37*
G36*
G01*
X137965000Y-50227500D02*
X137965000Y-50572500D01*
G75*
G02*
X137817500Y-50720000I-147500J0D01*
G01*
X137522500Y-50720000D01*
G75*
G02*
X137375000Y-50572500I0J147500D01*
G01*
X137375000Y-50227500D01*
G75*
G02*
X137522500Y-50080000I147500J0D01*
G01*
X137817500Y-50080000D01*
G75*
G02*
X137965000Y-50227500I0J-147500D01*
G01*
G37*
%TD*%
%TO.C,R7*%
G36*
G01*
X141472500Y-49695000D02*
X141127500Y-49695000D01*
G75*
G02*
X140980000Y-49547500I0J147500D01*
G01*
X140980000Y-49252500D01*
G75*
G02*
X141127500Y-49105000I147500J0D01*
G01*
X141472500Y-49105000D01*
G75*
G02*
X141620000Y-49252500I0J-147500D01*
G01*
X141620000Y-49547500D01*
G75*
G02*
X141472500Y-49695000I-147500J0D01*
G01*
G37*
G36*
G01*
X141472500Y-50665000D02*
X141127500Y-50665000D01*
G75*
G02*
X140980000Y-50517500I0J147500D01*
G01*
X140980000Y-50222500D01*
G75*
G02*
X141127500Y-50075000I147500J0D01*
G01*
X141472500Y-50075000D01*
G75*
G02*
X141620000Y-50222500I0J-147500D01*
G01*
X141620000Y-50517500D01*
G75*
G02*
X141472500Y-50665000I-147500J0D01*
G01*
G37*
%TD*%
%TO.C,R6*%
G36*
G01*
X141372500Y-59295000D02*
X141027500Y-59295000D01*
G75*
G02*
X140880000Y-59147500I0J147500D01*
G01*
X140880000Y-58852500D01*
G75*
G02*
X141027500Y-58705000I147500J0D01*
G01*
X141372500Y-58705000D01*
G75*
G02*
X141520000Y-58852500I0J-147500D01*
G01*
X141520000Y-59147500D01*
G75*
G02*
X141372500Y-59295000I-147500J0D01*
G01*
G37*
G36*
G01*
X141372500Y-60265000D02*
X141027500Y-60265000D01*
G75*
G02*
X140880000Y-60117500I0J147500D01*
G01*
X140880000Y-59822500D01*
G75*
G02*
X141027500Y-59675000I147500J0D01*
G01*
X141372500Y-59675000D01*
G75*
G02*
X141520000Y-59822500I0J-147500D01*
G01*
X141520000Y-60117500D01*
G75*
G02*
X141372500Y-60265000I-147500J0D01*
G01*
G37*
%TD*%
%TO.C,R5*%
G36*
G01*
X143205000Y-52172500D02*
X143205000Y-51827500D01*
G75*
G02*
X143352500Y-51680000I147500J0D01*
G01*
X143647500Y-51680000D01*
G75*
G02*
X143795000Y-51827500I0J-147500D01*
G01*
X143795000Y-52172500D01*
G75*
G02*
X143647500Y-52320000I-147500J0D01*
G01*
X143352500Y-52320000D01*
G75*
G02*
X143205000Y-52172500I0J147500D01*
G01*
G37*
G36*
G01*
X142235000Y-52172500D02*
X142235000Y-51827500D01*
G75*
G02*
X142382500Y-51680000I147500J0D01*
G01*
X142677500Y-51680000D01*
G75*
G02*
X142825000Y-51827500I0J-147500D01*
G01*
X142825000Y-52172500D01*
G75*
G02*
X142677500Y-52320000I-147500J0D01*
G01*
X142382500Y-52320000D01*
G75*
G02*
X142235000Y-52172500I0J147500D01*
G01*
G37*
%TD*%
%TO.C,R4*%
G36*
G01*
X141675000Y-55872500D02*
X141675000Y-55527500D01*
G75*
G02*
X141822500Y-55380000I147500J0D01*
G01*
X142117500Y-55380000D01*
G75*
G02*
X142265000Y-55527500I0J-147500D01*
G01*
X142265000Y-55872500D01*
G75*
G02*
X142117500Y-56020000I-147500J0D01*
G01*
X141822500Y-56020000D01*
G75*
G02*
X141675000Y-55872500I0J147500D01*
G01*
G37*
G36*
G01*
X140705000Y-55872500D02*
X140705000Y-55527500D01*
G75*
G02*
X140852500Y-55380000I147500J0D01*
G01*
X141147500Y-55380000D01*
G75*
G02*
X141295000Y-55527500I0J-147500D01*
G01*
X141295000Y-55872500D01*
G75*
G02*
X141147500Y-56020000I-147500J0D01*
G01*
X140852500Y-56020000D01*
G75*
G02*
X140705000Y-55872500I0J147500D01*
G01*
G37*
%TD*%
%TO.C,R3*%
G36*
G01*
X140172500Y-51825000D02*
X139827500Y-51825000D01*
G75*
G02*
X139680000Y-51677500I0J147500D01*
G01*
X139680000Y-51382500D01*
G75*
G02*
X139827500Y-51235000I147500J0D01*
G01*
X140172500Y-51235000D01*
G75*
G02*
X140320000Y-51382500I0J-147500D01*
G01*
X140320000Y-51677500D01*
G75*
G02*
X140172500Y-51825000I-147500J0D01*
G01*
G37*
G36*
G01*
X140172500Y-52795000D02*
X139827500Y-52795000D01*
G75*
G02*
X139680000Y-52647500I0J147500D01*
G01*
X139680000Y-52352500D01*
G75*
G02*
X139827500Y-52205000I147500J0D01*
G01*
X140172500Y-52205000D01*
G75*
G02*
X140320000Y-52352500I0J-147500D01*
G01*
X140320000Y-52647500D01*
G75*
G02*
X140172500Y-52795000I-147500J0D01*
G01*
G37*
%TD*%
%TO.C,R2*%
G36*
G01*
X140072500Y-54995000D02*
X139727500Y-54995000D01*
G75*
G02*
X139580000Y-54847500I0J147500D01*
G01*
X139580000Y-54552500D01*
G75*
G02*
X139727500Y-54405000I147500J0D01*
G01*
X140072500Y-54405000D01*
G75*
G02*
X140220000Y-54552500I0J-147500D01*
G01*
X140220000Y-54847500D01*
G75*
G02*
X140072500Y-54995000I-147500J0D01*
G01*
G37*
G36*
G01*
X140072500Y-55965000D02*
X139727500Y-55965000D01*
G75*
G02*
X139580000Y-55817500I0J147500D01*
G01*
X139580000Y-55522500D01*
G75*
G02*
X139727500Y-55375000I147500J0D01*
G01*
X140072500Y-55375000D01*
G75*
G02*
X140220000Y-55522500I0J-147500D01*
G01*
X140220000Y-55817500D01*
G75*
G02*
X140072500Y-55965000I-147500J0D01*
G01*
G37*
%TD*%
%TO.C,R1*%
G36*
G01*
X130413379Y-58330572D02*
X130169428Y-58086620D01*
G75*
G02*
X130169428Y-57878024I104298J104298D01*
G01*
X130378024Y-57669428D01*
G75*
G02*
X130586620Y-57669428I104298J-104298D01*
G01*
X130830572Y-57913380D01*
G75*
G02*
X130830572Y-58121976I-104298J-104298D01*
G01*
X130621976Y-58330572D01*
G75*
G02*
X130413380Y-58330572I-104298J104298D01*
G01*
G37*
G36*
G01*
X129727485Y-59016466D02*
X129483534Y-58772514D01*
G75*
G02*
X129483534Y-58563918I104298J104298D01*
G01*
X129692130Y-58355322D01*
G75*
G02*
X129900726Y-58355322I104298J-104298D01*
G01*
X130144678Y-58599274D01*
G75*
G02*
X130144678Y-58807870I-104298J-104298D01*
G01*
X129936082Y-59016466D01*
G75*
G02*
X129727486Y-59016466I-104298J104298D01*
G01*
G37*
%TD*%
D15*
%TO.C,Q4*%
X144500000Y-49850000D03*
X142500000Y-50800000D03*
X142500000Y-48900000D03*
%TD*%
%TO.C,Q3*%
X144500000Y-59250000D03*
X142500000Y-60200000D03*
X142500000Y-58300000D03*
%TD*%
%TO.C,D4*%
G36*
G01*
X127437500Y-57743750D02*
X127437500Y-58256250D01*
G75*
G02*
X127218750Y-58475000I-218750J0D01*
G01*
X126781250Y-58475000D01*
G75*
G02*
X126562500Y-58256250I0J218750D01*
G01*
X126562500Y-57743750D01*
G75*
G02*
X126781250Y-57525000I218750J0D01*
G01*
X127218750Y-57525000D01*
G75*
G02*
X127437500Y-57743750I0J-218750D01*
G01*
G37*
G36*
G01*
X129012500Y-57743750D02*
X129012500Y-58256250D01*
G75*
G02*
X128793750Y-58475000I-218750J0D01*
G01*
X128356250Y-58475000D01*
G75*
G02*
X128137500Y-58256250I0J218750D01*
G01*
X128137500Y-57743750D01*
G75*
G02*
X128356250Y-57525000I218750J0D01*
G01*
X128793750Y-57525000D01*
G75*
G02*
X129012500Y-57743750I0J-218750D01*
G01*
G37*
%TD*%
D14*
%TO.C,D3*%
X143700000Y-53250000D03*
X147000000Y-53250000D03*
%TD*%
%TO.C,D2*%
X143700000Y-55250000D03*
X147000000Y-55250000D03*
%TD*%
%TO.C,D1*%
G36*
G01*
X127437500Y-59243750D02*
X127437500Y-59756250D01*
G75*
G02*
X127218750Y-59975000I-218750J0D01*
G01*
X126781250Y-59975000D01*
G75*
G02*
X126562500Y-59756250I0J218750D01*
G01*
X126562500Y-59243750D01*
G75*
G02*
X126781250Y-59025000I218750J0D01*
G01*
X127218750Y-59025000D01*
G75*
G02*
X127437500Y-59243750I0J-218750D01*
G01*
G37*
G36*
G01*
X129012500Y-59243750D02*
X129012500Y-59756250D01*
G75*
G02*
X128793750Y-59975000I-218750J0D01*
G01*
X128356250Y-59975000D01*
G75*
G02*
X128137500Y-59756250I0J218750D01*
G01*
X128137500Y-59243750D01*
G75*
G02*
X128356250Y-59025000I218750J0D01*
G01*
X128793750Y-59025000D01*
G75*
G02*
X129012500Y-59243750I0J-218750D01*
G01*
G37*
%TD*%
%TO.C,C5*%
G36*
G01*
X129472500Y-53225000D02*
X129127500Y-53225000D01*
G75*
G02*
X128980000Y-53077500I0J147500D01*
G01*
X128980000Y-52782500D01*
G75*
G02*
X129127500Y-52635000I147500J0D01*
G01*
X129472500Y-52635000D01*
G75*
G02*
X129620000Y-52782500I0J-147500D01*
G01*
X129620000Y-53077500D01*
G75*
G02*
X129472500Y-53225000I-147500J0D01*
G01*
G37*
G36*
G01*
X129472500Y-54195000D02*
X129127500Y-54195000D01*
G75*
G02*
X128980000Y-54047500I0J147500D01*
G01*
X128980000Y-53752500D01*
G75*
G02*
X129127500Y-53605000I147500J0D01*
G01*
X129472500Y-53605000D01*
G75*
G02*
X129620000Y-53752500I0J-147500D01*
G01*
X129620000Y-54047500D01*
G75*
G02*
X129472500Y-54195000I-147500J0D01*
G01*
G37*
%TD*%
%TO.C,C4*%
G36*
G01*
X129972500Y-55325000D02*
X129627500Y-55325000D01*
G75*
G02*
X129480000Y-55177500I0J147500D01*
G01*
X129480000Y-54882500D01*
G75*
G02*
X129627500Y-54735000I147500J0D01*
G01*
X129972500Y-54735000D01*
G75*
G02*
X130120000Y-54882500I0J-147500D01*
G01*
X130120000Y-55177500D01*
G75*
G02*
X129972500Y-55325000I-147500J0D01*
G01*
G37*
G36*
G01*
X129972500Y-56295000D02*
X129627500Y-56295000D01*
G75*
G02*
X129480000Y-56147500I0J147500D01*
G01*
X129480000Y-55852500D01*
G75*
G02*
X129627500Y-55705000I147500J0D01*
G01*
X129972500Y-55705000D01*
G75*
G02*
X130120000Y-55852500I0J-147500D01*
G01*
X130120000Y-56147500D01*
G75*
G02*
X129972500Y-56295000I-147500J0D01*
G01*
G37*
%TD*%
%TO.C,C1*%
G36*
G01*
X131172500Y-55295000D02*
X130827500Y-55295000D01*
G75*
G02*
X130680000Y-55147500I0J147500D01*
G01*
X130680000Y-54852500D01*
G75*
G02*
X130827500Y-54705000I147500J0D01*
G01*
X131172500Y-54705000D01*
G75*
G02*
X131320000Y-54852500I0J-147500D01*
G01*
X131320000Y-55147500D01*
G75*
G02*
X131172500Y-55295000I-147500J0D01*
G01*
G37*
G36*
G01*
X131172500Y-56265000D02*
X130827500Y-56265000D01*
G75*
G02*
X130680000Y-56117500I0J147500D01*
G01*
X130680000Y-55822500D01*
G75*
G02*
X130827500Y-55675000I147500J0D01*
G01*
X131172500Y-55675000D01*
G75*
G02*
X131320000Y-55822500I0J-147500D01*
G01*
X131320000Y-56117500D01*
G75*
G02*
X131172500Y-56265000I-147500J0D01*
G01*
G37*
%TD*%
M02*
