%TF.GenerationSoftware,KiCad,Pcbnew,(5.1.6)-1*%
%TF.CreationDate,2021-08-29T21:48:12-05:00*%
%TF.ProjectId,MicroBrushedESC,4d696372-6f42-4727-9573-686564455343,rev?*%
%TF.SameCoordinates,Original*%
%TF.FileFunction,Legend,Top*%
%TF.FilePolarity,Positive*%
%FSLAX46Y46*%
G04 Gerber Fmt 4.6, Leading zero omitted, Abs format (unit mm)*
G04 Created by KiCad (PCBNEW (5.1.6)-1) date 2021-08-29 21:48:12*
%MOMM*%
%LPD*%
G01*
G04 APERTURE LIST*
%ADD10C,0.150000*%
%ADD11C,0.250000*%
%ADD12C,0.100000*%
%ADD13C,0.120000*%
G04 APERTURE END LIST*
D10*
X153195238Y-89757142D02*
X153804761Y-89757142D01*
X153500000Y-90061904D02*
X153500000Y-89452380D01*
X125695238Y-89757142D02*
X126304761Y-89757142D01*
X126000000Y-90061904D02*
X126000000Y-89452380D01*
X153195238Y-74257142D02*
X153804761Y-74257142D01*
X153500000Y-74561904D02*
X153500000Y-73952380D01*
X125695238Y-74257142D02*
X126304761Y-74257142D01*
X126000000Y-74561904D02*
X126000000Y-73952380D01*
X153195238Y-58757142D02*
X153804761Y-58757142D01*
X153500000Y-59061904D02*
X153500000Y-58452380D01*
X174995238Y-85257142D02*
X175604761Y-85257142D01*
X175300000Y-85561904D02*
X175300000Y-84952380D01*
X147495238Y-85257142D02*
X148104761Y-85257142D01*
X147800000Y-85561904D02*
X147800000Y-84952380D01*
X174995238Y-69757142D02*
X175604761Y-69757142D01*
X175300000Y-70061904D02*
X175300000Y-69452380D01*
X147495238Y-69757142D02*
X148104761Y-69757142D01*
X147800000Y-70061904D02*
X147800000Y-69452380D01*
X174995238Y-54257142D02*
X175604761Y-54257142D01*
X175300000Y-54561904D02*
X175300000Y-53952380D01*
D11*
X159350000Y-81500000D02*
G75*
G03*
X159350000Y-81500000I-100000J0D01*
G01*
X131850000Y-81500000D02*
G75*
G03*
X131850000Y-81500000I-100000J0D01*
G01*
X159350000Y-66000000D02*
G75*
G03*
X159350000Y-66000000I-100000J0D01*
G01*
X131850000Y-66000000D02*
G75*
G03*
X131850000Y-66000000I-100000J0D01*
G01*
X159350000Y-50500000D02*
G75*
G03*
X159350000Y-50500000I-100000J0D01*
G01*
X157300000Y-82400000D02*
G75*
G03*
X157300000Y-82400000I-100000J0D01*
G01*
X129800000Y-82400000D02*
G75*
G03*
X129800000Y-82400000I-100000J0D01*
G01*
X157300000Y-66900000D02*
G75*
G03*
X157300000Y-66900000I-100000J0D01*
G01*
X129800000Y-66900000D02*
G75*
G03*
X129800000Y-66900000I-100000J0D01*
G01*
X157300000Y-51400000D02*
G75*
G03*
X157300000Y-51400000I-100000J0D01*
G01*
D10*
X161529734Y-86835841D02*
X161900888Y-87050127D01*
X161960833Y-87117728D01*
X161981749Y-87195786D01*
X161963635Y-87284303D01*
X161935064Y-87333790D01*
X162335064Y-86640970D02*
X162192206Y-86888406D01*
X161672591Y-86588406D01*
X162557005Y-86142270D02*
X162567463Y-86181299D01*
X162549349Y-86269816D01*
X162520778Y-86319303D01*
X162453177Y-86379248D01*
X162375119Y-86400164D01*
X162311346Y-86396336D01*
X162198086Y-86363937D01*
X162123855Y-86321080D01*
X162039166Y-86239193D01*
X162003965Y-86185878D01*
X161983049Y-86107820D01*
X162001163Y-86019303D01*
X162029734Y-85969816D01*
X162097335Y-85909871D01*
X162136364Y-85899413D01*
X162301163Y-85499688D02*
X162672316Y-85713974D01*
X162732261Y-85781574D01*
X162753177Y-85859633D01*
X162735064Y-85948149D01*
X162706492Y-85997637D01*
X163106492Y-85304816D02*
X162963635Y-85552252D01*
X162444020Y-85252252D01*
X163328434Y-84806117D02*
X163338891Y-84845146D01*
X163320778Y-84933662D01*
X163292206Y-84983150D01*
X163224606Y-85043095D01*
X163146547Y-85064010D01*
X163082774Y-85060183D01*
X162969514Y-85027783D01*
X162895283Y-84984926D01*
X162810595Y-84903040D01*
X162775393Y-84849725D01*
X162754478Y-84771666D01*
X162772591Y-84683150D01*
X162801163Y-84633662D01*
X162868763Y-84573717D01*
X162907793Y-84563260D01*
X163072591Y-84163534D02*
X163443745Y-84377820D01*
X163503690Y-84445421D01*
X163524606Y-84523479D01*
X163506492Y-84611996D01*
X163477921Y-84661483D01*
X163877921Y-83968663D02*
X163735064Y-84216099D01*
X163215448Y-83916099D01*
X164099862Y-83469963D02*
X164110320Y-83508993D01*
X164092206Y-83597509D01*
X164063635Y-83646996D01*
X163996034Y-83706941D01*
X163917976Y-83727857D01*
X163854203Y-83724029D01*
X163740943Y-83691630D01*
X163666712Y-83648773D01*
X163582023Y-83566886D01*
X163546822Y-83513571D01*
X163525906Y-83435513D01*
X163544020Y-83346996D01*
X163572591Y-83297509D01*
X163640192Y-83237564D01*
X163679221Y-83227106D01*
X163844020Y-82827381D02*
X164215173Y-83041667D01*
X164275119Y-83109267D01*
X164296034Y-83187326D01*
X164277921Y-83275842D01*
X164249349Y-83325330D01*
X164649349Y-82632509D02*
X164506492Y-82879945D01*
X163986877Y-82579945D01*
X164871291Y-82133810D02*
X164881749Y-82172839D01*
X164863635Y-82261355D01*
X164835064Y-82310843D01*
X164767463Y-82370788D01*
X164689404Y-82391703D01*
X164625631Y-82387876D01*
X164512371Y-82355476D01*
X164438141Y-82312619D01*
X164353452Y-82230733D01*
X164318250Y-82177418D01*
X164297335Y-82099359D01*
X164315448Y-82010843D01*
X164344020Y-81961355D01*
X164411620Y-81901410D01*
X164450650Y-81890953D01*
X134029734Y-86835841D02*
X134400888Y-87050127D01*
X134460833Y-87117728D01*
X134481749Y-87195786D01*
X134463635Y-87284303D01*
X134435064Y-87333790D01*
X134835064Y-86640970D02*
X134692206Y-86888406D01*
X134172591Y-86588406D01*
X135057005Y-86142270D02*
X135067463Y-86181299D01*
X135049349Y-86269816D01*
X135020778Y-86319303D01*
X134953177Y-86379248D01*
X134875119Y-86400164D01*
X134811346Y-86396336D01*
X134698086Y-86363937D01*
X134623855Y-86321080D01*
X134539166Y-86239193D01*
X134503965Y-86185878D01*
X134483049Y-86107820D01*
X134501163Y-86019303D01*
X134529734Y-85969816D01*
X134597335Y-85909871D01*
X134636364Y-85899413D01*
X134801163Y-85499688D02*
X135172316Y-85713974D01*
X135232261Y-85781574D01*
X135253177Y-85859633D01*
X135235064Y-85948149D01*
X135206492Y-85997637D01*
X135606492Y-85304816D02*
X135463635Y-85552252D01*
X134944020Y-85252252D01*
X135828434Y-84806117D02*
X135838891Y-84845146D01*
X135820778Y-84933662D01*
X135792206Y-84983150D01*
X135724606Y-85043095D01*
X135646547Y-85064010D01*
X135582774Y-85060183D01*
X135469514Y-85027783D01*
X135395283Y-84984926D01*
X135310595Y-84903040D01*
X135275393Y-84849725D01*
X135254478Y-84771666D01*
X135272591Y-84683150D01*
X135301163Y-84633662D01*
X135368763Y-84573717D01*
X135407793Y-84563260D01*
X135572591Y-84163534D02*
X135943745Y-84377820D01*
X136003690Y-84445421D01*
X136024606Y-84523479D01*
X136006492Y-84611996D01*
X135977921Y-84661483D01*
X136377921Y-83968663D02*
X136235064Y-84216099D01*
X135715448Y-83916099D01*
X136599862Y-83469963D02*
X136610320Y-83508993D01*
X136592206Y-83597509D01*
X136563635Y-83646996D01*
X136496034Y-83706941D01*
X136417976Y-83727857D01*
X136354203Y-83724029D01*
X136240943Y-83691630D01*
X136166712Y-83648773D01*
X136082023Y-83566886D01*
X136046822Y-83513571D01*
X136025906Y-83435513D01*
X136044020Y-83346996D01*
X136072591Y-83297509D01*
X136140192Y-83237564D01*
X136179221Y-83227106D01*
X136344020Y-82827381D02*
X136715173Y-83041667D01*
X136775119Y-83109267D01*
X136796034Y-83187326D01*
X136777921Y-83275842D01*
X136749349Y-83325330D01*
X137149349Y-82632509D02*
X137006492Y-82879945D01*
X136486877Y-82579945D01*
X137371291Y-82133810D02*
X137381749Y-82172839D01*
X137363635Y-82261355D01*
X137335064Y-82310843D01*
X137267463Y-82370788D01*
X137189404Y-82391703D01*
X137125631Y-82387876D01*
X137012371Y-82355476D01*
X136938141Y-82312619D01*
X136853452Y-82230733D01*
X136818250Y-82177418D01*
X136797335Y-82099359D01*
X136815448Y-82010843D01*
X136844020Y-81961355D01*
X136911620Y-81901410D01*
X136950650Y-81890953D01*
X161529734Y-71335841D02*
X161900888Y-71550127D01*
X161960833Y-71617728D01*
X161981749Y-71695786D01*
X161963635Y-71784303D01*
X161935064Y-71833790D01*
X162335064Y-71140970D02*
X162192206Y-71388406D01*
X161672591Y-71088406D01*
X162557005Y-70642270D02*
X162567463Y-70681299D01*
X162549349Y-70769816D01*
X162520778Y-70819303D01*
X162453177Y-70879248D01*
X162375119Y-70900164D01*
X162311346Y-70896336D01*
X162198086Y-70863937D01*
X162123855Y-70821080D01*
X162039166Y-70739193D01*
X162003965Y-70685878D01*
X161983049Y-70607820D01*
X162001163Y-70519303D01*
X162029734Y-70469816D01*
X162097335Y-70409871D01*
X162136364Y-70399413D01*
X162301163Y-69999688D02*
X162672316Y-70213974D01*
X162732261Y-70281574D01*
X162753177Y-70359633D01*
X162735064Y-70448149D01*
X162706492Y-70497637D01*
X163106492Y-69804816D02*
X162963635Y-70052252D01*
X162444020Y-69752252D01*
X163328434Y-69306117D02*
X163338891Y-69345146D01*
X163320778Y-69433662D01*
X163292206Y-69483150D01*
X163224606Y-69543095D01*
X163146547Y-69564010D01*
X163082774Y-69560183D01*
X162969514Y-69527783D01*
X162895283Y-69484926D01*
X162810595Y-69403040D01*
X162775393Y-69349725D01*
X162754478Y-69271666D01*
X162772591Y-69183150D01*
X162801163Y-69133662D01*
X162868763Y-69073717D01*
X162907793Y-69063260D01*
X163072591Y-68663534D02*
X163443745Y-68877820D01*
X163503690Y-68945421D01*
X163524606Y-69023479D01*
X163506492Y-69111996D01*
X163477921Y-69161483D01*
X163877921Y-68468663D02*
X163735064Y-68716099D01*
X163215448Y-68416099D01*
X164099862Y-67969963D02*
X164110320Y-68008993D01*
X164092206Y-68097509D01*
X164063635Y-68146996D01*
X163996034Y-68206941D01*
X163917976Y-68227857D01*
X163854203Y-68224029D01*
X163740943Y-68191630D01*
X163666712Y-68148773D01*
X163582023Y-68066886D01*
X163546822Y-68013571D01*
X163525906Y-67935513D01*
X163544020Y-67846996D01*
X163572591Y-67797509D01*
X163640192Y-67737564D01*
X163679221Y-67727106D01*
X163844020Y-67327381D02*
X164215173Y-67541667D01*
X164275119Y-67609267D01*
X164296034Y-67687326D01*
X164277921Y-67775842D01*
X164249349Y-67825330D01*
X164649349Y-67132509D02*
X164506492Y-67379945D01*
X163986877Y-67079945D01*
X164871291Y-66633810D02*
X164881749Y-66672839D01*
X164863635Y-66761355D01*
X164835064Y-66810843D01*
X164767463Y-66870788D01*
X164689404Y-66891703D01*
X164625631Y-66887876D01*
X164512371Y-66855476D01*
X164438141Y-66812619D01*
X164353452Y-66730733D01*
X164318250Y-66677418D01*
X164297335Y-66599359D01*
X164315448Y-66510843D01*
X164344020Y-66461355D01*
X164411620Y-66401410D01*
X164450650Y-66390953D01*
X134029734Y-71335841D02*
X134400888Y-71550127D01*
X134460833Y-71617728D01*
X134481749Y-71695786D01*
X134463635Y-71784303D01*
X134435064Y-71833790D01*
X134835064Y-71140970D02*
X134692206Y-71388406D01*
X134172591Y-71088406D01*
X135057005Y-70642270D02*
X135067463Y-70681299D01*
X135049349Y-70769816D01*
X135020778Y-70819303D01*
X134953177Y-70879248D01*
X134875119Y-70900164D01*
X134811346Y-70896336D01*
X134698086Y-70863937D01*
X134623855Y-70821080D01*
X134539166Y-70739193D01*
X134503965Y-70685878D01*
X134483049Y-70607820D01*
X134501163Y-70519303D01*
X134529734Y-70469816D01*
X134597335Y-70409871D01*
X134636364Y-70399413D01*
X134801163Y-69999688D02*
X135172316Y-70213974D01*
X135232261Y-70281574D01*
X135253177Y-70359633D01*
X135235064Y-70448149D01*
X135206492Y-70497637D01*
X135606492Y-69804816D02*
X135463635Y-70052252D01*
X134944020Y-69752252D01*
X135828434Y-69306117D02*
X135838891Y-69345146D01*
X135820778Y-69433662D01*
X135792206Y-69483150D01*
X135724606Y-69543095D01*
X135646547Y-69564010D01*
X135582774Y-69560183D01*
X135469514Y-69527783D01*
X135395283Y-69484926D01*
X135310595Y-69403040D01*
X135275393Y-69349725D01*
X135254478Y-69271666D01*
X135272591Y-69183150D01*
X135301163Y-69133662D01*
X135368763Y-69073717D01*
X135407793Y-69063260D01*
X135572591Y-68663534D02*
X135943745Y-68877820D01*
X136003690Y-68945421D01*
X136024606Y-69023479D01*
X136006492Y-69111996D01*
X135977921Y-69161483D01*
X136377921Y-68468663D02*
X136235064Y-68716099D01*
X135715448Y-68416099D01*
X136599862Y-67969963D02*
X136610320Y-68008993D01*
X136592206Y-68097509D01*
X136563635Y-68146996D01*
X136496034Y-68206941D01*
X136417976Y-68227857D01*
X136354203Y-68224029D01*
X136240943Y-68191630D01*
X136166712Y-68148773D01*
X136082023Y-68066886D01*
X136046822Y-68013571D01*
X136025906Y-67935513D01*
X136044020Y-67846996D01*
X136072591Y-67797509D01*
X136140192Y-67737564D01*
X136179221Y-67727106D01*
X136344020Y-67327381D02*
X136715173Y-67541667D01*
X136775119Y-67609267D01*
X136796034Y-67687326D01*
X136777921Y-67775842D01*
X136749349Y-67825330D01*
X137149349Y-67132509D02*
X137006492Y-67379945D01*
X136486877Y-67079945D01*
X137371291Y-66633810D02*
X137381749Y-66672839D01*
X137363635Y-66761355D01*
X137335064Y-66810843D01*
X137267463Y-66870788D01*
X137189404Y-66891703D01*
X137125631Y-66887876D01*
X137012371Y-66855476D01*
X136938141Y-66812619D01*
X136853452Y-66730733D01*
X136818250Y-66677418D01*
X136797335Y-66599359D01*
X136815448Y-66510843D01*
X136844020Y-66461355D01*
X136911620Y-66401410D01*
X136950650Y-66390953D01*
X161529734Y-55835841D02*
X161900888Y-56050127D01*
X161960833Y-56117728D01*
X161981749Y-56195786D01*
X161963635Y-56284303D01*
X161935064Y-56333790D01*
X162335064Y-55640970D02*
X162192206Y-55888406D01*
X161672591Y-55588406D01*
X162557005Y-55142270D02*
X162567463Y-55181299D01*
X162549349Y-55269816D01*
X162520778Y-55319303D01*
X162453177Y-55379248D01*
X162375119Y-55400164D01*
X162311346Y-55396336D01*
X162198086Y-55363937D01*
X162123855Y-55321080D01*
X162039166Y-55239193D01*
X162003965Y-55185878D01*
X161983049Y-55107820D01*
X162001163Y-55019303D01*
X162029734Y-54969816D01*
X162097335Y-54909871D01*
X162136364Y-54899413D01*
X162301163Y-54499688D02*
X162672316Y-54713974D01*
X162732261Y-54781574D01*
X162753177Y-54859633D01*
X162735064Y-54948149D01*
X162706492Y-54997637D01*
X163106492Y-54304816D02*
X162963635Y-54552252D01*
X162444020Y-54252252D01*
X163328434Y-53806117D02*
X163338891Y-53845146D01*
X163320778Y-53933662D01*
X163292206Y-53983150D01*
X163224606Y-54043095D01*
X163146547Y-54064010D01*
X163082774Y-54060183D01*
X162969514Y-54027783D01*
X162895283Y-53984926D01*
X162810595Y-53903040D01*
X162775393Y-53849725D01*
X162754478Y-53771666D01*
X162772591Y-53683150D01*
X162801163Y-53633662D01*
X162868763Y-53573717D01*
X162907793Y-53563260D01*
X163072591Y-53163534D02*
X163443745Y-53377820D01*
X163503690Y-53445421D01*
X163524606Y-53523479D01*
X163506492Y-53611996D01*
X163477921Y-53661483D01*
X163877921Y-52968663D02*
X163735064Y-53216099D01*
X163215448Y-52916099D01*
X164099862Y-52469963D02*
X164110320Y-52508993D01*
X164092206Y-52597509D01*
X164063635Y-52646996D01*
X163996034Y-52706941D01*
X163917976Y-52727857D01*
X163854203Y-52724029D01*
X163740943Y-52691630D01*
X163666712Y-52648773D01*
X163582023Y-52566886D01*
X163546822Y-52513571D01*
X163525906Y-52435513D01*
X163544020Y-52346996D01*
X163572591Y-52297509D01*
X163640192Y-52237564D01*
X163679221Y-52227106D01*
X163844020Y-51827381D02*
X164215173Y-52041667D01*
X164275119Y-52109267D01*
X164296034Y-52187326D01*
X164277921Y-52275842D01*
X164249349Y-52325330D01*
X164649349Y-51632509D02*
X164506492Y-51879945D01*
X163986877Y-51579945D01*
X164871291Y-51133810D02*
X164881749Y-51172839D01*
X164863635Y-51261355D01*
X164835064Y-51310843D01*
X164767463Y-51370788D01*
X164689404Y-51391703D01*
X164625631Y-51387876D01*
X164512371Y-51355476D01*
X164438141Y-51312619D01*
X164353452Y-51230733D01*
X164318250Y-51177418D01*
X164297335Y-51099359D01*
X164315448Y-51010843D01*
X164344020Y-50961355D01*
X164411620Y-50901410D01*
X164450650Y-50890953D01*
X147495238Y-54257142D02*
X148104761Y-54257142D01*
X147800000Y-54561904D02*
X147800000Y-53952380D01*
X125695238Y-58757142D02*
X126304761Y-58757142D01*
X126000000Y-59061904D02*
X126000000Y-58452380D01*
X134029734Y-55835841D02*
X134400888Y-56050127D01*
X134460833Y-56117728D01*
X134481749Y-56195786D01*
X134463635Y-56284303D01*
X134435064Y-56333790D01*
X134835064Y-55640970D02*
X134692206Y-55888406D01*
X134172591Y-55588406D01*
X135057005Y-55142270D02*
X135067463Y-55181299D01*
X135049349Y-55269816D01*
X135020778Y-55319303D01*
X134953177Y-55379248D01*
X134875119Y-55400164D01*
X134811346Y-55396336D01*
X134698086Y-55363937D01*
X134623855Y-55321080D01*
X134539166Y-55239193D01*
X134503965Y-55185878D01*
X134483049Y-55107820D01*
X134501163Y-55019303D01*
X134529734Y-54969816D01*
X134597335Y-54909871D01*
X134636364Y-54899413D01*
X134801163Y-54499688D02*
X135172316Y-54713974D01*
X135232261Y-54781574D01*
X135253177Y-54859633D01*
X135235064Y-54948149D01*
X135206492Y-54997637D01*
X135606492Y-54304816D02*
X135463635Y-54552252D01*
X134944020Y-54252252D01*
X135828434Y-53806117D02*
X135838891Y-53845146D01*
X135820778Y-53933662D01*
X135792206Y-53983150D01*
X135724606Y-54043095D01*
X135646547Y-54064010D01*
X135582774Y-54060183D01*
X135469514Y-54027783D01*
X135395283Y-53984926D01*
X135310595Y-53903040D01*
X135275393Y-53849725D01*
X135254478Y-53771666D01*
X135272591Y-53683150D01*
X135301163Y-53633662D01*
X135368763Y-53573717D01*
X135407793Y-53563260D01*
X135572591Y-53163534D02*
X135943745Y-53377820D01*
X136003690Y-53445421D01*
X136024606Y-53523479D01*
X136006492Y-53611996D01*
X135977921Y-53661483D01*
X136377921Y-52968663D02*
X136235064Y-53216099D01*
X135715448Y-52916099D01*
X136599862Y-52469963D02*
X136610320Y-52508993D01*
X136592206Y-52597509D01*
X136563635Y-52646996D01*
X136496034Y-52706941D01*
X136417976Y-52727857D01*
X136354203Y-52724029D01*
X136240943Y-52691630D01*
X136166712Y-52648773D01*
X136082023Y-52566886D01*
X136046822Y-52513571D01*
X136025906Y-52435513D01*
X136044020Y-52346996D01*
X136072591Y-52297509D01*
X136140192Y-52237564D01*
X136179221Y-52227106D01*
X136344020Y-51827381D02*
X136715173Y-52041667D01*
X136775119Y-52109267D01*
X136796034Y-52187326D01*
X136777921Y-52275842D01*
X136749349Y-52325330D01*
X137149349Y-51632509D02*
X137006492Y-51879945D01*
X136486877Y-51579945D01*
X137371291Y-51133810D02*
X137381749Y-51172839D01*
X137363635Y-51261355D01*
X137335064Y-51310843D01*
X137267463Y-51370788D01*
X137189404Y-51391703D01*
X137125631Y-51387876D01*
X137012371Y-51355476D01*
X136938141Y-51312619D01*
X136853452Y-51230733D01*
X136818250Y-51177418D01*
X136797335Y-51099359D01*
X136815448Y-51010843D01*
X136844020Y-50961355D01*
X136911620Y-50901410D01*
X136950650Y-50890953D01*
D11*
X129800000Y-51400000D02*
G75*
G03*
X129800000Y-51400000I-100000J0D01*
G01*
X131850000Y-50500000D02*
G75*
G03*
X131850000Y-50500000I-100000J0D01*
G01*
D12*
%TO.C,U2*%
X157660000Y-82300000D02*
X157960000Y-82000000D01*
X157960000Y-82000000D02*
X158260000Y-82000000D01*
X158160000Y-79000000D02*
X157760000Y-79000000D01*
X158160000Y-79000000D02*
X158160000Y-79400000D01*
X154760000Y-79400000D02*
X154760000Y-79000000D01*
X154760000Y-79000000D02*
X155160000Y-79000000D01*
X154760000Y-82000000D02*
X154760000Y-82400000D01*
X154760000Y-82400000D02*
X155160000Y-82400000D01*
X130160000Y-82300000D02*
X130460000Y-82000000D01*
X130460000Y-82000000D02*
X130760000Y-82000000D01*
X130660000Y-79000000D02*
X130260000Y-79000000D01*
X130660000Y-79000000D02*
X130660000Y-79400000D01*
X127260000Y-79400000D02*
X127260000Y-79000000D01*
X127260000Y-79000000D02*
X127660000Y-79000000D01*
X127260000Y-82000000D02*
X127260000Y-82400000D01*
X127260000Y-82400000D02*
X127660000Y-82400000D01*
X157660000Y-66800000D02*
X157960000Y-66500000D01*
X157960000Y-66500000D02*
X158260000Y-66500000D01*
X158160000Y-63500000D02*
X157760000Y-63500000D01*
X158160000Y-63500000D02*
X158160000Y-63900000D01*
X154760000Y-63900000D02*
X154760000Y-63500000D01*
X154760000Y-63500000D02*
X155160000Y-63500000D01*
X154760000Y-66500000D02*
X154760000Y-66900000D01*
X154760000Y-66900000D02*
X155160000Y-66900000D01*
X130160000Y-66800000D02*
X130460000Y-66500000D01*
X130460000Y-66500000D02*
X130760000Y-66500000D01*
X130660000Y-63500000D02*
X130260000Y-63500000D01*
X130660000Y-63500000D02*
X130660000Y-63900000D01*
X127260000Y-63900000D02*
X127260000Y-63500000D01*
X127260000Y-63500000D02*
X127660000Y-63500000D01*
X127260000Y-66500000D02*
X127260000Y-66900000D01*
X127260000Y-66900000D02*
X127660000Y-66900000D01*
X157660000Y-51300000D02*
X157960000Y-51000000D01*
X157960000Y-51000000D02*
X158260000Y-51000000D01*
X158160000Y-48000000D02*
X157760000Y-48000000D01*
X158160000Y-48000000D02*
X158160000Y-48400000D01*
X154760000Y-48400000D02*
X154760000Y-48000000D01*
X154760000Y-48000000D02*
X155160000Y-48000000D01*
X154760000Y-51000000D02*
X154760000Y-51400000D01*
X154760000Y-51400000D02*
X155160000Y-51400000D01*
D13*
%TO.C,C9*%
X159740000Y-80375279D02*
X159740000Y-80049721D01*
X160760000Y-80375279D02*
X160760000Y-80049721D01*
X132240000Y-80375279D02*
X132240000Y-80049721D01*
X133260000Y-80375279D02*
X133260000Y-80049721D01*
X159740000Y-64875279D02*
X159740000Y-64549721D01*
X160760000Y-64875279D02*
X160760000Y-64549721D01*
X132240000Y-64875279D02*
X132240000Y-64549721D01*
X133260000Y-64875279D02*
X133260000Y-64549721D01*
X159740000Y-49375279D02*
X159740000Y-49049721D01*
X160760000Y-49375279D02*
X160760000Y-49049721D01*
%TO.C,C6*%
X160990000Y-80375279D02*
X160990000Y-80049721D01*
X162010000Y-80375279D02*
X162010000Y-80049721D01*
X133490000Y-80375279D02*
X133490000Y-80049721D01*
X134510000Y-80375279D02*
X134510000Y-80049721D01*
X160990000Y-64875279D02*
X160990000Y-64549721D01*
X162010000Y-64875279D02*
X162010000Y-64549721D01*
X133490000Y-64875279D02*
X133490000Y-64549721D01*
X134510000Y-64875279D02*
X134510000Y-64549721D01*
X160990000Y-49375279D02*
X160990000Y-49049721D01*
X162010000Y-49375279D02*
X162010000Y-49049721D01*
%TO.C,C2*%
X152190000Y-80475279D02*
X152190000Y-80149721D01*
X153210000Y-80475279D02*
X153210000Y-80149721D01*
X124690000Y-80475279D02*
X124690000Y-80149721D01*
X125710000Y-80475279D02*
X125710000Y-80149721D01*
X152190000Y-64975279D02*
X152190000Y-64649721D01*
X153210000Y-64975279D02*
X153210000Y-64649721D01*
X124690000Y-64975279D02*
X124690000Y-64649721D01*
X125710000Y-64975279D02*
X125710000Y-64649721D01*
X152190000Y-49475279D02*
X152190000Y-49149721D01*
X153210000Y-49475279D02*
X153210000Y-49149721D01*
%TO.C,D2*%
X175100000Y-87250000D02*
X175100000Y-85250000D01*
X175100000Y-85250000D02*
X171200000Y-85250000D01*
X175100000Y-87250000D02*
X171200000Y-87250000D01*
X147600000Y-87250000D02*
X147600000Y-85250000D01*
X147600000Y-85250000D02*
X143700000Y-85250000D01*
X147600000Y-87250000D02*
X143700000Y-87250000D01*
X175100000Y-71750000D02*
X175100000Y-69750000D01*
X175100000Y-69750000D02*
X171200000Y-69750000D01*
X175100000Y-71750000D02*
X171200000Y-71750000D01*
X147600000Y-71750000D02*
X147600000Y-69750000D01*
X147600000Y-69750000D02*
X143700000Y-69750000D01*
X147600000Y-71750000D02*
X143700000Y-71750000D01*
X175100000Y-56250000D02*
X175100000Y-54250000D01*
X175100000Y-54250000D02*
X171200000Y-54250000D01*
X175100000Y-56250000D02*
X171200000Y-56250000D01*
%TO.C,D1*%
X154487500Y-91235000D02*
X156772500Y-91235000D01*
X156772500Y-91235000D02*
X156772500Y-89765000D01*
X156772500Y-89765000D02*
X154487500Y-89765000D01*
X126987500Y-91235000D02*
X129272500Y-91235000D01*
X129272500Y-91235000D02*
X129272500Y-89765000D01*
X129272500Y-89765000D02*
X126987500Y-89765000D01*
X154487500Y-75735000D02*
X156772500Y-75735000D01*
X156772500Y-75735000D02*
X156772500Y-74265000D01*
X156772500Y-74265000D02*
X154487500Y-74265000D01*
X126987500Y-75735000D02*
X129272500Y-75735000D01*
X129272500Y-75735000D02*
X129272500Y-74265000D01*
X129272500Y-74265000D02*
X126987500Y-74265000D01*
X154487500Y-60235000D02*
X156772500Y-60235000D01*
X156772500Y-60235000D02*
X156772500Y-58765000D01*
X156772500Y-58765000D02*
X154487500Y-58765000D01*
%TO.C,D3*%
X175100000Y-85250000D02*
X175100000Y-83250000D01*
X175100000Y-83250000D02*
X171200000Y-83250000D01*
X175100000Y-85250000D02*
X171200000Y-85250000D01*
X147600000Y-85250000D02*
X147600000Y-83250000D01*
X147600000Y-83250000D02*
X143700000Y-83250000D01*
X147600000Y-85250000D02*
X143700000Y-85250000D01*
X175100000Y-69750000D02*
X175100000Y-67750000D01*
X175100000Y-67750000D02*
X171200000Y-67750000D01*
X175100000Y-69750000D02*
X171200000Y-69750000D01*
X147600000Y-69750000D02*
X147600000Y-67750000D01*
X147600000Y-67750000D02*
X143700000Y-67750000D01*
X147600000Y-69750000D02*
X143700000Y-69750000D01*
X175100000Y-54250000D02*
X175100000Y-52250000D01*
X175100000Y-52250000D02*
X171200000Y-52250000D01*
X175100000Y-54250000D02*
X171200000Y-54250000D01*
%TO.C,J1*%
X171840000Y-92360000D02*
X175260000Y-92360000D01*
X175260000Y-92360000D02*
X175260000Y-87890000D01*
X175260000Y-87890000D02*
X171840000Y-87890000D01*
X171840000Y-87890000D02*
X171840000Y-92360000D01*
X174750000Y-90125000D02*
X174750000Y-91850000D01*
X174750000Y-91850000D02*
X174000000Y-91850000D01*
X174000000Y-91850000D02*
X174000000Y-92050000D01*
X174000000Y-92050000D02*
X173200000Y-92050000D01*
X173200000Y-92050000D02*
X173200000Y-91850000D01*
X173200000Y-91850000D02*
X172350000Y-91850000D01*
X172350000Y-91850000D02*
X172350000Y-90125000D01*
X174750000Y-90125000D02*
X174750000Y-88400000D01*
X174750000Y-88400000D02*
X174000000Y-88400000D01*
X174000000Y-88400000D02*
X174000000Y-88200000D01*
X174000000Y-88200000D02*
X173200000Y-88200000D01*
X173200000Y-88200000D02*
X173200000Y-88400000D01*
X173200000Y-88400000D02*
X172350000Y-88400000D01*
X172350000Y-88400000D02*
X172350000Y-90125000D01*
X175550000Y-92650000D02*
X174550000Y-92650000D01*
X175550000Y-92650000D02*
X175550000Y-91650000D01*
X144340000Y-92360000D02*
X147760000Y-92360000D01*
X147760000Y-92360000D02*
X147760000Y-87890000D01*
X147760000Y-87890000D02*
X144340000Y-87890000D01*
X144340000Y-87890000D02*
X144340000Y-92360000D01*
X147250000Y-90125000D02*
X147250000Y-91850000D01*
X147250000Y-91850000D02*
X146500000Y-91850000D01*
X146500000Y-91850000D02*
X146500000Y-92050000D01*
X146500000Y-92050000D02*
X145700000Y-92050000D01*
X145700000Y-92050000D02*
X145700000Y-91850000D01*
X145700000Y-91850000D02*
X144850000Y-91850000D01*
X144850000Y-91850000D02*
X144850000Y-90125000D01*
X147250000Y-90125000D02*
X147250000Y-88400000D01*
X147250000Y-88400000D02*
X146500000Y-88400000D01*
X146500000Y-88400000D02*
X146500000Y-88200000D01*
X146500000Y-88200000D02*
X145700000Y-88200000D01*
X145700000Y-88200000D02*
X145700000Y-88400000D01*
X145700000Y-88400000D02*
X144850000Y-88400000D01*
X144850000Y-88400000D02*
X144850000Y-90125000D01*
X148050000Y-92650000D02*
X147050000Y-92650000D01*
X148050000Y-92650000D02*
X148050000Y-91650000D01*
X171840000Y-76860000D02*
X175260000Y-76860000D01*
X175260000Y-76860000D02*
X175260000Y-72390000D01*
X175260000Y-72390000D02*
X171840000Y-72390000D01*
X171840000Y-72390000D02*
X171840000Y-76860000D01*
X174750000Y-74625000D02*
X174750000Y-76350000D01*
X174750000Y-76350000D02*
X174000000Y-76350000D01*
X174000000Y-76350000D02*
X174000000Y-76550000D01*
X174000000Y-76550000D02*
X173200000Y-76550000D01*
X173200000Y-76550000D02*
X173200000Y-76350000D01*
X173200000Y-76350000D02*
X172350000Y-76350000D01*
X172350000Y-76350000D02*
X172350000Y-74625000D01*
X174750000Y-74625000D02*
X174750000Y-72900000D01*
X174750000Y-72900000D02*
X174000000Y-72900000D01*
X174000000Y-72900000D02*
X174000000Y-72700000D01*
X174000000Y-72700000D02*
X173200000Y-72700000D01*
X173200000Y-72700000D02*
X173200000Y-72900000D01*
X173200000Y-72900000D02*
X172350000Y-72900000D01*
X172350000Y-72900000D02*
X172350000Y-74625000D01*
X175550000Y-77150000D02*
X174550000Y-77150000D01*
X175550000Y-77150000D02*
X175550000Y-76150000D01*
X144340000Y-76860000D02*
X147760000Y-76860000D01*
X147760000Y-76860000D02*
X147760000Y-72390000D01*
X147760000Y-72390000D02*
X144340000Y-72390000D01*
X144340000Y-72390000D02*
X144340000Y-76860000D01*
X147250000Y-74625000D02*
X147250000Y-76350000D01*
X147250000Y-76350000D02*
X146500000Y-76350000D01*
X146500000Y-76350000D02*
X146500000Y-76550000D01*
X146500000Y-76550000D02*
X145700000Y-76550000D01*
X145700000Y-76550000D02*
X145700000Y-76350000D01*
X145700000Y-76350000D02*
X144850000Y-76350000D01*
X144850000Y-76350000D02*
X144850000Y-74625000D01*
X147250000Y-74625000D02*
X147250000Y-72900000D01*
X147250000Y-72900000D02*
X146500000Y-72900000D01*
X146500000Y-72900000D02*
X146500000Y-72700000D01*
X146500000Y-72700000D02*
X145700000Y-72700000D01*
X145700000Y-72700000D02*
X145700000Y-72900000D01*
X145700000Y-72900000D02*
X144850000Y-72900000D01*
X144850000Y-72900000D02*
X144850000Y-74625000D01*
X148050000Y-77150000D02*
X147050000Y-77150000D01*
X148050000Y-77150000D02*
X148050000Y-76150000D01*
X171840000Y-61360000D02*
X175260000Y-61360000D01*
X175260000Y-61360000D02*
X175260000Y-56890000D01*
X175260000Y-56890000D02*
X171840000Y-56890000D01*
X171840000Y-56890000D02*
X171840000Y-61360000D01*
X174750000Y-59125000D02*
X174750000Y-60850000D01*
X174750000Y-60850000D02*
X174000000Y-60850000D01*
X174000000Y-60850000D02*
X174000000Y-61050000D01*
X174000000Y-61050000D02*
X173200000Y-61050000D01*
X173200000Y-61050000D02*
X173200000Y-60850000D01*
X173200000Y-60850000D02*
X172350000Y-60850000D01*
X172350000Y-60850000D02*
X172350000Y-59125000D01*
X174750000Y-59125000D02*
X174750000Y-57400000D01*
X174750000Y-57400000D02*
X174000000Y-57400000D01*
X174000000Y-57400000D02*
X174000000Y-57200000D01*
X174000000Y-57200000D02*
X173200000Y-57200000D01*
X173200000Y-57200000D02*
X173200000Y-57400000D01*
X173200000Y-57400000D02*
X172350000Y-57400000D01*
X172350000Y-57400000D02*
X172350000Y-59125000D01*
X175550000Y-61650000D02*
X174550000Y-61650000D01*
X175550000Y-61650000D02*
X175550000Y-60650000D01*
%TO.C,J2*%
X171840000Y-82860000D02*
X175260000Y-82860000D01*
X175260000Y-82860000D02*
X175260000Y-78390000D01*
X175260000Y-78390000D02*
X171840000Y-78390000D01*
X171840000Y-78390000D02*
X171840000Y-82860000D01*
X174750000Y-80625000D02*
X174750000Y-82350000D01*
X174750000Y-82350000D02*
X174000000Y-82350000D01*
X174000000Y-82350000D02*
X174000000Y-82550000D01*
X174000000Y-82550000D02*
X173200000Y-82550000D01*
X173200000Y-82550000D02*
X173200000Y-82350000D01*
X173200000Y-82350000D02*
X172350000Y-82350000D01*
X172350000Y-82350000D02*
X172350000Y-80625000D01*
X174750000Y-80625000D02*
X174750000Y-78900000D01*
X174750000Y-78900000D02*
X174000000Y-78900000D01*
X174000000Y-78900000D02*
X174000000Y-78700000D01*
X174000000Y-78700000D02*
X173200000Y-78700000D01*
X173200000Y-78700000D02*
X173200000Y-78900000D01*
X173200000Y-78900000D02*
X172350000Y-78900000D01*
X172350000Y-78900000D02*
X172350000Y-80625000D01*
X175550000Y-83150000D02*
X174550000Y-83150000D01*
X175550000Y-83150000D02*
X175550000Y-82150000D01*
X144340000Y-82860000D02*
X147760000Y-82860000D01*
X147760000Y-82860000D02*
X147760000Y-78390000D01*
X147760000Y-78390000D02*
X144340000Y-78390000D01*
X144340000Y-78390000D02*
X144340000Y-82860000D01*
X147250000Y-80625000D02*
X147250000Y-82350000D01*
X147250000Y-82350000D02*
X146500000Y-82350000D01*
X146500000Y-82350000D02*
X146500000Y-82550000D01*
X146500000Y-82550000D02*
X145700000Y-82550000D01*
X145700000Y-82550000D02*
X145700000Y-82350000D01*
X145700000Y-82350000D02*
X144850000Y-82350000D01*
X144850000Y-82350000D02*
X144850000Y-80625000D01*
X147250000Y-80625000D02*
X147250000Y-78900000D01*
X147250000Y-78900000D02*
X146500000Y-78900000D01*
X146500000Y-78900000D02*
X146500000Y-78700000D01*
X146500000Y-78700000D02*
X145700000Y-78700000D01*
X145700000Y-78700000D02*
X145700000Y-78900000D01*
X145700000Y-78900000D02*
X144850000Y-78900000D01*
X144850000Y-78900000D02*
X144850000Y-80625000D01*
X148050000Y-83150000D02*
X147050000Y-83150000D01*
X148050000Y-83150000D02*
X148050000Y-82150000D01*
X171840000Y-67360000D02*
X175260000Y-67360000D01*
X175260000Y-67360000D02*
X175260000Y-62890000D01*
X175260000Y-62890000D02*
X171840000Y-62890000D01*
X171840000Y-62890000D02*
X171840000Y-67360000D01*
X174750000Y-65125000D02*
X174750000Y-66850000D01*
X174750000Y-66850000D02*
X174000000Y-66850000D01*
X174000000Y-66850000D02*
X174000000Y-67050000D01*
X174000000Y-67050000D02*
X173200000Y-67050000D01*
X173200000Y-67050000D02*
X173200000Y-66850000D01*
X173200000Y-66850000D02*
X172350000Y-66850000D01*
X172350000Y-66850000D02*
X172350000Y-65125000D01*
X174750000Y-65125000D02*
X174750000Y-63400000D01*
X174750000Y-63400000D02*
X174000000Y-63400000D01*
X174000000Y-63400000D02*
X174000000Y-63200000D01*
X174000000Y-63200000D02*
X173200000Y-63200000D01*
X173200000Y-63200000D02*
X173200000Y-63400000D01*
X173200000Y-63400000D02*
X172350000Y-63400000D01*
X172350000Y-63400000D02*
X172350000Y-65125000D01*
X175550000Y-67650000D02*
X174550000Y-67650000D01*
X175550000Y-67650000D02*
X175550000Y-66650000D01*
X144340000Y-67360000D02*
X147760000Y-67360000D01*
X147760000Y-67360000D02*
X147760000Y-62890000D01*
X147760000Y-62890000D02*
X144340000Y-62890000D01*
X144340000Y-62890000D02*
X144340000Y-67360000D01*
X147250000Y-65125000D02*
X147250000Y-66850000D01*
X147250000Y-66850000D02*
X146500000Y-66850000D01*
X146500000Y-66850000D02*
X146500000Y-67050000D01*
X146500000Y-67050000D02*
X145700000Y-67050000D01*
X145700000Y-67050000D02*
X145700000Y-66850000D01*
X145700000Y-66850000D02*
X144850000Y-66850000D01*
X144850000Y-66850000D02*
X144850000Y-65125000D01*
X147250000Y-65125000D02*
X147250000Y-63400000D01*
X147250000Y-63400000D02*
X146500000Y-63400000D01*
X146500000Y-63400000D02*
X146500000Y-63200000D01*
X146500000Y-63200000D02*
X145700000Y-63200000D01*
X145700000Y-63200000D02*
X145700000Y-63400000D01*
X145700000Y-63400000D02*
X144850000Y-63400000D01*
X144850000Y-63400000D02*
X144850000Y-65125000D01*
X148050000Y-67650000D02*
X147050000Y-67650000D01*
X148050000Y-67650000D02*
X148050000Y-66650000D01*
X171840000Y-51860000D02*
X175260000Y-51860000D01*
X175260000Y-51860000D02*
X175260000Y-47390000D01*
X175260000Y-47390000D02*
X171840000Y-47390000D01*
X171840000Y-47390000D02*
X171840000Y-51860000D01*
X174750000Y-49625000D02*
X174750000Y-51350000D01*
X174750000Y-51350000D02*
X174000000Y-51350000D01*
X174000000Y-51350000D02*
X174000000Y-51550000D01*
X174000000Y-51550000D02*
X173200000Y-51550000D01*
X173200000Y-51550000D02*
X173200000Y-51350000D01*
X173200000Y-51350000D02*
X172350000Y-51350000D01*
X172350000Y-51350000D02*
X172350000Y-49625000D01*
X174750000Y-49625000D02*
X174750000Y-47900000D01*
X174750000Y-47900000D02*
X174000000Y-47900000D01*
X174000000Y-47900000D02*
X174000000Y-47700000D01*
X174000000Y-47700000D02*
X173200000Y-47700000D01*
X173200000Y-47700000D02*
X173200000Y-47900000D01*
X173200000Y-47900000D02*
X172350000Y-47900000D01*
X172350000Y-47900000D02*
X172350000Y-49625000D01*
X175550000Y-52150000D02*
X174550000Y-52150000D01*
X175550000Y-52150000D02*
X175550000Y-51150000D01*
%TO.C,J4*%
X149890000Y-91760000D02*
X152110000Y-91760000D01*
X149890000Y-91760000D02*
X149890000Y-91695000D01*
X152110000Y-91760000D02*
X152110000Y-91695000D01*
X149890000Y-91760000D02*
X150436529Y-91760000D01*
X151563471Y-91760000D02*
X152110000Y-91760000D01*
X149890000Y-91000000D02*
X149890000Y-90240000D01*
X149890000Y-90240000D02*
X151000000Y-90240000D01*
X122390000Y-91760000D02*
X124610000Y-91760000D01*
X122390000Y-91760000D02*
X122390000Y-91695000D01*
X124610000Y-91760000D02*
X124610000Y-91695000D01*
X122390000Y-91760000D02*
X122936529Y-91760000D01*
X124063471Y-91760000D02*
X124610000Y-91760000D01*
X122390000Y-91000000D02*
X122390000Y-90240000D01*
X122390000Y-90240000D02*
X123500000Y-90240000D01*
X149890000Y-76260000D02*
X152110000Y-76260000D01*
X149890000Y-76260000D02*
X149890000Y-76195000D01*
X152110000Y-76260000D02*
X152110000Y-76195000D01*
X149890000Y-76260000D02*
X150436529Y-76260000D01*
X151563471Y-76260000D02*
X152110000Y-76260000D01*
X149890000Y-75500000D02*
X149890000Y-74740000D01*
X149890000Y-74740000D02*
X151000000Y-74740000D01*
X122390000Y-76260000D02*
X124610000Y-76260000D01*
X122390000Y-76260000D02*
X122390000Y-76195000D01*
X124610000Y-76260000D02*
X124610000Y-76195000D01*
X122390000Y-76260000D02*
X122936529Y-76260000D01*
X124063471Y-76260000D02*
X124610000Y-76260000D01*
X122390000Y-75500000D02*
X122390000Y-74740000D01*
X122390000Y-74740000D02*
X123500000Y-74740000D01*
X149890000Y-60760000D02*
X152110000Y-60760000D01*
X149890000Y-60760000D02*
X149890000Y-60695000D01*
X152110000Y-60760000D02*
X152110000Y-60695000D01*
X149890000Y-60760000D02*
X150436529Y-60760000D01*
X151563471Y-60760000D02*
X152110000Y-60760000D01*
X149890000Y-60000000D02*
X149890000Y-59240000D01*
X149890000Y-59240000D02*
X151000000Y-59240000D01*
%TO.C,J5*%
X157890000Y-88840000D02*
X157890000Y-92260000D01*
X157890000Y-92260000D02*
X164860000Y-92260000D01*
X164860000Y-92260000D02*
X164860000Y-88840000D01*
X164860000Y-88840000D02*
X157890000Y-88840000D01*
X161375000Y-91750000D02*
X158400000Y-91750000D01*
X158400000Y-91750000D02*
X158400000Y-91000000D01*
X158400000Y-91000000D02*
X158200000Y-91000000D01*
X158200000Y-91000000D02*
X158200000Y-90200000D01*
X158200000Y-90200000D02*
X158400000Y-90200000D01*
X158400000Y-90200000D02*
X158400000Y-89350000D01*
X158400000Y-89350000D02*
X161375000Y-89350000D01*
X161375000Y-91750000D02*
X164350000Y-91750000D01*
X164350000Y-91750000D02*
X164350000Y-91000000D01*
X164350000Y-91000000D02*
X164550000Y-91000000D01*
X164550000Y-91000000D02*
X164550000Y-90200000D01*
X164550000Y-90200000D02*
X164350000Y-90200000D01*
X164350000Y-90200000D02*
X164350000Y-89350000D01*
X164350000Y-89350000D02*
X161375000Y-89350000D01*
X157600000Y-92550000D02*
X157600000Y-91550000D01*
X157600000Y-92550000D02*
X158600000Y-92550000D01*
X130390000Y-88840000D02*
X130390000Y-92260000D01*
X130390000Y-92260000D02*
X137360000Y-92260000D01*
X137360000Y-92260000D02*
X137360000Y-88840000D01*
X137360000Y-88840000D02*
X130390000Y-88840000D01*
X133875000Y-91750000D02*
X130900000Y-91750000D01*
X130900000Y-91750000D02*
X130900000Y-91000000D01*
X130900000Y-91000000D02*
X130700000Y-91000000D01*
X130700000Y-91000000D02*
X130700000Y-90200000D01*
X130700000Y-90200000D02*
X130900000Y-90200000D01*
X130900000Y-90200000D02*
X130900000Y-89350000D01*
X130900000Y-89350000D02*
X133875000Y-89350000D01*
X133875000Y-91750000D02*
X136850000Y-91750000D01*
X136850000Y-91750000D02*
X136850000Y-91000000D01*
X136850000Y-91000000D02*
X137050000Y-91000000D01*
X137050000Y-91000000D02*
X137050000Y-90200000D01*
X137050000Y-90200000D02*
X136850000Y-90200000D01*
X136850000Y-90200000D02*
X136850000Y-89350000D01*
X136850000Y-89350000D02*
X133875000Y-89350000D01*
X130100000Y-92550000D02*
X130100000Y-91550000D01*
X130100000Y-92550000D02*
X131100000Y-92550000D01*
X157890000Y-73340000D02*
X157890000Y-76760000D01*
X157890000Y-76760000D02*
X164860000Y-76760000D01*
X164860000Y-76760000D02*
X164860000Y-73340000D01*
X164860000Y-73340000D02*
X157890000Y-73340000D01*
X161375000Y-76250000D02*
X158400000Y-76250000D01*
X158400000Y-76250000D02*
X158400000Y-75500000D01*
X158400000Y-75500000D02*
X158200000Y-75500000D01*
X158200000Y-75500000D02*
X158200000Y-74700000D01*
X158200000Y-74700000D02*
X158400000Y-74700000D01*
X158400000Y-74700000D02*
X158400000Y-73850000D01*
X158400000Y-73850000D02*
X161375000Y-73850000D01*
X161375000Y-76250000D02*
X164350000Y-76250000D01*
X164350000Y-76250000D02*
X164350000Y-75500000D01*
X164350000Y-75500000D02*
X164550000Y-75500000D01*
X164550000Y-75500000D02*
X164550000Y-74700000D01*
X164550000Y-74700000D02*
X164350000Y-74700000D01*
X164350000Y-74700000D02*
X164350000Y-73850000D01*
X164350000Y-73850000D02*
X161375000Y-73850000D01*
X157600000Y-77050000D02*
X157600000Y-76050000D01*
X157600000Y-77050000D02*
X158600000Y-77050000D01*
X130390000Y-73340000D02*
X130390000Y-76760000D01*
X130390000Y-76760000D02*
X137360000Y-76760000D01*
X137360000Y-76760000D02*
X137360000Y-73340000D01*
X137360000Y-73340000D02*
X130390000Y-73340000D01*
X133875000Y-76250000D02*
X130900000Y-76250000D01*
X130900000Y-76250000D02*
X130900000Y-75500000D01*
X130900000Y-75500000D02*
X130700000Y-75500000D01*
X130700000Y-75500000D02*
X130700000Y-74700000D01*
X130700000Y-74700000D02*
X130900000Y-74700000D01*
X130900000Y-74700000D02*
X130900000Y-73850000D01*
X130900000Y-73850000D02*
X133875000Y-73850000D01*
X133875000Y-76250000D02*
X136850000Y-76250000D01*
X136850000Y-76250000D02*
X136850000Y-75500000D01*
X136850000Y-75500000D02*
X137050000Y-75500000D01*
X137050000Y-75500000D02*
X137050000Y-74700000D01*
X137050000Y-74700000D02*
X136850000Y-74700000D01*
X136850000Y-74700000D02*
X136850000Y-73850000D01*
X136850000Y-73850000D02*
X133875000Y-73850000D01*
X130100000Y-77050000D02*
X130100000Y-76050000D01*
X130100000Y-77050000D02*
X131100000Y-77050000D01*
X157890000Y-57840000D02*
X157890000Y-61260000D01*
X157890000Y-61260000D02*
X164860000Y-61260000D01*
X164860000Y-61260000D02*
X164860000Y-57840000D01*
X164860000Y-57840000D02*
X157890000Y-57840000D01*
X161375000Y-60750000D02*
X158400000Y-60750000D01*
X158400000Y-60750000D02*
X158400000Y-60000000D01*
X158400000Y-60000000D02*
X158200000Y-60000000D01*
X158200000Y-60000000D02*
X158200000Y-59200000D01*
X158200000Y-59200000D02*
X158400000Y-59200000D01*
X158400000Y-59200000D02*
X158400000Y-58350000D01*
X158400000Y-58350000D02*
X161375000Y-58350000D01*
X161375000Y-60750000D02*
X164350000Y-60750000D01*
X164350000Y-60750000D02*
X164350000Y-60000000D01*
X164350000Y-60000000D02*
X164550000Y-60000000D01*
X164550000Y-60000000D02*
X164550000Y-59200000D01*
X164550000Y-59200000D02*
X164350000Y-59200000D01*
X164350000Y-59200000D02*
X164350000Y-58350000D01*
X164350000Y-58350000D02*
X161375000Y-58350000D01*
X157600000Y-61550000D02*
X157600000Y-60550000D01*
X157600000Y-61550000D02*
X158600000Y-61550000D01*
%TO.C,Q4*%
X171760000Y-82430000D02*
X171760000Y-81500000D01*
X171760000Y-79270000D02*
X171760000Y-80200000D01*
X171760000Y-79270000D02*
X169600000Y-79270000D01*
X171760000Y-82430000D02*
X170300000Y-82430000D01*
X144260000Y-82430000D02*
X144260000Y-81500000D01*
X144260000Y-79270000D02*
X144260000Y-80200000D01*
X144260000Y-79270000D02*
X142100000Y-79270000D01*
X144260000Y-82430000D02*
X142800000Y-82430000D01*
X171760000Y-66930000D02*
X171760000Y-66000000D01*
X171760000Y-63770000D02*
X171760000Y-64700000D01*
X171760000Y-63770000D02*
X169600000Y-63770000D01*
X171760000Y-66930000D02*
X170300000Y-66930000D01*
X144260000Y-66930000D02*
X144260000Y-66000000D01*
X144260000Y-63770000D02*
X144260000Y-64700000D01*
X144260000Y-63770000D02*
X142100000Y-63770000D01*
X144260000Y-66930000D02*
X142800000Y-66930000D01*
X171760000Y-51430000D02*
X171760000Y-50500000D01*
X171760000Y-48270000D02*
X171760000Y-49200000D01*
X171760000Y-48270000D02*
X169600000Y-48270000D01*
X171760000Y-51430000D02*
X170300000Y-51430000D01*
%TO.C,U1*%
X162862500Y-88710000D02*
X165062500Y-88710000D01*
X162862500Y-88710000D02*
X160662500Y-88710000D01*
X162862500Y-81940000D02*
X165062500Y-81940000D01*
X162862500Y-81940000D02*
X159262500Y-81940000D01*
X135362500Y-88710000D02*
X137562500Y-88710000D01*
X135362500Y-88710000D02*
X133162500Y-88710000D01*
X135362500Y-81940000D02*
X137562500Y-81940000D01*
X135362500Y-81940000D02*
X131762500Y-81940000D01*
X162862500Y-73210000D02*
X165062500Y-73210000D01*
X162862500Y-73210000D02*
X160662500Y-73210000D01*
X162862500Y-66440000D02*
X165062500Y-66440000D01*
X162862500Y-66440000D02*
X159262500Y-66440000D01*
X135362500Y-73210000D02*
X137562500Y-73210000D01*
X135362500Y-73210000D02*
X133162500Y-73210000D01*
X135362500Y-66440000D02*
X137562500Y-66440000D01*
X135362500Y-66440000D02*
X131762500Y-66440000D01*
X162862500Y-57710000D02*
X165062500Y-57710000D01*
X162862500Y-57710000D02*
X160662500Y-57710000D01*
X162862500Y-50940000D02*
X165062500Y-50940000D01*
X162862500Y-50940000D02*
X159262500Y-50940000D01*
%TO.C,C8*%
X162240000Y-80375279D02*
X162240000Y-80049721D01*
X163260000Y-80375279D02*
X163260000Y-80049721D01*
X134740000Y-80375279D02*
X134740000Y-80049721D01*
X135760000Y-80375279D02*
X135760000Y-80049721D01*
X162240000Y-64875279D02*
X162240000Y-64549721D01*
X163260000Y-64875279D02*
X163260000Y-64549721D01*
X134740000Y-64875279D02*
X134740000Y-64549721D01*
X135760000Y-64875279D02*
X135760000Y-64549721D01*
X162240000Y-49375279D02*
X162240000Y-49049721D01*
X163260000Y-49375279D02*
X163260000Y-49049721D01*
%TO.C,J3*%
X153660000Y-81940000D02*
X150240000Y-81940000D01*
X150240000Y-81940000D02*
X150240000Y-88910000D01*
X150240000Y-88910000D02*
X153660000Y-88910000D01*
X153660000Y-88910000D02*
X153660000Y-81940000D01*
X150750000Y-85425000D02*
X150750000Y-82450000D01*
X150750000Y-82450000D02*
X151500000Y-82450000D01*
X151500000Y-82450000D02*
X151500000Y-82250000D01*
X151500000Y-82250000D02*
X152300000Y-82250000D01*
X152300000Y-82250000D02*
X152300000Y-82450000D01*
X152300000Y-82450000D02*
X153150000Y-82450000D01*
X153150000Y-82450000D02*
X153150000Y-85425000D01*
X150750000Y-85425000D02*
X150750000Y-88400000D01*
X150750000Y-88400000D02*
X151500000Y-88400000D01*
X151500000Y-88400000D02*
X151500000Y-88600000D01*
X151500000Y-88600000D02*
X152300000Y-88600000D01*
X152300000Y-88600000D02*
X152300000Y-88400000D01*
X152300000Y-88400000D02*
X153150000Y-88400000D01*
X153150000Y-88400000D02*
X153150000Y-85425000D01*
X149950000Y-81650000D02*
X150950000Y-81650000D01*
X149950000Y-81650000D02*
X149950000Y-82650000D01*
X126160000Y-81940000D02*
X122740000Y-81940000D01*
X122740000Y-81940000D02*
X122740000Y-88910000D01*
X122740000Y-88910000D02*
X126160000Y-88910000D01*
X126160000Y-88910000D02*
X126160000Y-81940000D01*
X123250000Y-85425000D02*
X123250000Y-82450000D01*
X123250000Y-82450000D02*
X124000000Y-82450000D01*
X124000000Y-82450000D02*
X124000000Y-82250000D01*
X124000000Y-82250000D02*
X124800000Y-82250000D01*
X124800000Y-82250000D02*
X124800000Y-82450000D01*
X124800000Y-82450000D02*
X125650000Y-82450000D01*
X125650000Y-82450000D02*
X125650000Y-85425000D01*
X123250000Y-85425000D02*
X123250000Y-88400000D01*
X123250000Y-88400000D02*
X124000000Y-88400000D01*
X124000000Y-88400000D02*
X124000000Y-88600000D01*
X124000000Y-88600000D02*
X124800000Y-88600000D01*
X124800000Y-88600000D02*
X124800000Y-88400000D01*
X124800000Y-88400000D02*
X125650000Y-88400000D01*
X125650000Y-88400000D02*
X125650000Y-85425000D01*
X122450000Y-81650000D02*
X123450000Y-81650000D01*
X122450000Y-81650000D02*
X122450000Y-82650000D01*
X153660000Y-66440000D02*
X150240000Y-66440000D01*
X150240000Y-66440000D02*
X150240000Y-73410000D01*
X150240000Y-73410000D02*
X153660000Y-73410000D01*
X153660000Y-73410000D02*
X153660000Y-66440000D01*
X150750000Y-69925000D02*
X150750000Y-66950000D01*
X150750000Y-66950000D02*
X151500000Y-66950000D01*
X151500000Y-66950000D02*
X151500000Y-66750000D01*
X151500000Y-66750000D02*
X152300000Y-66750000D01*
X152300000Y-66750000D02*
X152300000Y-66950000D01*
X152300000Y-66950000D02*
X153150000Y-66950000D01*
X153150000Y-66950000D02*
X153150000Y-69925000D01*
X150750000Y-69925000D02*
X150750000Y-72900000D01*
X150750000Y-72900000D02*
X151500000Y-72900000D01*
X151500000Y-72900000D02*
X151500000Y-73100000D01*
X151500000Y-73100000D02*
X152300000Y-73100000D01*
X152300000Y-73100000D02*
X152300000Y-72900000D01*
X152300000Y-72900000D02*
X153150000Y-72900000D01*
X153150000Y-72900000D02*
X153150000Y-69925000D01*
X149950000Y-66150000D02*
X150950000Y-66150000D01*
X149950000Y-66150000D02*
X149950000Y-67150000D01*
X126160000Y-66440000D02*
X122740000Y-66440000D01*
X122740000Y-66440000D02*
X122740000Y-73410000D01*
X122740000Y-73410000D02*
X126160000Y-73410000D01*
X126160000Y-73410000D02*
X126160000Y-66440000D01*
X123250000Y-69925000D02*
X123250000Y-66950000D01*
X123250000Y-66950000D02*
X124000000Y-66950000D01*
X124000000Y-66950000D02*
X124000000Y-66750000D01*
X124000000Y-66750000D02*
X124800000Y-66750000D01*
X124800000Y-66750000D02*
X124800000Y-66950000D01*
X124800000Y-66950000D02*
X125650000Y-66950000D01*
X125650000Y-66950000D02*
X125650000Y-69925000D01*
X123250000Y-69925000D02*
X123250000Y-72900000D01*
X123250000Y-72900000D02*
X124000000Y-72900000D01*
X124000000Y-72900000D02*
X124000000Y-73100000D01*
X124000000Y-73100000D02*
X124800000Y-73100000D01*
X124800000Y-73100000D02*
X124800000Y-72900000D01*
X124800000Y-72900000D02*
X125650000Y-72900000D01*
X125650000Y-72900000D02*
X125650000Y-69925000D01*
X122450000Y-66150000D02*
X123450000Y-66150000D01*
X122450000Y-66150000D02*
X122450000Y-67150000D01*
X153660000Y-50940000D02*
X150240000Y-50940000D01*
X150240000Y-50940000D02*
X150240000Y-57910000D01*
X150240000Y-57910000D02*
X153660000Y-57910000D01*
X153660000Y-57910000D02*
X153660000Y-50940000D01*
X150750000Y-54425000D02*
X150750000Y-51450000D01*
X150750000Y-51450000D02*
X151500000Y-51450000D01*
X151500000Y-51450000D02*
X151500000Y-51250000D01*
X151500000Y-51250000D02*
X152300000Y-51250000D01*
X152300000Y-51250000D02*
X152300000Y-51450000D01*
X152300000Y-51450000D02*
X153150000Y-51450000D01*
X153150000Y-51450000D02*
X153150000Y-54425000D01*
X150750000Y-54425000D02*
X150750000Y-57400000D01*
X150750000Y-57400000D02*
X151500000Y-57400000D01*
X151500000Y-57400000D02*
X151500000Y-57600000D01*
X151500000Y-57600000D02*
X152300000Y-57600000D01*
X152300000Y-57600000D02*
X152300000Y-57400000D01*
X152300000Y-57400000D02*
X153150000Y-57400000D01*
X153150000Y-57400000D02*
X153150000Y-54425000D01*
X149950000Y-50650000D02*
X150950000Y-50650000D01*
X149950000Y-50650000D02*
X149950000Y-51650000D01*
%TO.C,D4*%
X154487500Y-89735000D02*
X156772500Y-89735000D01*
X156772500Y-89735000D02*
X156772500Y-88265000D01*
X156772500Y-88265000D02*
X154487500Y-88265000D01*
X126987500Y-89735000D02*
X129272500Y-89735000D01*
X129272500Y-89735000D02*
X129272500Y-88265000D01*
X129272500Y-88265000D02*
X126987500Y-88265000D01*
X154487500Y-74235000D02*
X156772500Y-74235000D01*
X156772500Y-74235000D02*
X156772500Y-72765000D01*
X156772500Y-72765000D02*
X154487500Y-72765000D01*
X126987500Y-74235000D02*
X129272500Y-74235000D01*
X129272500Y-74235000D02*
X129272500Y-72765000D01*
X129272500Y-72765000D02*
X126987500Y-72765000D01*
X154487500Y-58735000D02*
X156772500Y-58735000D01*
X156772500Y-58735000D02*
X156772500Y-57265000D01*
X156772500Y-57265000D02*
X154487500Y-57265000D01*
%TO.C,Q3*%
X171760000Y-91830000D02*
X171760000Y-90900000D01*
X171760000Y-88670000D02*
X171760000Y-89600000D01*
X171760000Y-88670000D02*
X169600000Y-88670000D01*
X171760000Y-91830000D02*
X170300000Y-91830000D01*
X144260000Y-91830000D02*
X144260000Y-90900000D01*
X144260000Y-88670000D02*
X144260000Y-89600000D01*
X144260000Y-88670000D02*
X142100000Y-88670000D01*
X144260000Y-91830000D02*
X142800000Y-91830000D01*
X171760000Y-76330000D02*
X171760000Y-75400000D01*
X171760000Y-73170000D02*
X171760000Y-74100000D01*
X171760000Y-73170000D02*
X169600000Y-73170000D01*
X171760000Y-76330000D02*
X170300000Y-76330000D01*
X144260000Y-76330000D02*
X144260000Y-75400000D01*
X144260000Y-73170000D02*
X144260000Y-74100000D01*
X144260000Y-73170000D02*
X142100000Y-73170000D01*
X144260000Y-76330000D02*
X142800000Y-76330000D01*
X171760000Y-60830000D02*
X171760000Y-59900000D01*
X171760000Y-57670000D02*
X171760000Y-58600000D01*
X171760000Y-57670000D02*
X169600000Y-57670000D01*
X171760000Y-60830000D02*
X170300000Y-60830000D01*
%TO.C,J6*%
X149890000Y-80260000D02*
X152110000Y-80260000D01*
X149890000Y-80260000D02*
X149890000Y-80195000D01*
X152110000Y-80260000D02*
X152110000Y-80195000D01*
X149890000Y-80260000D02*
X150436529Y-80260000D01*
X151563471Y-80260000D02*
X152110000Y-80260000D01*
X149890000Y-79500000D02*
X149890000Y-78740000D01*
X149890000Y-78740000D02*
X151000000Y-78740000D01*
X122390000Y-80260000D02*
X124610000Y-80260000D01*
X122390000Y-80260000D02*
X122390000Y-80195000D01*
X124610000Y-80260000D02*
X124610000Y-80195000D01*
X122390000Y-80260000D02*
X122936529Y-80260000D01*
X124063471Y-80260000D02*
X124610000Y-80260000D01*
X122390000Y-79500000D02*
X122390000Y-78740000D01*
X122390000Y-78740000D02*
X123500000Y-78740000D01*
X149890000Y-64760000D02*
X152110000Y-64760000D01*
X149890000Y-64760000D02*
X149890000Y-64695000D01*
X152110000Y-64760000D02*
X152110000Y-64695000D01*
X149890000Y-64760000D02*
X150436529Y-64760000D01*
X151563471Y-64760000D02*
X152110000Y-64760000D01*
X149890000Y-64000000D02*
X149890000Y-63240000D01*
X149890000Y-63240000D02*
X151000000Y-63240000D01*
X122390000Y-64760000D02*
X124610000Y-64760000D01*
X122390000Y-64760000D02*
X122390000Y-64695000D01*
X124610000Y-64760000D02*
X124610000Y-64695000D01*
X122390000Y-64760000D02*
X122936529Y-64760000D01*
X124063471Y-64760000D02*
X124610000Y-64760000D01*
X122390000Y-64000000D02*
X122390000Y-63240000D01*
X122390000Y-63240000D02*
X123500000Y-63240000D01*
X149890000Y-49260000D02*
X152110000Y-49260000D01*
X149890000Y-49260000D02*
X149890000Y-49195000D01*
X152110000Y-49260000D02*
X152110000Y-49195000D01*
X149890000Y-49260000D02*
X150436529Y-49260000D01*
X151563471Y-49260000D02*
X152110000Y-49260000D01*
X149890000Y-48500000D02*
X149890000Y-47740000D01*
X149890000Y-47740000D02*
X151000000Y-47740000D01*
D12*
%TO.C,U2*%
X127260000Y-51400000D02*
X127660000Y-51400000D01*
X127260000Y-51000000D02*
X127260000Y-51400000D01*
X127260000Y-48000000D02*
X127660000Y-48000000D01*
X127260000Y-48400000D02*
X127260000Y-48000000D01*
X130660000Y-48000000D02*
X130660000Y-48400000D01*
X130660000Y-48000000D02*
X130260000Y-48000000D01*
X130460000Y-51000000D02*
X130760000Y-51000000D01*
X130160000Y-51300000D02*
X130460000Y-51000000D01*
D13*
%TO.C,C9*%
X133260000Y-49375279D02*
X133260000Y-49049721D01*
X132240000Y-49375279D02*
X132240000Y-49049721D01*
%TO.C,C8*%
X135760000Y-49375279D02*
X135760000Y-49049721D01*
X134740000Y-49375279D02*
X134740000Y-49049721D01*
%TO.C,C6*%
X134510000Y-49375279D02*
X134510000Y-49049721D01*
X133490000Y-49375279D02*
X133490000Y-49049721D01*
%TO.C,C2*%
X125710000Y-49475279D02*
X125710000Y-49149721D01*
X124690000Y-49475279D02*
X124690000Y-49149721D01*
%TO.C,U1*%
X135362500Y-50940000D02*
X131762500Y-50940000D01*
X135362500Y-50940000D02*
X137562500Y-50940000D01*
X135362500Y-57710000D02*
X133162500Y-57710000D01*
X135362500Y-57710000D02*
X137562500Y-57710000D01*
%TO.C,Q4*%
X144260000Y-51430000D02*
X142800000Y-51430000D01*
X144260000Y-48270000D02*
X142100000Y-48270000D01*
X144260000Y-48270000D02*
X144260000Y-49200000D01*
X144260000Y-51430000D02*
X144260000Y-50500000D01*
%TO.C,Q3*%
X144260000Y-60830000D02*
X142800000Y-60830000D01*
X144260000Y-57670000D02*
X142100000Y-57670000D01*
X144260000Y-57670000D02*
X144260000Y-58600000D01*
X144260000Y-60830000D02*
X144260000Y-59900000D01*
%TO.C,J6*%
X122390000Y-47740000D02*
X123500000Y-47740000D01*
X122390000Y-48500000D02*
X122390000Y-47740000D01*
X124063471Y-49260000D02*
X124610000Y-49260000D01*
X122390000Y-49260000D02*
X122936529Y-49260000D01*
X124610000Y-49260000D02*
X124610000Y-49195000D01*
X122390000Y-49260000D02*
X122390000Y-49195000D01*
X122390000Y-49260000D02*
X124610000Y-49260000D01*
%TO.C,J5*%
X130100000Y-61550000D02*
X131100000Y-61550000D01*
X130100000Y-61550000D02*
X130100000Y-60550000D01*
X136850000Y-58350000D02*
X133875000Y-58350000D01*
X136850000Y-59200000D02*
X136850000Y-58350000D01*
X137050000Y-59200000D02*
X136850000Y-59200000D01*
X137050000Y-60000000D02*
X137050000Y-59200000D01*
X136850000Y-60000000D02*
X137050000Y-60000000D01*
X136850000Y-60750000D02*
X136850000Y-60000000D01*
X133875000Y-60750000D02*
X136850000Y-60750000D01*
X130900000Y-58350000D02*
X133875000Y-58350000D01*
X130900000Y-59200000D02*
X130900000Y-58350000D01*
X130700000Y-59200000D02*
X130900000Y-59200000D01*
X130700000Y-60000000D02*
X130700000Y-59200000D01*
X130900000Y-60000000D02*
X130700000Y-60000000D01*
X130900000Y-60750000D02*
X130900000Y-60000000D01*
X133875000Y-60750000D02*
X130900000Y-60750000D01*
X137360000Y-57840000D02*
X130390000Y-57840000D01*
X137360000Y-61260000D02*
X137360000Y-57840000D01*
X130390000Y-61260000D02*
X137360000Y-61260000D01*
X130390000Y-57840000D02*
X130390000Y-61260000D01*
%TO.C,J4*%
X122390000Y-59240000D02*
X123500000Y-59240000D01*
X122390000Y-60000000D02*
X122390000Y-59240000D01*
X124063471Y-60760000D02*
X124610000Y-60760000D01*
X122390000Y-60760000D02*
X122936529Y-60760000D01*
X124610000Y-60760000D02*
X124610000Y-60695000D01*
X122390000Y-60760000D02*
X122390000Y-60695000D01*
X122390000Y-60760000D02*
X124610000Y-60760000D01*
%TO.C,J3*%
X122450000Y-50650000D02*
X122450000Y-51650000D01*
X122450000Y-50650000D02*
X123450000Y-50650000D01*
X125650000Y-57400000D02*
X125650000Y-54425000D01*
X124800000Y-57400000D02*
X125650000Y-57400000D01*
X124800000Y-57600000D02*
X124800000Y-57400000D01*
X124000000Y-57600000D02*
X124800000Y-57600000D01*
X124000000Y-57400000D02*
X124000000Y-57600000D01*
X123250000Y-57400000D02*
X124000000Y-57400000D01*
X123250000Y-54425000D02*
X123250000Y-57400000D01*
X125650000Y-51450000D02*
X125650000Y-54425000D01*
X124800000Y-51450000D02*
X125650000Y-51450000D01*
X124800000Y-51250000D02*
X124800000Y-51450000D01*
X124000000Y-51250000D02*
X124800000Y-51250000D01*
X124000000Y-51450000D02*
X124000000Y-51250000D01*
X123250000Y-51450000D02*
X124000000Y-51450000D01*
X123250000Y-54425000D02*
X123250000Y-51450000D01*
X126160000Y-57910000D02*
X126160000Y-50940000D01*
X122740000Y-57910000D02*
X126160000Y-57910000D01*
X122740000Y-50940000D02*
X122740000Y-57910000D01*
X126160000Y-50940000D02*
X122740000Y-50940000D01*
%TO.C,J2*%
X148050000Y-52150000D02*
X148050000Y-51150000D01*
X148050000Y-52150000D02*
X147050000Y-52150000D01*
X144850000Y-47900000D02*
X144850000Y-49625000D01*
X145700000Y-47900000D02*
X144850000Y-47900000D01*
X145700000Y-47700000D02*
X145700000Y-47900000D01*
X146500000Y-47700000D02*
X145700000Y-47700000D01*
X146500000Y-47900000D02*
X146500000Y-47700000D01*
X147250000Y-47900000D02*
X146500000Y-47900000D01*
X147250000Y-49625000D02*
X147250000Y-47900000D01*
X144850000Y-51350000D02*
X144850000Y-49625000D01*
X145700000Y-51350000D02*
X144850000Y-51350000D01*
X145700000Y-51550000D02*
X145700000Y-51350000D01*
X146500000Y-51550000D02*
X145700000Y-51550000D01*
X146500000Y-51350000D02*
X146500000Y-51550000D01*
X147250000Y-51350000D02*
X146500000Y-51350000D01*
X147250000Y-49625000D02*
X147250000Y-51350000D01*
X144340000Y-47390000D02*
X144340000Y-51860000D01*
X147760000Y-47390000D02*
X144340000Y-47390000D01*
X147760000Y-51860000D02*
X147760000Y-47390000D01*
X144340000Y-51860000D02*
X147760000Y-51860000D01*
%TO.C,J1*%
X148050000Y-61650000D02*
X148050000Y-60650000D01*
X148050000Y-61650000D02*
X147050000Y-61650000D01*
X144850000Y-57400000D02*
X144850000Y-59125000D01*
X145700000Y-57400000D02*
X144850000Y-57400000D01*
X145700000Y-57200000D02*
X145700000Y-57400000D01*
X146500000Y-57200000D02*
X145700000Y-57200000D01*
X146500000Y-57400000D02*
X146500000Y-57200000D01*
X147250000Y-57400000D02*
X146500000Y-57400000D01*
X147250000Y-59125000D02*
X147250000Y-57400000D01*
X144850000Y-60850000D02*
X144850000Y-59125000D01*
X145700000Y-60850000D02*
X144850000Y-60850000D01*
X145700000Y-61050000D02*
X145700000Y-60850000D01*
X146500000Y-61050000D02*
X145700000Y-61050000D01*
X146500000Y-60850000D02*
X146500000Y-61050000D01*
X147250000Y-60850000D02*
X146500000Y-60850000D01*
X147250000Y-59125000D02*
X147250000Y-60850000D01*
X144340000Y-56890000D02*
X144340000Y-61360000D01*
X147760000Y-56890000D02*
X144340000Y-56890000D01*
X147760000Y-61360000D02*
X147760000Y-56890000D01*
X144340000Y-61360000D02*
X147760000Y-61360000D01*
%TO.C,D4*%
X129272500Y-57265000D02*
X126987500Y-57265000D01*
X129272500Y-58735000D02*
X129272500Y-57265000D01*
X126987500Y-58735000D02*
X129272500Y-58735000D01*
%TO.C,D3*%
X147600000Y-54250000D02*
X143700000Y-54250000D01*
X147600000Y-52250000D02*
X143700000Y-52250000D01*
X147600000Y-54250000D02*
X147600000Y-52250000D01*
%TO.C,D2*%
X147600000Y-56250000D02*
X143700000Y-56250000D01*
X147600000Y-54250000D02*
X143700000Y-54250000D01*
X147600000Y-56250000D02*
X147600000Y-54250000D01*
%TO.C,D1*%
X129272500Y-58765000D02*
X126987500Y-58765000D01*
X129272500Y-60235000D02*
X129272500Y-58765000D01*
X126987500Y-60235000D02*
X129272500Y-60235000D01*
%TO.C,*%
D10*
%TD*%
M02*
